<svg width="94" height="94" viewBox="0 0 94 94" fill="none" xmlns="http://www.w3.org/2000/svg">
<rect width="93.0855" height="93.0855" rx="46.5428" fill="white"/>
<g clip-path="url(#clip0_996_77)">
<path d="M49.7742 90.1996H42.9637C42.8327 89.9159 42.5708 90.0468 42.3743 90.025C37.5061 89.5949 32.7534 88.3014 28.3387 86.205C21.7112 83.2062 15.9479 78.5831 11.5827 72.7641C7.21754 66.9451 4.39167 60.1185 3.36694 52.9167C3.31737 51.9697 3.15618 51.0319 2.88672 50.1227L2.88672 42.7883C3.14866 42.7883 3.03952 42.4609 3.06135 42.2863C3.30146 40.7583 3.47609 39.1866 3.78168 37.6587C5.60468 28.904 10.0722 20.9203 16.5801 14.7871C23.088 8.65402 31.3223 4.66735 40.1697 3.36621C41.1738 3.31497 42.1693 3.15393 43.1383 2.88599L49.9488 2.88599C49.9488 3.10427 50.2326 3.03879 50.3853 3.03879C56.6542 3.55105 62.7272 5.46845 68.1537 8.64869C73.9219 11.9006 78.8662 16.4339 82.6054 21.8988C86.3445 27.3638 88.7787 33.6145 89.7202 40.1689C89.7714 41.173 89.9324 42.1685 90.2004 43.1376V50.1227C89.9568 50.8624 89.8316 51.6359 89.8293 52.4147C88.5334 61.7825 84.2395 70.4791 77.5898 77.2036C70.9401 83.928 62.2921 88.3189 52.9393 89.7194C51.8715 89.78 50.8118 89.9408 49.7742 90.1996ZM39.995 42.7447C42.2103 42.7625 44.386 43.3327 46.3253 44.4036C46.6527 44.5783 46.871 44.4036 47.1111 44.2508C48.1897 43.683 49.3436 43.2714 50.5382 43.0284C51.3458 42.8756 52.1971 42.8102 53.1139 42.6792C52.4671 41.5588 51.5386 40.6269 50.4205 39.976C49.3025 39.325 48.0337 38.9777 46.74 38.9684C45.3798 38.9319 44.035 39.2635 42.8478 39.9282C41.6605 40.5929 40.6749 41.566 39.995 42.7447ZM67.8917 46.5428L59.1604 42.4609C59.551 43.789 59.7783 45.1597 59.8371 46.5428C59.7863 47.9349 59.5887 49.3178 59.2477 50.6684L67.8917 46.5428ZM46.5435 59.8582L53.0921 66.8432L54.2926 57.3042C52.0148 58.8947 49.3207 59.7826 46.5435 59.8582ZM46.5435 33.2275C49.3174 33.3029 52.0095 34.1826 54.2926 35.7596L53.0921 26.2424L46.5435 33.2275ZM29.4082 58.854L29.561 59.0505L38.7071 57.2824C36.5017 55.61 34.8265 53.3359 33.8831 50.7339L29.4082 58.854ZM39.995 66.8432L46.5435 59.8582C43.7697 59.7828 41.0776 58.9031 38.7945 57.3261L39.995 66.8432ZM38.7945 35.7814C41.074 34.1944 43.7671 33.3068 46.5435 33.2275L39.995 26.2424L38.7945 35.7814ZM29.6047 34.0351L29.4519 34.2316L33.9486 42.3954C34.8702 39.7877 36.5407 37.5098 38.7508 35.8469L29.6047 34.0351ZM63.8535 34.0351L54.4236 35.8251C56.6328 37.4889 58.303 39.7665 59.2259 42.3736L63.8535 34.0351ZM59.204 50.6902C58.2687 53.2907 56.6009 55.565 54.4018 57.2387L63.8098 59.0287L59.204 50.6902ZM25.2172 46.5428L33.9486 50.6247C33.1415 47.9707 33.1415 45.1367 33.9486 42.4827L25.2172 46.5428ZM46.5435 54.1391C47.2418 54.1219 47.9366 54.0341 48.6173 53.8772C49.032 53.768 49.2066 53.6371 49.032 53.1787C48.5984 51.8873 47.9162 50.6934 47.0238 49.6643C46.6963 49.2932 46.4999 49.3587 46.2161 49.6643C45.736 50.2176 45.3119 50.8172 44.9501 51.4542C43.6622 53.6589 43.8805 54.03 46.5435 54.1391ZM52.459 51.3887C53.491 50.1584 54.0961 48.6265 54.1835 47.023C54.1835 46.6083 54.0744 46.4773 53.6596 46.4555C52.5572 46.4208 51.4571 46.5759 50.4072 46.9139C50.1234 46.9139 49.9051 47.0885 50.1671 47.4378C51.1092 48.6279 51.8536 49.962 52.3717 51.3887H52.459ZM40.8027 51.3887C41.3242 50.0015 42.0608 48.7051 42.9855 47.5469C43.2693 47.1977 43.1383 47.0885 42.7891 46.9794C41.778 46.6708 40.7246 46.5235 39.6676 46.5428C39.0782 46.5428 38.9473 46.7829 39.0127 47.3068C39.1638 48.8125 39.7561 50.2402 40.7154 51.4106L40.8027 51.3887Z" fill="#D70127"/>
<path d="M39.9951 42.7446C40.675 41.5659 41.6606 40.5928 42.8479 39.9281C44.0351 39.2634 45.3799 38.9318 46.7401 38.9683C48.0301 38.9814 49.2944 39.3306 50.4083 39.9813C51.5222 40.632 52.4472 41.5619 53.0922 42.6791C52.1754 42.8101 51.3241 42.8756 50.5164 43.0284C49.3219 43.2713 48.168 43.6829 47.0894 44.2508C46.8492 44.3817 46.631 44.5782 46.3035 44.4036C44.3708 43.3361 42.2029 42.766 39.9951 42.7446Z" fill="#FDD543"/>
<path d="M67.8915 46.5427L59.1602 50.6246C59.5277 49.2913 59.7545 47.9232 59.8368 46.5427C59.7888 45.176 59.5762 43.8202 59.2038 42.5044L67.8915 46.5427Z" fill="#FDD543"/>
<path d="M46.543 59.8581C49.3201 59.7826 52.0142 58.8947 54.2921 57.3042L53.0915 66.8432L46.543 59.8581Z" fill="#FDD543"/>
<path d="M46.543 33.2275L53.0915 26.2424L54.2921 35.7596C52.0089 34.1826 49.3168 33.3029 46.543 33.2275Z" fill="#FDD543"/>
<path d="M29.4082 58.854L33.7739 50.6902C34.7174 53.2922 36.3926 55.5663 38.598 57.2387L29.4519 59.0068L29.4082 58.854Z" fill="#FDD543"/>
<path d="M39.9945 66.8431L38.7939 57.3259C41.0771 58.9029 43.7692 59.7826 46.543 59.858L39.9945 66.8431Z" fill="#FDD543"/>
<path d="M38.751 35.7814L39.9952 26.2424L46.5437 33.2275C43.7523 33.2984 41.0429 34.1863 38.751 35.7814Z" fill="#FDD543"/>
<path d="M29.561 34.0352L38.7071 35.8033C36.497 37.4661 34.8265 39.744 33.9049 42.3518L29.4082 34.188L29.561 34.0352Z" fill="#FDD543"/>
<path d="M63.8098 34.0132L59.1821 42.3953C58.2593 39.7882 56.5891 37.5106 54.3799 35.8468L63.8098 34.0132Z" fill="#FDD543"/>
<path d="M59.2036 50.6902L63.8094 59.0723L54.4014 57.2824C56.6073 55.5969 58.2757 53.3066 59.2036 50.6902Z" fill="#FDD543"/>
<path d="M25.2168 46.5428L33.9482 42.4827C33.1411 45.1367 33.1411 47.9707 33.9482 50.6247L25.2168 46.5428Z" fill="#FDD543"/>
<path d="M46.5431 54.139C43.9674 54.0298 43.7491 53.6587 44.9496 51.4759C45.3115 50.8389 45.7356 50.2393 46.2157 49.686C46.4995 49.3585 46.6959 49.2931 47.0233 49.686C47.8725 50.6899 48.5242 51.8452 48.9442 53.0912C49.1189 53.5496 48.9442 53.6806 48.5295 53.7897C47.8803 53.9704 47.215 54.0874 46.5431 54.139Z" fill="#FDD543"/>
<path d="M52.3717 51.3885C51.8184 49.9868 51.0447 48.6824 50.0798 47.5249C49.8178 47.1756 50.0798 47.0883 50.3199 47.001C51.3697 46.663 52.4699 46.5079 53.5723 46.5426C53.987 46.5426 54.1398 46.6954 54.0962 47.1101C53.9904 48.6832 53.3864 50.1817 52.3717 51.3885Z" fill="#FDD543"/>
<path d="M40.7153 51.4105C39.756 50.2401 39.1637 48.8125 39.0127 47.3068C39.0127 46.7829 39.0127 46.5209 39.6676 46.5428C40.7184 46.5328 41.7642 46.6875 42.7672 47.0012C43.1164 47.1103 43.2474 47.2194 42.9636 47.5687C42.0158 48.7224 41.257 50.0191 40.7153 51.4105Z" fill="#FDD543"/>
</g>
<defs>
<clipPath id="clip0_996_77">
<rect width="87.27" height="87.27" fill="white" transform="translate(2.9082 2.90771)"/>
</clipPath>
</defs>
</svg>
