<svg width="94" height="94" viewBox="0 0 94 94" fill="none" xmlns="http://www.w3.org/2000/svg">
<rect width="93.0855" height="93.0855" rx="46.5428" fill="white"/>
<g clip-path="url(#clip0_996_1957)">
<path d="M46.635 90.27C70.7339 90.27 90.27 70.7339 90.27 46.635C90.27 22.5361 70.7339 3 46.635 3C22.5361 3 3 22.5361 3 46.635C3 70.7339 22.5361 90.27 46.635 90.27Z" fill="#FEFDFD"/>
<path d="M50.0383 3C51.1235 3.2434 52.2243 3.41107 53.3328 3.5018C60.3157 4.55341 66.935 7.2983 72.613 11.4969C78.2909 15.6954 82.8548 21.22 85.9063 27.5883C85.9251 27.6819 85.9251 27.7783 85.9063 27.8719H7.36328C8.25815 25.8238 9.3467 23.8659 10.6141 22.0249C16.9118 12.7652 26.5408 6.29377 37.4932 3.95997C39.2111 3.57796 40.9534 3.31552 42.7076 3.17454C42.8822 3.17454 43.1222 3.17454 43.2313 3.02182L50.0383 3Z" fill="#CB0000"/>
<path d="M43.2316 90.2699C42.1997 90.0132 41.1492 89.8381 40.0899 89.7463C33.0809 88.7144 26.4321 85.9789 20.7264 81.7795C15.0207 77.5801 10.4324 72.0451 7.36361 65.6598C7.35406 65.5727 7.35406 65.485 7.36361 65.3979H85.9066C86.0593 65.5943 85.9066 65.747 85.7757 65.8998C82.7028 72.1513 78.1779 77.5763 72.5793 81.7212C66.9807 85.866 60.4711 88.6103 53.5949 89.7245C52.3077 89.9426 50.9768 89.9208 49.7114 90.2481L43.2316 90.2699Z" fill="#006600"/>
<path d="M50.1262 45.2604C49.9081 45.2604 49.799 45.064 49.6462 44.9767C49.4244 44.8187 49.1639 44.7238 48.8923 44.7022C48.6208 44.6806 48.3486 44.733 48.1045 44.8539C47.8604 44.9748 47.6537 45.1597 47.5065 45.3888C47.3592 45.6179 47.2768 45.8827 47.2681 46.1549C47.1699 47.4839 47.1699 48.8184 47.2681 50.1475C47.364 50.9364 47.6596 51.6877 48.127 52.3304C48.5944 52.9731 49.2181 53.4858 49.9391 53.8201C50.6601 54.1544 51.4544 54.2991 52.2469 54.2405C53.0394 54.182 53.8039 53.9221 54.4679 53.4856C55.057 53.0929 55.2315 53.1583 55.5588 53.7256C56.1866 54.7564 57.1722 55.5198 58.3272 55.8699C59.4823 56.2201 60.7259 56.1324 61.8204 55.6237C62.0386 55.5146 62.2131 55.2964 62.4967 55.3619C62.4621 56.0592 62.1752 56.7202 61.6896 57.2219C61.204 57.7236 60.5527 58.0317 59.8568 58.0891C57.6751 58.4381 55.9733 57.3036 54.7515 54.5983C54.3116 55.3861 53.6137 55.9985 52.7753 56.3322C51.9369 56.666 51.0091 56.7009 50.148 56.4309C49.3016 56.1063 48.543 55.5879 47.933 54.9173C47.323 54.2467 46.8786 53.4425 46.6354 52.5692C46.3855 53.4519 45.9313 54.2633 45.3098 54.9379C44.6882 55.6126 43.9166 56.1315 43.0574 56.4528C42.1781 56.7048 41.239 56.6473 40.3971 56.2898C39.5551 55.9324 38.8615 55.2968 38.432 54.4892C38.3095 55.177 38.0236 55.8253 37.5984 56.3796C37.1731 56.9339 36.621 57.378 35.9885 57.6745C35.1735 58.0854 34.2502 58.2304 33.3486 58.0891C32.6599 58.0181 32.0188 57.705 31.5394 57.2056C31.06 56.7062 30.7733 56.0528 30.7305 55.3619C30.9923 55.2092 31.145 55.3619 31.3195 55.5364C32.4361 56.1032 33.7281 56.2176 34.9269 55.8559C36.1257 55.4943 37.1389 54.6843 37.7557 53.5947C38.0393 53.1147 38.1921 53.071 38.672 53.3983C39.3792 53.8857 40.2066 54.1695 41.064 54.219C41.9214 54.2684 42.7759 54.0815 43.5344 53.6786C44.2928 53.2758 44.9262 52.6724 45.3653 51.9343C45.8044 51.1962 46.0324 50.3518 46.0245 49.493C46.0245 48.5548 46.0245 47.6167 46.0245 46.6785C46.0245 45.7404 46.0245 45.2386 45.1955 44.8677C44.8623 44.6961 44.4797 44.6458 44.1135 44.7255C43.7473 44.8051 43.4202 45.0096 43.1883 45.304C42.9344 44.6296 42.9056 43.8912 43.1062 43.1991C43.3067 42.507 43.7259 41.8983 44.301 41.4641C44.9013 40.9511 45.6536 40.6496 46.4421 40.6063C47.2306 40.5629 48.0115 40.78 48.6645 41.2241C49.3119 41.6483 49.8043 42.271 50.0679 42.9987C50.3314 43.7264 50.3519 44.52 50.1262 45.2604ZM46.6354 41.5296C46.11 41.5334 45.597 41.6902 45.1592 41.9808C44.7214 42.2714 44.3777 42.6832 44.17 43.1659C43.9955 43.5586 43.9737 43.7768 44.5191 43.7986C44.8617 43.7991 45.2 43.8756 45.5094 44.0228C45.8188 44.1699 46.0916 44.384 46.3082 44.6495C46.5045 44.8677 46.6354 44.9767 46.8972 44.6495C47.1196 44.3725 47.4022 44.15 47.7236 43.9987C48.0449 43.8475 48.3966 43.7716 48.7517 43.7768C49.2535 43.7768 49.2099 43.5368 49.079 43.1877C48.8739 42.7059 48.5344 42.2933 48.1011 41.9993C47.6677 41.7053 47.1589 41.5422 46.6354 41.5296Z" fill="#F7C407"/>
<path d="M46.6348 59.7255C50.6 59.744 54.5458 60.2794 58.3726 61.3182C59.0053 61.4927 59.1144 61.7109 58.8962 62.2999C58.5253 63.4345 58.5471 63.4344 57.3908 63.129C50.3471 61.2204 42.9224 61.2204 35.8787 63.129C35.5733 63.129 35.1369 63.5654 34.9406 63.129C34.6875 62.6323 34.532 62.0916 34.4824 61.5363C34.4824 61.2745 34.8751 61.2745 35.0933 61.1872C38.8584 60.1893 42.7398 59.6977 46.6348 59.7255Z" fill="#F7C405"/>
<path d="M36.2713 37.6244C36.2713 37.6244 36.2713 37.4935 36.2713 37.4717C36.4675 37.2015 36.5933 36.8866 36.6372 36.5555C36.6811 36.2245 36.6416 35.8877 36.5225 35.5757C36.4033 35.2637 36.2082 34.9864 35.9548 34.7689C35.7014 34.5513 35.3977 34.4005 35.0713 34.3299C36.7731 34.6136 37.8421 34.1772 37.9076 32.1482C38.1912 33.8936 38.9984 34.679 40.8093 34.3299C39.173 35.0936 38.8457 36.1408 39.7839 37.5589H39.5439C38.453 36.3372 37.3621 36.599 36.2931 37.5589L36.2713 37.6244Z" fill="#F7C409"/>
<path d="M52.4385 34.4609C53.2894 34.1118 54.1184 34.5918 54.6202 34.1336C55.122 33.6754 55.122 32.9773 55.4493 32.3228C55.4493 34.09 56.5183 34.6572 58.3728 34.1772C57.0201 35.1808 55.8856 35.9663 57.1947 37.7117C56.9936 37.4236 56.726 37.1884 56.4145 37.0259C56.103 36.8635 55.7569 36.7787 55.4057 36.7787C55.0544 36.7787 54.7083 36.8635 54.3968 37.0259C54.0853 37.1884 53.8177 37.4236 53.6166 37.7117C54.3802 36.1845 54.2275 35.0499 52.4385 34.4609Z" fill="#F7C409"/>
<path d="M26.4102 49.2968C28.1337 49.7767 29.0501 49.144 29.1592 47.2896C29.421 48.9913 30.1628 49.864 32.0609 49.2531C31.7842 49.6983 31.3922 50.0601 30.9264 50.3004C30.8178 50.3456 30.7203 50.4141 30.641 50.5009C30.5616 50.5878 30.5021 50.6909 30.4668 50.8031C30.4315 50.9154 30.4211 51.034 30.4364 51.1506C30.4517 51.2673 30.4924 51.3792 30.5555 51.4785C30.7285 51.9053 30.8458 52.3526 30.9046 52.8094C29.7482 51.4567 28.7228 51.5003 27.4574 52.9403C27.4574 52.0239 28.1556 51.3476 27.8937 50.7585C27.6319 50.1695 26.9556 49.9077 26.4538 49.5149L26.4102 49.2968Z" fill="#F7C409"/>
<path d="M61.2529 49.4496C63.0638 49.8205 63.871 49.035 63.9801 47.2678C64.0579 47.3451 64.124 47.4333 64.1765 47.5296C64.8092 49.2968 64.8092 49.2968 66.8382 49.3623C66.6269 49.7357 66.2966 50.0276 65.9001 50.1914C65.3546 50.5186 65.1583 50.8895 65.4637 51.5004C65.623 51.8585 65.7472 52.2311 65.8346 52.6131C65.8346 52.6131 65.6819 52.6131 65.6601 52.6131C64.5474 51.435 63.4783 51.4786 62.3002 52.7876C63.0856 51.3259 63.0201 50.1914 61.2529 49.4496Z" fill="#F7C409"/>
<path d="M61.7324 38.6279C61.9942 40.3297 62.7142 41.1806 64.6123 40.5042C64.3483 40.965 63.9534 41.337 63.4778 41.5733C63.3684 41.6176 63.2703 41.686 63.1909 41.7734C63.1116 41.8608 63.0529 41.965 63.0194 42.0782C62.9858 42.1915 62.9782 42.3108 62.9972 42.4273C63.0161 42.5439 63.0611 42.6547 63.1287 42.7514C63.2815 43.1442 63.3687 43.5587 63.4996 43.9732H63.3033C62.7578 43.6678 62.2997 42.926 61.7106 43.0132C61.1215 43.1005 60.6416 43.6678 59.9652 44.0169C60.1994 43.7701 60.3621 43.4644 60.436 43.1324C60.5098 42.8003 60.492 42.4544 60.3844 42.1317C60.2769 41.809 60.0836 41.5216 59.8253 41.3003C59.567 41.0789 59.2534 40.932 58.918 40.8751L59.1361 40.7006C60.7506 41.0279 61.5579 40.3297 61.7324 38.6279Z" fill="#F7C409"/>
<path d="M33.1731 43.9078C32.5404 43.6896 32.1477 42.8824 31.5368 42.9697C30.9259 43.0569 30.4678 43.6678 29.7914 44.0605C30.5332 42.6424 30.5769 41.4424 28.6133 40.8534C29.0957 40.651 29.6276 40.5978 30.1405 40.7006C30.2562 40.7298 30.377 40.733 30.4941 40.7099C30.6112 40.6868 30.7217 40.638 30.8177 40.5671C30.9137 40.4961 30.9928 40.4048 31.0492 40.2996C31.1056 40.1944 31.1381 40.078 31.1441 39.9588C31.1441 39.5443 31.4059 39.1516 31.5368 38.7371C31.5368 38.7371 31.6677 38.7371 31.6895 38.8462C31.9514 39.4352 31.8859 40.3079 32.4095 40.5697C32.9331 40.8315 33.6531 40.5697 34.3077 40.5697C34.3077 40.7225 34.3077 40.8097 34.3077 40.8097C32.8022 41.4424 32.7804 42.5551 33.2822 43.8424L33.1731 43.9078Z" fill="#F7C409"/>
<path d="M44.9111 35.1807C45.0857 34.5698 45.4784 33.9153 45.3693 33.3481C45.2602 32.7808 44.3657 32.6281 43.9512 32.1045C43.9512 32.1045 43.9512 31.9954 44.0603 31.9954C44.693 31.8645 45.4784 32.2572 45.9147 31.7772C46.3511 31.2972 46.3511 30.6427 46.5693 30.0754H46.7438C46.8965 31.6681 47.8129 32.2572 49.6237 31.7772C48.2492 32.7808 47.1583 33.5662 48.4674 35.3116C47.1802 33.9371 46.0893 33.959 44.9984 35.3116L44.9111 35.1807Z" fill="#F7C409"/>
<path d="M44.4531 57.7839C44.615 57.6837 44.7917 57.6101 44.9767 57.5657C45.2295 57.5624 45.4725 57.4678 45.6609 57.2994C45.8494 57.131 45.9706 56.9001 46.0022 56.6493C46.0022 56.3439 46.2422 55.8639 46.6567 55.8857C47.0712 55.9075 47.2021 56.3221 47.2676 56.6275C47.3985 57.2602 47.813 57.4566 48.3803 57.5439C48.9475 57.6311 48.9257 57.8711 48.5766 58.2638C48.318 58.5891 47.9807 58.8431 47.5966 59.0017C47.2124 59.1603 46.7942 59.2183 46.3814 59.1703C45.9686 59.1222 45.5749 58.9697 45.2375 58.7271C44.9001 58.4845 44.6301 58.1598 44.4531 57.7839Z" fill="#F7C409"/>
<path d="M37.0791 58.7656C37.1774 58.6717 37.2874 58.5911 37.4064 58.5256C37.7068 58.4695 37.9782 58.3102 38.1734 58.0751C38.3687 57.84 38.4755 57.5439 38.4754 57.2383C38.4754 56.9547 38.4754 56.562 38.9336 56.5184C39.3918 56.4747 39.4572 56.7802 39.5663 57.0202C39.6682 57.3052 39.8642 57.547 40.122 57.7057C40.3798 57.8644 40.684 57.9304 40.9844 57.8929C41.4862 57.8929 41.4208 58.1547 41.2462 58.5038C41.0469 58.8703 40.7578 59.1802 40.4061 59.4045C40.0543 59.6288 39.6514 59.7602 39.235 59.7864C38.8187 59.8126 38.4024 59.7326 38.0254 59.5541C37.6483 59.3755 37.3227 59.1042 37.0791 58.7656Z" fill="#F7C407"/>
<path d="M54.4679 59.7254C53.9741 59.7562 53.4817 59.6453 53.0488 59.4056C52.6158 59.166 52.2604 58.8076 52.0244 58.3727C51.7626 57.98 52.0244 57.8273 52.3298 57.8491C52.6038 57.9037 52.8883 57.8532 53.1268 57.7077C53.3652 57.5622 53.5403 57.3323 53.617 57.0637C53.617 56.7801 53.9661 56.3873 54.337 56.4528C54.7079 56.5182 54.7734 56.9546 54.8388 57.26C54.849 57.5211 54.9472 57.7711 55.1176 57.9692C55.2879 58.1673 55.5204 58.3018 55.777 58.3509C56.3006 58.5036 56.257 58.8091 55.777 59.1145C55.4079 59.4389 54.9536 59.6509 54.4679 59.7254Z" fill="#F7C405"/>
<path d="M36.2497 37.6025L36.2061 37.6462L36.2715 37.6244L36.2497 37.6025Z" fill="#F7C409"/>
<path d="M46.635 41.5297C47.161 41.5441 47.6715 41.7104 48.1051 42.0085C48.5387 42.3066 48.8768 42.7237 49.0786 43.2096C49.2095 43.5587 49.2531 43.7769 48.7513 43.7987C48.3962 43.7935 48.0446 43.8694 47.7232 44.0206C47.4018 44.1719 47.1192 44.3944 46.8969 44.6714C46.635 44.9768 46.5041 44.8678 46.3078 44.6714C46.0865 44.3932 45.8041 44.1697 45.4825 44.0184C45.1609 43.867 44.8087 43.7919 44.4533 43.7987C43.9079 43.7987 43.9297 43.5587 44.1042 43.166C44.3162 42.673 44.67 42.2542 45.1207 41.9628C45.5713 41.6714 46.0985 41.5207 46.635 41.5297Z" fill="#FEFDFD"/>
</g>
<defs>
<clipPath id="clip0_996_1957">
<rect width="87.27" height="87.27" fill="white" transform="translate(3 3)"/>
</clipPath>
</defs>
</svg>
