<svg width="26" height="33" viewBox="0 0 26 33" fill="none" xmlns="http://www.w3.org/2000/svg">
<g clip-path="url(#clip0_994_5900)">
<path d="M8.83638 33C8.4216 32.8031 8.09646 32.4552 7.92654 32.0265C7.55769 31.2922 7.15605 30.5662 6.779 29.832C6.76407 29.7871 6.73969 29.7459 6.70753 29.7113C6.67537 29.6767 6.63618 29.6494 6.59263 29.6314C6.54907 29.6134 6.50218 29.6051 6.45513 29.6069C6.40809 29.6088 6.36199 29.6208 6.31998 29.6423C5.50031 29.9228 4.59048 30.1785 3.72982 30.4672C3.50733 30.5632 3.26065 30.587 3.02412 30.5352C2.78759 30.4835 2.57298 30.3588 2.41015 30.1785C2.24685 29.9981 2.14273 29.7714 2.11193 29.5293C2.08113 29.2873 2.12515 29.0415 2.23802 28.8255C3.05769 26.829 3.87736 24.8242 4.69703 22.836C4.80359 22.572 4.779 22.3988 4.5413 22.2668C4.36605 22.1489 4.17929 22.0494 3.98392 21.9697C3.44191 21.8265 2.96292 21.5052 2.6229 21.0569C2.28287 20.6085 2.10127 20.0588 2.10687 19.4947C2.10467 19.2113 2.03773 18.9322 1.91123 18.679C1.78473 18.4258 1.60207 18.2053 1.37736 18.0345C0.932612 17.707 0.610043 17.2387 0.461404 16.7046C0.312766 16.1705 0.346675 15.6016 0.55769 15.0893C0.660038 14.8296 0.70002 14.5493 0.674381 14.2712C0.648743 13.9931 0.558208 13.725 0.410148 13.4888C0.10917 13.0198 -0.0254678 12.4623 0.0281006 11.9067C0.081669 11.351 0.320297 10.8299 0.70523 10.428C0.895037 10.2231 1.0329 9.97507 1.1071 9.70505C1.18131 9.43503 1.18966 9.15097 1.13146 8.877C1.01745 8.33679 1.08623 7.77372 1.32685 7.27739C1.56747 6.78106 1.96611 6.37999 2.45933 6.138C2.71365 6.01399 2.93528 5.8313 3.1062 5.60479C3.27712 5.37828 3.3925 5.11436 3.44294 4.8345C3.5357 4.27792 3.81466 3.76997 4.23357 3.39485C4.65249 3.01973 5.18619 2.79997 5.74621 2.772C5.99723 2.75159 6.24019 2.67324 6.45626 2.54304C6.67233 2.41285 6.85569 2.2343 6.99212 2.02125C7.27564 1.49535 7.73446 1.08702 8.28775 0.868185C8.84104 0.649354 9.45331 0.634061 10.0167 0.825C10.4352 0.929492 10.8774 0.870535 11.2544 0.66C11.697 0.43725 12.1806 0.22275 12.6151 0H13.3856C13.8364 0.22275 14.3036 0.429 14.7462 0.6765C14.9515 0.791771 15.1778 0.864318 15.4116 0.889829C15.6453 0.915339 15.8818 0.893293 16.1069 0.825C16.4903 0.70492 16.8976 0.683536 17.2914 0.762806C17.6851 0.842075 18.0529 1.01947 18.361 1.27875C18.5894 1.47408 18.7882 1.70199 18.9511 1.95525C19.0957 2.19422 19.2958 2.3942 19.5343 2.53793C19.7728 2.68167 20.0424 2.76483 20.32 2.78025C20.8514 2.82305 21.3545 3.03849 21.7537 3.39412C22.1529 3.74975 22.4264 4.22631 22.5331 4.752C22.5847 5.05819 22.7084 5.34751 22.8938 5.5958C23.0791 5.84408 23.3208 6.04414 23.5987 6.17925C24.0827 6.42742 24.4715 6.82994 24.7043 7.32396C24.9371 7.81798 25.0009 8.37569 24.8856 8.91C24.8314 9.17378 24.8403 9.44673 24.9116 9.70636C24.9829 9.96599 25.1144 10.2048 25.2954 10.4032C25.6931 10.8101 25.9389 11.3427 25.9912 11.911C26.0435 12.4793 25.899 13.0484 25.5823 13.5217C25.4411 13.7501 25.355 14.0086 25.3308 14.2765C25.3066 14.5444 25.345 14.8142 25.4429 15.0645C25.6665 15.5829 25.7071 16.1626 25.558 16.7074C25.4089 17.2522 25.079 17.7293 24.6233 18.0592C24.4098 18.2202 24.2355 18.4279 24.1134 18.6665C23.9913 18.9052 23.9246 19.1686 23.9183 19.437C23.9468 20.0237 23.767 20.6014 23.4111 21.0669C23.0552 21.5324 22.5464 21.8553 21.9757 21.978L21.7626 22.0605C21.2052 22.3162 21.1479 22.4565 21.3856 23.0257C22.2052 24.981 23.0249 26.928 23.7872 28.8832C23.8718 29.0426 23.9173 29.22 23.9197 29.4007C23.9222 29.5814 23.8816 29.76 23.8013 29.9216C23.721 30.0832 23.6034 30.2231 23.4583 30.3295C23.3133 30.4359 23.145 30.5058 22.9675 30.5332C22.728 30.5692 22.4834 30.5466 22.2544 30.4672C21.3938 30.2197 20.5413 29.9557 19.6888 29.6423C19.6421 29.6182 19.5907 29.6047 19.5383 29.6028C19.4859 29.6008 19.4336 29.6103 19.3853 29.6307C19.3369 29.6512 19.2935 29.682 19.2582 29.721C19.2228 29.76 19.1964 29.8064 19.1806 29.8567C18.82 30.5827 18.4101 31.2923 18.0495 32.0182C17.8873 32.4457 17.5713 32.7962 17.1642 33H16.5823C16.3648 32.9035 16.1708 32.7605 16.0137 32.581C15.8566 32.4015 15.7402 32.1898 15.6724 31.9605C14.8528 29.9228 14.0331 27.9015 13.1724 25.872C13.1315 25.7647 13.0741 25.674 12.9921 25.509C12.9101 25.6905 12.861 25.7895 12.82 25.8967C12.0003 27.918 11.1806 29.931 10.361 31.9605C10.2888 32.1938 10.1661 32.4081 10.0017 32.5879C9.83727 32.7676 9.63522 32.9084 9.41015 33H8.83638ZM18.0659 23.661C18.4733 23.7698 18.9066 23.7166 19.276 23.5122C19.6454 23.3079 19.9224 22.9682 20.0495 22.5637C20.1809 22.2163 20.3885 21.9031 20.6567 21.6474C20.9249 21.3918 21.2468 21.2002 21.5987 21.087C22.0118 21.0197 22.3837 20.796 22.6383 20.4616C22.8928 20.1272 23.0106 19.7075 22.9675 19.2885C22.9776 18.9076 23.0719 18.5338 23.2434 18.1942C23.415 17.8545 23.6595 17.5576 23.9593 17.325C24.2812 17.1145 24.516 16.7934 24.6201 16.4215C24.7241 16.0496 24.6903 15.6524 24.5249 15.3037C24.3923 14.9454 24.3405 14.562 24.3731 14.181C24.4057 13.8001 24.5219 13.4312 24.7134 13.101C24.9482 12.777 25.0577 12.3781 25.0215 11.9788C24.9853 11.5795 24.8058 11.2071 24.5167 10.9312C24.2627 10.646 24.0779 10.3053 23.9769 9.93593C23.8759 9.56657 23.8615 9.17867 23.9347 8.80275C24.0309 8.43366 23.9929 8.04213 23.8276 7.69875C23.6623 7.35537 23.3805 7.08273 23.0331 6.93C22.6692 6.74701 22.3529 6.48085 22.1095 6.15279C21.8661 5.82473 21.7024 5.4439 21.6315 5.04075C21.5772 4.682 21.4016 4.3531 21.1343 4.10959C20.8669 3.86609 20.5243 3.72291 20.1642 3.70425C19.7697 3.67191 19.3878 3.54869 19.0482 3.34413C18.7085 3.13957 18.4201 2.85913 18.2052 2.5245C18.0255 2.1893 17.7323 1.93006 17.3789 1.79383C17.0255 1.6576 16.6352 1.6534 16.279 1.782C15.9062 1.88138 15.516 1.89517 15.1372 1.82234C14.7583 1.74951 14.4006 1.59193 14.0905 1.36125C13.8009 1.10708 13.4296 0.96705 13.0454 0.96705C12.6612 0.96705 12.2899 1.10708 12.0003 1.36125C11.6892 1.59959 11.3273 1.76171 10.9431 1.83474C10.559 1.90778 10.1632 1.88972 9.7872 1.782C9.42713 1.64836 9.03095 1.65175 8.6732 1.79153C8.31544 1.93131 8.02075 2.19785 7.84457 2.541C7.63283 2.87808 7.34662 3.1614 7.00825 3.3689C6.66987 3.57639 6.28847 3.70245 5.89375 3.73725C5.52608 3.74204 5.1718 3.87693 4.89304 4.11828C4.61428 4.35964 4.42881 4.69205 4.36916 5.05725C4.29882 5.46598 4.13377 5.85227 3.8874 6.18481C3.64103 6.51735 3.32027 6.78678 2.95113 6.97125C2.61231 7.11724 2.3367 7.38061 2.17428 7.71361C2.01187 8.0466 1.97341 8.42716 2.06589 8.78625C2.14247 9.18838 2.12295 9.60307 2.00894 9.99611C1.89492 10.3892 1.68968 10.7493 1.41015 11.0468C1.15792 11.2999 1.00113 11.6335 0.966731 11.9903C0.932328 12.3471 1.02245 12.7048 1.22162 13.002C1.45223 13.3669 1.59201 13.7824 1.62911 14.2133C1.66621 14.6441 1.59954 15.0776 1.43474 15.477C1.30436 15.7922 1.28276 16.1424 1.3734 16.4714C1.46405 16.8004 1.66169 17.0894 1.93474 17.292C2.28423 17.5501 2.56763 17.8882 2.76148 18.2784C2.95533 18.6687 3.05406 19.0997 3.04949 19.536C3.04147 19.8837 3.15167 20.2237 3.36185 20.4998C3.57203 20.7758 3.86958 20.9714 4.20523 21.054C4.61305 21.166 4.98854 21.374 5.30067 21.6609C5.61281 21.9478 5.85263 22.3054 6.00031 22.704C6.1223 23.0327 6.34981 23.311 6.64677 23.4949C6.94373 23.6787 7.29316 23.7575 7.63966 23.7188C8.03543 23.6794 8.43487 23.7334 8.80625 23.8766C9.17762 24.0199 9.5107 24.2483 9.779 24.5437C10.0179 24.8523 10.3607 25.0621 10.7428 25.1335C11.1249 25.2049 11.5197 25.1331 11.8528 24.9315C12.1958 24.7667 12.571 24.6811 12.9511 24.6811C13.3312 24.6811 13.7065 24.7667 14.0495 24.9315C14.3894 25.1309 14.7892 25.2006 15.176 25.1279C15.5627 25.0552 15.9106 24.8449 16.156 24.5355C16.3906 24.257 16.6835 24.0341 17.0136 23.8829C17.3438 23.7317 17.7032 23.656 18.0659 23.661ZM11.738 25.9875C11.242 26.1049 10.7231 26.0798 10.2406 25.915C9.758 25.7502 9.33112 25.4523 9.00851 25.0553C8.84588 24.8904 8.64651 24.767 8.42697 24.6952C8.20743 24.6235 7.97405 24.6055 7.74621 24.6427C7.40109 24.6851 7.05096 24.6534 6.71892 24.5496C6.38689 24.4457 6.08051 24.2722 5.81998 24.0405C5.6815 23.9129 5.55272 23.775 5.43474 23.628C5.43474 23.7188 5.36916 23.7517 5.35277 23.793C4.61507 25.575 3.86916 27.39 3.16425 29.1967C3.14752 29.3033 3.14752 29.4119 3.16425 29.5185C3.27292 29.535 3.38344 29.535 3.49212 29.5185C4.36097 29.2627 5.22162 28.9905 6.09048 28.6935C6.23517 28.628 6.39164 28.5929 6.55029 28.5904C6.70894 28.588 6.86642 28.6182 7.01304 28.6792C7.15966 28.7403 7.29234 28.8308 7.40291 28.9454C7.51349 29.0599 7.59963 29.196 7.65605 29.3452L8.90195 31.7872C8.96764 31.8768 9.04481 31.9573 9.13146 32.0265C9.22354 31.948 9.30363 31.8563 9.36916 31.7543C9.779 30.7725 10.1888 29.7825 10.5905 28.7925C10.9921 27.8025 11.361 26.9527 11.738 25.9875ZM14.2872 25.9875C14.282 26.0286 14.282 26.0702 14.2872 26.1112C15.0577 28.0087 15.8364 29.9007 16.6233 31.7872C16.6233 31.878 16.7626 32.01 16.8118 32.0018C16.8637 31.9867 16.9122 31.9615 16.9544 31.9275C16.9966 31.8935 17.0317 31.8514 17.0577 31.8037C17.4921 30.9787 17.8774 30.1538 18.3364 29.3948C18.3911 29.242 18.4766 29.1022 18.5874 28.9842C18.6983 28.8662 18.8322 28.7726 18.9807 28.709C19.1292 28.6455 19.2891 28.6136 19.4505 28.6152C19.6118 28.6167 19.7711 28.6518 19.9183 28.7183C20.738 28.974 21.6069 29.2463 22.4593 29.4937C22.5869 29.5147 22.717 29.5147 22.8446 29.4937C22.8615 29.3651 22.8615 29.2347 22.8446 29.106L21.9265 26.8785L20.5905 23.6362C20.5495 23.6362 20.5167 23.6775 20.5003 23.7022C20.2195 24.0433 19.8567 24.3065 19.4464 24.4668C19.0361 24.6271 18.592 24.6791 18.1561 24.618C17.9266 24.5895 17.6937 24.6182 17.4778 24.7017C17.262 24.7851 17.0699 24.9207 16.9183 25.0965C16.6062 25.4778 16.1947 25.764 15.7299 25.9228C15.2651 26.0817 14.7655 26.1069 14.2872 25.9958V25.9875Z" fill="white"/>
<path d="M8.40987 18.3149C8.45905 18.1086 8.49183 17.9436 8.53282 17.7786C8.8279 16.7391 9.12298 15.6914 9.42626 14.6601C9.46151 14.5842 9.46673 14.4976 9.44085 14.4179C9.41497 14.3382 9.35993 14.2714 9.28692 14.2311C8.40167 13.5464 7.53282 12.8534 6.66397 12.1686C6.47096 12.0594 6.32142 11.8864 6.24074 11.6789C6.16007 11.4714 6.15321 11.2421 6.22134 11.0301C6.29957 10.8214 6.44393 10.6445 6.6321 10.5267C6.82027 10.4089 7.04176 10.3567 7.26233 10.3784C8.36069 10.3784 9.45905 10.2959 10.541 10.2711C10.6293 10.279 10.7173 10.2539 10.7883 10.2007C10.8594 10.1474 10.9085 10.0697 10.9263 9.98236C11.2951 8.92636 11.6886 7.87036 12.0738 6.81436C12.1223 6.60422 12.2404 6.41697 12.4088 6.2835C12.5772 6.15002 12.7857 6.07828 13 6.08011C13.2104 6.08069 13.4146 6.15146 13.5807 6.28134C13.7468 6.41121 13.8655 6.59287 13.9181 6.79786C14.3033 7.85386 14.6886 8.90986 15.0656 9.97411C15.0836 10.0668 15.136 10.1491 15.2121 10.2043C15.2882 10.2595 15.3824 10.2834 15.4754 10.2711C16.5902 10.2711 17.7131 10.3454 18.8279 10.3866C18.974 10.3762 19.1205 10.4012 19.2551 10.4594C19.3897 10.5176 19.5085 10.6074 19.6016 10.7213C19.6946 10.8351 19.7593 10.9698 19.7901 11.1139C19.8209 11.2581 19.817 11.4075 19.7787 11.5499C19.6918 11.7667 19.5506 11.9571 19.3689 12.1026C18.5 12.8121 17.6148 13.5051 16.7213 14.1899C16.6464 14.2348 16.5902 14.3055 16.563 14.3889C16.5359 14.4723 16.5397 14.5628 16.5738 14.6436C16.8935 15.7244 17.1968 16.8051 17.5 17.8941C17.5797 18.0909 17.5914 18.3089 17.5334 18.5131C17.4753 18.7174 17.3508 18.8961 17.1798 19.0207C17.0088 19.1453 16.8012 19.2085 16.5902 19.2002C16.3793 19.1918 16.1772 19.1125 16.0164 18.9749L13.2541 17.1021C13.186 17.0389 13.0968 17.0038 13.0041 17.0038C12.9115 17.0038 12.8222 17.0389 12.7541 17.1021C11.8197 17.7456 10.8853 18.3809 9.94265 19.0079C9.83879 19.0939 9.71741 19.1558 9.58712 19.1894C9.45683 19.223 9.3208 19.2273 9.18865 19.2021C9.0565 19.177 8.93147 19.1229 8.82239 19.0437C8.71331 18.9645 8.62285 18.8621 8.55741 18.7439C8.49178 18.6071 8.44226 18.4632 8.40987 18.3149ZM9.41806 18.2159L9.74593 18.0014L12.3525 16.2441C12.5288 16.0835 12.7581 15.9946 12.9959 15.9946C13.2337 15.9946 13.463 16.0835 13.6394 16.2441L16.2787 18.0261L16.5492 18.1911C16.5492 18.0426 16.4918 17.9519 16.4672 17.8611C16.1886 16.8629 15.9017 15.8646 15.6476 14.8664C15.5361 14.6287 15.519 14.3572 15.5997 14.1072C15.6805 13.8573 15.853 13.6478 16.082 13.5216L18.541 11.5994L18.8033 11.3601L15.2951 11.2199C15.058 11.2458 14.8198 11.1826 14.6261 11.0426C14.4325 10.9025 14.2971 10.6953 14.2459 10.4609L13.1312 7.47436C13.1312 7.38361 13.0574 7.29286 12.9918 7.12786L11.7787 10.4774C11.7277 10.7074 11.594 10.9104 11.4034 11.0474C11.2128 11.1845 10.9787 11.2459 10.7459 11.2199L8.79511 11.2941L7.26233 11.3601L7.52462 11.5911C8.34429 12.2429 9.16397 12.9029 10.0246 13.5546C10.2227 13.683 10.3708 13.8761 10.444 14.1015C10.5171 14.3269 10.5109 14.5708 10.4263 14.7921C10.2459 15.3779 10.0902 15.9636 9.92626 16.5494C9.76233 17.1351 9.59019 17.6136 9.41806 18.2159Z" fill="white"/>
<path d="M22.5164 11.888C22.5234 12.0066 22.4847 12.1233 22.4084 12.214C22.332 12.3046 22.224 12.3622 22.1066 12.3747C22.0461 12.3865 21.9838 12.3857 21.9237 12.3723C21.8635 12.3589 21.8067 12.3333 21.7568 12.2969C21.7069 12.2606 21.6649 12.2143 21.6334 12.161C21.6019 12.1077 21.5816 12.0485 21.5738 11.987C21.4239 11.2622 21.2351 10.5462 21.0082 9.84197C20.325 8.09464 19.0967 6.61776 17.5079 5.6334C15.9191 4.64904 14.0558 4.21039 12.1981 4.38342C10.3404 4.55645 8.58869 5.33179 7.20637 6.59287C5.82406 7.85396 4.88584 9.53262 4.5328 11.3765C4.5328 11.5662 4.47542 11.7642 4.43444 11.9457C4.42749 12.0109 4.40733 12.0739 4.37519 12.1309C4.34305 12.1879 4.29963 12.2376 4.24761 12.277C4.19559 12.3164 4.13608 12.3447 4.07277 12.36C4.00947 12.3753 3.94371 12.3773 3.87959 12.366C3.81546 12.3547 3.75433 12.3302 3.69998 12.2941C3.64563 12.2581 3.59922 12.2111 3.56364 12.1562C3.52805 12.1014 3.50404 12.0397 3.49309 11.9751C3.48215 11.9105 3.4845 11.8444 3.50001 11.7807C3.68424 10.1722 4.29271 8.64254 5.26231 7.35047C6.22744 5.98457 7.53628 4.90172 9.05451 4.21306C10.5727 3.5244 12.2457 3.25473 13.9016 3.43172C16.0546 3.63089 18.0766 4.55949 19.6371 6.06563C21.1975 7.57177 22.204 9.5663 22.4918 11.723L22.5164 11.888Z" fill="white"/>
<path d="M13 22.6869C10.6983 22.6812 8.47473 21.846 6.73204 20.3326C4.98935 18.8192 3.84277 16.7277 3.49997 14.4369C3.44259 13.9749 3.64751 13.7439 3.88522 13.7027C4.12292 13.6614 4.39341 13.8677 4.46719 14.3214C4.61266 15.4333 4.97768 16.5046 5.54076 17.4723C6.10383 18.44 6.85359 19.2845 7.74587 19.9562C8.92595 20.8573 10.3166 21.4377 11.784 21.6413C13.2514 21.8449 14.7462 21.665 16.1245 21.1189C17.5029 20.5728 18.7184 19.6788 19.6541 18.523C20.5897 17.3672 21.2142 15.9884 21.4672 14.5194C21.4672 14.4039 21.4672 14.2884 21.5164 14.1729C21.5819 13.8347 21.7869 13.6614 22.0573 13.6944C22.1274 13.703 22.1946 13.7271 22.2542 13.7651C22.3138 13.803 22.3643 13.8539 22.402 13.9139C22.4396 13.9739 22.4635 14.0416 22.472 14.1121C22.4804 14.1826 22.4732 14.2541 22.4508 14.3214C22.2899 15.1625 22.0652 15.9899 21.7787 16.7964C21.0523 18.5378 19.8322 20.0251 18.271 21.0727C16.7097 22.1204 14.8764 22.6818 13 22.6869Z" fill="white"/>
</g>
<defs>
<clipPath id="clip0_994_5900">
<rect width="26" height="33" fill="white"/>
</clipPath>
</defs>
</svg>
