<svg width="32" height="29" viewBox="0 0 32 29" fill="none" xmlns="http://www.w3.org/2000/svg">
<g clip-path="url(#clip0_994_2003)">
<path d="M7.19531 26.8086V25.7379C7.87654 25.735 8.55651 25.7971 9.22613 25.9234C11.0898 26.4714 12.9368 27.0868 14.7837 27.7106C15.3772 27.9282 16.0104 28.0131 16.6396 27.9592C17.2688 27.9053 17.8789 27.7141 18.4275 27.3987C21.9543 25.4682 25.4894 23.6135 29.0245 21.7167L30.696 20.8231C30.433 20.3408 30.0016 19.9745 29.4857 19.7953C28.9697 19.6161 28.4062 19.6369 27.9046 19.8536C26.4755 20.4353 25.0632 21.0591 23.6424 21.6661C22.6061 22.1045 21.5865 22.5597 20.5502 22.9812C20.3195 23.0776 20.0728 23.1291 19.8232 23.133H14.6834H14.5079V22.0961H19.6644C19.806 22.1115 19.9493 22.0966 20.0848 22.0523C20.2203 22.008 20.345 21.9353 20.4507 21.839C20.5565 21.7427 20.6408 21.6249 20.6983 21.4934C20.7558 21.362 20.7851 21.2197 20.7842 21.076C20.7814 20.9382 20.7504 20.8025 20.6933 20.6773C20.6361 20.5522 20.554 20.4402 20.4521 20.3485C20.3501 20.2567 20.2306 20.1871 20.1008 20.144C19.971 20.101 19.8338 20.0853 19.6978 20.0981C18.4693 20.0981 17.2408 20.0981 16.0039 20.0981C15.4836 20.1112 14.9678 19.9985 14.4996 19.7693C13.5134 19.3057 12.5189 18.8673 11.5327 18.412C10.9897 18.1532 10.395 18.0234 9.79442 18.0327C8.9587 18.0327 8.08118 18.0327 7.20367 18.0327V17.0969V17.0548C8.41114 17.0265 9.61924 17.0659 10.8224 17.1728C11.5611 17.358 12.2721 17.6415 12.9368 18.0158C13.6555 18.3277 14.3575 18.6734 15.0762 18.9853C15.3069 19.0817 15.5536 19.1332 15.8033 19.1371C16.99 19.1371 18.1768 19.1961 19.3635 19.1371C19.6737 19.0844 19.9917 19.102 20.2943 19.1885C20.597 19.2749 20.8768 19.4282 21.1135 19.6372C21.3503 19.8461 21.538 20.1056 21.6632 20.3967C21.7884 20.6878 21.8478 21.0033 21.8373 21.3205L22.5058 21.0507L27.3363 18.9853C27.7854 18.774 28.2753 18.6661 28.7708 18.6693C29.2662 18.6725 29.7548 18.7867 30.2011 19.0038C30.6474 19.2208 31.0403 19.5352 31.3514 19.9242C31.6624 20.3132 31.8839 20.7671 31.9997 21.253L30.7795 21.9106L18.8203 28.3344C18.1777 28.6964 17.4666 28.9173 16.7335 28.9827C16.0005 29.048 15.262 28.9564 14.5664 28.7138C12.6944 28.0956 10.8224 27.4886 8.95034 26.8929C8.79383 26.8416 8.63018 26.816 8.46562 26.817L7.19531 26.8086Z" fill="white"/>
<path d="M16.4719 0.0161291C16.7393 -0.059743 16.848 0.100431 16.9399 0.328048C17.4079 1.44927 17.8843 2.57049 18.3439 3.70014C18.3704 3.80228 18.4284 3.89327 18.5095 3.95996C18.5906 4.02664 18.6907 4.06556 18.7952 4.07107C19.9736 4.19752 21.152 4.3577 22.3303 4.50101C22.7649 4.56002 22.8652 4.62747 22.907 5.07427C22.9021 5.14048 22.8831 5.20485 22.8514 5.26302C22.8197 5.3212 22.7759 5.37183 22.7231 5.41148C21.8038 6.2545 20.8762 7.04694 19.9402 7.85624C19.8575 7.91338 19.7957 7.99619 19.764 8.09206C19.7323 8.18794 19.7325 8.29163 19.7647 8.38735C20.0154 9.6013 20.2327 10.8153 20.475 12.0292C20.5054 12.1214 20.5018 12.2216 20.4649 12.3113C20.4281 12.4011 20.3605 12.4745 20.2744 12.5182C20.0989 12.6362 19.9652 12.7289 19.7312 12.5856C18.6699 11.9196 17.5918 11.2873 16.522 10.6214C16.45 10.5698 16.3638 10.5421 16.2755 10.5421C16.1872 10.5421 16.101 10.5698 16.029 10.6214C14.9509 11.2368 13.8477 11.8269 12.778 12.4592C12.4938 12.6278 12.3601 12.4592 12.1595 12.3411C11.959 12.2231 11.984 12.0461 12.0258 11.8606C12.31 10.6467 12.5858 9.42427 12.8615 8.21031C12.8911 8.12504 12.8916 8.03223 12.8628 7.94667C12.834 7.86112 12.7777 7.78774 12.7028 7.73822C11.8085 6.92049 10.9728 6.01845 10.0117 5.23444C9.75264 4.9984 9.86964 4.8045 9.91979 4.56845C9.96993 4.33241 10.1454 4.34927 10.3209 4.33241C11.5745 4.22281 12.8281 4.12165 14.0901 3.9952C14.1576 3.98061 14.2211 3.95113 14.276 3.90886C14.3309 3.86659 14.3759 3.81259 14.4076 3.75072C14.9425 2.62107 15.469 1.49142 15.9788 0.378629C16.0875 0.0667105 16.2128 -0.0428826 16.4719 0.0161291ZM21.1938 5.39462H20.9932C20.0488 5.27659 19.0961 5.15857 18.1517 5.05741C18.0329 5.05011 17.9199 5.00304 17.8305 4.92363C17.7412 4.84423 17.6807 4.73704 17.6586 4.61904C17.4497 4.0795 17.2157 3.5484 16.99 3.00886L16.4552 1.75276C15.9872 2.70537 15.5442 3.64956 15.1514 4.57688C15.1126 4.68781 15.0399 4.78347 14.9438 4.85011C14.8477 4.91676 14.7332 4.95096 14.6166 4.94781C14.0149 4.98997 13.4215 5.04055 12.8281 5.09956L11.5411 5.23444C12.2013 5.85828 12.778 6.46526 13.4215 6.9795C13.6653 7.12894 13.8465 7.36307 13.9312 7.63786C14.0158 7.91265 13.998 8.20916 13.8811 8.47165C13.6221 9.27252 13.4883 10.1071 13.2878 11.0007L13.6221 10.8237C14.3909 10.3937 15.1682 9.98066 15.9287 9.52543C16.0379 9.44134 16.1715 9.39579 16.3089 9.39579C16.4463 9.39579 16.5799 9.44134 16.6892 9.52543C17.1906 9.85421 17.7088 10.1577 18.2186 10.4696L19.2632 11.1019C19.0626 10.0481 18.8788 9.06177 18.6699 8.07543C18.6324 7.95381 18.6349 7.82324 18.6771 7.7032C18.7193 7.58317 18.7988 7.48012 18.9039 7.40944C19.6644 6.76031 20.3998 6.07747 21.1938 5.39462Z" fill="white"/>
<path d="M24.5453 5.23503C24.1943 6.00218 23.8684 6.68503 23.5675 7.36788C23.5247 7.50348 23.4399 7.62167 23.3256 7.70511C23.2113 7.78856 23.0735 7.83287 22.9324 7.83154C22.6482 7.83154 22.3724 7.8737 22.0465 7.89899L21.9546 6.92108C21.9996 6.89811 22.0473 6.88111 22.0967 6.8705C22.6148 6.9548 22.807 6.64288 22.9825 6.22137C23.3085 5.44579 23.6762 4.68707 24.0439 3.92835C24.1358 3.73445 24.186 3.50684 24.5035 3.50684C24.8211 3.50684 24.9716 3.67544 25.0886 3.95364C25.4563 4.85567 25.8491 5.74928 26.2168 6.65131C26.2418 6.73213 26.2918 6.80274 26.3595 6.85281C26.4271 6.90287 26.5089 6.92975 26.5929 6.92951C27.579 7.0391 28.5568 7.16556 29.543 7.29201C29.7018 7.29201 29.8856 7.29201 29.9525 7.51963C30.0042 7.63562 30.0215 7.76425 30.0022 7.88994C29.9829 8.01562 29.9279 8.13297 29.8438 8.22777L29.426 8.5987C28.8243 9.12137 28.2392 9.65248 27.6208 10.1667C27.5329 10.2274 27.4672 10.3156 27.434 10.4177C27.4008 10.5198 27.4018 10.6301 27.4369 10.7315C27.6375 11.7263 27.813 12.7295 28.0303 13.7243C28.1055 14.0868 27.8214 14.1205 27.6542 14.2554C27.5979 14.2818 27.5366 14.2955 27.4746 14.2955C27.4125 14.2955 27.3512 14.2818 27.2949 14.2554C26.4174 13.7411 25.5398 13.21 24.6707 12.6621C24.5922 12.6069 24.4989 12.5774 24.4033 12.5774C24.3076 12.5774 24.2143 12.6069 24.1358 12.6621C23.25 13.1679 22.3557 13.6568 21.4615 14.1626C21.3111 14.247 21.1857 14.306 21.0603 14.1626C20.935 14.0193 20.6425 13.9688 20.7344 13.6063C21.0102 12.5946 21.2275 11.5661 21.4531 10.5376C21.4604 10.471 21.4537 10.4036 21.4335 10.3397C21.4134 10.2758 21.3802 10.2169 21.3361 10.1667C21.1105 9.92224 20.8598 9.70306 20.584 9.44172L21.2776 8.69986C21.7039 9.10451 22.1134 9.46701 22.4978 9.87166C22.5703 10.0118 22.5882 10.1742 22.5479 10.3269C22.4059 10.9929 22.2471 11.6504 22.0967 12.3164C22.0967 12.4176 22.0967 12.5272 22.0214 12.6958C22.7318 12.2996 23.4004 11.9371 24.0523 11.5493C24.1585 11.4772 24.2836 11.4386 24.4116 11.4386C24.5396 11.4386 24.6648 11.4772 24.771 11.5493C25.4145 11.9539 26.0747 12.3417 26.7934 12.7801C26.7099 12.2996 26.6347 11.8865 26.5594 11.4734C26.4842 11.0603 26.4341 10.74 26.3421 10.3775C26.3121 10.2728 26.3153 10.1612 26.3513 10.0584C26.3873 9.95562 26.4542 9.86674 26.5427 9.80422L28.0721 8.47224L28.3479 8.20248L25.5148 7.86527C25.2657 6.96252 24.9414 6.08263 24.5453 5.23503Z" fill="white"/>
<path d="M11.0821 7.02207L10.9735 8.01684C10.4887 7.96626 10.0291 7.93254 9.56944 7.85667C9.47751 7.85667 9.37722 7.70492 9.32708 7.59533C9.04293 6.9462 8.76714 6.28864 8.49135 5.63108C8.49135 5.52992 8.40778 5.42876 8.33257 5.27701C8.0671 5.75291 7.83261 6.24571 7.63055 6.75231C7.37148 7.51946 6.96197 7.99155 6.08446 7.89039C5.80439 7.88611 5.52456 7.90869 5.24873 7.95783L4.413 8.0337L4.60522 8.25289C5.08994 8.70812 5.56631 9.18021 6.06774 9.61015C6.18446 9.69864 6.2701 9.82243 6.31219 9.96345C6.35429 10.1045 6.35063 10.2554 6.30175 10.3942C6.1346 11.0854 5.98417 11.7767 5.82538 12.4764V12.6619L7.89799 11.4985C7.99865 11.4282 8.11818 11.3905 8.24064 11.3905C8.36309 11.3905 8.48263 11.4282 8.58328 11.4985C9.23515 11.9116 9.90373 12.3415 10.6057 12.7378C10.4553 11.8947 10.33 11.1697 10.1712 10.4279C10.1258 10.2992 10.1242 10.1589 10.1665 10.0292C10.2089 9.89945 10.2929 9.78763 10.4052 9.71132C10.6893 9.4837 10.9567 9.23922 11.2409 8.97789L11.9429 9.77876L11.7507 9.87149C11.1991 10.175 11.1657 10.6134 11.3161 11.1866C11.525 12.0296 11.6337 12.8727 11.8175 13.6651C11.9011 14.0192 11.642 14.0782 11.4665 14.2468C11.291 14.4154 11.1824 14.2889 11.0403 14.2046C10.2046 13.6735 9.28529 13.1424 8.41614 12.6029C8.35181 12.5556 8.27427 12.5301 8.19467 12.5301C8.11508 12.5301 8.03753 12.5556 7.9732 12.6029C7.07897 13.1087 6.15967 13.5977 5.2738 14.1288C4.96458 14.3058 4.84758 14.0529 4.65537 13.9602C4.46315 13.8674 4.50493 13.7157 4.54672 13.5386C4.78908 12.5186 5.02309 11.4901 5.24873 10.4616C5.25241 10.4035 5.24305 10.3452 5.22135 10.2912C5.19965 10.2372 5.16616 10.1888 5.12337 10.1497C4.36286 9.44998 3.56892 8.69126 2.79169 7.96626C2.73671 7.91207 2.70139 7.84081 2.69141 7.76393C2.78334 7.21597 2.80005 7.19068 3.34327 7.1401L6.20982 6.89562C6.29412 6.89824 6.37701 6.87343 6.44625 6.82485C6.51548 6.77626 6.56738 6.70649 6.59425 6.62585C7.02047 5.6648 7.42998 4.71219 7.88963 3.75114C8.00663 3.48137 8.24064 3.58254 8.4245 3.56568C8.48794 3.56577 8.55032 3.58205 8.60585 3.61301C8.66138 3.64396 8.70824 3.68858 8.74207 3.74271C9.14322 4.65318 9.5778 5.56364 9.91209 6.49097C10.0374 6.80289 10.1795 7.01364 10.5556 6.97992C10.732 6.97684 10.9084 6.99096 11.0821 7.02207Z" fill="white"/>
<path d="M5.05615 16.7596H0.0417864V15.7564H0.342648H4.93915C5.09973 15.7325 5.26361 15.7467 5.41779 15.7979C5.57197 15.8491 5.71221 15.9358 5.82739 16.0511C5.94256 16.1665 6.0295 16.3073 6.08132 16.4625C6.13313 16.6177 6.14839 16.7829 6.12588 16.945V27.4238C6.152 27.5888 6.13882 27.7578 6.08744 27.9167C6.03606 28.0756 5.94795 28.2199 5.83039 28.3376C5.71282 28.4554 5.56917 28.5433 5.4113 28.594C5.25343 28.6447 5.08586 28.6568 4.92243 28.6293H0V27.6261H5.05615V16.7596Z" fill="white"/>
<path d="M3.72726 26.0148C3.72726 26.1078 3.70911 26.1999 3.67383 26.2858C3.63855 26.3717 3.58684 26.4498 3.52165 26.5155C3.45646 26.5813 3.37907 26.6334 3.2939 26.669C3.20873 26.7046 3.11744 26.7229 3.02525 26.7229C2.93306 26.7229 2.84178 26.7046 2.7566 26.669C2.67143 26.6334 2.59404 26.5813 2.52886 26.5155C2.46367 26.4498 2.41196 26.3717 2.37668 26.2858C2.3414 26.1999 2.32324 26.1078 2.32324 26.0148C2.32324 25.827 2.3972 25.6469 2.52886 25.514C2.66051 25.3812 2.83907 25.3066 3.02525 25.3066C3.21144 25.3066 3.39 25.3812 3.52165 25.514C3.6533 25.6469 3.72726 25.827 3.72726 26.0148Z" fill="white"/>
</g>
<defs>
<clipPath id="clip0_994_2003">
<rect width="32" height="29" fill="white"/>
</clipPath>
</defs>
</svg>
