<svg width="182" height="65" viewBox="0 0 182 65" fill="none" xmlns="http://www.w3.org/2000/svg">
<g clip-path="url(#clip0_19_192)">
<path fill-rule="evenodd" clip-rule="evenodd" d="M181.316 0V65H26.6251C11.9227 65 0 53.0541 0 38.3091V0H181.316Z" fill="#EE4423"/>
<mask id="mask0_19_192" style="mask-type:luminance" maskUnits="userSpaceOnUse" x="8" y="5" width="166" height="55">
<path d="M173.243 5.99036H8.07129V59.0132H173.243V5.99036Z" fill="white"/>
</mask>
<g mask="url(#mask0_19_192)">
<path d="M59.7153 17.1244C59.7911 17.0905 59.8766 16.9886 59.947 17.094C60.0298 17.2182 59.8962 17.2244 59.824 17.2557L59.7153 17.1244Z" fill="white"/>
<path d="M60.1157 16.9749L60.1698 16.9208C60.189 16.9527 60.2047 16.9867 60.2167 17.022C60.2167 17.0344 60.1857 17.0548 60.1698 17.0717L60.1157 16.9749Z" fill="white"/>
<path d="M66.9944 23.598H64.3804V38.619H66.9944V23.598Z" fill="white"/>
<path d="M69.4243 26.8258H77.7636C79.8502 26.8258 80.8935 27.724 80.8935 29.5205V38.619H78.242V29.9447C78.242 29.3302 77.88 29.0227 77.156 29.0221H72.0571V38.619H69.4243V26.8258Z" fill="white"/>
<path d="M98.788 26.8258H96.1553V38.619H98.788V26.8258Z" fill="white"/>
<path d="M101.07 34.0603C101.07 32.3872 102.107 31.5506 104.181 31.5506H111.25L111.101 30.4618C111.075 30.2487 111.005 30.0432 110.896 29.8586C110.787 29.674 110.64 29.5144 110.465 29.3901C110.116 29.1447 109.659 29.0218 109.094 29.0212H101.822V26.8258H110.125C111.131 26.8258 111.968 27.0443 112.637 27.4814C113.307 27.9184 113.727 28.5981 113.899 29.5205L115.446 38.619H104.181C102.107 38.619 101.07 37.6961 101.07 35.8502V34.0603ZM111.692 33.7281H105.099C104.154 33.7281 103.681 34.1151 103.682 34.8892V35.3688C103.675 35.5171 103.702 35.6649 103.761 35.801C103.82 35.9371 103.909 36.0579 104.022 36.1539C104.25 36.3438 104.609 36.4391 105.099 36.4397H112.131L111.692 33.7281Z" fill="white"/>
<path d="M131.648 38.619V29.0221H126.424V38.619H123.787V26.8294H139.03C141.129 26.8294 142.179 27.7276 142.179 29.524V38.619H139.527V29.9447C139.527 29.3302 139.165 29.0227 138.441 29.0221H134.281V38.619H131.648Z" fill="white"/>
<path d="M147.058 33.7281V35.2232C147.058 36.0348 147.573 36.4409 148.605 36.4415H155.177V38.619H147.541C145.479 38.619 144.448 37.7208 144.448 35.9244V29.6312C144.448 27.7609 145.479 26.8258 147.541 26.8258H155.181V29.0221H148.609C148.081 29.0221 147.691 29.145 147.44 29.3909C147.189 29.6369 147.063 29.9876 147.062 30.4431V31.5506H154.389V33.7281H147.058Z" fill="white"/>
<path d="M157.441 26.8053L165.081 26.8276C167.144 26.8276 168.175 27.7627 168.174 29.633V35.9244C168.174 37.7214 167.143 38.6196 165.081 38.619H157.441V26.8053ZM164.013 29.0239H160.11V36.4433H164.013C165.044 36.4433 165.56 36.0372 165.56 35.225V30.4431C165.56 29.9882 165.434 29.6375 165.182 29.391C164.931 29.1444 164.541 29.0215 164.013 29.0221" fill="white"/>
<path d="M83.1616 26.8053L90.8015 26.8276C92.8643 26.8276 93.8955 27.7627 93.8949 29.633V35.9244C93.8949 37.7214 92.8637 38.6196 90.8015 38.619H83.1616V26.8053ZM89.7341 29.0239H85.8309V36.4433H89.7341C90.7653 36.4433 91.2808 36.0372 91.2808 35.225V30.4431C91.2808 29.9882 91.1549 29.6375 90.9031 29.391C90.6512 29.1444 90.2616 29.0215 89.7341 29.0221" fill="white"/>
<path d="M91.8458 48.9144C91.355 48.9162 90.8672 48.8378 90.4016 48.6821C90.0018 48.5608 89.632 48.3563 89.3164 48.0819L89.6657 47.3433C89.9506 47.5837 90.277 47.7698 90.6288 47.8926C91.0182 48.0373 91.4304 48.1108 91.8458 48.1096C92.1626 48.1198 92.4788 48.0751 92.7804 47.9774C92.9885 47.9108 93.1723 47.784 93.3087 47.613C93.4211 47.4613 93.4809 47.2769 93.4789 47.0879C93.4832 46.9859 93.4655 46.8842 93.4273 46.7896C93.389 46.695 93.331 46.6097 93.2571 46.5395C93.0899 46.3895 92.8941 46.2753 92.6815 46.2036C92.4268 46.1135 92.1667 46.0393 91.9028 45.9812C91.6195 45.9187 91.3347 45.8446 91.0484 45.7589C90.7761 45.6796 90.5135 45.5702 90.2653 45.4329C90.0337 45.3042 89.8375 45.1201 89.6942 44.897C89.5391 44.6359 89.4635 44.3351 89.4768 44.0315C89.4743 43.6985 89.567 43.3718 89.7441 43.0901C89.9472 42.7832 90.236 42.5431 90.5744 42.3997C90.9498 42.2264 91.4265 42.1395 92.0044 42.1389C92.3901 42.1393 92.7741 42.1903 93.1466 42.2907C93.4954 42.3791 93.8268 42.5262 94.1266 42.7257L93.8148 43.4831C93.5405 43.2977 93.2377 43.1586 92.9185 43.0714C92.6202 42.9882 92.3122 42.9453 92.0026 42.9436C91.6915 42.9338 91.3812 42.9819 91.0876 43.0856C90.8796 43.157 90.6973 43.2884 90.5637 43.4635C90.4542 43.6184 90.3962 43.8041 90.398 43.994C90.3933 44.0975 90.4106 44.2008 90.4489 44.2971C90.4871 44.3933 90.5454 44.4803 90.6199 44.5522C90.7864 44.7016 90.9826 44.8142 91.1954 44.8827C91.4509 44.9703 91.7109 45.0446 91.9741 45.1051C92.2574 45.1712 92.5422 45.2453 92.8285 45.3275C93.101 45.4041 93.3638 45.512 93.6117 45.649C93.8424 45.7765 94.0384 45.9586 94.1828 46.1795C94.3369 46.4357 94.4125 46.7317 94.4002 47.0307C94.4009 47.3612 94.3059 47.6849 94.1266 47.9623C93.9185 48.2708 93.6245 48.5112 93.2811 48.6536C92.901 48.8268 92.4214 48.9135 91.8422 48.9135" fill="white"/>
<path d="M97.9521 48.8384V42.2157H102.614V43.0392H98.8948V48.0158H102.745V48.8384H97.9521ZM98.811 45.0729H102.208V45.8768H98.811V45.0729Z" fill="white"/>
<path d="M106.445 48.8384V42.2157H109.021C109.877 42.2157 110.55 42.4191 111.041 42.8257C111.532 43.2324 111.778 43.7981 111.777 44.5227C111.789 44.9577 111.674 45.3867 111.447 45.7571C111.217 46.1087 110.889 46.3838 110.503 46.5475C110.034 46.742 109.529 46.8354 109.021 46.8217H106.964L107.388 46.3867V48.8367L106.445 48.8384ZM107.388 46.4832L106.964 46.0188H108.993C109.597 46.0188 110.055 45.8881 110.366 45.6267C110.677 45.3653 110.833 44.9979 110.834 44.5245C110.834 44.0482 110.678 43.6823 110.366 43.4268C110.054 43.1714 109.596 43.0422 108.993 43.0392H106.964L107.388 42.5658V46.4832ZM110.863 48.8384L109.184 46.4359H110.193L111.892 48.8384H110.863Z" fill="white"/>
<path d="M117.384 48.8384L114.477 42.2157H115.497L118.167 48.3276H117.582L120.271 42.2157H121.216L118.318 48.8384H117.384Z" fill="white"/>
<path d="M125.171 42.2157H124.227V48.8384H125.171V42.2157Z" fill="white"/>
<path d="M132.275 48.9143C131.8 48.9192 131.328 48.8341 130.884 48.6634C130.472 48.5045 130.096 48.2632 129.78 47.9542C129.468 47.6488 129.219 47.2845 129.048 46.8824C128.695 46.0153 128.695 45.0442 129.048 44.1771C129.221 43.7706 129.473 43.4029 129.79 43.0961C130.107 42.7892 130.482 42.5494 130.893 42.3908C131.798 42.0528 132.794 42.0563 133.696 42.4006C134.118 42.5677 134.495 42.8317 134.796 43.1714L134.182 43.7671C133.944 43.5119 133.655 43.3103 133.333 43.1759C133.012 43.0457 132.669 42.9799 132.323 42.982C131.969 42.979 131.618 43.0432 131.289 43.1714C130.982 43.2911 130.701 43.4712 130.464 43.701C130.229 43.9301 130.044 44.2057 129.921 44.5102C129.662 45.1633 129.662 45.8909 129.921 46.5439C130.044 46.8485 130.229 47.1241 130.464 47.3531C130.701 47.583 130.982 47.763 131.289 47.8828C131.618 48.0113 131.969 48.0756 132.323 48.0721C132.669 48.0747 133.012 48.0089 133.333 47.8783C133.656 47.7427 133.946 47.5375 134.182 47.2772L134.796 47.8738C134.494 48.2139 134.118 48.4792 133.696 48.6491C133.245 48.8307 132.762 48.9218 132.275 48.917" fill="white"/>
<path d="M138.222 48.8384V42.2157H142.884V43.0392H139.165V48.0158H143.016V48.8384H138.222ZM139.081 45.0729H142.478V45.8768H139.081V45.0729Z" fill="white"/>
<path d="M13.1919 31.7989C14.5354 34.1568 16.3245 35.6118 18.7452 36.2298C20.577 36.6969 22.4248 36.6826 24.2851 36.3933C27.5985 35.8779 30.7124 34.7383 33.7068 33.2878C40.2607 30.1099 46.3289 26.147 52.088 21.7018C52.3437 21.5044 52.6092 21.3213 52.8676 21.1338C53.0689 21.3642 52.8907 21.4071 52.7847 21.5107C51.8284 22.4402 50.8781 23.3753 49.9337 24.3161C49.8517 24.3982 49.7074 24.4733 49.7653 24.6126C49.8143 24.7296 49.9265 24.7698 50.0762 24.7475C51.3236 24.5688 52.4381 25.0243 53.5001 25.5656C56.0429 26.8616 57.6092 29.9733 57.1976 32.784C56.745 35.8743 54.4356 38.3064 51.4759 38.8655C50.1733 39.1111 48.8663 38.9834 47.562 39.0004C46.1026 39.0191 44.6406 39.0441 43.1839 38.9834C42.4773 38.9539 42.3517 39.2129 42.3633 39.8471C42.4013 42.0913 42.4087 44.3361 42.3856 46.5814C42.3571 49.3377 41.2113 51.5224 38.8307 52.9273C36.3645 54.3831 33.8013 54.3304 31.3895 52.838C28.9608 51.3357 27.9451 48.9974 27.9852 46.1688C28.0155 44.0252 28.0048 41.8817 28.0609 39.7381C28.077 39.1192 27.8676 38.9772 27.2885 38.9852C24.972 39.0182 22.6555 39.02 20.3391 39.0066C16.6033 38.9852 13.4066 35.994 13.1411 32.2919C13.1477 32.1262 13.1641 31.9609 13.1901 31.7971" fill="white"/>
<path d="M59.2576 17.1851C57.8446 18.0068 56.4012 18.7794 55.0586 19.7181C54.5071 20.104 54.3209 20.028 54.2567 19.3412C54.2291 19.0438 53.985 19.0804 53.8112 19.0116C53.4753 18.8785 52.8748 18.9554 52.8312 18.6606C52.776 18.2569 53.3782 18.1524 53.6633 17.8791C53.7793 17.7597 53.928 17.6777 54.0907 17.6433C54.2533 17.609 54.4224 17.6239 54.5766 17.6862C55.5121 18.0622 56.2694 17.7755 56.9696 17.1414C57.2975 16.8457 57.7189 16.6626 58.1003 16.2107L52.9711 15.8802C53.1279 15.5489 53.4522 15.4864 53.6607 15.2961C54.7432 14.3137 56.0502 14.0841 57.4561 14.0868C58.4958 14.0868 59.5365 13.9796 60.5744 13.9358C61.0867 13.9176 61.5811 13.7425 61.991 13.4339C62.7492 12.8792 63.5368 12.3621 64.2799 11.7896C64.6289 11.5053 65.0734 11.3659 65.5218 11.4002C66.011 11.4279 66.5019 11.393 66.9928 11.4118C67.2289 11.4207 67.5773 11.2734 67.6263 11.686C67.6664 12.0308 67.7893 12.3702 67.3501 12.6444C65.6923 13.678 64.0153 14.6792 62.3189 15.648C62.081 15.7829 61.9206 15.9963 61.7496 16.1991C60.5432 17.6281 59.344 19.0688 58.1234 20.4862C57.98 20.6532 57.9114 21.1114 57.4944 20.8122C57.0775 20.513 57.4499 20.2629 57.5835 20.0548C58.1617 19.1286 58.6526 18.1471 59.3422 17.2914C59.4001 17.2655 59.5088 17.2611 59.442 17.1601C59.3841 17.0708 59.3146 17.1601 59.2531 17.1842M59.5792 17.0628L59.6229 17.1423C59.6363 17.128 59.663 17.1119 59.6612 17.1021C59.6514 17.0731 59.6385 17.0453 59.6229 17.019L59.5792 17.0628Z" fill="white"/>
<path d="M45.1902 24.6921C41.7039 26.925 38.1169 28.8426 34.2841 30.2466C31.458 31.2809 28.5954 32.2321 25.5172 32.0534C23.4938 31.9346 21.7387 31.271 20.5804 29.4642C19.9692 28.504 19.7198 27.4224 19.6396 26.3131C19.5665 25.3173 20.2534 24.7055 21.393 24.6948C23.255 24.6778 25.1171 24.6903 26.9783 24.6894C28.035 24.6894 28.0278 24.6894 28.0376 23.6283C28.0528 22.1189 27.9824 20.605 27.9735 19.0956C28.4208 20.6507 29.3531 22.0215 30.6337 23.007C31.9144 23.9926 33.4763 24.5411 35.0905 24.5724C36.7047 24.6036 38.2865 24.1159 39.6042 23.1807C40.9219 22.2455 41.9062 20.9118 42.4131 19.3751C42.4024 20.6372 42.3543 21.901 42.3641 23.1621C42.3774 24.7082 42.3641 24.7082 43.9304 24.6939C44.3491 24.6894 44.7679 24.6939 45.1866 24.6939" fill="white"/>
<path d="M41.2077 16.9967C41.2077 18.1802 40.8576 19.3372 40.2017 20.3213C39.5458 21.3054 38.6135 22.0724 37.5228 22.5253C36.432 22.9782 35.2318 23.0967 34.0738 22.8658C32.9159 22.6349 31.8523 22.065 31.0174 21.2281C30.1826 20.3912 29.6141 19.3249 29.3837 18.1641C29.1534 17.0033 29.2716 15.8001 29.7234 14.7067C30.1752 13.6132 30.9403 12.6786 31.922 12.0211C32.9037 11.3635 34.0578 11.0126 35.2384 11.0126C36.8216 11.0126 38.3399 11.643 39.4594 12.7653C40.5788 13.8875 41.2077 15.4096 41.2077 16.9967Z" fill="white"/>
</g>
</g>
<defs>
<clipPath id="clip0_19_192">
<rect width="181.316" height="65" fill="white"/>
</clipPath>
</defs>
</svg>
