<svg width="27" height="25" viewBox="0 0 27 25" fill="none" xmlns="http://www.w3.org/2000/svg">
<g clip-path="url(#clip0_44_112)">
<path d="M13.1059 6.74449H25.5323C26.178 6.74449 26.182 6.7445 26.182 7.38734C26.182 12.6534 26.182 17.9201 26.182 23.1874C26.182 24.2207 25.68 24.7295 24.6556 24.7295C16.9434 24.7295 9.23056 24.7295 1.51708 24.7295C0.52297 24.7295 0.0190657 24.2207 0.0180873 23.2168C0.0180873 17.9008 0.0180872 12.5849 0.00732422 7.26797C0.00732422 6.81103 0.182468 6.73176 0.585591 6.73274C4.76033 6.74448 8.93507 6.74709 13.1098 6.74057L13.1059 6.74449ZM6.74594 9.15833C4.56888 9.15833 2.77146 10.9303 2.76265 13.0859C2.75722 13.6124 2.85624 14.1348 3.05398 14.6228C3.25173 15.1108 3.54428 15.5548 3.9147 15.9291C4.28512 16.3033 4.72608 16.6004 5.21205 16.8031C5.69802 17.0059 6.21937 17.1103 6.74594 17.1102C7.26863 17.111 7.78634 17.0087 8.26946 16.8092C8.75258 16.6097 9.19163 16.317 9.5615 15.9476C9.93137 15.5783 10.2248 15.1397 10.425 14.6569C10.6252 14.1741 10.7282 13.6565 10.7282 13.1338C10.7277 12.6112 10.6243 12.0939 10.4238 11.6112C10.2234 11.1286 9.92983 10.6903 9.55995 10.3211C9.19007 9.95195 8.7511 9.65925 8.2681 9.45975C7.7851 9.26024 7.26754 9.15781 6.74496 9.15833H6.74594ZM23.4159 15.76C23.4159 15.4831 23.41 15.2062 23.4159 14.9292C23.4276 14.487 23.2319 14.258 22.776 14.2629C22.2222 14.2675 21.6677 14.2675 21.1126 14.2629C20.6899 14.2629 20.4776 14.4586 20.4785 14.8852C20.4785 15.2923 20.4785 15.6993 20.4785 16.1073C20.4785 17.2032 20.4883 17.212 21.5607 17.213H21.9521C23.4941 17.2228 23.4276 17.3049 23.4149 15.76H23.4159ZM16.0696 19.3861C15.7927 19.3861 15.5158 19.393 15.2399 19.3861C14.7947 19.3724 14.5726 19.572 14.5794 20.027C14.5873 20.5798 14.5912 21.1336 14.5794 21.6904C14.5687 22.1551 14.8016 22.3371 15.2399 22.3274C15.5814 22.3205 15.9248 22.3274 16.2653 22.3274C17.5109 22.3274 17.5109 22.3274 17.5119 21.1053C17.5119 21.0074 17.5119 20.9096 17.5119 20.8117C17.5285 19.301 17.5813 19.3744 16.0696 19.3861ZM17.5129 15.7658V15.7169C17.5207 14.215 17.6195 14.2541 16.053 14.2492C14.4327 14.2492 14.5853 14.2375 14.5853 15.7003C14.5794 17.3177 14.4933 17.2042 16.0951 17.2071C17.6058 17.2188 17.5226 17.2629 17.5129 15.7698V15.7658ZM10.1529 19.3861C9.87601 19.3861 9.59911 19.3939 9.32319 19.3861C8.89854 19.3714 8.68034 19.5681 8.67741 19.9918C8.67741 20.5788 8.67741 21.1659 8.67741 21.753C8.67741 22.1326 8.8731 22.3234 9.25274 22.3254C9.85482 22.3254 10.4566 22.3254 11.058 22.3254C11.4151 22.3254 11.5971 22.1297 11.603 21.7784C11.6089 21.4692 11.603 21.16 11.6079 20.8509C11.6235 19.2755 11.6637 19.3763 10.1529 19.3851V19.3861ZM20.4815 10.5918C20.4815 10.9019 20.4815 11.2111 20.4815 11.5203C20.4815 11.8687 20.6498 12.0741 21.0147 12.0771C21.6344 12.081 22.2541 12.081 22.8738 12.0771C23.2006 12.0771 23.4041 11.9146 23.409 11.5761C23.4188 10.942 23.4208 10.3041 23.409 9.67202C23.4031 9.34619 23.2133 9.16126 22.8836 9.15539C22.5538 9.14952 22.2319 9.15539 21.9051 9.15539C20.411 9.14169 20.4658 9.06343 20.4815 10.5908V10.5918ZM5.70682 20.8734C5.70682 20.5642 5.72052 20.254 5.70682 19.9458C5.68823 19.6102 5.517 19.392 5.15595 19.3891C4.53757 19.3891 3.91821 19.3802 3.29689 19.3891C2.94073 19.3949 2.76657 19.6102 2.76265 19.9556C2.7558 20.5573 2.75385 21.1601 2.76265 21.7628C2.76265 22.1121 2.95834 22.3049 3.31254 22.3127C3.63739 22.3195 3.96322 22.3195 4.291 22.3185C5.71758 22.3146 5.73324 22.4673 5.7078 20.8724L5.70682 20.8734ZM16.0452 12.0771C16.3387 12.0771 16.6322 12.0771 16.9258 12.0771C17.3309 12.0771 17.5207 11.8814 17.5129 11.4753C17.507 10.9059 17.5129 10.3364 17.5129 9.76692C17.5129 9.36674 17.3289 9.15541 16.9258 9.15346C16.3387 9.15346 15.7516 9.15346 15.1646 9.15346C14.7595 9.15346 14.5726 9.35893 14.5775 9.76107C14.5834 10.3305 14.5863 10.9 14.5775 11.4694C14.5716 11.9068 14.7888 12.0898 15.2096 12.079C15.4914 12.0771 15.7683 12.0771 16.0452 12.0771ZM21.9785 19.3822C21.7016 19.3822 21.4247 19.389 21.1488 19.3822C20.7065 19.3675 20.4766 19.5622 20.4805 20.0162C20.4805 20.5857 20.4805 21.1552 20.4805 21.7246C20.4805 22.1004 20.6615 22.3117 21.0402 22.3117C21.6419 22.3186 22.2447 22.3117 22.8464 22.3117C23.226 22.3117 23.4129 22.116 23.4129 21.7344C23.4129 21.1473 23.4129 20.5603 23.4129 19.9732C23.4129 19.5818 23.2172 19.3695 22.8092 19.3754C22.5313 19.3891 22.2535 19.3861 21.9785 19.3861V19.3822Z" fill="white"/>
<path d="M13.0556 6.01064C8.89914 6.01064 4.73876 6.00478 0.587174 6.01848C0.153719 6.01848 -0.0292522 5.92063 0.000101404 5.45195C0.0392396 4.81889 0.000101345 4.17996 0.0137997 3.54592C0.0284765 2.61639 0.513789 2.12715 1.43256 2.11443C1.83862 2.10954 2.36209 1.98527 2.61649 2.18683C2.83664 2.361 2.75934 2.91871 2.80044 3.30912C2.91394 4.39912 3.75639 5.19265 4.81116 5.19656C5.88746 5.19656 6.71915 4.44022 6.84243 3.34239C6.85124 3.26118 6.85417 3.17997 6.85711 3.09876C6.88744 2.06062 6.88744 2.07041 7.9021 2.10662C8.19563 2.1164 8.29935 2.21521 8.30522 2.50973C8.31305 2.92949 8.31109 3.36393 8.41677 3.76607C8.65551 4.67603 9.49307 5.23374 10.4461 5.19362C10.898 5.17548 11.3301 5.00303 11.6704 4.70499C12.0106 4.40695 12.2384 4.00132 12.3159 3.55569C12.367 3.21742 12.3834 2.87482 12.3648 2.53321C12.3531 2.20836 12.4832 2.11249 12.7934 2.10466C13.7885 2.07726 13.7885 2.06746 13.8051 3.06548C13.8237 4.11732 14.4568 4.95097 15.3892 5.15253C16.3422 5.35801 17.3266 4.904 17.6769 3.99697C17.8403 3.57232 17.8481 3.0743 17.8559 2.60855C17.8628 2.21717 18.0017 2.09977 18.3765 2.10466C19.5164 2.11934 19.304 2.03323 19.3177 3.03615C19.3344 4.29836 20.1729 5.18873 21.3519 5.1946C22.531 5.20047 23.3597 4.3052 23.3764 3.03027C23.3891 2.07041 23.2032 2.10758 24.2883 2.11149C24.5006 2.11149 24.7129 2.1115 24.9243 2.12031C25.6151 2.16434 26.1346 2.64575 26.164 3.33066C26.1963 4.11343 26.164 4.89619 26.1796 5.67896C26.1855 6.03316 25.9546 6.01162 25.7198 6.01162C24.53 6.01162 23.3402 6.01162 22.1504 6.01162L13.0556 6.01064Z" fill="white"/>
<path d="M6.10862 2.27194C6.10862 2.61342 6.13113 2.95685 6.10373 3.29736C6.07705 3.61672 5.93161 3.91446 5.69612 4.13184C5.46063 4.34921 5.15221 4.47041 4.83174 4.4715C4.50968 4.47596 4.19818 4.35666 3.96151 4.13819C3.72483 3.91972 3.58102 3.61875 3.55975 3.29736C3.5211 2.5823 3.5211 1.86569 3.55975 1.15063C3.59791 0.486262 4.19085 -0.00884279 4.85229 -0.00590743C5.16642 0.000922844 5.4673 0.122025 5.69856 0.334736C5.92982 0.547447 6.07561 0.837182 6.10862 1.14965C6.13993 1.52147 6.10862 1.9011 6.10862 2.27194Z" fill="white"/>
<path d="M22.6444 2.2749C22.6444 2.60073 22.6649 2.92851 22.6444 3.25336C22.6257 3.57348 22.4894 3.87542 22.2617 4.10117C22.034 4.32692 21.7308 4.46056 21.4106 4.47642C20.7452 4.49599 20.1493 4.03808 20.0965 3.35218C20.0375 2.60542 20.0388 1.85511 20.1004 1.10857C20.1591 0.423649 20.7775 -0.0342465 21.4301 0.00489163C21.7504 0.0260934 22.0515 0.164871 22.2756 0.394601C22.4998 0.624331 22.6311 0.928805 22.6444 1.24948C22.6649 1.58998 22.6444 1.9344 22.6444 2.2749Z" fill="white"/>
<path d="M11.6273 2.26903C11.6273 2.59485 11.6459 2.92165 11.6273 3.24748C11.613 3.57718 11.4722 3.88868 11.2343 4.11734C10.9963 4.346 10.6794 4.47425 10.3494 4.47544C10.028 4.48218 9.71644 4.36469 9.47949 4.14744C9.24255 3.93018 9.09854 3.62989 9.07745 3.30911C9.03538 2.59415 9.03538 1.87735 9.07745 1.16239C9.10147 0.841373 9.24807 0.541903 9.48688 0.326043C9.7257 0.110183 10.0384 -0.00550246 10.3602 0.00293339C10.6815 0.00845125 10.9892 0.134011 11.2226 0.354924C11.456 0.575837 11.5983 0.876105 11.6214 1.19664C11.6498 1.5528 11.6263 1.91287 11.6263 2.27294L11.6273 2.26903Z" fill="white"/>
<path d="M17.1367 2.26807C17.1367 2.57726 17.1475 2.88743 17.1367 3.19662C17.1314 3.53471 16.9944 3.85739 16.7548 4.09603C16.5153 4.33467 16.1921 4.47045 15.854 4.47448C15.5239 4.47962 15.2049 4.35565 14.965 4.12902C14.725 3.90238 14.583 3.59098 14.5693 3.26119C14.538 2.57627 14.537 1.89135 14.5693 1.20643C14.5872 0.877071 14.7318 0.567429 14.973 0.342355C15.2141 0.11728 15.533 -0.00574772 15.8628 -0.000964191C16.1927 0.00470206 16.508 0.136025 16.7444 0.366219C16.9807 0.596413 17.1204 0.908121 17.1348 1.23775C17.1534 1.57825 17.1348 1.92267 17.1348 2.26317L17.1367 2.26807Z" fill="white"/>
<path d="M6.12222 13.355C6.63395 12.8736 7.10752 12.4313 7.57816 11.9851C7.72101 11.8521 7.84919 11.7023 7.99987 11.5791C8.2621 11.3628 8.54585 11.355 8.79242 11.5918C9.03899 11.8286 9.0566 12.1358 8.82764 12.3804C8.09282 13.1632 7.35409 13.946 6.5772 14.6808C6.43826 14.8099 6.00969 14.8168 5.84727 14.6994C5.41675 14.3872 5.04396 13.988 4.67313 13.5976C4.44221 13.353 4.44906 13.0497 4.68487 12.8051C4.92067 12.5604 5.21813 12.5683 5.47937 12.7689C5.70931 12.9469 5.91283 13.1602 6.12222 13.355Z" fill="white"/>
</g>
<defs>
<clipPath id="clip0_44_112">
<rect width="26.1825" height="24.7324" fill="white"/>
</clipPath>
</defs>
</svg>
