<svg width="40" height="40" viewBox="0 0 40 40" fill="none" xmlns="http://www.w3.org/2000/svg">
<g clip-path="url(#clip0_996_2234)">
<path d="M0 14.45C0.03259 14.3963 0.0594061 14.3393 0.08 14.28C0.177 13.9098 0.371931 13.5726 0.644304 13.3038C0.916678 13.035 1.25643 12.8446 1.62785 12.7525C1.99928 12.6604 2.38865 12.6701 2.75504 12.7805C3.12143 12.8909 3.45131 13.098 3.71 13.38C3.91739 13.5982 4.09861 13.8398 4.25 14.1L7 18.65L7.21 18.99C7.50236 18.8883 7.80371 18.8147 8.11 18.77C8.4679 18.7346 8.82884 18.7935 9.15691 18.9409C9.48498 19.0882 9.76875 19.3189 9.98 19.61C10.92 20.79 11.89 21.95 12.81 23.15C13.601 24.1528 14.5302 25.0383 15.57 25.78C16.11 26.16 16.65 26.56 17.17 26.96C18.3388 27.779 19.3064 28.8527 20 30.1L20.19 29.82C20.8349 28.6498 21.759 27.657 22.88 26.93C25.2468 25.3102 27.3029 23.2779 28.95 20.93C29.28 20.49 29.63 20.08 29.95 19.65C30.2301 19.2441 30.646 18.9516 31.1226 18.8251C31.5993 18.6986 32.1055 18.7464 32.55 18.96L32.73 19.02L32.95 18.66L35.81 14C35.9892 13.6589 36.2466 13.3651 36.5612 13.1426C36.8758 12.9201 37.2387 12.7753 37.62 12.72C38.0892 12.6627 38.564 12.7646 38.9684 13.0094C39.3728 13.2542 39.6832 13.6277 39.85 14.07L40 14.46V15.24C39.93 15.42 39.87 15.61 39.8 15.78C38.39 19.07 36.96 22.34 35.58 25.64C34.7539 27.6734 33.4586 29.4826 31.8 30.92C30.88 31.69 30.02 32.52 29.14 33.33C29.032 33.4572 28.9319 33.5907 28.84 33.73H29.11C29.94 33.73 30.16 33.98 30.16 34.82C30.16 36.18 30.16 37.55 30.16 38.92C30.1992 39.1354 30.1666 39.3577 30.0673 39.5528C29.9679 39.7479 29.8073 39.905 29.61 40H10.39C10.1965 39.906 10.0385 39.7521 9.9394 39.5611C9.84032 39.3702 9.80546 39.1523 9.84 38.94C9.84 37.62 9.84 36.31 9.84 34.99C9.84 33.99 9.98 33.81 11.01 33.74C11.01 33.74 11.01 33.74 11.13 33.66C11.0537 33.5364 10.9631 33.4223 10.86 33.32C10.08 32.6 9.31 31.85 8.49 31.17C6.70156 29.6831 5.30424 27.7811 4.42 25.63C3 22.15 1.48 18.7 0 15.23V14.45ZM27.32 33.73C27.43 32.55 27.32 32.89 28.2 32.06C29.08 31.23 30.15 30.26 31.14 29.37C32.3097 28.3461 33.2327 27.071 33.84 25.64C35.24 22.38 36.6433 19.1233 38.05 15.87C38.1992 15.5953 38.3135 15.3031 38.39 15C38.397 14.8848 38.3802 14.7694 38.3406 14.661C38.301 14.5527 38.2396 14.4536 38.16 14.37C38.117 14.3243 38.0651 14.2879 38.0075 14.263C37.9499 14.2381 37.8878 14.2252 37.825 14.2252C37.7622 14.2252 37.7001 14.2381 37.6425 14.263C37.5849 14.2879 37.533 14.3243 37.49 14.37C37.3479 14.5035 37.2235 14.6547 37.12 14.82C36.0333 16.5933 34.95 18.37 33.87 20.15C33.8028 20.2717 33.7555 20.4033 33.73 20.54C33.6571 21.0778 33.5435 21.6094 33.39 22.13C33.0802 22.955 32.7264 23.7629 32.33 24.55C31.92 25.38 31.46 26.18 31.01 26.98C30.9362 27.1368 30.8097 27.2628 30.6525 27.3359C30.4953 27.409 30.3175 27.4246 30.15 27.38C29.9923 27.3552 29.8478 27.2772 29.7404 27.159C29.6331 27.0407 29.5695 26.8894 29.56 26.73C29.5724 26.4876 29.6409 26.2514 29.76 26.04C30.5 24.52 31.2367 23 31.97 21.48C32.0779 21.2868 32.1396 21.0711 32.15 20.85C32.1537 20.7656 32.1385 20.6814 32.1056 20.6036C32.0728 20.5258 32.023 20.4562 31.96 20.4C31.7709 20.3427 31.5691 20.3427 31.38 20.4C31.29 20.4 31.21 20.56 31.14 20.65C30.14 21.85 29.14 23.04 28.24 24.27C27.1428 25.5599 25.8744 26.6937 24.47 27.64C23.6579 28.2448 22.8955 28.9136 22.19 29.64C21.6961 30.1905 21.317 30.834 21.0749 31.5329C20.8328 32.2318 20.7325 32.9719 20.78 33.71L27.32 33.73ZM19.2 33.73C19.2537 32.9552 19.1412 32.1778 18.87 31.45C18.3741 30.1213 17.4621 28.9883 16.27 28.22C14.0544 26.7468 12.1121 24.8992 10.53 22.76C10 22 9.36 21.29 8.78 20.56C8.70799 20.4495 8.59739 20.3699 8.4698 20.3366C8.34221 20.3033 8.20679 20.3188 8.09 20.38C8.03315 20.4058 7.98202 20.4427 7.93958 20.4885C7.89714 20.5343 7.86426 20.5881 7.84285 20.6467C7.82144 20.7054 7.81192 20.7677 7.81487 20.8301C7.81781 20.8925 7.83316 20.9536 7.86 21.01C7.9149 21.2247 7.98507 21.4353 8.07 21.64C8.8 23.13 9.54 24.64 10.26 26.12C10.3752 26.3311 10.4305 26.5697 10.42 26.81C10.4036 26.9686 10.3311 27.1162 10.2156 27.2262C10.1002 27.3361 9.94923 27.4013 9.79 27.41C9.6318 27.435 9.46976 27.4086 9.32761 27.3348C9.18545 27.2611 9.07065 27.1437 9 27C8.22 25.43 7.42 23.87 6.69 22.27C6.50959 21.7201 6.38234 21.1542 6.31 20.58C6.27256 20.433 6.21537 20.2917 6.14 20.16C5.25333 18.72 4.37333 17.29 3.5 15.87C3.25 15.46 3.01 15.04 2.74 14.64C2.47 14.24 2.16 14.17 1.87 14.32C1.58 14.47 1.49 14.82 1.67 15.24C3.07 18.49 4.48 21.73 5.85 24.99C6.61919 26.8893 7.84139 28.5715 9.41 29.89C10.41 30.7 11.28 31.59 12.22 32.43C12.3738 32.5437 12.4946 32.6962 12.5702 32.8719C12.6457 33.0476 12.6733 33.2402 12.65 33.43C12.6403 33.5465 12.6403 33.6635 12.65 33.78L19.2 33.73ZM19.2 35.34H11.44V38.42H19.2V35.34ZM20.8 38.41H28.56V35.33H20.8V38.41Z" fill="#58595B"/>
<path d="M20.8603 0C21.7388 0.158013 22.607 0.368388 23.4603 0.63C25.7915 1.48729 27.7265 3.17117 28.8975 5.36161C30.0685 7.55206 30.394 10.0964 29.812 12.5111C29.23 14.9257 27.7811 17.0424 25.7408 18.4589C23.7004 19.8753 21.2108 20.4928 18.745 20.1939C16.2793 19.895 14.0092 18.7006 12.3664 16.8377C10.7235 14.9748 9.82233 12.5733 9.8341 10.0895C9.84586 7.60572 10.7698 5.21282 12.4302 3.36558C14.0906 1.51833 16.3719 0.345509 18.8403 0.07C18.9403 0.07 19.0403 0.07 19.1403 0H20.8603ZM11.4103 10.16C11.4123 11.8585 11.9178 13.5183 12.8629 14.9296C13.808 16.3409 15.1502 17.4404 16.72 18.089C18.2898 18.7376 20.0167 18.9063 21.6823 18.5737C23.3479 18.2411 24.8776 17.4222 26.0779 16.2205C27.2783 15.0188 28.0954 13.4882 28.426 11.8222C28.7567 10.1561 28.586 8.42948 27.9355 6.86044C27.2851 5.29141 26.1841 3.95042 24.7717 3.00698C23.3593 2.06354 21.6989 1.56 20.0003 1.56C17.722 1.56529 15.5387 2.47338 13.9286 4.08533C12.3185 5.69728 11.413 7.88168 11.4103 10.16Z" fill="#58595B"/>
<path d="M22.7296 7.41999H24.5696C24.6908 7.40382 24.814 7.4156 24.9299 7.45445C25.0457 7.49331 25.1512 7.55819 25.2381 7.64412C25.325 7.73005 25.391 7.83474 25.4312 7.95017C25.4713 8.0656 25.4845 8.18869 25.4696 8.30999V12C25.4806 12.1179 25.4653 12.2367 25.4249 12.3479C25.3844 12.4592 25.3197 12.56 25.2355 12.6433C25.1514 12.7265 25.0498 12.79 24.9381 12.8292C24.8264 12.8684 24.7074 12.8823 24.5896 12.87H22.7296V14.54C22.7296 15.37 22.4896 15.6 21.6596 15.6C20.5096 15.6 19.3696 15.6 18.2196 15.6C17.5496 15.6 17.2696 15.32 17.2696 14.66C17.2696 14 17.2696 13.49 17.2696 12.87H15.4496C15.3251 12.8904 15.1975 12.881 15.0773 12.8426C14.9571 12.8043 14.8476 12.738 14.7579 12.6493C14.6682 12.5605 14.6008 12.4518 14.5611 12.332C14.5214 12.2122 14.5106 12.0847 14.5296 11.96V8.30999C14.5148 8.18869 14.528 8.0656 14.5681 7.95017C14.6083 7.83474 14.6743 7.73005 14.7612 7.64412C14.8481 7.55819 14.9535 7.49331 15.0694 7.45445C15.1853 7.4156 15.3085 7.40382 15.4296 7.41999H17.2696C17.2696 6.80999 17.2696 6.22999 17.2696 5.64999C17.2696 5.06999 17.5396 4.64999 18.2696 4.64999H21.7996C22.4396 4.64999 22.7296 4.92999 22.7296 5.56999C22.7296 6.20999 22.7296 6.77999 22.7296 7.41999ZM21.1696 14.05V12.33C21.1696 11.59 21.4396 11.33 22.1696 11.33H23.8696V8.99999H22.2796C21.3996 8.99999 21.1696 8.77999 21.1696 7.89999V6.26999H18.8296V7.99999C18.8296 8.65999 18.5396 8.93999 17.8296 8.93999H16.1196V11.29H17.8596C18.5496 11.29 18.8596 11.56 18.8596 12.29V14.04L21.1696 14.05Z" fill="#EE4423"/>
</g>
<defs>
<clipPath id="clip0_996_2234">
<rect width="40" height="40" fill="white"/>
</clipPath>
</defs>
</svg>
