<svg width="41" height="41" viewBox="0 0 41 41" fill="none" xmlns="http://www.w3.org/2000/svg">
<g clip-path="url(#clip0_996_2111)">
<path d="M0.000293543 22.1844V8.97247C-0.0329227 8.4926 0.037139 8.01119 0.205754 7.56069C0.37437 7.11019 0.637619 6.70108 0.977752 6.36095C1.31788 6.02082 1.72699 5.75757 2.17749 5.58895C2.62799 5.42033 3.10941 5.35027 3.58928 5.38349H5.27161C5.36592 5.37093 5.46181 5.37819 5.55315 5.40478C5.6445 5.43138 5.72929 5.47673 5.80212 5.53795C5.87494 5.59917 5.9342 5.6749 5.97611 5.76031C6.01801 5.84572 6.04164 5.93893 6.04549 6.03399C6.04549 6.43775 5.75388 6.71814 5.27161 6.71814H3.58928C3.28736 6.68851 2.98263 6.72617 2.69702 6.82842C2.41141 6.93067 2.15201 7.09497 1.9375 7.30948C1.72299 7.52399 1.55869 7.78339 1.45644 8.069C1.35419 8.35461 1.31653 8.65934 1.34616 8.96126V35.4749C1.32437 35.7662 1.3657 36.0588 1.46734 36.3326C1.56897 36.6065 1.72852 36.8552 1.93508 37.0618C2.14165 37.2683 2.39035 37.4279 2.66423 37.5295C2.9381 37.6312 3.23068 37.6725 3.52198 37.6507H24.1923C24.3618 37.665 24.5194 37.7441 24.6322 37.8715C24.7449 37.9989 24.8043 38.1648 24.7979 38.3349C24.7983 38.4969 24.7372 38.6531 24.6268 38.7717C24.5165 38.8904 24.3652 38.9628 24.2035 38.9741C24.0766 38.9854 23.949 38.9854 23.8222 38.9741H3.63414C3.14966 39.0143 2.66222 38.9491 2.20538 38.7829C1.74854 38.6166 1.33314 38.3534 0.987793 38.0112C0.642441 37.6691 0.375335 37.2561 0.204862 36.8009C0.0343891 36.3456 -0.0354019 35.8588 0.000293543 35.3739V22.1844Z" fill="#595959"/>
<path d="M4.03847 9.47715V34.9702H21.6357C21.8063 34.976 21.9677 35.0487 22.0852 35.1725C22.2027 35.2962 22.2668 35.4612 22.2638 35.6319C22.267 35.8018 22.2048 35.9665 22.09 36.0917C21.9751 36.217 21.8165 36.2933 21.6469 36.3048C21.546 36.3048 21.4226 36.3048 21.3105 36.3048C15.6354 36.3048 9.94907 36.3048 4.26278 36.3048C4.05234 36.3359 3.83757 36.3178 3.63526 36.2521C3.43294 36.1864 3.24856 36.0748 3.09653 35.926C2.94449 35.7773 2.82893 35.5954 2.75885 35.3945C2.68878 35.1937 2.66611 34.9793 2.6926 34.7683V9.64538C2.66121 9.43242 2.67969 9.21507 2.74658 9.01046C2.81347 8.80585 2.92695 8.61956 3.07807 8.46626C3.2292 8.31297 3.41384 8.19684 3.61748 8.12703C3.82111 8.05723 4.03817 8.03564 4.25156 8.06399H5.30583C5.39968 8.05455 5.49448 8.06495 5.58405 8.09452C5.67363 8.12409 5.75599 8.17216 5.82579 8.23561C5.89559 8.29907 5.95127 8.37649 5.98922 8.46285C6.02716 8.54921 6.04653 8.64259 6.04605 8.73692C6.04605 9.12947 5.74323 9.38742 5.28339 9.39864H4.16184L4.03847 9.47715Z" fill="#595959"/>
<path d="M19.47 3.36471H22.0048C22.2098 3.33655 22.4185 3.35524 22.6152 3.41939C22.8119 3.48354 22.9915 3.59147 23.1405 3.73506C23.2895 3.87865 23.404 4.05416 23.4753 4.24838C23.5467 4.44261 23.5731 4.65049 23.5525 4.85638V9.93704C23.5734 10.1371 23.5495 10.3393 23.4827 10.529C23.4158 10.7187 23.3077 10.8911 23.166 11.0339C23.0243 11.1767 22.8526 11.2861 22.6634 11.3544C22.4743 11.4227 22.2723 11.4481 22.0721 11.4287H8.8601C8.66387 11.4456 8.46632 11.4196 8.28116 11.3524C8.09601 11.2853 7.92768 11.1786 7.78788 11.0399C7.64808 10.9012 7.54016 10.7337 7.4716 10.549C7.40304 10.3644 7.37549 10.167 7.39086 9.97069C7.39086 8.24349 7.39086 6.5275 7.39086 4.8003C7.37718 4.60632 7.4057 4.41168 7.47445 4.22978C7.5432 4.04787 7.65056 3.88303 7.78913 3.74659C7.92769 3.61016 8.09418 3.50537 8.27713 3.43944C8.46008 3.37352 8.65514 3.34802 8.84888 3.36471H11.4733C11.5693 2.82308 11.7738 2.30644 12.0745 1.84582C12.3751 1.38519 12.7658 0.990069 13.223 0.684187C13.9328 0.203942 14.778 -0.035863 15.6343 3.66915e-05C16.5571 0.0535898 17.4355 0.413682 18.1304 1.02321C18.8252 1.63273 19.2967 2.45679 19.47 3.36471ZM22.1618 4.71058H18.9429C18.4158 4.71058 18.1915 4.48627 18.1466 3.95914C18.131 3.70795 18.0859 3.45949 18.012 3.21891C17.8261 2.61763 17.4345 2.10095 16.9059 1.75938C16.3773 1.41781 15.7453 1.27314 15.1208 1.35071C14.4962 1.42828 13.9188 1.72314 13.4898 2.18364C13.0608 2.64415 12.8075 3.24092 12.7743 3.86941C12.7743 4.51991 12.5276 4.71058 11.8883 4.72179H8.77038V10.0941H22.1618V4.71058Z" fill="#595959"/>
<path d="M30.9224 14.7709V20.7825C30.9338 20.9206 30.9338 21.0594 30.9224 21.1975C30.9016 21.3567 30.8235 21.5029 30.7028 21.6089C30.5821 21.7148 30.4269 21.7732 30.2663 21.7732C30.1057 21.7732 29.9506 21.7148 29.8299 21.6089C29.7092 21.5029 29.6311 21.3567 29.6102 21.1975C29.5934 21.0596 29.5934 20.9203 29.6102 20.7825V8.97249C29.6399 8.67057 29.6022 8.36584 29.4999 8.08023C29.3977 7.79461 29.2334 7.53522 29.0189 7.3207C28.8044 7.10619 28.545 6.9419 28.2594 6.83965C27.9738 6.7374 27.669 6.69974 27.3671 6.72937H25.6623C25.1689 6.72937 24.866 6.44898 24.8773 6.04522C24.8811 5.95016 24.9047 5.85695 24.9466 5.77154C24.9885 5.68612 25.0478 5.61039 25.1206 5.54918C25.1935 5.48796 25.2782 5.4426 25.3696 5.41601C25.4609 5.38941 25.5568 5.38216 25.6511 5.39472H27.6251C28.4942 5.41193 29.3229 5.76486 29.9376 6.37955C30.5523 6.99423 30.9052 7.82297 30.9224 8.6921C30.9224 10.7221 30.9224 12.7521 30.9224 14.7822V14.7709Z" fill="#595959"/>
<path d="M8.07634 16.1392V20.1881H8.49131C9.4895 20.1881 10.4989 20.1881 11.5083 20.1881C11.8627 20.1691 12.2132 20.105 12.5514 19.9974C12.6375 19.9696 12.7283 19.9592 12.8185 19.9667C12.9087 19.9743 12.9965 19.9996 13.0768 20.0414C13.1572 20.0831 13.2284 20.1403 13.2864 20.2098C13.3445 20.2793 13.3882 20.3596 13.415 20.446C13.467 20.5521 13.4947 20.6685 13.4962 20.7867C13.4977 20.9049 13.4728 21.022 13.4234 21.1293C13.374 21.2367 13.3013 21.3318 13.2106 21.4076C13.1199 21.4834 13.0135 21.538 12.899 21.5676C12.7872 21.5787 12.6744 21.5787 12.5626 21.5676C10.9139 21.5676 9.26519 21.5676 7.60528 21.5676C6.95478 21.5115 6.73047 21.3096 6.73047 20.6367V15.7018C6.73047 15.0401 6.95478 14.8158 7.6165 14.8158H9.91569C10.4092 14.8158 10.712 15.0738 10.7344 15.4663C10.7569 15.8588 10.4204 16.1504 9.90448 16.1617L8.07634 16.1392Z" fill="#595959"/>
<path d="M8.08705 26.222V30.2821H8.44595C9.46657 30.2821 10.4872 30.2821 11.5078 30.2821C11.8611 30.2615 12.211 30.2014 12.5508 30.1026C12.637 30.0748 12.7278 30.0644 12.818 30.072C12.9082 30.0795 12.996 30.1049 13.0763 30.1466C13.1567 30.1883 13.2279 30.2456 13.2859 30.315C13.344 30.3845 13.3877 30.4648 13.4144 30.5513C13.4585 30.6544 13.4798 30.7659 13.4771 30.878C13.4745 30.9901 13.4478 31.1004 13.3989 31.2014C13.35 31.3023 13.2801 31.3916 13.1937 31.4633C13.1074 31.5349 13.0068 31.5873 12.8985 31.6167C12.7867 31.6279 12.6739 31.6279 12.5621 31.6167H7.60478C6.94306 31.6167 6.72997 31.3924 6.71875 30.7307V25.7959C6.71875 25.1341 6.94306 24.9098 7.60478 24.9098H9.91519C10.4087 24.9098 10.7227 25.1678 10.7339 25.5715C10.7451 25.9753 10.4199 26.2557 9.90397 26.2557L8.08705 26.222Z" fill="#595959"/>
<path d="M26.9183 9.4099H25.6173C25.5225 9.41945 25.4268 9.40876 25.3364 9.37853C25.246 9.34829 25.1631 9.29922 25.0931 9.23454C25.0232 9.16986 24.9677 9.09106 24.9305 9.00335C24.8932 8.91564 24.875 8.82102 24.8771 8.72575C24.8782 8.63383 24.8984 8.54315 24.9365 8.45948C24.9745 8.37581 25.0296 8.30099 25.0982 8.23979C25.1668 8.17859 25.2474 8.13235 25.3348 8.10402C25.4223 8.07569 25.5147 8.06589 25.6061 8.07524C26.0435 8.07524 26.4697 8.07524 26.9071 8.07524C27.2543 8.07519 27.5875 8.21154 27.8351 8.45491C28.0827 8.69827 28.2247 9.02915 28.2306 9.37625C28.2306 12.8082 28.2306 16.229 28.2306 19.6609C28.2386 19.7558 28.2263 19.8513 28.1947 19.9411C28.163 20.031 28.1127 20.113 28.047 20.1819C27.9812 20.2508 27.9016 20.305 27.8134 20.3409C27.7252 20.3767 27.6304 20.3935 27.5352 20.3899C27.1539 20.3899 26.8959 20.0759 26.8959 19.6049V9.4099H26.9183Z" fill="#595959"/>
<path d="M19.8745 16.1392H23.3626C23.8897 16.1392 24.2037 16.3972 24.2037 16.8122C24.2037 17.2271 23.8897 17.4851 23.3626 17.4851H16.308C15.7808 17.4851 15.4668 17.2271 15.4668 16.8122C15.4668 16.3972 15.7808 16.1392 16.308 16.1392H19.8745Z" fill="#595959"/>
<path d="M10.6773 17.8777L13.5148 14.513C13.5988 14.3737 13.729 14.2682 13.8826 14.2149C14.0363 14.1617 14.2038 14.1639 14.356 14.2214C14.4616 14.2639 14.5547 14.3326 14.6266 14.4209C14.6984 14.5092 14.7467 14.6143 14.7669 14.7264C14.7871 14.8384 14.7785 14.9538 14.7419 15.0616C14.7054 15.1695 14.642 15.2663 14.5579 15.343L12.4942 17.8216L11.3727 19.1787C11.3162 19.2736 11.2375 19.3535 11.1435 19.4115C11.0494 19.4694 10.9427 19.5037 10.8324 19.5114C10.7222 19.5191 10.6118 19.5001 10.5105 19.4558C10.4093 19.4115 10.3203 19.3434 10.2511 19.2572C9.83613 18.8646 9.43237 18.4497 9.02861 18.0459C8.95701 17.9828 8.89966 17.9051 8.86038 17.8181C8.8211 17.7311 8.80078 17.6367 8.80078 17.5412C8.80078 17.4457 8.8211 17.3514 8.86038 17.2643C8.89966 17.1773 8.95701 17.0997 9.02861 17.0365C9.09465 16.9685 9.17453 16.9154 9.26284 16.881C9.35116 16.8465 9.44585 16.8314 9.5405 16.8368C9.63515 16.8421 9.72756 16.8677 9.81146 16.9118C9.89536 16.9559 9.9688 17.0176 10.0268 17.0926C10.195 17.3169 10.4081 17.5861 10.6773 17.8777Z" fill="#595959"/>
<path d="M10.6662 27.9717L13.4589 24.6743C13.5361 24.5765 13.6224 24.4864 13.7169 24.4051C13.8298 24.2962 13.9805 24.2353 14.1375 24.2353C14.2944 24.2353 14.4451 24.2962 14.558 24.4051C14.6853 24.4975 14.7717 24.6357 14.7989 24.7906C14.8262 24.9455 14.792 25.1049 14.7038 25.2351C14.6005 25.4004 14.4802 25.5545 14.3449 25.6949L11.4065 29.1605C10.9691 29.6764 10.6214 29.6989 10.1503 29.2278C9.67926 28.7568 9.38766 28.4764 9.02876 28.1063C8.66986 27.7361 8.65864 27.3548 8.96147 27.0744C9.02827 27.007 9.10878 26.9548 9.19755 26.9213C9.28631 26.8877 9.38126 26.8737 9.47593 26.88C9.57061 26.8864 9.6628 26.9131 9.74626 26.9582C9.82972 27.0034 9.9025 27.066 9.95965 27.1417C10.1952 27.4109 10.4195 27.6913 10.6662 27.9717Z" fill="#595959"/>
<path d="M17.4633 20.188H16.2072C16.1124 20.1976 16.0166 20.1869 15.9262 20.1567C15.8359 20.1264 15.753 20.0774 15.683 20.0127C15.613 19.948 15.5576 19.8692 15.5203 19.7815C15.4831 19.6938 15.4649 19.5992 15.467 19.5039C15.468 19.412 15.4883 19.3213 15.5263 19.2376C15.5644 19.154 15.6195 19.0791 15.6881 19.0179C15.7567 18.9567 15.8372 18.9105 15.9247 18.8822C16.0121 18.8538 16.1045 18.844 16.196 18.8534H18.7531C18.848 18.8411 18.9444 18.8491 19.036 18.877C19.1275 18.9049 19.2121 18.952 19.2839 19.0152C19.3558 19.0783 19.4134 19.1561 19.4529 19.2433C19.4923 19.3304 19.5127 19.425 19.5127 19.5207C19.5127 19.6164 19.4923 19.711 19.4529 19.7982C19.4134 19.8854 19.3558 19.9631 19.2839 20.0263C19.2121 20.0894 19.1275 20.1365 19.036 20.1644C18.9444 20.1923 18.848 20.2004 18.7531 20.188H17.4633Z" fill="#595959"/>
<path d="M17.1044 27.5679C16.7791 27.5679 16.4651 27.5679 16.1398 27.5679C16.0515 27.5679 15.964 27.5505 15.8823 27.5167C15.8007 27.4829 15.7265 27.4333 15.664 27.3708C15.6015 27.3083 15.5519 27.2341 15.5181 27.1525C15.4843 27.0708 15.4669 26.9833 15.4669 26.895C15.4654 26.8076 15.4815 26.7209 15.5142 26.6399C15.5469 26.559 15.5956 26.4854 15.6573 26.4237C15.7191 26.3619 15.7926 26.3132 15.8736 26.2805C15.9546 26.2478 16.0413 26.2317 16.1286 26.2332C16.8015 26.2332 17.4745 26.2332 18.1474 26.2332C18.2357 26.2302 18.3236 26.2451 18.4059 26.2771C18.4882 26.3092 18.5631 26.3576 18.626 26.4195C18.689 26.4814 18.7387 26.5555 18.7721 26.6373C18.8055 26.719 18.8219 26.8067 18.8204 26.895C18.8204 27.0715 18.751 27.241 18.6272 27.3669C18.5035 27.4928 18.3352 27.565 18.1586 27.5679C17.811 27.5791 17.4521 27.5679 17.1044 27.5679Z" fill="#595959"/>
<path d="M17.1606 30.282C16.8242 30.282 16.4877 30.282 16.1512 30.282C16.0563 30.2944 15.9599 30.2863 15.8684 30.2584C15.7768 30.2305 15.6923 30.1834 15.6204 30.1203C15.5485 30.0571 15.4909 29.9794 15.4515 29.8922C15.412 29.805 15.3916 29.7104 15.3916 29.6147C15.3916 29.519 15.412 29.4244 15.4515 29.3372C15.4909 29.2501 15.5485 29.1723 15.6204 29.1091C15.6923 29.046 15.7768 28.9989 15.8684 28.971C15.9599 28.9431 16.0563 28.9351 16.1512 28.9474C16.8129 28.9474 17.4635 28.9474 18.1252 28.9474C18.2135 28.9459 18.3013 28.9618 18.3836 28.9943C18.4658 29.0267 18.5408 29.0751 18.6043 29.1365C18.6679 29.198 18.7187 29.2713 18.7538 29.3524C18.789 29.4335 18.8079 29.5207 18.8093 29.6091C18.8093 29.6999 18.7913 29.7898 18.7562 29.8735C18.7211 29.9573 18.6697 30.0332 18.605 30.0969C18.5403 30.1606 18.4635 30.2107 18.3792 30.2444C18.2949 30.2781 18.2047 30.2947 18.114 30.2932H17.1606V30.282Z" fill="#595959"/>
<path d="M30.273 36.2061C33.1783 36.2061 35.5554 33.829 35.5554 30.9236C35.5554 28.0183 33.1783 25.6412 30.273 25.6412C27.3676 25.6412 24.9905 28.0183 24.9905 30.9236C24.9905 33.829 27.3676 36.2061 30.273 36.2061ZM30.273 24.3206C33.9046 24.3206 36.876 27.292 36.876 30.9236C36.876 34.5553 33.9046 37.5267 30.273 37.5267C26.6413 37.5267 23.6699 34.5553 23.6699 30.9236C23.6699 27.292 26.6413 24.3206 30.273 24.3206ZM30.6031 31.4519L27.4337 33.3007L26.9714 32.3763L29.6127 30.8576V27.6221H30.6031V31.4519Z" fill="#EE4423"/>
</g>
<defs>
<clipPath id="clip0_996_2111">
<rect width="40.3536" height="40.32" fill="white"/>
</clipPath>
</defs>
</svg>
