<svg width="84" height="64" viewBox="0 0 84 64" fill="none" xmlns="http://www.w3.org/2000/svg">
<g clip-path="url(#clip0_901_2036)">
<path d="M2.45032 19.4317C1.59803 14.6803 0.841072 10.4187 0 5.71192C2.20922 5.71192 4.48572 5.71192 6.76783 5.71192C10.6312 5.77553 10.6311 5.78825 10.7377 1.53939C10.7377 1.04327 10.8274 0.547144 10.8835 -0.00622559C11.1806 0.146428 11.4442 0.203674 11.4442 0.292722C12.0049 5.86458 12.0049 5.85822 17.1242 5.75009C18.9353 5.71192 20.7464 5.75009 22.4454 5.75009C21.5707 10.546 20.7969 14.8203 19.939 19.5143C20.1185 19.4635 20.2642 19.2981 19.939 19.5143C15.7953 20.3985 16.014 20.3794 16.3 25.2834C16.8607 34.3663 17.1691 43.4746 17.6009 52.5702C17.7635 56.1003 17.8531 55.9922 22.3389 56.1003C24.8789 56.1639 25.1929 54.8282 25.1817 52.4366C25.1088 40.8986 26.2414 39.7155 36.5698 39.4293C37.9702 39.3175 39.2961 38.6719 40.3322 37.5974C42.9227 34.8179 48.9448 34.8242 51.2886 37.8964C53.3408 40.5805 55.2753 40.5297 57.406 37.731C59.4414 35.0468 66.198 34.767 68.1325 37.5656C69.3044 39.2639 70.594 39.4738 72.2313 39.512C74.1878 39.4799 76.1429 39.6437 78.0739 40.0017C81.4999 40.7459 83.1989 43.2138 83.2662 47.1256C83.3166 49.8797 83.3335 52.6402 83.2998 55.3943C83.2381 61.3287 80.9953 63.9556 75.7806 63.9747C56.2715 64.0001 36.7567 64.0129 17.2364 64.0129C14.2478 64.0129 11.2592 64.0129 8.26493 63.9747C4.54739 63.9747 4.28947 63.7712 4.45208 59.4078C4.85579 48.9383 5.36603 38.4688 5.83703 27.993C5.86506 27.3569 5.92676 26.7209 5.9604 26.0848C6.25197 20.6974 6.25197 20.6974 2.45032 19.4317ZM70.2968 58.9562V58.9244C71.3173 58.9244 72.3434 58.9244 73.3695 58.9244C75.0517 58.9244 75.9096 57.7859 75.5003 56.0876C75.2535 55.0635 74.2779 53.6769 73.4817 53.5434C71.3902 53.149 69.2147 53.308 67.0783 53.3271C65.4242 53.3271 64.8355 54.4656 64.8355 56.2339C64.8355 58.0021 65.57 58.988 67.2073 58.9626C68.2614 58.9244 69.2931 58.9562 70.3192 58.9562H70.2968ZM38.3361 58.9562V58.9244C39.1772 58.9244 40.0182 58.8862 40.8481 58.9244C42.5807 59.0071 43.6797 58.4664 43.7021 56.1321C43.7246 53.7978 42.7153 53.1999 40.9658 53.1999C39.1043 53.2381 37.2483 53.3207 35.3587 53.3589C33.7887 53.3589 32.9308 54.1985 32.9532 56.0558C32.9532 58.0085 33.8055 58.9753 35.5381 58.9371C36.4969 58.9244 37.4221 58.9626 38.3529 58.9626L38.3361 58.9562ZM54.2436 58.9244C55.2641 58.9244 56.2902 58.9244 57.3163 58.9244C58.9984 58.9244 59.6152 57.9258 59.6208 56.1321C59.6264 54.3384 59.0601 53.3207 57.3387 53.3525C55.2865 53.3907 53.2399 53.3525 51.1709 53.3525C49.6625 53.3525 49.0289 54.2112 49.0345 55.9349C49.0401 57.6587 49.4214 58.9244 51.1877 58.9244H54.2436ZM38.252 50.1659V50.274C39.2725 50.274 40.293 50.274 41.3079 50.274C42.9003 50.3313 43.6853 49.5807 43.7021 47.6789C43.7189 45.7771 43.175 44.6895 41.3303 44.734C39.2949 44.7785 37.2595 44.734 35.2241 44.6831C33.6934 44.6831 33.0373 45.5545 33.0766 47.2273C33.1158 48.9002 33.4018 50.1913 35.2017 50.1659C36.2166 50.1532 37.2371 50.1659 38.252 50.1659ZM69.966 50.3122V50.1977C71.0874 50.1977 72.2089 50.1977 73.3303 50.1977C75.0124 50.1977 75.5731 49.1673 75.5731 47.38C75.5731 45.5927 74.8722 44.664 73.2237 44.7022C71.1771 44.7467 69.1305 44.7403 67.0559 44.7022C65.3177 44.6704 64.813 45.7898 64.813 47.5326C64.813 49.2754 65.4691 50.3186 67.1288 50.2995C68.1044 50.2995 69.0352 50.3122 69.9436 50.3122H69.966ZM53.9071 50.2486V50.1405C55.1127 50.1405 56.436 50.4903 57.4845 50.0323C57.947 49.7646 58.3562 49.3923 58.687 48.9384C59.0178 48.4844 59.2631 47.9583 59.4078 47.3927C59.7666 45.8789 59.0601 44.7912 57.4453 44.7976C55.3145 44.7976 53.1782 44.7594 51.0475 44.6831C49.2868 44.6195 48.8046 45.7898 48.8046 47.4881C48.8046 49.1864 49.399 50.3186 51.098 50.255C52.0512 50.2232 52.9764 50.2486 53.9071 50.2486ZM16.0364 12.3778L13.5637 9.14663C12.9525 10.0943 11.9376 10.9848 11.8367 11.9898C11.7021 13.4209 11.1021 15.8634 13.5188 15.6916C14.259 15.6344 14.9262 13.8916 16.0364 12.3778ZM11.5059 12.0534L8.82565 9.16571C8.30979 9.93534 7.27246 10.8195 7.38461 11.4492C7.64814 12.9375 6.67252 15.5326 9.12284 15.5199C9.80131 15.5136 10.4461 13.6753 11.5059 12.0534ZM19.44 9.68727C16.5018 9.09574 15.515 10.5141 16.0757 14.1397C16.1654 14.7248 16.8046 15.7234 17.0177 15.6662C17.6289 15.5136 18.4699 15.0301 18.6325 14.4641C19.0004 12.8953 19.2702 11.2991 19.44 9.68727ZM6.94727 12.6895L4.59787 9.25476C4.09883 9.89082 3.07272 10.7686 3.19608 11.2202C3.73812 12.841 4.39245 14.4106 5.15297 15.9143C5.66322 14.9983 6.17348 14.0888 6.94727 12.6895Z" fill="#EE4423"/>
<path d="M83.6914 15.8059L80.0355 22.898C80.6355 23.6612 81.2074 24.3927 82.2167 25.6648C81.0598 25.9264 79.8921 26.1217 78.7178 26.25C70.9744 26.5934 63.5449 24.6026 56.1378 22.3509C54.4557 21.8421 52.6334 21.8803 50.9568 21.3523C49.2803 20.8244 47.7664 19.9021 46.1627 19.1834C43.3928 17.9113 40.5556 16.8045 37.8473 15.4561C37.0904 15.0808 36.5633 14.1013 35.9297 13.4016C36.5969 12.7338 37.2361 11.5507 37.937 11.4935C40.6733 11.2899 43.5834 10.8002 46.1515 11.5889C53.1604 13.7387 60.1133 16.2257 66.898 19.0943C70.7332 20.7099 73.8116 20.4237 76.9908 17.5169C78.6898 15.9459 80.5514 13.8596 83.6914 15.8059Z" fill="#58595B"/>
</g>
<defs>
<clipPath id="clip0_901_2036">
<rect width="83.6923" height="64" fill="white"/>
</clipPath>
</defs>
</svg>
