<svg width="59" height="64" viewBox="0 0 59 64" fill="none" xmlns="http://www.w3.org/2000/svg">
<path d="M29.4433 63.9378C20.6476 63.9378 11.8567 63.847 3.05142 63.9951C0.546584 64.0333 -0.283553 63.1973 0.0619415 60.8419C0.186703 59.982 -0.01965 59.0504 0.225075 58.2382C0.383427 57.7079 1.1128 56.9387 1.53987 56.9673C3.93913 57.1346 3.79518 55.6344 3.79038 54.0339C3.79038 40.7428 3.82398 27.4517 3.76639 14.1605C3.76639 11.1268 4.57254 8.81446 7.3317 7.13755C8.09467 6.65979 8.37299 4.99721 8.42098 3.86015C8.58892 0.0381132 8.53134 -0.00488281 12.3798 -0.00488281C23.8099 -0.00488281 35.24 -0.00488281 46.6701 -0.00488281C49.8755 -0.00488281 50.1538 0.233991 50.0914 3.37284C50.0482 5.33163 50.0914 6.94166 52.3323 7.99272C54.5733 9.04378 54.6116 11.4182 54.6116 13.635C54.6116 26.5248 54.6244 39.4242 54.65 52.3331C54.65 52.9733 54.6836 53.6087 54.65 54.2441C54.554 55.902 54.914 57.1107 56.9821 56.8861C58.3305 56.7428 58.7912 57.4403 58.7816 58.7398C58.7432 64.7786 59.5637 63.9139 53.8919 63.9521C45.7344 64.0047 37.5769 63.9521 29.4194 63.9521L29.4433 63.9378ZM48.9254 40.4132V40.1743C48.9254 36.2519 48.9254 36.2519 45.0865 36.2901C41.6508 36.3236 41.6268 36.3236 41.6652 39.6965C41.7276 44.9805 41.1278 44.3164 46.6557 44.4406C48.4503 44.4788 49.1413 43.8004 48.9446 42.0757C48.9095 41.5238 48.9031 40.9705 48.9254 40.4179V40.4132ZM49.2373 30.2226L48.9206 30.1367C48.8869 29.5814 48.8869 29.0246 48.9206 28.4693C49.1941 26.4102 48.3736 25.6553 46.2478 25.7222C41.099 25.8751 41.7228 25.4117 41.6748 30.1844C41.6395 30.8982 41.6571 31.6136 41.7276 32.3248C41.79 32.7595 42.0731 33.5048 42.2938 33.5192C44.2612 33.6434 46.2958 33.8918 48.1864 33.5192C48.743 33.4045 48.9014 31.374 49.2373 30.2274V30.2226ZM48.9206 18.5798C48.9206 14.6574 48.9206 14.6574 44.8802 14.6717C44.4004 14.6717 43.9205 14.7004 43.4407 14.6717C41.8811 14.6049 41.4205 15.6272 41.6796 16.8169C42.1019 18.79 40.1585 21.7186 43.028 22.6216C47.457 24.0262 48.9158 22.7745 48.9206 18.5845V18.5798ZM16.6073 51.5448C16.6073 47.4123 16.6073 47.4123 13.7282 47.3167C9.37588 47.1686 9.37108 47.1686 9.40947 51.4827C9.36581 52.2793 9.38506 53.078 9.46705 53.8715C9.54383 54.3492 9.89413 55.1614 10.1676 55.1805C12.0698 55.3143 13.9783 55.3334 15.8827 55.2379C16.1562 55.2379 16.5305 54.4114 16.6025 53.9336C16.6644 53.1386 16.666 52.3401 16.6073 51.5448ZM16.6073 40.4609C16.6361 36.3475 16.6361 36.3475 12.5045 36.357C11.9479 36.357 11.3913 36.357 10.8346 36.3952C9.11675 36.4908 9.23671 37.8524 9.45745 38.8461C9.87012 40.6759 8.11865 42.993 10.6523 44.3498C10.7279 44.3752 10.8082 44.3834 10.8874 44.3737C12.3145 44.4489 13.7452 44.4186 15.1677 44.283C15.7099 44.2017 16.3529 43.4182 16.5497 42.821C16.7704 42.1092 16.5881 41.254 16.5881 40.4609H16.6073ZM48.9446 51.5162V51.2773C48.9446 47.3358 48.9446 47.3358 44.8802 47.3597C41.6796 47.3597 41.6796 47.3597 41.6748 50.4699C41.6748 55.8255 41.6748 55.7873 47.1163 55.4672C48.4024 55.3908 49.0357 54.9894 48.9542 53.6517C48.911 52.9208 48.9494 52.2089 48.9446 51.5162ZM16.6073 18.7661L16.852 18.7135C16.5593 17.4475 16.5209 15.2498 15.9355 15.0922C14.0154 14.6628 12.0264 14.6368 10.0957 15.0157C9.69258 15.0826 9.43827 17.0701 9.41908 18.1785C9.3423 23.0086 9.38067 22.956 14.2896 22.8174C16.017 22.7745 16.8136 22.1868 16.6169 20.4287C16.5817 19.8687 16.5785 19.3073 16.6073 18.747V18.7661ZM16.6073 29.7927L16.8376 29.7592C16.6025 28.541 16.5977 26.4149 16.0842 26.2716C14.1623 25.8511 12.1783 25.7927 10.2348 26.0996C9.83173 26.1522 9.41426 27.9533 9.42866 28.9662C9.46704 33.9348 8.27222 33.7485 14.2656 33.8392C16.0554 33.8631 16.7608 33.1752 16.6169 31.4505C16.5593 30.8915 16.5977 30.3325 16.5977 29.7736L16.6073 29.7927ZM27.4183 40.3463C27.4183 36.2137 27.4184 36.2089 23.2676 36.2806C22.7878 36.2806 22.1592 36.1277 21.876 36.3666C21.2714 36.8825 20.3597 37.6852 20.4365 38.2394C20.7436 40.2794 18.949 43.1459 21.4442 44.2447C25.235 45.8978 27.3896 44.2256 27.4088 40.3272L27.4183 40.3463ZM38.1911 40.3797C37.9607 36.3092 37.9607 36.3092 33.9875 36.3379C33.5941 36.3379 33.0998 36.1994 32.8167 36.3809C32.1449 36.8157 31.0173 37.4511 31.0604 37.924C31.2428 40.0644 29.7025 42.8401 32.0202 44.1826C33.3637 44.9518 35.6814 44.5744 37.3225 44.0154C37.9559 43.7861 37.9176 41.6314 38.1815 40.3606L38.1911 40.3797ZM27.4376 29.7592C27.4376 25.7556 27.4375 25.7556 23.4068 25.7986C22.9269 25.7986 22.3127 25.6362 22.0008 25.8655C21.3626 26.3433 20.3549 27.1172 20.4317 27.6237C20.7484 29.6732 18.9202 32.5398 21.4298 33.6577C25.2158 35.3298 27.4376 33.629 27.428 29.7401L27.4376 29.7592ZM27.404 18.919C27.3464 14.3469 28.095 14.7052 22.9941 14.6956C22.6726 14.6956 22.2503 14.581 22.0584 14.7386C21.4442 15.2498 20.4845 15.8136 20.4125 16.4442C19.7311 22.4352 20.5757 23.4194 25.7197 22.7076C26.3483 22.6216 27.0345 21.7091 27.3512 21.0259C27.6103 20.4191 27.3992 19.6117 27.3944 18.8999L27.404 18.919ZM30.9933 29.7688C30.9549 34.3027 30.6286 33.7724 35.1056 33.8297C35.66 33.879 36.2185 33.8533 36.7659 33.7533C37.1642 33.6434 37.788 33.2755 37.7928 32.9841C37.8312 30.7864 38.1767 28.4311 37.4761 26.4579C37.2314 25.77 34.3186 25.8464 32.6392 25.9229C32.0681 25.9467 31.3627 26.9548 31.0508 27.6571C30.7773 28.2304 30.9885 29.0617 30.9837 29.7497L30.9933 29.7688ZM37.9607 18.8712L38.1959 18.833C37.9511 17.5574 37.9991 15.3597 37.4089 15.1734C35.5946 14.685 33.6919 14.618 31.8474 14.9775C31.3676 15.0539 31.0077 16.9506 30.9933 18.016C30.9261 23.1089 31.0796 23.1614 36.0893 22.8318C37.5289 22.7362 38.0615 22.1247 37.9655 20.7679C37.9128 20.1181 37.9511 19.5066 37.9511 18.8521L37.9607 18.8712ZM30.9645 51.2821C31.0221 55.7921 30.3119 55.4242 35.2016 55.4433C35.7578 55.4756 36.3158 55.4499 36.8667 55.3669C37.1978 55.2952 37.74 54.9751 37.7448 54.7601C37.788 52.486 37.9943 50.1498 37.5193 47.9712C37.4137 47.4935 34.8033 47.546 33.3446 47.3693C33.1094 47.3406 32.7783 47.2833 32.644 47.4027C32.0537 47.9521 31.3388 48.4776 31.022 49.1704C30.7437 49.7437 30.9549 50.5607 30.9549 51.263L30.9645 51.2821ZM27.3992 47.46C25.283 47.46 23.4644 47.4218 21.6409 47.4935C21.2426 47.4935 20.5325 47.8948 20.5229 48.1289C20.4413 50.3409 20.2446 52.6054 20.6668 54.741C20.7628 55.2188 23.1717 55.2188 24.5057 55.4529C26.8569 55.8303 27.6487 54.7745 27.3848 52.5147C27.26 50.9954 27.3896 49.4809 27.3896 47.4266L27.3992 47.46ZM13.4306 8.95301H17.5478C17.8981 7.69652 18.282 6.33969 18.5843 5.25997L15.4268 2.97153L12.3462 5.22653C12.7109 6.50373 13.0691 7.73474 13.421 8.91957L13.4306 8.95301ZM45.2305 8.83835C45.6048 7.62963 46.0127 6.3397 46.3342 5.30297L43.1767 2.9142L40.1153 5.17397C40.5088 6.55469 40.8926 7.8924 41.2237 9.03901L45.2305 8.83835ZM30.7533 5.28864L31.9098 8.98645H35.8926C36.2957 7.61052 36.6795 6.27281 36.9914 5.20742L33.8964 2.98108C32.8263 3.74071 31.761 4.5099 30.7438 5.25519L30.7533 5.28864ZM22.8262 8.93868H26.7418C27.1784 7.55797 27.5911 6.23459 27.9222 5.18353L24.8032 3.00019L21.6697 5.25519L22.8262 8.93868Z" fill="#EE4423"/>
</svg>
