<svg width="84" height="64" viewBox="0 0 84 64" fill="none" xmlns="http://www.w3.org/2000/svg">
<g clip-path="url(#clip0_901_2068)">
<path d="M45.5883 31.626C45.4462 35.1825 45.9598 38.8537 42.9769 41.8365C42.1356 42.6778 42.2449 44.568 42.1137 46.0048C41.6712 50.9762 41.196 55.9531 40.961 60.9409C40.8409 63.5686 39.557 64.0111 37.2789 64.0057C34.9025 64.0057 33.5367 63.4921 33.4001 60.7606C33.1488 55.6854 32.7555 50.6102 32.1382 45.5623C31.9142 43.6939 30.8817 41.9239 30.248 40.0992C29.8054 38.8373 29.1881 37.5808 29.057 36.2751C28.8494 34.2046 29.1225 32.0904 28.9423 30.0144C28.609 26.2612 29.4612 23.2729 33.127 21.4046C33.7662 21.0822 33.9902 19.5143 34.0284 18.5037C34.094 16.75 33.7334 14.9745 33.8099 13.2209C33.8863 11.3088 35.0773 10.1561 37.0058 10.2544C38.9342 10.3528 40.7753 10.9919 40.9228 13.2536C41.043 14.9854 40.5459 16.7445 40.5185 18.4982C40.5185 19.4652 40.6223 21.0877 41.1359 21.3008C46.0472 23.3276 45.7084 27.4959 45.5883 31.626Z" fill="#EE4423"/>
<path d="M63.5468 10.4402L66.6717 8.37513C67.3327 12.0245 67.9337 15.3296 68.6603 19.3504L57.6303 17.5531L59.5205 14.6522C54.7021 7.64307 41.1809 3.2562 31.0141 5.82932C12.4397 10.5221 4.87331 23.3767 5.21202 41.9512L0.699512 42.7488C-1.9774 32.4018 3.1306 16.242 14.2753 7.78511C21.7761 2.09804 30.151 -0.365805 39.5256 0.0384631C48.9003 0.442731 56.6907 4.28873 63.5468 10.4402Z" fill="#58595B"/>
<path d="M47.212 41.5579C47.212 36.4008 46.7367 31.1781 47.4141 26.1138C47.7419 23.6663 48.239 21.421 47.8894 18.8916C47.6272 17.0014 48.7034 15.3679 51.1017 15.3897C53.5 15.4116 54.2375 16.9413 54.3249 18.9517C54.3446 19.7686 54.1724 20.5788 53.8223 21.3172C52.9646 23.1146 53.5 24.2946 55.2154 25.0649C57.1275 25.9226 57.8759 27.414 57.7503 29.4353C57.499 33.5381 58.2966 37.7119 55.5049 41.5087C54.4779 42.9127 54.8712 45.3766 54.6909 47.3652C54.4123 50.3535 54.1446 53.3472 53.9917 56.341C53.9042 58.4006 53.0848 59.1873 50.9706 59.149C49.0148 59.1163 47.873 58.6792 47.7255 56.5104C47.3813 51.5226 46.9224 46.5402 46.5127 41.5524L47.212 41.5579Z" fill="#EE4423"/>
<path d="M17.0656 33.27C17.0656 31.2705 16.8471 29.9484 17.1312 28.7411C17.4153 27.5337 17.9233 26.0095 18.7701 25.5998C21.3978 24.3378 21.8731 22.6333 20.9061 20.0985C20.7214 19.3897 20.7309 18.6444 20.9335 17.9406C21.3104 16.2033 22.4194 15.3074 24.255 15.4002C26.0906 15.4931 26.9866 16.5584 27.1395 18.3557C27.1723 18.6261 27.1723 18.8994 27.1395 19.1698C26.1289 24.9497 27.0958 30.7734 27.6312 36.4386C28.2813 43.3439 26.8882 49.9597 26.7626 56.7066C26.7189 58.8918 25.5279 59.1322 23.7524 59.1322C21.9769 59.1322 20.8898 58.7115 20.775 56.6028C20.5456 52.2323 20.114 47.911 19.7152 43.5679C19.6333 42.6829 19.6333 41.5411 19.1088 40.9893C16.7925 38.5255 16.9017 35.5645 17.0656 33.27Z" fill="#EE4423"/>
<path d="M80.8753 38.9515C80.8753 39.7655 80.8753 40.5905 80.8753 41.4045C80.8753 45.2996 80.8316 45.2286 76.8982 45.1576C74.8058 45.1248 74.1667 44.2945 74.3251 42.3551C74.4398 40.7161 74.2814 39.0772 74.3251 37.4383C74.418 35.2913 73.2325 34.9034 71.3914 34.8925C69.5504 34.8815 68.3594 35.253 68.3976 37.3782C68.3976 39.0171 68.2228 40.656 68.3703 42.2949C68.6216 45.0265 66.9827 45.1357 64.9668 45.1248C62.951 45.1139 61.4377 44.9336 61.8256 42.3605C61.8658 41.9082 61.8785 41.454 61.8638 41.0002C61.9895 32.5379 61.9622 32.4887 69.7143 28.7356C70.6703 28.2767 72.0907 28.4952 73.2161 28.7356C74.1503 28.9486 74.9698 29.6643 75.8329 30.1724C80.8753 33.1497 80.8753 33.1552 80.8753 38.9515Z" fill="#EE4423"/>
<path d="M60.5796 32.1177C59.5689 29.6593 61.2515 29.2223 62.4425 28.5558C72.276 23.0107 72.9043 23.0216 81.5633 29.266C82.2407 29.7522 82.5575 30.7355 83.0438 31.484L82.2899 32.1887C79.46 30.6262 76.5864 29.1512 73.833 27.4686C72.1613 26.4525 70.7573 26.376 69.0692 27.4085C66.3814 29.0474 63.5624 30.4787 60.5796 32.1177Z" fill="#EE4423"/>
</g>
<defs>
<clipPath id="clip0_901_2068">
<rect width="83.0498" height="64" fill="white"/>
</clipPath>
</defs>
</svg>
