<svg width="62" height="64" viewBox="0 0 62 64" fill="none" xmlns="http://www.w3.org/2000/svg">
<g clip-path="url(#clip0_901_2021)">
<path d="M20.3668 0.0104001C23.2091 0.0104001 26.0515 0.0468406 28.8938 0.0104001C31.2917 -0.0312463 32.9299 0.921414 34.0616 3.13388C34.3518 3.55063 34.7296 3.8978 35.1682 4.15065C35.6068 4.40349 36.0954 4.55579 36.599 4.5967C40.8108 4.74767 45.033 4.64356 49.2499 4.66959C52.4333 4.66959 53.7046 5.83568 53.7976 8.95916C53.8855 11.9941 53.8441 15.0291 53.7976 18.0641C53.7614 19.8861 53.1878 21.3594 51.3842 22.3172C50.7538 22.6556 50.3868 23.9206 50.3041 24.8004C50.0819 27.2992 49.2344 28.0228 47.5807 26.4402C43.2811 22.3328 38.1959 21.906 32.7387 22.2756C31.6353 22.3423 30.5393 22.0563 29.6069 21.4583C26.253 19.1209 21.4056 18.9543 17.9741 21.2709C16.4754 22.312 15.0285 23.3896 13.4626 24.2902C11.473 25.4355 10.3154 24.8108 10.3154 22.4734C10.3626 21.7577 10.2188 21.0424 9.89889 20.4016C9.57902 19.7608 9.09473 19.218 8.49631 18.8293C7.47553 17.9489 6.83283 16.7045 6.70305 15.3571C6.45499 11.8171 6.53253 8.25117 6.59455 4.69561C6.64106 1.76996 8.35161 0.114514 11.3386 0.0572503C14.3256 -1.34176e-05 17.3643 0.0572503 20.3772 0.0572503L20.3668 0.0104001ZM12.1655 22.4422C12.8425 22.2756 13.1629 22.2964 13.3179 22.1454C17.4522 18.0849 22.5477 17.6945 27.8964 18.1526C28.4168 18.1736 28.9377 18.1281 29.4467 18.0172C31.4054 17.6737 32.4906 16.57 32.4751 14.4825C32.4751 11.359 32.4751 8.23554 32.4751 5.11207C32.4751 3.02975 31.4105 1.81681 29.3434 1.79598C23.4159 1.73351 17.4884 1.74393 11.5608 1.76996C9.61773 1.76996 8.49114 2.76948 8.46013 4.79973C8.42912 8.17309 8.36711 11.5673 8.46013 14.925C8.46013 15.6954 8.90973 16.9605 9.42134 17.127C11.9846 17.9756 12.3773 19.9121 12.1655 22.4422Z" fill="#EE4423"/>
<path d="M15.6121 50.5743C16.3821 50.7929 17.2297 51.0636 18.0927 51.2822C22.8058 52.4796 25.7204 58.1122 23.7773 62.5892C23.5356 62.969 23.2104 63.2876 22.8268 63.5205C22.4433 63.7534 22.0117 63.8943 21.5655 63.9323C15.1987 64.026 8.82156 64.026 2.44444 63.8803C1.98888 63.788 1.56252 63.5852 1.20232 63.2895C0.842114 62.9938 0.558932 62.614 0.377304 62.1832C-0.997343 56.1705 1.35403 52.49 7.29706 51.0115C7.72833 50.8626 8.14382 50.6708 8.53735 50.4389C6.86297 48.1379 5.3281 45.9099 3.66922 43.7859C2.55296 42.3595 2.17056 41.0372 3.00258 39.2621C3.48319 38.2209 3.46252 36.9142 3.49353 35.7273C3.56071 33.0203 4.84232 31.0421 7.42108 30.6725C10.3744 30.2508 13.372 30.2508 16.3253 30.6725C19.3226 31.1306 20.3459 32.911 20.6146 36.0084C20.7283 37.2787 21.2141 38.528 21.2606 39.793C21.3019 40.9383 21.2916 42.2918 20.7438 43.2081C19.2555 45.66 17.4622 47.9505 15.6121 50.5743ZM6.07228 40.7249C6.07228 40.9696 6.12397 41.6567 6.21182 42.3387C6.72861 46.42 9.07481 48.7366 12.4132 48.4399C15.8809 48.1275 18.0152 45.3164 18.0152 41.3288C18.0152 39.5692 17.2607 38.882 15.6741 38.5957C14.0049 38.2938 12.2633 38.0439 10.744 37.3515C6.99731 35.6649 6.0051 36.2011 6.07228 40.7249ZM11.1316 54.26L12.775 54.3901C12.9868 53.3073 13.2039 52.2297 13.4158 51.1469L11.0954 50.8033L11.1316 54.26Z" fill="#58595B"/>
<path d="M53.2601 50.5274C53.6165 50.7187 53.9861 50.884 54.366 51.0219C60.7483 52.7346 62.588 55.3532 61.6733 61.85C61.5648 62.6308 60.371 63.8438 59.6579 63.8646C53.1291 64.0243 46.5987 64.0347 40.0665 63.8959C39.405 63.8959 38.3146 62.7454 38.1958 62.0114C37.1932 55.7019 39.2293 52.6982 45.3377 51.0115C45.6859 50.8777 46.0172 50.7029 46.3248 50.491C44.5677 48.0442 42.7435 45.8057 41.281 43.3486C40.6815 42.3387 40.7125 40.8602 40.7125 39.5952C40.7125 38.4187 41.1673 37.2526 41.2293 36.0709C41.3895 32.9891 42.4283 31.1202 45.4153 30.7037C48.5322 30.3107 51.6878 30.3475 54.7949 30.8131C56.9964 31.115 58.1333 32.9683 58.2677 35.3629C58.3556 36.883 58.986 38.3771 58.9912 39.8868C59.0274 41.2021 58.719 42.5038 58.0972 43.661C56.707 45.9827 55.0016 48.1015 53.2601 50.5274ZM44.1285 40.7093H44.0871C44.0871 41.0581 44.0871 41.4068 44.0871 41.7504C44.268 46.014 46.547 48.6012 50.0043 48.4659C53.5443 48.3253 55.8285 45.3424 55.7303 41.1778C55.6838 39.2829 54.7691 38.705 53.0947 38.3563C51.1094 37.9355 49.1692 37.3218 47.3015 36.5238C45.5961 35.8106 44.4437 36.2219 44.1491 38.0855C44.0734 38.9582 44.0665 39.8355 44.1285 40.7093ZM49.1413 54.4317H50.6038L51.1774 51.0896L48.5935 51.0636C48.7761 52.1915 48.9587 53.3142 49.1413 54.4317Z" fill="#EE4423"/>
</g>
<defs>
<clipPath id="clip0_901_2021">
<rect width="61.8901" height="64" fill="white"/>
</clipPath>
</defs>
</svg>
