<svg width="94" height="94" viewBox="0 0 94 94" fill="none" xmlns="http://www.w3.org/2000/svg">
<circle cx="46.5428" cy="46.5428" r="46.5428" fill="white"/>
<path d="M90.1623 43.0665V51.4151C89.8569 51.6042 89.8714 51.6041 89.8132 52.0259C89.4579 55.1411 88.7153 58.1997 87.6025 61.1309H5.46903C4.37426 58.2283 3.62727 55.2062 3.24371 52.1278C3.24371 51.8659 3.41824 51.4587 2.90918 51.4151V41.5247C3.21462 41.3211 3.18553 41.3211 3.25825 40.8266C3.61254 37.7832 4.33537 34.7942 5.41085 31.9253H87.6315C87.6805 31.9947 87.7242 32.0676 87.7624 32.1435C88.7498 34.9725 89.4372 37.8975 89.8132 40.8702C89.8132 41.0884 89.6532 41.4956 90.1478 41.4811V42.6738C90.046 42.6738 90.0023 42.6738 89.9878 42.7756C89.9732 42.8774 90.0169 43.0374 90.1623 43.0665ZM58.1642 46.6008C58.1642 44.2995 57.4817 42.0498 56.2032 40.1364C54.9246 38.2229 53.1074 36.7315 50.9813 35.8508C48.8551 34.9702 46.5156 34.7397 44.2585 35.1887C42.0014 35.6377 39.9281 36.7458 38.3008 38.3731C36.6735 40.0004 35.5653 42.0737 35.1164 44.3308C34.6674 46.5879 34.8978 48.9274 35.7785 51.0536C36.6592 53.1797 38.1505 54.997 40.064 56.2755C41.9775 57.5541 44.2271 58.2365 46.5285 58.2365C48.0565 58.2365 49.5695 57.9355 50.9813 57.3508C52.393 56.766 53.6757 55.9089 54.7561 54.8285C55.8366 53.748 56.6937 52.4653 57.2784 51.0536C57.8632 49.6419 58.1642 48.1288 58.1642 46.6008Z" fill="#FEFEFE"/>
<path d="M87.6318 31.9254H5.41113C5.41113 31.7654 5.4984 31.6055 5.55658 31.4455C8.98591 22.0644 15.546 14.1533 24.13 9.04676C29.3618 5.88691 35.2179 3.90182 41.2927 3.22892C41.4672 3.22892 41.8163 3.33073 41.7581 2.90894H51.2994C51.2994 3.38891 51.6484 3.19983 51.8521 3.22892C52.7684 3.38891 53.7138 3.47618 54.6301 3.65071C65.2528 5.62817 74.7549 11.4995 81.2758 20.1152C84.0376 23.6704 86.1859 27.6621 87.6318 31.9254Z" fill="#F79839"/>
<path d="M5.46875 61.1311H87.5876C87.2438 62.4135 86.7559 63.6528 86.1332 64.8254C82.5249 72.6587 76.6668 79.2408 69.305 83.7334C64.3913 86.7813 58.9079 88.7955 53.1896 89.6531C52.6951 89.6531 51.997 89.4495 51.6333 90.1185H50.2807C50.1643 89.8858 50.048 89.9731 49.9316 90.1185H42.9502C42.9502 90.0458 42.8339 89.8858 42.7757 90.1185H41.423C41.423 89.7549 41.1758 89.8131 40.9576 89.784L38.7905 89.4495C29.9541 87.9162 21.8177 83.6599 15.5191 77.2756C12.4741 74.2025 9.9185 70.6805 7.94133 66.8326C6.9112 65.0282 6.08205 63.1163 5.46875 61.1311Z" fill="#1E8843"/>
<path d="M58.164 46.601C58.164 48.9023 57.4815 51.152 56.203 53.0655C54.9244 54.9789 53.1072 56.4703 50.9811 57.351C48.8549 58.2317 46.5154 58.4621 44.2583 58.0131C42.0012 57.5642 39.9279 56.456 38.3006 54.8287C36.6733 53.2014 35.5651 51.1281 35.1162 48.871C34.6672 46.6139 34.8976 44.2744 35.7783 42.1482C36.659 40.0221 38.1504 38.2048 40.0638 36.9263C41.9773 35.6478 44.227 34.9653 46.5283 34.9653C49.6142 34.9653 52.5738 36.1912 54.7559 38.3733C56.9381 40.5555 58.164 43.515 58.164 46.601ZM50.8917 55.7205C51.3134 55.3569 52.1134 55.4441 52.1861 54.6151C52.1859 54.5004 52.2294 54.3899 52.3077 54.3061C52.3861 54.2224 52.4935 54.1716 52.6079 54.1642C52.8063 54.1969 53.0096 54.1819 53.201 54.1204C53.3925 54.0589 53.5665 53.9526 53.7086 53.8105C53.8508 53.6683 53.957 53.4943 54.0186 53.3029C54.0801 53.1115 54.0951 52.9081 54.0624 52.7098C54.063 52.6084 54.0978 52.5102 54.1612 52.431C54.2245 52.3518 54.3127 52.2963 54.4114 52.2734C54.6043 52.2514 54.7893 52.1842 54.9513 52.0774C55.1134 51.9705 55.248 51.827 55.3443 51.6585C55.4406 51.49 55.4959 51.3011 55.5057 51.1073C55.5154 50.9134 55.4794 50.72 55.4005 50.5426C55.3693 50.4457 55.3742 50.3408 55.4143 50.2473C55.4544 50.1537 55.527 50.0778 55.6187 50.0335C55.7969 49.9631 55.9562 49.8521 56.0842 49.7094C56.2121 49.5668 56.3052 49.3963 56.356 49.2115C56.4067 49.0268 56.4139 48.8327 56.3768 48.6447C56.3397 48.4567 56.2594 48.2799 56.1423 48.1282C56.0923 48.0447 56.0659 47.9492 56.0659 47.8519C56.0659 47.7545 56.0923 47.659 56.1423 47.5755C56.5059 46.8774 57.0004 46.1938 56.1423 45.4811C55.9677 45.3502 56.0404 45.132 56.1423 44.9284C56.235 44.7757 56.2958 44.6057 56.3211 44.4289C56.3464 44.252 56.3356 44.0718 56.2894 43.8992C56.2432 43.7266 56.1625 43.5652 56.0523 43.4246C55.942 43.284 55.8044 43.1672 55.6477 43.0812C55.5473 43.0292 55.467 42.9452 55.4196 42.8425C55.3722 42.7398 55.3603 42.6242 55.3859 42.514C55.4591 42.335 55.4898 42.1415 55.4755 41.9486C55.4613 41.7558 55.4025 41.5689 55.3039 41.4025C55.2052 41.2362 55.0693 41.0951 54.9069 40.9901C54.7445 40.8852 54.56 40.8193 54.3678 40.7977C54.2691 40.7737 54.1824 40.7148 54.1237 40.632C54.0649 40.5492 54.0379 40.4479 54.0478 40.3468C54.0478 39.4305 53.6115 38.8924 52.5934 38.8924C52.4935 38.9052 52.3925 38.8791 52.3113 38.8195C52.2301 38.76 52.1749 38.6715 52.157 38.5724C52.1325 38.3755 52.0625 38.187 51.9527 38.0218C51.8428 37.8566 51.696 37.7192 51.5239 37.6205C51.3518 37.5217 51.1591 37.4644 50.9611 37.4529C50.763 37.4414 50.565 37.4761 50.3826 37.5543C50.2839 37.5813 50.1789 37.5728 50.0858 37.5303C49.9928 37.4878 49.9176 37.4139 49.8735 37.3216C49.804 37.1425 49.6931 36.9823 49.5501 36.8541C49.407 36.7258 49.2357 36.6331 49.05 36.5836C48.8644 36.534 48.6697 36.5288 48.4817 36.5686C48.2938 36.6084 48.1178 36.692 47.9682 36.8125C47.8891 36.8738 47.7919 36.9071 47.6918 36.9071C47.5918 36.9071 47.4946 36.8738 47.4155 36.8125C47.2963 36.653 47.1416 36.5235 46.9636 36.4343C46.7856 36.345 46.5892 36.2986 46.3901 36.2986C46.191 36.2986 45.9946 36.345 45.8166 36.4343C45.6386 36.5235 45.4839 36.653 45.3647 36.8125C45.2867 36.8763 45.1891 36.9112 45.0884 36.9112C44.9876 36.9112 44.89 36.8763 44.812 36.8125C44.6636 36.6888 44.4876 36.6025 44.2989 36.5609C44.1101 36.5193 43.9142 36.5236 43.7275 36.5735C43.5408 36.6234 43.3688 36.7174 43.226 36.8476C43.0831 36.9777 42.9736 37.1403 42.9067 37.3216C42.8604 37.412 42.785 37.4842 42.6926 37.5265C42.6002 37.5687 42.4963 37.5785 42.3976 37.5543C42.2143 37.4764 42.0155 37.4419 41.8166 37.4534C41.6178 37.4649 41.4243 37.5221 41.2512 37.6206C41.0781 37.7192 40.93 37.8563 40.8186 38.0214C40.7071 38.1864 40.6353 38.375 40.6086 38.5724C40.5877 38.6699 40.5317 38.7563 40.4513 38.8153C40.3708 38.8743 40.2716 38.9017 40.1723 38.8924C39.9733 38.8562 39.7686 38.8688 39.5755 38.9291C39.3825 38.9894 39.207 39.0956 39.064 39.2386C38.921 39.3815 38.8148 39.5571 38.7545 39.7501C38.6942 39.9431 38.6816 40.1479 38.7178 40.3468C38.7277 40.4479 38.7008 40.5492 38.642 40.632C38.5832 40.7148 38.4965 40.7737 38.3978 40.7977C38.2057 40.8193 38.0211 40.8852 37.8587 40.9901C37.6963 41.0951 37.5604 41.2362 37.4618 41.4025C37.3631 41.5689 37.3044 41.7558 37.2901 41.9486C37.2759 42.1415 37.3065 42.335 37.3797 42.514C37.408 42.6242 37.3974 42.7408 37.3497 42.8442C37.302 42.9475 37.2202 43.0312 37.1179 43.0812C36.962 43.1809 36.829 43.3126 36.7277 43.4675C36.6265 43.6224 36.5592 43.797 36.5303 43.9798C36.5014 44.1626 36.5117 44.3494 36.5603 44.528C36.6089 44.7065 36.6949 44.8728 36.8125 45.0157C36.8845 45.1039 36.9239 45.2144 36.9239 45.3284C36.9239 45.4423 36.8845 45.5528 36.8125 45.6411C36.6534 45.754 36.5236 45.9034 36.4341 46.0767C36.3446 46.25 36.2979 46.4423 36.2979 46.6374C36.2979 46.8325 36.3446 47.0247 36.4341 47.1981C36.5236 47.3714 36.6534 47.5208 36.8125 47.6337C36.8763 47.7116 36.9111 47.8093 36.9111 47.91C36.9111 48.0108 36.8763 48.1084 36.8125 48.1864C36.6946 48.3374 36.613 48.5135 36.5739 48.701C36.5349 48.8885 36.5394 49.0825 36.5872 49.268C36.635 49.4536 36.7247 49.6256 36.8495 49.7709C36.9743 49.9163 37.1308 50.031 37.307 50.1063C37.407 50.1614 37.4848 50.2495 37.5272 50.3556C37.5697 50.4617 37.5741 50.5791 37.5397 50.6881C37.4609 51.0312 37.5206 51.3916 37.7057 51.6911C37.8908 51.9906 38.1865 52.205 38.5287 52.288C38.6364 52.3191 38.7312 52.3839 38.7993 52.4729C38.8674 52.5619 38.9051 52.6704 38.9069 52.7825C38.8707 52.9814 38.8833 53.1862 38.9436 53.3792C39.0039 53.5722 39.1101 53.7478 39.2531 53.8908C39.3961 54.0338 39.5716 54.1399 39.7646 54.2002C39.9576 54.2605 40.1624 54.2731 40.3614 54.2369C40.4473 54.2267 40.534 54.2475 40.606 54.2955C40.6779 54.3435 40.7304 54.4155 40.7541 54.4987C40.7733 54.7055 40.8413 54.9047 40.9527 55.0799C41.0641 55.2551 41.2155 55.4014 41.3946 55.5065C41.5736 55.6117 41.7751 55.6727 41.9824 55.6846C42.1896 55.6965 42.3968 55.659 42.5867 55.575C42.6701 55.5519 42.7589 55.558 42.8383 55.5924C42.9177 55.6268 42.9829 55.6874 43.023 55.7641C43.0918 55.951 43.2042 56.1188 43.3509 56.2535C43.4975 56.3882 43.6742 56.4859 43.8663 56.5385C44.0583 56.5912 44.2602 56.5972 44.455 56.5561C44.6499 56.515 44.8321 56.428 44.9865 56.3023C45.075 56.2525 45.1778 56.234 45.2781 56.2498C45.3784 56.2656 45.4704 56.3149 45.5392 56.3895C45.6559 56.5432 45.8066 56.6679 45.9794 56.7537C46.1522 56.8395 46.3426 56.8841 46.5355 56.8841C46.7285 56.8841 46.9189 56.8395 47.0917 56.7537C47.2645 56.6679 47.4152 56.5432 47.5319 56.3895C47.5754 56.3424 47.6283 56.3048 47.6871 56.279C47.7459 56.2533 47.8094 56.24 47.8736 56.24C47.9379 56.24 48.0014 56.2533 48.0602 56.279C48.119 56.3048 48.1719 56.3424 48.2154 56.3895C48.4575 56.5638 48.756 56.641 49.0522 56.606C49.3483 56.571 49.6206 56.4263 49.8154 56.2005C50.1644 55.6769 50.3099 55.2696 50.9644 55.7205H50.8917Z" fill="#30317D"/>
<path d="M50.9645 55.7202C50.31 55.2693 50.1645 55.7202 49.8009 56.1275C49.6061 56.3533 49.3338 56.498 49.0377 56.533C48.7415 56.568 48.443 56.4907 48.201 56.3165C48.1574 56.2694 48.1046 56.2318 48.0457 56.206C47.9869 56.1803 47.9234 56.167 47.8592 56.167C47.795 56.167 47.7315 56.1803 47.6727 56.206C47.6138 56.2318 47.561 56.2694 47.5174 56.3165C47.4007 56.4702 47.2501 56.5949 47.0772 56.6807C46.9044 56.7664 46.7141 56.8111 46.5211 56.8111C46.3281 56.8111 46.1378 56.7664 45.9649 56.6807C45.7921 56.5949 45.6415 56.4702 45.5248 56.3165C45.4559 56.2419 45.3639 56.1926 45.2636 56.1768C45.1633 56.161 45.0606 56.1794 44.9721 56.2293C44.8177 56.355 44.6354 56.442 44.4406 56.4831C44.2457 56.5242 44.0439 56.5182 43.8518 56.4655C43.6598 56.4129 43.4831 56.3152 43.3364 56.1805C43.1897 56.0458 43.0773 55.878 43.0086 55.6911C42.9685 55.6144 42.9033 55.5538 42.8238 55.5194C42.7444 55.485 42.6556 55.4789 42.5722 55.502C42.381 55.592 42.1709 55.6343 41.9598 55.6254C41.7486 55.6164 41.5428 55.5565 41.3599 55.4508C41.177 55.345 41.0223 55.1965 40.9093 55.018C40.7962 54.8395 40.728 54.6363 40.7105 54.4257C40.6869 54.3425 40.6344 54.2705 40.5624 54.2225C40.4904 54.1745 40.4037 54.1537 40.3178 54.1639C40.1189 54.2001 39.9141 54.1875 39.7211 54.1272C39.5281 54.0669 39.3525 53.9608 39.2095 53.8178C39.0665 53.6748 38.9603 53.4992 38.9001 53.3062C38.8398 53.1132 38.8272 52.9084 38.8634 52.7095C38.851 52.6155 38.8134 52.5266 38.7545 52.4523C38.6955 52.378 38.6176 52.3211 38.5288 52.2877C38.3544 52.2454 38.1903 52.1686 38.0463 52.0616C37.9022 51.9547 37.7811 51.8199 37.6902 51.6652C37.5993 51.5105 37.5404 51.3391 37.517 51.1612C37.4937 50.9833 37.5064 50.8025 37.5543 50.6296C37.5887 50.5207 37.5843 50.4032 37.5419 50.2971C37.4995 50.1911 37.4216 50.103 37.3216 50.0478C37.1455 49.9725 36.989 49.8578 36.8642 49.7125C36.7394 49.5671 36.6496 49.3951 36.6018 49.2096C36.554 49.0241 36.5495 48.8301 36.5886 48.6425C36.6276 48.455 36.7092 48.2789 36.8271 48.1279C36.8909 48.05 36.9258 47.9523 36.9258 47.8516C36.9258 47.7508 36.8909 47.6532 36.8271 47.5752C36.668 47.4623 36.5383 47.3129 36.4488 47.1396C36.3592 46.9663 36.3125 46.774 36.3125 46.5789C36.3125 46.3838 36.3592 46.1916 36.4488 46.0182C36.5383 45.8449 36.668 45.6955 36.8271 45.5826C36.8992 45.4943 36.9385 45.3839 36.9385 45.2699C36.9385 45.1559 36.8992 45.0455 36.8271 44.9572C36.7323 44.805 36.6697 44.635 36.6433 44.4577C36.6169 44.2804 36.6272 44.0995 36.6735 43.9263C36.7199 43.7531 36.8014 43.5913 36.9128 43.4509C37.0243 43.3105 37.1635 43.1945 37.3216 43.11C37.4239 43.06 37.5058 42.9763 37.5534 42.873C37.6011 42.7697 37.6117 42.653 37.5834 42.5428C37.5103 42.3638 37.4796 42.1703 37.4938 41.9774C37.5081 41.7846 37.5668 41.5977 37.6655 41.4314C37.7642 41.265 37.9 41.1239 38.0624 41.0189C38.2249 40.914 38.4094 40.8481 38.6016 40.8265C38.7002 40.8025 38.7869 40.7437 38.8457 40.6608C38.9045 40.578 38.9314 40.4767 38.9215 40.3756C38.8854 40.1767 38.8979 39.9719 38.9582 39.7789C39.0185 39.5859 39.1247 39.4104 39.2677 39.2674C39.4107 39.1244 39.5862 39.0182 39.7793 38.9579C39.9723 38.8976 40.177 38.885 40.376 38.9212C40.4753 38.9305 40.5746 38.9031 40.655 38.8441C40.7354 38.7852 40.7914 38.6987 40.8123 38.6012C40.839 38.4038 40.9108 38.2153 41.0223 38.0502C41.1337 37.8851 41.2818 37.748 41.4549 37.6494C41.628 37.5509 41.8215 37.4937 42.0203 37.4822C42.2192 37.4707 42.418 37.5052 42.6013 37.5831C42.7 37.6073 42.8039 37.5975 42.8963 37.5553C42.9887 37.513 43.0642 37.4408 43.1104 37.3504C43.1773 37.1691 43.2868 37.0065 43.4297 36.8764C43.5725 36.7462 43.7445 36.6522 43.9312 36.6023C44.1179 36.5525 44.3138 36.5481 44.5026 36.5897C44.6913 36.6313 44.8673 36.7176 45.0157 36.8413C45.0937 36.9051 45.1913 36.94 45.2921 36.94C45.3928 36.94 45.4905 36.9051 45.5684 36.8413C45.6876 36.6818 45.8423 36.5523 46.0203 36.4631C46.1983 36.3738 46.3947 36.3274 46.5938 36.3274C46.7929 36.3274 46.9893 36.3738 47.1673 36.4631C47.3453 36.5523 47.5 36.6818 47.6192 36.8413C47.6983 36.9026 47.7955 36.9359 47.8956 36.9359C47.9956 36.9359 48.0928 36.9026 48.1719 36.8413C48.3215 36.7208 48.4975 36.6372 48.6854 36.5974C48.8734 36.5577 49.0681 36.5628 49.2537 36.6124C49.4394 36.662 49.6107 36.7546 49.7538 36.8829C49.8969 37.0111 50.0077 37.1713 50.0772 37.3504C50.1214 37.4427 50.1965 37.5166 50.2895 37.5591C50.3826 37.6016 50.4876 37.6101 50.5863 37.5831C50.7687 37.5049 50.9667 37.4702 51.1648 37.4817C51.3628 37.4932 51.5555 37.5505 51.7276 37.6493C51.8997 37.748 52.0465 37.8854 52.1564 38.0506C52.2663 38.2158 52.3362 38.4043 52.3607 38.6012C52.3786 38.7003 52.4338 38.7888 52.515 38.8483C52.5962 38.9079 52.6972 38.934 52.7971 38.9212C53.7716 38.9212 54.2516 39.4157 54.2516 40.3756C54.2417 40.4767 54.2686 40.578 54.3274 40.6608C54.3861 40.7437 54.4728 40.8025 54.5715 40.8265C54.7637 40.8481 54.9482 40.914 55.1106 41.0189C55.2731 41.1239 55.4089 41.265 55.5076 41.4314C55.6062 41.5977 55.665 41.7846 55.6792 41.9774C55.6935 42.1703 55.6628 42.3638 55.5897 42.5428C55.5641 42.653 55.5759 42.7686 55.6233 42.8713C55.6707 42.974 55.751 43.058 55.8515 43.11C56.008 43.2043 56.1434 43.33 56.249 43.4791C56.3546 43.6283 56.4281 43.7977 56.465 43.9767C56.5019 44.1557 56.5013 44.3404 56.4633 44.5192C56.4253 44.6979 56.3507 44.8669 56.2442 45.0154C56.1569 45.219 56.0842 45.4372 56.2442 45.5681C57.1023 46.2808 56.6078 47.0225 56.2442 47.6625C56.1942 47.746 56.1678 47.8415 56.1678 47.9388C56.1678 48.0362 56.1942 48.1317 56.2442 48.2152C56.3613 48.3669 56.4416 48.5437 56.4787 48.7317C56.5158 48.9197 56.5086 49.1137 56.4579 49.2985C56.4071 49.4833 56.314 49.6538 56.1861 49.7964C56.0581 49.9391 55.8988 50.05 55.7206 50.1205C55.6289 50.1648 55.5563 50.2407 55.5162 50.3342C55.4761 50.4278 55.4712 50.5327 55.5024 50.6296C55.5675 50.8043 55.5922 50.9914 55.5747 51.177C55.5572 51.3626 55.498 51.5418 55.4015 51.7013C55.305 51.8608 55.1736 51.9963 55.0173 52.0979C54.861 52.1994 54.6837 52.2643 54.4988 52.2877C54.4 52.3106 54.3119 52.3661 54.2485 52.4453C54.1852 52.5244 54.1504 52.6226 54.1497 52.724C54.1825 52.9224 54.1674 53.1257 54.1059 53.3171C54.0444 53.5086 53.9382 53.6826 53.796 53.8247C53.6538 53.9669 53.4798 54.0732 53.2884 54.1347C53.097 54.1962 52.8937 54.2112 52.6953 54.1785C52.5808 54.1859 52.4735 54.2366 52.3951 54.3204C52.3167 54.4042 52.2732 54.5147 52.2735 54.6294C52.1862 55.4439 51.3863 55.3566 50.9645 55.7202ZM52.0117 41.1756L52.1717 40.9865L52.4335 40.6956C52.2153 40.5793 52.128 40.6956 52.0262 40.8702L51.8226 41.0738C51.8175 41.0978 51.8175 41.1225 51.8226 41.1465C50.5718 42.1065 49.4518 43.1973 48.2883 44.2591C49.1525 42.8357 49.9155 41.3534 50.5718 39.823C50.5962 39.8025 50.6159 39.7769 50.6294 39.748C50.6429 39.7191 50.6499 39.6876 50.6499 39.6557C50.6499 39.6238 50.6429 39.5923 50.6294 39.5634C50.6159 39.5345 50.5962 39.5089 50.5718 39.4884L50.3536 39.6775C49.2217 41.2398 48.2057 42.8829 47.3138 44.5936C47.9803 42.8032 48.3916 40.928 48.5355 39.023C47.7545 40.7699 47.1738 42.5996 46.8047 44.4772C46.9643 42.6503 46.8713 40.81 46.5284 39.0085C46.1985 40.8213 46.1008 42.6688 46.2375 44.5063C45.9084 42.588 45.3059 40.7267 44.4485 38.9794C44.6938 40.9066 45.1223 42.806 45.7284 44.6518C44.9072 42.9114 43.8661 41.2836 42.6304 39.8084C43.2451 41.3726 43.9743 42.8894 44.8121 44.3463C43.7466 43.1978 42.5507 42.1777 41.2487 41.3065C42.2226 42.6721 43.3553 43.9171 44.623 45.0154C43.1231 44.0337 41.4993 43.256 39.7942 42.7028C41.2988 43.8731 42.9222 44.8822 44.6376 45.7135C42.6883 45.0466 40.6672 44.6121 38.6161 44.419C40.4938 45.2141 42.4415 45.8325 44.4339 46.2662C42.0944 46.1371 39.748 46.2198 37.4234 46.5135C39.7484 46.8024 42.0935 46.8948 44.4339 46.7898C42.4138 47.1945 40.4401 47.8036 38.5434 48.6079C40.6021 48.4113 42.6319 47.9819 44.5939 47.328C42.8753 48.1557 41.2306 49.1289 39.6779 50.2369C40.0415 50.4551 40.3033 50.2369 40.5651 50.1205C41.8873 49.5385 43.141 48.8117 44.303 47.9534C44.4194 47.8516 44.6957 47.3425 44.8266 47.9534C43.4086 48.9319 42.2099 50.195 41.3068 51.6623C42.7793 50.7631 44.0596 49.5818 45.0739 48.1861C45.3066 48.1861 45.5393 48.1861 45.3357 48.477C45.1321 48.7679 44.8121 49.146 44.5794 49.4951C43.8215 50.6957 43.1926 51.973 42.7031 53.3058C43.9181 51.8118 44.9712 50.1931 45.8448 48.477C45.1911 50.3051 44.7566 52.2043 44.5503 54.1348C45.369 52.3784 45.9651 50.5266 46.3247 48.6224C46.1926 50.5649 46.2755 52.516 46.572 54.4403C46.9443 52.5246 47.0422 50.5657 46.8629 48.6224C47.2636 50.536 47.8481 52.4063 48.6082 54.2076C48.4665 52.2469 48.0604 50.3144 47.401 48.4624C48.2535 50.1844 49.2613 51.8251 50.4118 53.364C50.5136 53.4658 50.4845 53.7858 50.659 53.6985C50.8336 53.6112 50.659 53.3785 50.5718 53.2331C49.821 51.4602 48.9157 49.7568 47.8665 48.1425C49.0077 49.5543 50.3563 50.7852 51.8662 51.7932C50.9713 50.4701 49.8885 49.2844 48.6519 48.2734L48.8555 48.1134C50.2206 49.0421 51.6839 49.8176 53.2189 50.426C51.7994 49.1727 50.2075 48.1294 48.4919 47.328C50.3741 47.982 52.3268 48.4116 54.3097 48.6079C52.4698 47.8127 50.5549 47.2037 48.5937 46.7898C50.8846 46.9333 53.1841 46.8505 55.4588 46.5426C53.1874 46.2543 50.8954 46.1618 48.6082 46.2662C50.6043 45.8595 52.5536 45.2504 54.4261 44.4481C52.3878 44.6624 50.3787 45.0964 48.4337 45.7426C50.1192 44.9449 51.6975 43.9383 53.1316 42.7464C51.5494 43.3651 50.0258 44.1245 48.5792 45.0154C49.7814 43.9402 50.8773 42.7518 51.8517 41.4665L52.0117 41.1756ZM41.0014 51.9386C40.9141 52.0259 40.7251 52.0695 40.8123 52.2004C40.8996 52.3313 41.0305 52.2004 41.1032 52.1131C41.1759 52.0259 41.3214 52.0259 41.205 51.8804C41.0887 51.735 41.0741 51.9241 41.0014 51.9386ZM51.7353 51.9386C51.9099 52.1277 51.9826 52.4186 52.288 52.2004C52.1426 52.0259 52.0844 51.7932 51.7353 51.895V51.9386ZM42.3395 39.6339L42.5431 39.7211C42.5431 39.7211 42.5431 39.6048 42.5431 39.5902C42.4878 39.5468 42.423 39.5169 42.3541 39.503C42.3541 39.503 42.3541 39.5757 42.3395 39.6339ZM40.7978 41.0011L41.016 41.0883V40.9574C40.959 40.9166 40.8949 40.887 40.8269 40.8702C40.8269 40.8702 40.8269 40.9429 40.7978 41.0011ZM42.4704 53.6258L42.6013 53.4803H42.4995C42.44 53.5158 42.3861 53.5599 42.3395 53.6112L42.4704 53.6258Z" fill="#F7F7F9"/>
<path d="M50.4994 39.8669C49.8432 41.3973 49.0801 42.8797 48.2159 44.303C49.3795 43.2412 50.4994 42.1504 51.7502 41.1905L51.852 41.3941C50.8814 42.7047 49.7853 43.9176 48.5795 45.0157C50.0293 44.1549 51.5528 43.4247 53.132 42.834C51.6979 44.0259 50.1195 45.0325 48.4341 45.8302C50.379 45.184 52.3882 44.75 54.4264 44.5357C52.554 45.3379 50.6046 45.9471 48.6086 46.3538C50.8958 46.2494 53.1877 46.3418 55.4591 46.6301C53.1844 46.9381 50.885 47.0209 48.594 46.8774C50.5553 47.2913 52.4701 47.9003 54.3101 48.6955C52.3272 48.4992 50.3744 48.0696 48.4922 47.4155C50.2079 48.217 51.7997 49.2603 53.2192 50.5135C51.6843 49.9052 50.221 49.1297 48.8559 48.201C48.8273 48.1646 48.7908 48.1353 48.7492 48.1151C48.7077 48.0949 48.6621 48.0845 48.6159 48.0845C48.5697 48.0845 48.524 48.0949 48.4825 48.1151C48.4409 48.1353 48.4045 48.1646 48.3759 48.201C48.3759 48.3028 48.5359 48.3609 48.6522 48.4191C49.8889 49.4301 50.9717 50.6158 51.8666 51.9389C50.3566 50.931 49.0081 49.7001 47.8668 48.2882C48.9161 49.9025 49.8213 51.6059 50.5721 53.3788L50.4121 53.5097C49.2616 51.9708 48.2539 50.3302 47.4014 48.6082C48.0608 50.4601 48.4669 52.3926 48.6086 54.3533C47.8485 52.5521 47.264 50.6817 46.8632 48.7682C47.0426 50.7115 46.9447 52.6704 46.5723 54.586C46.2759 52.6618 46.193 50.7107 46.3251 48.7682C45.9654 50.6724 45.3693 52.5242 44.5506 54.2806C44.7569 52.3501 45.1914 50.4509 45.8451 48.6227C44.9715 50.3389 43.9184 51.9575 42.7035 53.4516C43.193 52.1188 43.8219 50.8415 44.5797 49.6409C44.8124 49.2918 45.1033 48.9718 45.3361 48.6227C45.5688 48.2737 45.3361 48.3028 45.0743 48.3319L44.9579 48.201C44.827 47.561 44.5506 48.0701 44.4343 48.201C43.2722 49.0592 42.0186 49.7861 40.6963 50.3681C40.4345 50.499 40.1727 50.7026 39.8091 50.4845C41.3619 49.3764 43.0065 48.4032 44.7252 47.5755C42.7632 48.2295 40.7334 48.6589 38.6746 48.8555C40.5714 48.0512 42.5451 47.442 44.5652 47.0374C42.2247 47.1424 39.8796 47.0499 37.5547 46.761C39.8793 46.4674 42.2257 46.3846 44.5652 46.5138C42.5727 46.0801 40.625 45.4617 38.7473 44.6666C40.7984 44.8597 42.8196 45.2942 44.7688 45.9611C43.0534 45.1298 41.4301 44.1207 39.9255 42.9503C41.5729 43.4363 43.1516 44.1303 44.6234 45.0157C43.353 43.9038 42.2202 42.644 41.249 41.2632C42.5511 42.1343 43.747 43.1545 44.8124 44.303C43.9746 42.8461 43.2454 41.3293 42.6308 39.7651C43.8664 41.2403 44.9076 42.8681 45.7288 44.6084C45.1227 42.7626 44.6941 40.8632 44.4488 38.936C45.3062 40.6834 45.9087 42.5446 46.2378 44.463C46.1011 42.6254 46.1989 40.778 46.5287 38.9651C46.8709 40.7816 46.959 42.6368 46.7905 44.4775C47.1596 42.5999 47.7403 40.7702 48.5213 39.0233C48.3774 40.9283 47.9661 42.8035 47.2996 44.5939C48.1915 42.8832 49.2075 41.2401 50.3394 39.6778L50.4994 39.8669ZM48.3613 44.2303C47.8814 44.3612 47.7795 44.5648 47.7214 44.8993C48.1286 44.8993 48.2013 44.6666 48.3613 44.2885V44.2303ZM44.7397 44.2303C44.8561 44.5939 44.9434 44.8121 45.3506 44.8557C45.2633 44.623 45.1761 44.4048 44.7397 44.3175V44.2303Z" fill="#30317D"/>
<path d="M45.0746 48.1863C44.1089 49.6059 42.8734 50.8216 41.4385 51.7643C42.3415 50.297 43.5402 49.0339 44.9583 48.0554L45.0746 48.1863Z" fill="#30317D"/>
<path d="M51.7354 51.8952C52.0844 51.7934 52.1426 52.0261 52.288 52.157C51.9826 52.3752 51.9099 52.0843 51.7354 51.8952Z" fill="#30317D"/>
<path d="M52.0264 40.9138C52.1282 40.7975 52.2155 40.6229 52.4336 40.7393L52.1718 41.0302L52.0264 40.9138Z" fill="#30317D"/>
<path d="M50.4989 53.2478C50.6298 53.3932 50.7898 53.5969 50.5861 53.7132C50.3825 53.8296 50.4407 53.4805 50.3389 53.3787L50.4989 53.2478Z" fill="#30317D"/>
<path d="M42.3398 39.6341V39.5032C42.4088 39.5171 42.4736 39.547 42.5289 39.5904C42.5289 39.5904 42.5289 39.6777 42.5289 39.7213L42.3398 39.6341Z" fill="#30317D"/>
<path d="M50.3389 39.7213L50.557 39.5322C50.5815 39.5527 50.6012 39.5783 50.6146 39.6072C50.6281 39.6361 50.6351 39.6676 50.6351 39.6995C50.6351 39.7314 50.6281 39.7629 50.6146 39.7918C50.6012 39.8207 50.5815 39.8463 50.557 39.8668L50.3389 39.7213Z" fill="#30317D"/>
<path d="M40.7979 41.0013C40.7979 41.0013 40.7979 40.8704 40.8706 40.8704C40.9386 40.8872 41.0027 40.9168 41.0597 40.9576C41.0597 40.9576 41.0597 41.0449 41.0597 41.0885L40.7979 41.0013Z" fill="#30317D"/>
<path d="M41.1034 52.1135C41.0307 52.2444 40.8998 52.3462 40.8125 52.2008C40.7252 52.0553 40.9143 52.0262 41.0016 51.939L41.1034 52.1135Z" fill="#30317D"/>
<path d="M42.4707 53.6259L42.3398 53.5386C42.3864 53.4873 42.4403 53.4432 42.4998 53.4077H42.6016L42.4707 53.6259Z" fill="#30317D"/>
<path d="M51.8232 41.1174L52.0269 40.9138L52.1723 41.0302L52.0123 41.2193L51.8232 41.1174Z" fill="#30317D"/>
<path d="M52.0117 41.2195L51.8517 41.394L51.7499 41.1904C51.7448 41.1664 51.7448 41.1416 51.7499 41.1177L52.0117 41.2195Z" fill="#30317D"/>
<path d="M41.002 51.939C41.0747 51.939 41.191 51.939 41.2056 51.939C41.2201 51.939 41.2056 52.128 41.1038 52.1717L41.002 51.939Z" fill="#30317D"/>
<path d="M48.3616 44.2883C48.2017 44.6665 48.1289 44.8992 47.7217 44.9574C47.7799 44.6229 47.8817 44.4192 48.3616 44.2883Z" fill="#F7F7F9"/>
<path d="M44.7402 44.3174C45.1766 44.4047 45.2638 44.6228 45.3511 44.9428C44.9439 44.8992 44.8566 44.681 44.7402 44.3174Z" fill="#F7F7F9"/>
<path d="M48.5792 48.288C48.4629 48.288 48.2301 48.1717 48.3029 48.0699C48.3315 48.0336 48.3679 48.0042 48.4095 47.984C48.451 47.9639 48.4966 47.9534 48.5429 47.9534C48.5891 47.9534 48.6347 47.9639 48.6762 47.984C48.7178 48.0042 48.7543 48.0336 48.7828 48.0699L48.5792 48.288Z" fill="#F7F7F9"/>
</svg>
