<svg width="94" height="94" viewBox="0 0 94 94" fill="none" xmlns="http://www.w3.org/2000/svg">
<circle cx="46.5428" cy="46.5428" r="46.5428" fill="white"/>
<g clip-path="url(#clip0_996_753)">
<path d="M33.1017 5.00782L35.4956 4.28161C35.7712 4.26952 36.0434 4.21509 36.3025 4.12022L37.9163 3.74367L39.5301 3.4747C40.0732 3.43359 40.6126 3.35268 41.1439 3.23263C41.6858 3.23228 42.2264 3.17822 42.7577 3.07125C43.2991 3.0935 43.8412 3.04832 44.3715 2.93677H47.5991H49.2129H50.7998L52.4136 3.15194L54.0543 3.42091L55.6412 3.68988L57.2819 4.09333H57.524C57.9548 4.28047 58.4062 4.4159 58.8688 4.49678L60.2944 4.92713L62.0965 5.57265L63.7103 6.21817L65.3241 6.94439C65.4762 7.09581 65.6755 7.19071 65.8889 7.21335C66.2144 7.44341 66.5666 7.63307 66.9379 7.77818L68.5517 8.66578C68.5885 8.68702 68.6302 8.69821 68.6727 8.69821C68.7152 8.69821 68.7569 8.68702 68.7937 8.66578L70.1386 9.49958L73.4469 12.1355H73.5814L75.0876 13.3727C75.187 13.5312 75.3261 13.661 75.491 13.7493L76.7014 14.8251C76.8383 15.0423 77.0221 15.2261 77.2393 15.3631L78.1538 16.3045L78.8262 16.9769C79.1569 17.4291 79.5258 17.8521 79.929 18.241C80.0264 18.43 80.1642 18.5953 80.3325 18.7252L81.5428 20.2045L83.1566 22.5176C83.2968 22.8415 83.4874 23.1411 83.7214 23.4052L85.5504 26.6597C85.7812 27.2246 86.0509 27.7728 86.3573 28.3004C86.5399 28.8502 86.7741 29.3816 87.0566 29.8873L87.8904 32.2811H5.31738L5.53256 31.528C5.69225 31.2155 5.8012 30.8796 5.85532 30.5328L6.87739 28.2735L8.5181 25.0459L10.4278 21.9797C10.4278 21.9797 10.4278 21.9797 10.4278 21.7645L11.5843 20.2852C11.8252 20.1257 12.0274 19.9143 12.1761 19.6666C12.4367 19.4202 12.6629 19.1397 12.8485 18.8328C13.2788 18.3755 13.6016 17.73 14.0588 17.3265C15.0002 16.4658 15.8609 15.5514 16.7485 14.6369L18.7389 12.8886C19.0743 12.7093 19.3822 12.4828 19.6534 12.2162C19.8958 12.0948 20.1145 11.9308 20.2989 11.732L21.8051 10.6023C21.8419 10.6236 21.8836 10.6348 21.9261 10.6348C21.9686 10.6348 22.0104 10.6236 22.0472 10.6023L25.2748 8.58509L28.3679 7.05197L31.6224 5.70713L33.1017 5.00782Z" fill="#F7F7F7"/>
<path d="M4.13431 36.3963C4.48768 35.8834 4.66684 35.2705 4.64534 34.648V34.3791C4.995 34.2177 4.9681 33.868 5.0219 33.599C5.03833 33.4477 5.08519 33.3012 5.15967 33.1684C5.23415 33.0356 5.3347 32.9192 5.45529 32.8263C5.57588 32.7333 5.71402 32.6657 5.8614 32.6275C6.00879 32.5893 6.16238 32.5812 6.31294 32.6039H87.9446V32.8728C87.6756 33.2225 87.9446 33.3301 88.1867 33.4377V33.6797C87.9715 33.9756 88.1867 34.1101 88.4019 34.2177V34.6211C88.1598 34.9439 88.4019 35.1591 88.6439 35.2935V35.5625C88.6439 35.8853 88.6439 36.1811 88.886 36.3694V36.6384C88.886 36.7998 88.6977 36.988 88.886 37.0418V37.3377V37.8487C88.5901 38.306 89.0474 38.6018 89.1281 38.9515V39.4625C88.9129 39.8929 89.1281 40.2157 89.3432 40.5653V41.1839C88.9667 41.9639 89.3432 42.6364 89.5853 43.3357V44.4115C89.3701 44.5998 89.4508 44.8688 89.4508 45.1109C89.4508 46.0522 89.4508 46.9936 89.4508 47.9619C89.4508 48.204 89.4508 48.473 89.5853 48.715V49.7909C89.3701 50.4902 88.9936 51.1626 89.3432 51.9426V52.4806C89.155 52.9647 88.7246 53.3951 89.1012 53.9868V54.2289C88.9129 54.5247 88.5094 54.7668 88.8591 55.1703V55.4123C88.7185 55.5545 88.6192 55.7322 88.5718 55.9264C88.5245 56.1207 88.5308 56.3242 88.5901 56.5151V56.7841C88.106 57.0261 88.2405 57.4296 88.3212 57.833C88.1329 58.0213 87.8639 58.1827 88.0791 58.5323V58.9358C87.595 59.1241 87.7025 59.5275 87.7025 59.9041C87.5412 59.9041 87.4874 60.0924 87.4336 60.2537C87.3798 60.4151 87.1377 61.1413 87.0032 61.5986H7.22743H5.66742L5.10259 60.1193C5.02382 59.6956 4.87857 59.2872 4.67224 58.9089C4.49554 57.8032 4.22561 56.7145 3.86534 55.6544V55.3854C3.92226 55.3176 3.95346 55.2319 3.95346 55.1434C3.95346 55.0548 3.92226 54.9691 3.86534 54.9013C3.51568 54.6323 3.51568 54.4171 3.51568 54.1482C3.61834 53.5953 3.52312 53.024 3.24671 52.5344V52.2385C3.34788 51.5277 3.25495 50.8028 2.97774 50.1406V49.8447C2.97774 48.4461 2.97774 47.155 2.97774 45.6488C2.96377 44.5348 3.01766 43.421 3.13912 42.3136C3.3274 42.3136 3.46189 42.3136 3.13912 42.0446V40.6998C3.33973 40.5157 3.4724 40.2693 3.51568 40.0005V39.086C3.78465 38.817 4.02672 38.5481 3.75775 38.1446V37.6067C4.02672 37.4453 3.99982 37.2032 3.99982 36.9342L4.13431 36.3963Z" fill="#0439A5"/>
<path d="M5.69434 62.0828V61.7332H7.25435H86.8957C86.8957 61.8676 87.0839 61.7332 87.1646 61.7332V62.1366C86.8254 62.629 86.5961 63.1885 86.4922 63.7773C86.035 64.8532 85.3625 65.8484 84.986 66.978C84.511 67.5513 84.1131 68.1842 83.8025 68.8608C83.1452 69.8114 82.5435 70.7992 82.0005 71.8194L78.0197 76.6609C77.4167 77.1295 76.8746 77.6716 76.4059 78.2747L71.968 81.9326C71.968 81.9326 71.8066 81.9326 71.7797 81.9326L71.5914 82.1209C71.0054 82.3197 70.4784 82.6617 70.0583 83.1161C69.2818 83.5041 68.5275 83.9351 67.799 84.4071C67.3821 84.5491 67.0107 84.7998 66.7231 85.1333C65.5934 85.5099 64.5982 86.1823 63.4955 86.6396C62.9187 86.7558 62.3704 86.9843 61.8817 87.312C60.781 87.5608 59.7085 87.9213 58.681 88.3878C58.2273 88.3563 57.7753 88.4693 57.3899 88.7106C56.9596 88.7106 56.6099 88.872 56.2334 88.9527L52.4409 89.7327H51.7954C51.1662 89.6498 50.5264 89.7333 49.9395 89.9748H43.8608H42.8657C41.6917 89.7716 40.5057 89.6458 39.3153 89.5982L36.9484 89.1679C36.9484 88.9527 36.6525 89.1679 36.4911 89.1679H36.3566C35.7684 88.8763 35.1288 88.7027 34.4739 88.6568C34.0551 88.4471 33.5969 88.328 33.129 88.3072C32.7397 88.0663 32.3122 87.8935 31.8649 87.7961C31.2361 87.4825 30.5786 87.2303 29.9014 87.043L27.2117 85.8058C27.2117 85.8058 27.2117 85.8058 26.9966 85.8058H26.7545C25.7192 85.104 24.6311 84.4835 23.5 83.9499L20.2455 81.5292C19.7961 80.9986 19.248 80.5601 18.6317 80.2381C18.6018 80.1517 18.548 80.0755 18.4766 80.0184C18.4052 79.9613 18.3191 79.9256 18.2282 79.9154C17.897 79.4626 17.464 79.094 16.9641 78.8395C16.9151 78.7215 16.8419 78.615 16.7493 78.527C16.6566 78.4389 16.5465 78.3713 16.4261 78.3285C16.1592 77.8957 15.7897 77.5354 15.3503 77.2795C15.2965 77.138 15.1907 77.0225 15.0544 76.9567V76.8222C14.7296 76.3007 14.3099 75.8445 13.8172 75.4774V75.316H13.6558C13.3523 74.749 12.9412 74.2465 12.4454 73.8367L10.1592 70.636C10.1101 70.3748 9.98899 70.1326 9.80954 69.9367C9.34488 69.0408 8.805 68.186 8.19573 67.3815C8.02475 66.8616 7.80876 66.3576 7.55021 65.8753H7.38883C6.9337 64.5649 6.36678 63.2961 5.69434 62.0828Z" fill="#D60001"/>
</g>
<defs>
<clipPath id="clip0_996_753">
<rect width="87.1455" height="87.28" fill="white" transform="translate(2.97754 2.90991)"/>
</clipPath>
</defs>
</svg>
