<svg width="88" height="88" viewBox="0 0 88 88" fill="none" xmlns="http://www.w3.org/2000/svg">
<path d="M43.6328 87.2677C34.9899 87.2675 26.5417 84.7005 19.3597 79.8923C12.1777 75.0841 6.58536 68.2513 3.29198 60.2605C-0.00139471 52.2696 -0.847469 43.4807 0.861056 35.0084C2.56958 26.536 6.75574 18.7619 12.8886 12.6719C19.0215 6.58193 26.8249 2.45049 35.309 0.801524C43.7932 -0.847446 52.5759 0.0603461 60.5435 3.40977C68.511 6.7592 75.3043 12.3994 80.0619 19.615C84.8196 26.8306 87.3271 35.2966 87.2666 43.9393C87.186 55.4587 82.5533 66.4788 74.3791 74.5958C66.2049 82.7128 55.1525 87.268 43.6328 87.2677ZM8.27483 42.1794C9.5962 41.3988 10.9891 40.7461 12.4346 40.2304C12.5233 40.218 12.6077 40.1842 12.6805 40.1319C12.7533 40.0796 12.8123 40.0104 12.8523 39.9302C12.8924 39.8501 12.9124 39.7614 12.9106 39.6718C12.9087 39.5822 12.8852 39.4944 12.8418 39.4159C12.6819 38.9941 12.3473 39.2268 12.0855 39.3141C10.5321 39.8038 9.16312 40.7519 8.15848 42.0339C8.08575 42.0339 7.98394 42.0339 8.05666 42.1794C8.12939 42.3248 8.20211 42.1794 8.27483 42.1794ZM51.9959 37.9615C52.3741 38.1505 52.505 38.5287 52.7086 38.8487C54.126 41.0698 55.3848 43.3881 56.4757 45.7865C56.6357 46.1064 56.7084 46.5137 57.1156 46.6882C57.2548 46.0388 57.1676 45.3613 56.8684 44.7683C55.8768 42.0396 54.5058 39.4642 52.7959 37.1179C51.8709 35.7813 51.4202 34.1735 51.516 32.5509C51.516 32.3909 51.4287 32.1 51.6032 32.0854C52.6068 32.0854 52.0832 31.4164 52.0105 31.0237C51.8157 30.2134 51.5072 29.4348 51.0942 28.7111C50.8905 28.3329 50.7596 27.6057 50.236 27.7948C49.7124 27.9839 49.5524 28.7693 49.5961 29.4092C49.5961 29.5547 49.7561 29.671 49.7852 29.8019C50.027 30.6636 50.0669 31.5695 49.9015 32.449L48.5925 30.5437C49.4943 30.311 49.5233 30.2528 48.9997 29.6129C48.3097 28.7942 47.5235 28.0617 46.6581 27.4312C46.469 27.2857 46.2508 27.0094 45.9599 27.1839C45.669 27.3584 45.7999 27.6639 45.7708 27.9257C45.7327 28.4132 45.8074 28.9029 45.989 29.3569C46.1706 29.8109 46.4543 30.217 46.8181 30.5437C47.9785 31.9304 49.052 33.3877 50.0324 34.9071C50.2084 35.142 50.3233 35.4168 50.3669 35.707C50.7887 39.0959 51.1669 42.4703 51.4869 45.8883C51.4736 46.9517 51.3419 48.0103 51.0942 49.0445C51.0942 49.2772 50.9051 49.6408 51.2687 49.728C51.6323 49.8153 51.705 49.4372 51.7778 49.2044C51.9442 48.6991 52.0802 48.1843 52.185 47.6627C52.4653 45.2444 52.431 42.7999 52.0832 40.3904C51.9356 39.5892 51.9111 38.7701 52.0105 37.9615H51.9959ZM40.4475 49.3644C39.6549 49.189 38.9364 48.7713 38.3918 48.1693C37.8471 47.5673 37.5032 46.8108 37.4077 46.0046C37.0582 43.2384 36.334 40.5325 35.2551 37.9615C35.0369 37.5397 34.9351 36.7106 34.4988 36.827C34.0624 36.9433 33.8588 37.7578 33.8152 38.3687C33.8125 38.6896 33.8616 39.0089 33.9606 39.3141C34.5424 41.1613 35.0951 42.9939 35.6769 44.8411C35.7642 45.1174 35.8951 45.3792 35.6769 45.6846C34.7212 47.5973 33.197 49.1672 31.3135 50.1789C30.8047 50.4303 30.2317 50.5216 29.67 50.4407C29.4318 50.4204 29.2075 50.3203 29.0333 50.1567C28.8591 49.993 28.7452 49.7754 28.71 49.539C28.5791 49.0154 28.9718 48.8845 29.2918 48.6954C30.3188 48.1024 31.2344 47.3345 31.9971 46.4264C32.571 45.7993 32.9741 45.0352 33.1677 44.2074C33.3612 43.3796 33.3388 42.516 33.1025 41.6994C32.957 41.1613 32.3898 40.5649 33.1025 39.9832C33.1025 39.9832 33.1025 39.765 33.0152 39.6486C32.6682 38.9938 32.1992 38.4112 31.6335 37.9324C31.5608 37.9324 31.3862 37.7869 31.328 37.8306C30.9454 38.1548 30.6671 38.5849 30.5281 39.0668C30.4488 39.213 30.4242 39.3827 30.4589 39.5454C30.4936 39.708 30.5851 39.8529 30.7172 39.9541C31.4465 40.5776 31.9563 41.4189 32.1716 42.3539C32.2735 42.5828 32.3261 42.8306 32.3261 43.0812C32.3261 43.3317 32.2735 43.5795 32.1716 43.8084C31.4186 44.9729 30.4272 45.9643 29.2627 46.7173C29.1609 45.8737 29.4954 45.1756 29.0591 44.4484C28.5246 45.2868 28.1407 46.2122 27.9246 47.1827C27.8787 47.3815 27.7916 47.5684 27.6688 47.7312C27.546 47.8941 27.3904 48.0293 27.2119 48.1281C25.6242 49.1582 23.9725 50.0861 22.2668 50.9062C21.7851 51.0759 21.3717 51.3974 21.0886 51.8225C23.3105 51.4025 25.4705 50.7037 27.5174 49.7426C27.9101 52.317 30.0627 52.797 31.8807 51.837C32.9064 51.2908 33.8233 50.5612 34.586 49.6844C35.1969 49.0154 35.7641 48.2299 36.3605 47.5754C36.6077 47.9972 36.8114 48.3899 37.0586 48.7536C37.7008 49.7598 38.5868 50.5874 39.6345 51.1595C40.6821 51.7316 41.8573 52.0297 43.051 52.0261C43.88 52.0261 44.3164 51.6334 44.3164 50.8771C44.3164 50.1208 43.691 50.1935 43.2837 49.9608C42.6437 49.5681 41.6547 49.4226 41.6838 48.5063C41.7129 47.59 42.6874 47.4445 43.371 47.1536C45.0315 46.5043 46.7509 46.0173 48.5052 45.6992C48.8486 45.6641 49.1727 45.5237 49.4331 45.2971C49.6935 45.0706 49.8774 44.769 49.9597 44.4338C50.1488 43.7938 49.9597 43.503 49.3052 43.5902C46.8223 43.7695 44.3318 43.8181 41.8438 43.7357C41.6402 43.7357 41.3929 43.8375 41.1893 43.5757L43.3419 42.6448C44.5671 42.2525 45.747 41.7308 46.8617 41.0885C48.4325 39.9686 48.4471 38.7323 46.8617 37.6269C46.6264 37.4499 46.3668 37.3078 46.0908 37.2051C45.7456 36.9925 45.3408 36.8974 44.937 36.9341C44.5332 36.9708 44.1522 37.1374 43.851 37.4088C43.4731 37.7035 43.1942 38.1064 43.0512 38.5638C42.9083 39.0211 42.9082 39.5112 43.051 39.9686C43.2837 40.594 43.051 40.7249 42.5419 40.914C41.2766 41.3503 40.0403 41.8158 38.804 42.3685C38.4353 42.5894 38.1337 42.9064 37.9313 43.2856C37.7289 43.6648 37.6334 44.0918 37.6549 44.5211C37.9604 45.3065 38.7167 44.9283 39.2985 45.0156C39.4147 45.0228 39.5313 45.0228 39.6476 45.0156C40.743 44.9887 41.8232 45.2764 42.7601 45.8446C42.0195 46.0515 41.3782 46.5182 40.9536 47.1592C40.5289 47.8002 40.3493 48.5727 40.4475 49.3353V49.3644ZM16.5071 63.7054C17.2365 64.6333 18.2641 65.2807 19.416 65.538C20.6398 65.7661 21.8803 65.8926 23.1249 65.9162C30.0917 66.2507 37.0732 66.1344 44.04 66.0471C49.7706 66.0471 55.4866 65.7998 61.2172 65.6835C61.479 65.6835 61.8281 65.5235 61.959 65.7708C62.0368 65.9185 62.059 66.0893 62.0217 66.2521C61.9843 66.4149 61.8898 66.5589 61.7554 66.658C61.6951 66.7249 61.6504 66.8044 61.6245 66.8907C61.5534 67.1026 61.5597 67.3328 61.6423 67.5405C61.7248 67.7481 61.8782 67.9199 62.0754 68.0252C62.4971 68.3161 62.628 67.9088 62.788 67.6325C62.948 67.3561 63.0062 67.327 63.2098 67.3707C63.9371 67.5306 64.7952 66.9925 65.4352 67.7634C65.5951 67.9524 65.8715 67.8797 66.0897 67.7634C66.5432 67.4582 67.0775 67.2952 67.6241 67.2952C68.1708 67.2952 68.705 67.4582 69.1586 67.7634C69.6822 68.0252 70.1912 68.0543 70.5258 67.5888C70.8083 67.187 70.9845 66.7202 71.0379 66.2319C71.0913 65.7435 71.0202 65.2497 70.8312 64.7963C70.5403 63.9963 69.7985 63.8218 68.9986 63.8218C67.166 63.8218 65.3188 63.8218 63.4862 63.8218C62.3662 63.8218 62.3517 63.8218 62.8171 62.8182C63.0498 62.3091 62.8171 61.9601 62.4971 61.611C62.4642 61.56 62.419 61.518 62.3656 61.4889C62.3122 61.4599 62.2525 61.4447 62.1917 61.4447C62.131 61.4447 62.0712 61.4599 62.0178 61.4889C61.9645 61.518 61.9192 61.56 61.8863 61.611C61.7102 61.7479 61.5817 61.9368 61.519 62.1509C61.4564 62.365 61.4627 62.5934 61.5372 62.8037C61.5372 62.8909 61.639 62.9491 61.6826 63.0218C62.0463 63.5745 62.0317 63.8654 61.2463 63.8654C55.0212 63.8654 48.7913 63.8654 42.5565 63.8654L16.5071 63.7054ZM12.8855 42.4267C12.2364 43.6067 12.0547 44.9877 12.3764 46.2955C12.4297 46.6506 12.5555 46.991 12.746 47.2954C12.9364 47.5998 13.1875 47.8618 13.4835 48.065C13.7795 48.2683 14.1142 48.4085 14.4667 48.4769C14.8192 48.5453 15.182 48.5405 15.5326 48.4627C16.9619 48.2727 18.2788 47.5855 19.2522 46.5217C20.2255 45.4579 20.7933 44.0854 20.8559 42.6448C20.8486 42.5286 20.8486 42.412 20.8559 42.2957C20.8613 42.2294 20.8801 42.1647 20.911 42.1058C20.942 42.0468 20.9846 41.9947 21.0362 41.9526C21.0878 41.9105 21.1474 41.8792 21.2114 41.8607C21.2754 41.8422 21.3425 41.8368 21.4086 41.8449C21.7141 41.8449 21.6122 42.1503 21.6122 42.3394C21.6122 43.1684 21.6122 43.9975 21.6122 44.8265C21.619 45.4025 21.4911 45.9721 21.2385 46.4898C20.986 47.0075 20.6159 47.459 20.1578 47.8082C18.7754 48.9898 17.0757 49.7384 15.2708 49.9608C14.8379 50.0355 14.3941 50.0173 13.9687 49.9074C13.5434 49.7975 13.1463 49.5983 12.8038 49.3232C12.4613 49.0481 12.1812 48.7034 11.9822 48.3117C11.7831 47.9201 11.6696 47.4907 11.6492 47.0518C11.5566 46.2548 11.5517 45.4501 11.6346 44.652C11.74 44.2216 11.6884 43.7678 11.4892 43.3721C10.6596 45.1957 10.4749 47.2474 10.9656 49.1899C11.0641 49.983 11.4696 50.7059 12.095 51.2035C12.7204 51.7011 13.5159 51.9338 14.3108 51.8516C16.3061 51.83 18.2612 51.2886 19.9832 50.2807C20.7519 49.8871 21.4092 49.3065 21.8946 48.5923C22.3801 47.8781 22.6781 47.0533 22.7613 46.1937C22.9577 44.9915 22.9871 43.7678 22.8485 42.5576C22.8485 42.1212 22.8485 41.6703 22.7467 41.1031C22.9304 41.3424 23.1625 41.5401 23.428 41.6833C23.6935 41.8265 23.9863 41.9119 24.2872 41.9339C24.588 41.9559 24.8901 41.9139 25.1736 41.8109C25.4571 41.7078 25.7155 41.5459 25.932 41.3358C26.3102 41.0304 26.4701 41.0595 26.8338 41.3358C27.035 41.4983 27.276 41.6042 27.5318 41.6426C27.7876 41.6809 28.049 41.6504 28.2891 41.5541C28.5292 41.4577 28.7392 41.2991 28.8976 41.0946C29.0559 40.89 29.1569 40.647 29.19 40.3904C29.2407 40.0334 29.2407 39.6711 29.19 39.3141C29.19 38.9214 29.3791 38.2087 28.8555 38.2087C28.3319 38.2087 28.2591 38.8487 28.4191 39.3577C28.4263 39.4449 28.4263 39.5324 28.4191 39.6195C28.4191 40.0122 28.4191 40.4486 27.9101 40.5504C27.401 40.6522 27.2556 40.3031 27.1101 39.9686C26.9647 39.6341 26.761 39.0378 26.5865 38.5142C26.341 39.0859 26.0389 39.6316 25.6847 40.1432C25.3938 40.4777 25.0739 40.8413 24.5648 40.6668C24.0557 40.4922 23.9539 40.0559 23.9103 39.605C23.8667 39.1541 24.1139 38.7032 23.7358 38.5287C23.3576 38.3542 23.0522 38.8632 22.7176 39.0814C22.7176 39.0814 22.6158 39.0814 22.5431 39.0814C22.3831 36.8997 22.2086 34.718 22.0777 32.5218C22.0777 32.3909 21.7868 32.0127 22.2958 32.0709C22.8049 32.1291 22.8922 31.6782 22.8194 31.3146C22.5461 30.1601 22.1613 29.0349 21.6704 27.9548C21.5686 27.722 21.3795 27.5039 21.1323 27.722C20.8866 27.8887 20.6872 28.1148 20.5524 28.3793C20.4176 28.6437 20.3519 28.938 20.3614 29.2347C20.7541 32.6818 21.1177 36.1288 21.4959 39.5759C21.5686 40.1577 21.1032 40.2595 20.7687 40.4195C20.4341 40.5795 20.405 40.1577 20.2887 39.9686C20.0767 39.5728 19.8016 39.2142 19.4742 38.9069C19.2053 38.6625 18.8731 38.4988 18.5156 38.4345C18.158 38.3702 17.7896 38.4079 17.4525 38.5432C17.1677 38.6592 16.9271 38.8625 16.7651 39.1238C16.603 39.3851 16.528 39.6911 16.5507 39.9977C16.5507 40.5795 16.4634 41.1758 16.4634 41.7721C16.4634 42.7757 16.958 43.2266 17.9179 43.0084C18.5133 42.8824 19.1009 42.7222 19.6778 42.5285C19.4747 43.5373 18.9763 44.4631 18.2461 45.1882C17.5158 45.9133 16.5865 46.405 15.5762 46.601C15.3061 46.6786 15.0223 46.6974 14.7443 46.656C14.4662 46.6146 14.2003 46.5139 13.9645 46.3609C13.7287 46.2078 13.5285 46.0059 13.3775 45.7688C13.2265 45.5317 13.1281 45.2649 13.0891 44.9865C12.92 44.1443 12.8516 43.285 12.8855 42.4267ZM69.1731 31.2855C68.9113 30.8928 68.1841 30.6455 68.7513 29.991C68.7513 29.991 68.6786 29.7001 68.5913 29.5983C67.9126 28.9293 67.229 28.2747 66.5406 27.6348C66.2787 27.4021 65.9733 27.4312 65.9733 27.8093C65.9733 28.8274 65.7697 29.8601 66.5406 30.7182C67.3114 31.5764 68.3732 33.0454 69.2895 34.2089C69.5098 34.4492 69.6429 34.7566 69.6676 35.0816C69.8276 37.9033 70.0167 40.7104 70.1912 43.5175C70.2663 44.292 70.1618 45.0734 69.8858 45.801C69.464 46.8046 68.7659 46.9937 67.9514 46.281C67.5067 45.8819 67.0933 45.4491 66.7151 44.9865C66.1915 44.3611 65.726 44.4774 65.2606 44.9865C64.8528 45.5335 64.5065 46.1236 64.228 46.7464C63.8454 47.6787 63.3882 48.5785 62.8608 49.4372C62.3953 50.1208 61.9299 50.0917 61.5227 49.4372C61.3833 49.1426 61.2714 48.8359 61.1881 48.5208C60.9661 47.4862 60.8251 46.4358 60.7663 45.3792C60.028 46.6644 59.7946 48.1784 60.1118 49.6262C60.2157 50.175 60.4843 50.6792 60.8818 51.0715C61.2794 51.4639 61.787 51.7258 62.3372 51.8225C63.3698 51.9679 63.5298 50.7898 64.0098 50.1062C64.1093 49.9608 64.1923 49.8047 64.257 49.6408C64.6845 48.7841 65.1704 47.958 65.7115 47.1682C65.9879 46.79 66.1769 46.7319 66.4824 47.1682C66.8309 47.6185 67.2661 47.9943 67.7623 48.2736C68.0454 48.4916 68.3763 48.6392 68.7276 48.7042C69.0789 48.7691 69.4407 48.7497 69.783 48.6474C70.1254 48.5451 70.4385 48.363 70.6966 48.1159C70.9547 47.8688 71.1504 47.5639 71.2675 47.2264C71.5226 46.6545 71.6516 46.0344 71.6457 45.4083C71.6457 44.3756 71.6457 43.3284 71.5294 42.2957C71.5294 40.594 71.3694 38.8923 71.2966 37.2342C74.3219 39.6777 74.2056 43.1539 74.3365 46.5719C75.1364 45.1174 74.7146 43.532 74.8746 41.9176C76.0222 43.3887 77.0717 44.9338 78.0162 46.5428C78.2013 45.4392 77.99 44.3058 77.4199 43.343C76.6781 42.1648 75.9655 41.0013 75.1073 39.8668C74.6625 39.2794 74.4132 38.5672 74.3946 37.8306C74.3946 36.2306 74.1328 34.6453 74.0747 33.0454C74.0747 32.42 73.4638 31.5909 74.4237 31.1982C74.4237 31.1982 74.4237 30.9655 74.4237 30.8491C74.2412 29.677 73.9088 28.5331 73.4347 27.4457C73.3038 27.1694 73.1293 26.9657 72.8529 27.2712C72.6355 27.4482 72.4583 27.6695 72.3329 27.9202C72.2075 28.171 72.1369 28.4455 72.1257 28.7256C72.2566 30.1801 72.4311 31.7364 72.6056 33.2345C72.722 34.3544 72.882 35.4743 73.0129 36.5943C72.4219 35.9967 71.8773 35.3548 71.3839 34.6744C71.0483 34.1841 70.8349 33.6207 70.7616 33.0311C70.6882 32.4416 70.757 31.843 70.9621 31.2855C71.133 30.7014 71.133 30.0806 70.9621 29.4965C70.875 29.1186 70.7431 28.7524 70.5694 28.4056C70.3803 28.0129 70.3221 27.2857 69.8131 27.3439C69.304 27.4021 69.1877 28.1438 69.0131 28.6384C68.9784 28.7679 68.9708 28.9033 68.9909 29.0359C69.0109 29.1686 69.0581 29.2957 69.1295 29.4092C69.384 30.0059 69.3996 30.6776 69.1731 31.2855ZM14.5436 35.4452C14.4127 33.9908 14.2963 32.7545 14.1945 31.4891C14.1945 31.1837 14.02 30.791 14.1945 30.6164C15.0817 29.4529 14.1945 28.6238 13.7145 27.7075C13.4818 27.2712 13.2055 27.2566 12.9146 27.7075C12.8007 27.8455 12.7194 28.0074 12.6766 28.1811C12.6338 28.3548 12.6306 28.536 12.6673 28.7111C13.1592 30.7418 13.437 32.8185 13.4963 34.9071C13.4963 35.1253 13.6709 35.4307 13.4091 35.5471C13.1473 35.6634 12.9 35.4307 12.7255 35.2416C12.3764 34.8147 12.1294 34.3137 12.0034 33.7768C11.8773 33.2399 11.8756 32.6813 11.9983 32.1436C12.0855 31.5037 12.231 30.8637 12.3473 30.2237C12.3473 29.8892 12.4782 29.5401 12.1146 29.3656C11.9603 29.2964 11.7878 29.2788 11.6227 29.3155C11.4576 29.3521 11.3088 29.4411 11.1983 29.5692C10.9501 29.8187 10.7394 30.1028 10.5729 30.4128C10.1805 31.246 9.91571 32.1334 9.78747 33.0454C9.65657 33.7435 9.54021 34.4998 9.39477 35.1398C9.39477 35.358 9.20569 35.6052 8.94389 35.6343C8.68208 35.6634 8.46391 35.4307 8.37665 35.1689C8.20689 34.7614 8.08015 34.3373 7.99849 33.9035C7.8385 32.7108 7.72214 31.5037 7.57669 30.311H7.35852C6.84368 32.375 7.01733 34.5508 7.85304 36.507C8.05666 36.9142 8.24574 37.4233 8.84207 37.3797C9.4384 37.336 9.59839 36.8561 9.77293 36.4197C10.112 35.4053 10.365 34.3641 10.5292 33.3072C10.5652 32.6979 10.8061 32.1187 11.2128 31.6636C11.2128 32.3763 11.2128 32.8708 11.111 33.3654C11.0037 34.1657 11.0431 34.979 11.2274 35.7652C11.4456 36.6379 11.8819 37.496 12.8128 37.5978C13.7436 37.6997 13.7872 38.2087 13.8309 38.8632C13.8309 39.125 13.8309 39.4014 13.8309 39.6632C14.0054 41.2776 14.1654 42.8921 14.3545 44.6083C14.5977 44.3818 14.7808 44.0984 14.8874 43.7836C14.994 43.4688 15.0208 43.1325 14.9654 42.8048C14.8926 41.4667 14.9654 40.1286 14.7181 38.805C14.6375 38.2087 14.7131 37.6017 14.9374 37.0434C15.1618 36.4851 15.5272 35.9945 15.998 35.6198C16.7253 37.0742 17.2925 37.496 18.4706 37.2197C19.0243 37.0347 19.4952 36.6609 19.801 36.1636C20.1068 35.6664 20.2279 35.0774 20.1432 34.4998C20.1334 34.2899 20.1091 34.081 20.0705 33.8744L19.6342 31.9982C19.6342 31.7218 19.5033 31.5036 19.7942 31.2273C20.0851 30.951 19.6487 29.511 18.9069 29.0892C18.1652 28.6674 18.1506 29.4674 17.8743 29.7728C17.5979 30.0783 17.8743 30.5001 17.8743 30.8782C18.354 31.9519 18.7008 33.0802 18.9069 34.238C18.9069 34.6453 18.9942 35.1107 18.4852 35.2852C18.2732 35.3631 18.0425 35.3741 17.8241 35.3169C17.6057 35.2597 17.41 35.137 17.2634 34.9653C16.8975 34.5527 16.6467 34.051 16.5362 33.5108C16.3764 32.6917 16.3033 31.8581 16.318 31.0237C16.35 30.5811 16.2594 30.1382 16.0562 29.7438C15.8671 29.4529 15.7071 29.002 15.3144 29.0892C14.9217 29.1765 15.009 29.6274 14.9799 29.9474C14.9655 31.0154 15.1126 32.0795 15.4162 33.1036C15.5325 33.5362 15.5109 33.9943 15.3545 34.414C15.1981 34.8338 14.9146 35.1942 14.5436 35.4452ZM44.5345 29.9619C44.8254 29.8601 45.0872 30.3546 45.32 29.9619C45.5527 29.5692 45.32 29.4383 45.32 29.1911C45.0756 28.5218 44.6712 27.9226 44.1418 27.4457C43.8073 27.1403 43.6182 27.1984 43.3128 27.5766C43.0273 27.8736 42.8449 28.2545 42.7925 28.663C42.7402 29.0716 42.8206 29.4862 43.0219 29.8456C43.6163 31.0832 43.9103 32.4436 43.88 33.8162C43.88 34.2089 43.7637 34.5871 43.3128 34.718C43.1258 34.7758 42.9254 34.7731 42.74 34.7104C42.5546 34.6478 42.3937 34.5283 42.2801 34.3689C42.0568 34.0968 41.8755 33.7929 41.742 33.4672C41.345 32.4766 41.133 31.4217 41.1166 30.3546C41.0894 29.2854 40.8829 28.2284 40.5057 27.2275C40.3021 26.733 40.0694 26.6748 39.793 27.1403C39.631 27.3725 39.5211 27.637 39.4709 27.9157C39.4207 28.1943 39.4313 28.4806 39.5021 28.7547C39.8014 29.8106 39.9628 30.9008 39.9821 31.9982C40.0538 32.5846 39.9547 33.1792 39.6967 33.7107C39.4387 34.2422 39.0327 34.6879 38.5276 34.9944C37.3931 35.678 36.5496 35.2562 36.3896 33.9471C36.3461 33.5654 36.3461 33.1799 36.3896 32.7981C36.4768 31.7364 36.6077 30.6746 36.7095 29.6129C36.7095 29.2347 36.8405 28.7984 36.3459 28.6384C35.8514 28.4784 35.6187 28.7693 35.3714 29.0892C35.0043 29.5899 34.6968 30.1318 34.4551 30.7037C33.9606 31.8382 33.437 32.9727 33.0007 34.1071C32.7243 34.718 32.3753 34.6598 32.0116 34.1944C31.4906 33.5006 31.2283 32.6466 31.2699 31.78C31.2699 31.0091 31.2699 30.2383 31.2699 29.2929C30.7148 30.4293 30.5122 31.7057 30.6881 32.9581C30.8215 33.9313 31.2418 34.8427 31.8953 35.5761C32.768 36.5506 33.4661 36.4488 33.9461 35.2562C34.237 34.5144 34.4551 33.8017 34.7606 33.0017C34.8588 32.5524 35.0804 32.1394 35.4005 31.8091C35.3384 32.8406 35.3287 33.8746 35.3714 34.9071C35.3968 35.3336 35.5445 35.7438 35.7968 36.0886C36.049 36.4335 36.3952 36.6984 36.794 36.8518C37.1928 37.0052 37.6273 37.0405 38.0456 36.9536C38.4639 36.8666 38.8484 36.6611 39.153 36.3615C39.7102 35.8933 40.1997 35.3499 40.6075 34.7471C40.9857 35.0816 41.3202 35.4307 41.6984 35.707C41.9142 35.9172 42.1805 36.0683 42.4715 36.1461C42.7626 36.2239 43.0687 36.2256 43.3606 36.1512C43.6526 36.0767 43.9205 35.9286 44.1388 35.7209C44.357 35.5133 44.5184 35.2531 44.6073 34.9653C44.9667 34.1419 45.0632 33.2276 44.8836 32.3472C44.84 31.5909 44.68 30.7764 44.5345 29.9619ZM73.6238 51.9679C75.0595 51.8594 76.4259 51.3068 77.5335 50.3868C78.6411 49.4669 79.435 48.2251 79.8052 46.8337C80.3505 44.1537 80.3802 41.3943 79.8925 38.7032C79.6161 36.2888 79.4271 33.8744 79.2816 31.4309C79.2816 31.2564 79.1071 30.8491 79.4562 30.9219C80.0525 31.0237 79.878 30.6746 79.8052 30.4273C79.4868 29.3786 79.032 28.3761 78.4526 27.4457C78.3217 27.2275 78.1617 27.0094 77.8999 27.2712C77.6381 27.533 77.0999 28.1148 77.2163 28.7256C77.6963 31.2273 77.8563 33.7726 78.1471 36.3034C78.5856 39.0883 78.7851 41.9057 78.7435 44.7247C78.733 45.4831 78.5706 46.2316 78.2658 46.9262C77.9611 47.6207 77.5201 48.247 76.969 48.7681L74.7292 50.7898C74.2854 51.1089 73.9054 51.5085 73.6092 51.9679H73.6238ZM51.9814 52.2588C52.7523 52.4128 53.5467 52.4061 54.3149 52.2392C55.0831 52.0723 55.8086 51.7487 56.446 51.2887C57.0835 50.8287 57.6193 50.2421 58.0198 49.5657C58.4203 48.8892 58.6769 48.1374 58.7737 47.3573C59.1591 44.3248 59.1591 41.2557 58.7737 38.2233C58.5119 36.1579 58.1774 34.0926 58.1774 31.9982C58.1774 31.7945 57.9447 31.3727 58.3956 31.3727C58.8465 31.3727 58.7737 31.0237 58.7301 30.7764C58.5552 29.7774 58.2673 28.8015 57.872 27.8675C57.7265 27.5039 57.552 27.4457 57.2175 27.693C57.0295 27.7895 56.8627 27.9226 56.7269 28.0845C56.5911 28.2464 56.489 28.4338 56.4267 28.6357C56.3643 28.8376 56.343 29.0499 56.3639 29.2602C56.3848 29.4705 56.4475 29.6744 56.5484 29.8601C56.6546 30.1701 56.7182 30.493 56.7375 30.8201C57.232 35.358 57.6005 39.9056 57.8429 44.4629C58.0467 46.0288 57.6775 47.6155 56.8035 48.9306C55.9294 50.2457 54.6094 51.2004 53.0868 51.6189C52.6623 51.7267 52.2752 51.9479 51.9668 52.2588H51.9814ZM61.9445 48.739C62.3694 48.4781 62.6965 48.0845 62.8753 47.6191C63.2627 46.7012 63.3739 45.6903 63.1953 44.7102C62.6911 40.5892 62.2063 36.4731 61.7408 32.3618C61.7408 32.0127 61.5663 31.6346 62.2063 31.8382C62.8462 32.0418 62.9626 31.6491 62.7008 31.1982C62.1316 30.0916 61.6455 28.9443 61.2463 27.7657C60.97 27.0385 60.5918 27.0094 60.1264 27.6493C59.8506 28.0725 59.6712 28.5511 59.6008 29.0512C59.5304 29.5514 59.5708 30.0609 59.7191 30.5437C60.8588 36.5531 61.5974 42.6316 61.9299 48.739H61.9445ZM24.1285 34.0635C25.8654 33.6998 27.4139 32.7242 28.4918 31.3146C28.7827 30.9219 29.4809 30.9219 29.4082 30.5146C29.3063 29.8019 29.699 29.2783 29.7718 28.6529C29.8798 28.4176 29.8899 28.149 29.7999 27.9063C29.7099 27.6635 29.5271 27.4664 29.2918 27.3584C29.0565 27.2504 28.7879 27.2403 28.5452 27.3303C28.3024 27.4203 28.1053 27.6031 27.9973 27.8384C27.7449 28.095 27.5828 28.4268 27.5356 28.7837C27.4884 29.1405 27.5585 29.503 27.7355 29.8165C27.8017 29.9096 27.8486 30.0151 27.8734 30.1266C27.8983 30.2381 27.9007 30.3535 27.8803 30.466C27.86 30.5784 27.8174 30.6857 27.7551 30.7814C27.6928 30.8772 27.6119 30.9596 27.5174 31.0237C27.0519 31.4746 26.5865 31.94 26.0629 32.3763C25.5393 32.8127 24.8557 33.4526 24.1721 34.0635H24.1285ZM8.85662 45.2338C8.44845 46.0271 8.15464 46.8743 7.98394 47.75C7.78338 48.623 7.74884 49.5259 7.88213 50.4116C7.99849 51.008 8.33301 51.4734 9.03115 51.4007C9.17343 51.3956 9.31312 51.3611 9.44144 51.2995C9.56977 51.2378 9.68395 51.1503 9.77683 51.0424C9.86971 50.9345 9.93927 50.8085 9.98115 50.6724C10.023 50.5364 10.0363 50.3931 10.0202 50.2517C10.0763 49.9338 10.0252 49.6063 9.87474 49.3208C9.54021 49.5099 9.33659 50.0335 8.90025 49.8444C8.46391 49.6553 8.56573 49.0881 8.53664 48.6517C8.50691 48.0583 8.59592 47.465 8.79844 46.9064C8.95261 46.3617 8.97257 45.7878 8.85662 45.2338ZM66.0606 36.0707H65.9297C65.6824 35.5471 65.4352 35.0089 65.1588 34.4998C65.0424 34.2526 64.8243 34.0199 64.5334 34.1071C64.2425 34.1944 64.1698 34.6162 64.2134 34.9362C64.257 35.2562 64.2134 35.678 64.6061 35.5616C64.9988 35.4452 65.1443 35.7652 65.3043 35.9979C65.4642 36.2306 65.7115 36.7252 65.9151 37.0742C66.1188 37.4233 66.0897 37.4233 66.3078 37.3797C66.526 37.336 66.4969 37.1033 66.4969 36.9579C66.4969 36.2452 66.4969 35.5034 66.4969 34.8198C66.4969 34.558 66.4969 34.1653 66.9623 34.2962C67.1223 34.2962 67.326 34.4708 67.3987 34.2235C67.4218 34.0644 67.409 33.9021 67.3612 33.7485C67.3134 33.595 67.2318 33.4541 67.1223 33.3363C67.0882 33.2964 67.0458 33.2643 66.9981 33.2423C66.9504 33.2204 66.8985 33.209 66.846 33.209C66.7935 33.209 66.7416 33.2204 66.6939 33.2423C66.6462 33.2643 66.6038 33.2964 66.5696 33.3363C66.3978 33.4537 66.2584 33.6125 66.1644 33.7981C66.0703 33.9837 66.0246 34.1901 66.0315 34.398C66.0751 34.9071 66.0606 35.518 66.0606 36.0707ZM49.7415 50.048L48.1271 50.7316C47.4435 51.008 47.2689 50.848 47.3708 50.1498C47.3708 49.8008 47.8362 49.3499 47.3708 49.1026C46.9053 48.8554 46.5999 49.3063 46.2799 49.539C45.9599 49.7717 45.9163 49.539 45.9454 49.888C46.5126 49.888 46.7017 50.0044 46.5562 50.6153C46.3381 51.4879 46.7017 51.8516 47.5889 51.677C48.0527 51.5997 48.4907 51.4111 48.8656 51.1273C49.2405 50.8436 49.5411 50.4733 49.7415 50.048ZM64.7225 41.4231C65.9879 40.7977 67.1223 39.9686 68.3732 39.3432C68.5111 39.2539 68.6139 39.1198 68.6643 38.9634C68.7146 38.807 68.7094 38.638 68.6495 38.4851C68.5768 38.2233 68.4459 38.0196 68.155 38.2669C66.9088 39.2023 65.7589 40.2596 64.7225 41.4231ZM70.7149 50.4698L70.9476 50.0044C71.093 49.7135 71.1803 49.4372 70.773 49.2917C70.5844 49.2017 70.3715 49.1757 70.1667 49.2177C69.962 49.2597 69.7765 49.3674 69.6385 49.5244C69.3767 49.8299 69.6385 49.9462 69.9149 50.1062C70.1912 50.2662 70.1767 50.7171 69.7985 50.9498C69.4204 51.1825 69.1586 51.328 69.3477 51.6916C69.5367 52.0552 69.9731 51.837 70.3076 51.7788C70.4506 51.7393 70.5876 51.6806 70.7149 51.6043C70.9912 51.4443 71.3984 51.4007 71.4421 51.0225C71.4857 50.6444 70.933 50.7316 70.7149 50.4698ZM40.2875 38.1505C39.9821 38.4851 40.2875 39.125 39.7639 39.1541C39.2403 39.1832 39.4003 38.4851 39.0367 38.1942C38.9065 38.682 38.9636 39.2008 39.1967 39.6486C39.3421 39.8813 39.6039 40.1722 39.8366 39.9395C39.9894 39.7498 40.2013 39.6166 40.4385 39.5612C40.6758 39.5059 40.9247 39.5315 41.1457 39.6341C41.3929 39.7214 41.6547 39.3723 41.6984 39.0378C41.7676 38.7866 41.7733 38.5222 41.7149 38.2683C41.6565 38.0144 41.5358 37.779 41.3638 37.5833C41.2766 38.0924 41.3638 38.5869 40.9857 39.0378L40.2875 38.1505ZM54.3085 31.2273C54.6357 30.7552 54.811 30.1945 54.811 29.6201C54.811 29.0457 54.6357 28.485 54.3085 28.0129C54.1776 27.7366 54.0322 27.213 53.5668 27.5475C53.4721 27.596 53.3903 27.6664 53.3283 27.7529C53.2663 27.8393 53.2258 27.9393 53.2101 28.0445C53.1945 28.1498 53.2042 28.2572 53.2384 28.358C53.2726 28.4587 53.3303 28.5499 53.4068 28.6238C53.7341 28.9683 53.9839 29.3789 54.1395 29.8279C54.295 30.277 54.3526 30.7541 54.3085 31.2273ZM76.1254 32.8854C76.4537 32.4029 76.6293 31.8327 76.6293 31.2491C76.6293 30.6655 76.4537 30.0954 76.1254 29.6129C75.9945 29.3656 75.8636 28.8856 75.4418 29.2056C75.0201 29.5256 74.831 29.8892 75.2382 30.2674C75.5551 30.6203 75.795 31.0354 75.9428 31.4861C76.0905 31.9368 76.1428 32.4133 76.0964 32.8854H76.1254ZM28.0119 33.569C27.6873 33.6757 27.4032 33.8793 27.1978 34.1523C26.9923 34.4253 26.8755 34.7547 26.8628 35.0962C26.7901 35.6634 26.8628 36.187 27.5319 36.3325C28.201 36.4779 28.6955 36.0997 28.8555 35.3289C28.6955 35.2271 28.5937 35.3289 28.4628 35.4161C28.3319 35.5034 27.8955 35.6925 27.6337 35.4161C27.3719 35.1398 27.5174 34.8635 27.6337 34.5871C27.7501 34.3108 27.8519 33.9035 27.9828 33.569H28.0119ZM18.3252 27.853C17.7434 28.5802 17.7434 28.5802 17.2634 27.6348C17.0016 27.853 16.9871 28.3766 16.5507 28.3038C16.1144 28.2311 16.4053 27.5475 15.998 27.2857C15.8434 27.4772 15.759 27.7159 15.759 27.962C15.759 28.2082 15.8434 28.4469 15.998 28.6384C16.0485 28.7207 16.1162 28.7911 16.1965 28.8447C16.2767 28.8984 16.3677 28.934 16.463 28.9492C16.5583 28.9644 16.6559 28.9588 16.7488 28.9328C16.8418 28.9067 16.928 28.8609 17.0016 28.7984C17.0595 28.7665 17.1246 28.7498 17.1907 28.7498C17.2568 28.7498 17.3218 28.7665 17.3798 28.7984C18.2088 29.0892 18.3688 28.9293 18.2961 27.853H18.3252ZM68.0823 43.852C68.2787 43.6809 68.438 43.4713 68.5503 43.2362C68.6625 43.0011 68.7254 42.7454 68.7349 42.4851C68.7444 42.2247 68.7005 41.9651 68.6057 41.7224C68.511 41.4797 68.3675 41.259 68.1841 41.074C67.9514 40.8413 67.7187 40.6813 67.4278 40.9576C67.1369 41.234 67.1078 41.5249 67.4278 41.7867C67.7353 42.0118 67.9622 42.33 68.0748 42.6941C68.1875 43.0582 68.1799 43.4489 68.0532 43.8084L68.0823 43.852ZM53.5377 32.929C53.6686 33.6708 53.5377 34.3835 53.9013 34.3835C54.5122 34.2526 55.1085 34.6453 55.6466 34.3835C55.7204 34.3116 55.779 34.2256 55.8189 34.1307C55.8589 34.0358 55.8794 33.9338 55.8793 33.8308C55.9397 33.4844 55.8725 33.1279 55.6903 32.8272C55.443 33.1181 55.5012 33.5835 55.1085 33.7726C54.8176 33.6708 54.8321 33.3217 54.5703 33.1472C54.3813 33.5399 54.2067 34.1799 53.5231 32.8854L53.5377 32.929ZM26.092 46.0192C26.4084 45.7713 26.6321 45.4242 26.7271 45.0337C26.8221 44.6432 26.7828 44.232 26.6156 43.8666C26.4847 43.532 26.2956 43.2993 25.9029 43.3575C25.7524 43.3751 25.6134 43.4467 25.5118 43.5591C25.4101 43.6714 25.3527 43.8169 25.3502 43.9684C25.3502 44.3175 25.3502 44.6374 25.8302 44.6229C26.3102 44.6083 26.1356 44.8701 26.1938 45.1029C26.252 45.3356 25.932 45.5974 26.0774 45.9319L26.092 46.0192ZM38.2513 30.8491C38.4345 30.4115 38.5288 29.9418 38.5288 29.4674C38.5288 28.993 38.4345 28.5233 38.2513 28.0857C38.1495 27.8675 38.0477 27.5184 37.6986 27.722C37.6289 27.7501 37.5674 27.7951 37.5196 27.853C37.4717 27.9109 37.4391 27.9798 37.4247 28.0535C37.4102 28.1272 37.4144 28.2033 37.4368 28.275C37.4593 28.3466 37.4992 28.4115 37.5531 28.4638C37.9718 29.1923 38.2111 30.0099 38.2513 30.8491ZM9.70021 29.5401C9.91428 29.328 10.0818 29.0736 10.1919 28.7931C10.3021 28.5126 10.3526 28.2122 10.3402 27.9111C10.3402 27.5621 10.3402 27.1403 9.91838 27.053C9.49658 26.9657 9.22023 27.3148 9.01661 27.6493C8.81298 27.9839 9.01661 28.2602 9.33659 28.0857C10.0202 27.7366 9.8602 28.2311 9.84565 28.5511C9.82072 28.8838 9.77211 29.2143 9.70021 29.5401Z" fill="#046C35"/>
<path d="M40.4469 49.3353C40.3677 48.5824 40.5581 47.8257 40.9842 47.1999C41.4103 46.5741 42.0445 46.1197 42.774 45.9173C41.8371 45.3491 40.7569 45.0614 39.6615 45.0883C39.5307 45.0975 39.3995 45.0975 39.2688 45.0883C38.687 45.001 37.9307 45.3792 37.6252 44.5938C37.6036 44.1645 37.6991 43.7375 37.9015 43.3583C38.1039 42.9791 38.4056 42.6621 38.7742 42.4412C40.0105 41.9176 41.2468 41.4521 42.5122 40.9867C43.0358 40.7976 43.254 40.6667 43.0213 40.0413C42.8785 39.5839 42.8786 39.0938 43.0215 38.6365C43.1644 38.1791 43.4434 37.7762 43.8212 37.4815C44.1224 37.2101 44.5035 37.0435 44.9073 37.0068C45.311 36.9701 45.7159 37.0652 46.0611 37.2778C46.337 37.3805 46.5967 37.5226 46.832 37.6996C48.4173 38.805 48.4028 40.0413 46.832 41.1612C45.7173 41.8035 44.5373 42.3252 43.3122 42.7175L41.2032 43.6338C41.4068 43.8956 41.6541 43.7938 41.8577 43.7938C44.3457 43.8762 46.8362 43.8277 49.3191 43.6484C49.9881 43.5611 50.1627 43.852 49.9736 44.492C49.8913 44.8272 49.7074 45.1287 49.447 45.3553C49.1866 45.5818 48.8625 45.7223 48.5191 45.7573C46.7648 46.0754 45.0454 46.5625 43.3849 47.2118C42.7013 47.5027 41.7413 47.6627 41.6977 48.5644C41.6541 49.4662 42.6577 49.6407 43.2976 50.0189C43.7049 50.2516 44.3303 50.2371 44.3303 50.9352C44.3303 51.6334 43.8939 52.0988 43.0649 52.0842C41.8712 52.0879 40.696 51.7898 39.6484 51.2177C38.6007 50.6455 37.7147 49.8179 37.0725 48.8117C36.8253 48.4481 36.6216 48.0554 36.3744 47.6336C35.7781 48.3463 35.2108 49.0881 34.5999 49.7426C33.8372 50.6193 32.9203 51.3489 31.8946 51.8952C30.0475 52.8551 27.8949 52.3751 27.5313 49.8007C25.4844 50.7618 23.3244 51.4607 21.1025 51.8806C21.3856 51.4556 21.799 51.134 22.2807 50.9643C23.9566 50.141 25.5791 49.2132 27.1386 48.1863C27.317 48.0875 27.4727 47.9523 27.5954 47.7894C27.7182 47.6265 27.8054 47.4396 27.8512 47.2409C28.0673 46.2703 28.4512 45.3449 28.9857 44.5065C29.4221 45.2337 29.0875 45.961 29.1893 46.7755C30.3538 46.0225 31.3453 45.031 32.0983 43.8665C32.2001 43.6376 32.2527 43.3899 32.2527 43.1393C32.2527 42.8888 32.2001 42.641 32.0983 42.4121C31.883 41.477 31.3731 40.6358 30.6438 40.0122C30.5118 39.9111 30.4202 39.7662 30.3855 39.6035C30.3509 39.4408 30.3754 39.2712 30.4547 39.125C30.5937 38.6431 30.872 38.213 31.2547 37.8887C31.2547 37.8887 31.4874 37.8887 31.5601 37.9905C32.1258 38.4694 32.5948 39.0519 32.9419 39.7068C32.9419 39.8231 33.0728 40.0122 33.0291 40.0413C32.3455 40.6231 32.9128 41.2194 33.0291 41.7576C33.2644 42.5598 33.2931 43.4084 33.1126 44.2246C32.932 45.0409 32.5481 45.7983 31.9965 46.4264C31.253 47.3176 30.3627 48.0751 29.3639 48.6663C29.0439 48.8553 28.6512 48.9862 28.7821 49.5098C28.8172 49.7463 28.9311 49.9639 29.1053 50.1276C29.2796 50.2912 29.5039 50.3913 29.742 50.4116C30.3038 50.4925 30.8768 50.4012 31.3856 50.1498C33.2691 49.1381 34.7933 47.5681 35.749 45.6555C35.9235 45.3501 35.749 45.0883 35.749 44.8119C35.1672 42.9648 34.6145 41.1322 34.0327 39.285C33.9337 38.9797 33.8845 38.6605 33.8872 38.3396C33.8872 37.7287 34.0472 36.8851 34.5708 36.7979C35.0945 36.7106 35.109 37.5105 35.3272 37.9323C36.4061 40.5034 37.1302 43.2093 37.4798 45.9755C37.5705 46.7721 37.9038 47.5215 38.4345 48.1224C38.9652 48.7234 39.6677 49.1467 40.4469 49.3353ZM46.1629 39.8231C45.9334 39.5667 45.6434 39.3717 45.3193 39.2559C45.0866 39.1541 44.8103 38.8632 44.6066 39.1104C44.5314 39.2541 44.4922 39.4138 44.4922 39.5759C44.4922 39.738 44.5314 39.8977 44.6066 40.0413C44.7375 40.4195 45.0575 40.274 45.2902 40.2013C45.5229 40.1286 45.9156 40.1431 46.1629 39.8231Z" fill="#F6F9F8"/>
<path d="M16.5068 63.7054H42.5126C48.7377 63.7054 54.9676 63.7054 61.2024 63.7054C61.9878 63.7054 62.0024 63.4145 61.6388 62.8618C61.6388 62.8618 61.5369 62.7309 61.4933 62.6436C61.4188 62.4334 61.4125 62.205 61.4751 61.9909C61.5378 61.7768 61.6663 61.5879 61.8424 61.451C61.8753 61.4 61.9206 61.358 61.9739 61.3289C62.0273 61.2999 62.0871 61.2847 62.1478 61.2847C62.2086 61.2847 62.2684 61.2999 62.3217 61.3289C62.3751 61.358 62.4203 61.4 62.4533 61.451C62.7151 61.8001 63.006 62.1491 62.7732 62.6582C62.3078 63.6618 62.3224 63.6618 63.4423 63.6618C65.2749 63.6618 67.1221 63.6618 68.9547 63.6618C69.7547 63.6618 70.4964 63.8363 70.7873 64.6363C70.9763 65.0897 71.0475 65.5835 70.994 66.0719C70.9406 66.5602 70.7644 67.027 70.4819 67.4288C70.1474 67.8943 69.6383 67.8652 69.1147 67.6034C68.6611 67.2982 68.1269 67.1352 67.5802 67.1352C67.0336 67.1352 66.4993 67.2982 66.0458 67.6034C65.8276 67.7488 65.5513 67.8215 65.3913 67.6034C64.7513 66.8325 63.9368 67.3706 63.1659 67.2107C62.9623 67.2107 62.8314 67.3125 62.7441 67.4725C62.6569 67.6324 62.4533 68.1561 62.0315 67.8652C61.8343 67.7599 61.6809 67.5881 61.5984 67.3805C61.5158 67.1728 61.5095 66.9426 61.5806 66.7307C61.6065 66.6444 61.6512 66.5649 61.7115 66.498C61.8459 66.3989 61.9404 66.2549 61.9778 66.0921C62.0151 65.9293 61.9929 65.7585 61.9151 65.6107C61.7842 65.3635 61.4351 65.5089 61.1733 65.5235C55.4428 65.6398 49.7267 65.8144 43.9961 65.8871C37.0293 65.9744 30.0479 66.0907 23.081 65.7562C21.8364 65.7326 20.5959 65.6061 19.3721 65.378C18.2578 65.154 17.2498 64.5655 16.5068 63.7054ZM65.6531 65.4508C64.8531 65.4508 64.0532 65.4508 63.2678 65.4508C62.9914 65.4508 62.5405 65.2326 62.5114 65.7853C62.4823 66.338 62.7587 66.7161 63.2532 66.687C63.9804 66.687 64.7949 67.007 65.4204 66.3234C65.4876 66.2611 65.5759 66.2264 65.6676 66.2264C65.7593 66.2264 65.8476 66.2611 65.9149 66.3234C66.5257 66.9052 67.2675 66.5561 67.9366 66.6434C68.6056 66.7307 68.4165 66.0762 68.5038 65.7417C68.5911 65.4071 68.1984 65.378 67.9657 65.378L65.6531 65.4508Z" fill="#F6F9F8"/>
<path d="M12.8853 42.4266C12.8515 43.2849 12.9199 44.1442 13.089 44.9864C13.1204 45.2699 13.2133 45.5432 13.3611 45.7872C13.5089 46.0312 13.708 46.2401 13.9448 46.3993C14.1815 46.5585 14.4501 46.6642 14.7318 46.7091C15.0135 46.7539 15.3016 46.7368 15.5761 46.659C16.5864 46.4631 17.5156 45.9713 18.2459 45.2462C18.9762 44.5211 19.4745 43.5954 19.6777 42.5865C19.1008 42.7802 18.5131 42.9405 17.9178 43.0665C16.9287 43.241 16.4633 42.8338 16.4633 41.8302C16.4633 41.2339 16.4633 40.6376 16.5506 40.0558C16.5279 39.7492 16.6029 39.4432 16.7649 39.1819C16.9269 38.9206 17.1676 38.7173 17.4523 38.6013C17.7856 38.4719 18.1483 38.4373 18.5 38.5015C18.8518 38.5657 19.1789 38.7261 19.445 38.9649C19.7724 39.2722 20.0475 39.6309 20.2595 40.0267C20.3758 40.2158 20.3467 40.6521 20.7394 40.4776C21.1321 40.303 21.5394 40.2158 21.4667 39.634C21.0885 36.1869 20.7249 32.7398 20.3322 29.2928C20.3039 28.9652 20.3679 28.6362 20.517 28.3432C20.6661 28.0501 20.8943 27.8047 21.1758 27.6347C21.423 27.4165 21.6121 27.6347 21.7139 27.8674C22.2048 28.9475 22.5896 30.0727 22.8629 31.2272C22.8629 31.5908 22.9793 32.0708 22.3393 31.9835C21.6994 31.8963 22.1066 32.3035 22.1212 32.4344C22.2521 34.6306 22.4266 36.7978 22.5866 38.994C22.6593 38.994 22.732 39.0667 22.7611 38.994C23.0957 38.7759 23.3575 38.2377 23.7793 38.4413C24.201 38.645 23.9247 39.1395 23.9538 39.5176C23.9829 39.8958 24.1138 40.4194 24.6083 40.5794C25.1028 40.7394 25.4373 40.3903 25.7282 40.0558C26.0824 39.5442 26.3845 38.9985 26.63 38.4268C26.8045 38.9213 26.95 39.4013 27.1536 39.8812C27.3572 40.3612 27.5318 40.5503 27.9536 40.463C28.3753 40.3758 28.4335 39.9249 28.4626 39.5322C28.4698 39.4451 28.4698 39.3575 28.4626 39.2704C28.3026 38.7613 28.2008 38.1068 28.899 38.1213C29.5971 38.1359 29.1753 38.834 29.2335 39.2267C29.2842 39.5837 29.2842 39.9461 29.2335 40.303C29.2004 40.5596 29.0994 40.8027 28.9411 41.0072C28.7827 41.2117 28.5727 41.3704 28.3326 41.4667C28.0925 41.563 27.8311 41.5936 27.5753 41.5552C27.3195 41.5168 27.0785 41.4109 26.8773 41.2484C26.5136 40.9575 26.3536 40.9285 25.9755 41.2484C25.759 41.4585 25.5006 41.6204 25.2171 41.7235C24.9336 41.8266 24.6315 41.8685 24.3307 41.8465C24.0298 41.8245 23.737 41.7392 23.4715 41.596C23.206 41.4528 22.9738 41.255 22.7902 41.0157C22.7902 41.5975 22.7902 42.0484 22.892 42.4702C23.0306 43.6805 23.0012 44.9041 22.8048 46.1063C22.7216 46.9659 22.4236 47.7907 21.9381 48.5049C21.4527 49.2191 20.7954 49.7998 20.0267 50.1934C18.3047 51.2012 16.3496 51.7426 14.3543 51.7642C13.5594 51.8464 12.7639 51.6137 12.1385 51.1161C11.5131 50.6185 11.1076 49.8956 11.0091 49.1025C10.5184 47.16 10.7031 45.1084 11.5327 43.2847C11.7319 43.6804 11.7835 44.1343 11.6781 44.5646C11.5626 45.418 11.5479 46.2821 11.6345 47.139C11.6549 47.5778 11.7684 48.0073 11.9675 48.3989C12.1665 48.7905 12.4466 49.1353 12.7891 49.4104C13.1316 49.6855 13.5287 49.8846 13.954 49.9945C14.3794 50.1044 14.8232 50.1226 15.2561 50.0479C17.0611 49.8256 18.7607 49.0769 20.1431 47.8953C20.6012 47.5461 20.9713 47.0946 21.2238 46.5769C21.4764 46.0592 21.6044 45.4897 21.5976 44.9137C21.5976 44.0846 21.5976 43.2556 21.5976 42.4266C21.5976 42.2375 21.6994 41.932 21.3939 41.932C21.3278 41.924 21.2607 41.9294 21.1967 41.9479C21.1328 41.9664 21.0732 41.9976 21.0215 42.0397C20.9699 42.0818 20.9273 42.134 20.8964 42.1929C20.8654 42.2519 20.8466 42.3165 20.8412 42.3829C20.834 42.4992 20.834 42.6157 20.8412 42.732C20.7786 44.1726 20.2109 45.5451 19.2375 46.6089C18.2641 47.6727 16.9473 48.3598 15.5179 48.5498C15.1674 48.6276 14.8045 48.6325 14.452 48.5641C14.0995 48.4957 13.7648 48.3555 13.4688 48.1522C13.1728 47.949 12.9218 47.687 12.7313 47.3826C12.5408 47.0781 12.415 46.7378 12.3617 46.3827C12.0213 45.0457 12.2088 43.6289 12.8853 42.4266ZM18.4123 41.3066C18.5868 41.1903 19.1104 41.3066 19.0086 40.943C18.9341 40.7163 18.7956 40.5161 18.6097 40.3664C18.4239 40.2167 18.1988 40.124 17.9614 40.0994C17.6414 40.0994 17.6123 40.3612 17.6269 40.6085C17.6414 40.8557 17.8741 41.3212 18.4123 41.3066Z" fill="#F6F9F8"/>
<path d="M69.1731 31.2855C69.3659 30.6878 69.3296 30.0398 69.0713 29.4674C68.9999 29.3538 68.9527 29.2268 68.9327 29.0941C68.9126 28.9615 68.9202 28.8261 68.9549 28.6965C69.1295 28.202 69.2313 27.4748 69.7549 27.4021C70.2785 27.3294 70.3221 28.0711 70.5112 28.4638C70.6849 28.8106 70.8168 29.1768 70.9039 29.5547C71.0748 30.1388 71.0748 30.7596 70.9039 31.3437C70.6988 31.9012 70.63 32.4998 70.7034 33.0893C70.7768 33.6789 70.9901 34.2423 71.3257 34.7326C71.8191 35.413 72.3637 36.0548 72.9547 36.6524C72.8238 35.5325 72.6638 34.4126 72.5475 33.2926C72.3729 31.8382 72.1984 30.2965 72.0675 28.7838C72.0787 28.5037 72.1494 28.2291 72.2747 27.9784C72.4001 27.7276 72.5773 27.5064 72.7947 27.3294C73.0711 27.0239 73.2456 27.2275 73.3765 27.5039C73.8506 28.5913 74.183 29.7352 74.3655 30.9073C74.3655 31.0237 74.3655 31.2273 74.3655 31.2564C73.4056 31.7073 73.9874 32.4781 74.0165 33.1036C74.0165 34.7035 74.2783 36.2888 74.3364 37.8887C74.355 38.6254 74.6043 39.3376 75.0491 39.925C75.8636 41.0595 76.6199 42.223 77.3617 43.4011C77.9318 44.364 78.1431 45.4974 77.958 46.601C77.001 44.9758 75.9369 43.416 74.7728 41.9321C74.6128 43.5466 75.0346 45.132 74.2346 46.5864C74.0892 43.1684 74.2346 39.6923 71.1948 37.2488C71.1948 38.9069 71.3548 40.6086 71.4275 42.3103C71.4275 43.343 71.5002 44.3902 71.5439 45.4228C71.5799 46.0368 71.4857 46.6514 71.2675 47.2264C71.1537 47.5663 70.9604 47.8742 70.7037 48.1245C70.447 48.3748 70.1343 48.5603 69.7916 48.6655C69.4488 48.7708 69.0859 48.7927 68.733 48.7296C68.3801 48.6665 68.0473 48.5202 67.7623 48.3027C67.2661 48.0234 66.8309 47.6476 66.4824 47.1973C66.1769 46.79 65.9878 46.8482 65.7115 47.1973C65.1704 47.9871 64.6844 48.8132 64.257 49.6699C64.1923 49.8338 64.1093 49.9899 64.0098 50.1353C63.5298 50.8189 63.3698 51.997 62.3371 51.8516C61.787 51.7549 61.2794 51.493 60.8818 51.1006C60.4843 50.7083 60.2157 50.2041 60.1118 49.6553C59.7946 48.2075 60.0279 46.6934 60.7663 45.4083C60.8251 46.4649 60.9661 47.5153 61.1881 48.5499C61.2713 48.865 61.3833 49.1717 61.5226 49.4662C61.9299 50.1789 62.3953 50.208 62.8607 49.4662C63.3882 48.6076 63.8454 47.7078 64.2279 46.7755C64.5112 46.178 64.8573 45.6124 65.2606 45.0883C65.726 44.5211 66.1915 44.4047 66.7151 45.0883C67.0933 45.5509 67.5066 45.9837 67.9514 46.3828C68.7659 47.0955 69.4058 46.9064 69.8858 45.9028C70.1596 45.1798 70.264 44.4036 70.1912 43.6339C70.0167 40.8267 69.8276 38.0196 69.6676 35.198C69.6429 34.8729 69.5097 34.5656 69.2895 34.3253C68.3732 33.1617 67.515 31.9545 66.5405 30.8346C65.566 29.7147 66.0024 28.8856 65.9733 27.9257C65.9733 27.5475 66.2787 27.5184 66.5405 27.7511C67.2193 28.3911 67.9029 29.0456 68.5913 29.7147C68.6786 29.8165 68.7949 30.0492 68.7513 30.1074C68.1841 30.6455 68.9113 30.8928 69.1731 31.2855Z" fill="#F6F9F8"/>
<path d="M14.5435 35.4452C14.918 35.1876 15.2012 34.8181 15.3528 34.3896C15.5043 33.9611 15.5163 33.4956 15.3871 33.0599C15.0835 32.0358 14.9364 30.9718 14.9508 29.9037C14.9508 29.5837 14.9508 29.1183 15.2853 29.0456C15.6198 28.9729 15.838 29.4092 16.0271 29.7001C16.2303 30.0946 16.3209 30.5374 16.2889 30.98C16.2896 31.8111 16.3773 32.6398 16.5507 33.4526C16.6613 33.9929 16.9121 34.4945 17.2779 34.9071C17.4245 35.0788 17.6202 35.2015 17.8386 35.2587C18.057 35.3159 18.2877 35.3049 18.4997 35.2271C19.0087 35.0525 18.9506 34.5871 18.9215 34.1798C18.7201 33.0431 18.3832 31.9347 17.9179 30.8782C17.787 30.5001 17.5834 30.1074 17.9179 29.7728C18.2524 29.4383 18.3106 28.7692 18.9506 29.0892C19.5905 29.4092 20.2741 30.7473 19.8523 31.14C19.4305 31.5327 19.6341 31.6345 19.6923 31.9109L20.085 33.8162C20.1236 34.0228 20.1479 34.2318 20.1578 34.4416C20.2425 35.0192 20.1213 35.6082 19.8155 36.1054C19.5097 36.6027 19.0388 36.9765 18.4851 37.1615C17.307 37.4378 16.7398 37.0742 16.0125 35.5616C15.5532 35.9515 15.203 36.4542 14.9965 37.0202C14.79 37.5863 14.7341 38.1963 14.8344 38.7905C15.0235 40.114 15.009 41.4521 15.0817 42.7903C15.1371 43.1179 15.1104 43.4543 15.0037 43.7691C14.8971 44.0839 14.714 44.3672 14.4708 44.5938C14.2817 42.8775 14.1217 41.2631 13.9472 39.6486C13.9472 39.3868 13.9472 39.1105 13.9472 38.8487C13.9472 38.1942 13.8599 37.6851 12.9291 37.5833C11.9982 37.4815 11.5619 36.6233 11.3437 35.7507C11.1326 35.0041 11.0539 34.2263 11.111 33.4526C11.111 32.9581 11.111 32.4636 11.2128 31.7509C10.8061 32.2059 10.5652 32.7852 10.5292 33.3944C10.365 34.4514 10.112 35.4926 9.7729 36.507C9.59837 36.9433 9.40929 37.4378 8.84205 37.4669C8.27481 37.496 8.05664 37.0015 7.85301 36.5942C7.01731 34.638 6.84366 32.4623 7.3585 30.3982H7.57667C7.72211 31.5909 7.83847 32.7981 7.99846 33.9908C8.08013 34.4246 8.20687 34.8487 8.37662 35.2561C8.46389 35.5179 8.60933 35.7652 8.94386 35.7216C9.27839 35.6779 9.33656 35.4452 9.39474 35.2271C9.54019 34.5289 9.65655 33.7726 9.78745 33.1326C9.91568 32.2207 10.1805 31.3332 10.5729 30.5001C10.7394 30.1901 10.9501 29.9059 11.1983 29.6565C11.3087 29.5284 11.4576 29.4394 11.6227 29.4027C11.7878 29.366 11.9603 29.3836 12.1146 29.4528C12.4782 29.6274 12.42 29.9765 12.3473 30.311C12.2309 30.9509 12.0855 31.5909 11.9982 32.2309C11.8756 32.7685 11.8773 33.3271 12.0034 33.864C12.1294 34.4009 12.3764 34.9019 12.7255 35.3289C12.9 35.5179 13.1327 35.7507 13.4091 35.6343C13.6854 35.5179 13.5254 35.2125 13.4963 34.9943C13.4438 32.8965 13.1708 30.81 12.6818 28.7692C12.6451 28.5941 12.6483 28.413 12.6911 28.2393C12.7339 28.0656 12.8152 27.9037 12.9291 27.7657C13.22 27.3293 13.4963 27.3439 13.729 27.7657C14.1945 28.6674 15.0962 29.4965 14.209 30.6746C14.0636 30.8491 14.209 31.2418 14.209 31.5473C14.3399 32.7545 14.4563 34.0199 14.5435 35.4452Z" fill="#F6F9F8"/>
<path d="M44.5336 29.9619C44.679 30.7764 44.839 31.5909 44.9699 32.3909C45.1495 33.2712 45.053 34.1855 44.6936 35.0089C44.6046 35.2968 44.4433 35.557 44.225 35.7646C44.0068 35.9722 43.7388 36.1204 43.4469 36.1948C43.155 36.2692 42.8489 36.2675 42.5578 36.1897C42.2668 36.112 42.0005 35.9608 41.7846 35.7507C41.4065 35.4743 41.0719 35.1253 40.6938 34.7908C40.286 35.3936 39.7965 35.9369 39.2393 36.4052C38.9347 36.7048 38.5502 36.9103 38.1319 36.9972C37.7136 37.0841 37.2791 37.0488 36.8803 36.8954C36.4815 36.7421 36.1353 36.4771 35.883 36.1323C35.6308 35.7874 35.4831 35.3772 35.4577 34.9507C35.3612 33.9161 35.3175 32.8773 35.3268 31.8382C35.0067 32.1685 34.7851 32.5815 34.6869 33.0309C34.3814 33.7726 34.1633 34.4853 33.8724 35.2853C33.3924 36.4779 32.6943 36.5797 31.8216 35.6052C31.1681 34.8718 30.7478 33.9604 30.6144 32.9872C30.4385 31.7348 30.6411 30.4584 31.1962 29.322C31.1962 30.2674 31.1962 31.0382 31.1962 31.8091C31.1546 32.6758 31.4169 33.5297 31.9379 34.2235C32.3015 34.6889 32.6506 34.7471 32.927 34.1362C33.4215 33.0018 33.9451 31.8673 34.3814 30.7328C34.6073 30.1528 34.9002 29.6012 35.2541 29.0893C35.5014 28.7693 35.7923 28.4784 36.2286 28.6384C36.6649 28.7984 36.6358 29.2347 36.5922 29.6129C36.4904 30.6746 36.3595 31.7364 36.2722 32.7981C36.2287 33.1799 36.2287 33.5654 36.2722 33.9472C36.4322 35.2562 37.2758 35.678 38.4103 34.9944C38.9154 34.6879 39.3213 34.2422 39.5793 33.7108C39.8373 33.1793 39.9364 32.5846 39.8647 31.9982C39.8253 30.9032 39.6444 29.8179 39.3266 28.7693C39.2558 28.4951 39.2452 28.2089 39.2954 27.9302C39.3456 27.6516 39.4555 27.387 39.6175 27.1548C39.8938 26.6894 40.1265 26.7476 40.3302 27.2421C40.7074 28.2429 40.9139 29.3 40.941 30.3692C40.9979 31.4337 41.2493 32.4788 41.6828 33.4526C41.8163 33.7784 41.9977 34.0823 42.221 34.3544C42.3346 34.5138 42.4955 34.6333 42.6809 34.6959C42.8663 34.7586 43.0667 34.7612 43.2536 34.7035C43.7045 34.5726 43.8063 34.1944 43.8209 33.8017C43.8512 32.4291 43.5572 31.0687 42.9628 29.831C42.7614 29.4717 42.681 29.0571 42.7334 28.6485C42.7858 28.2399 42.9682 27.859 43.2536 27.5621C43.5591 27.1839 43.7482 27.1257 44.0827 27.4312C44.612 27.9081 45.0165 28.5073 45.2608 29.1765C45.3481 29.4238 45.4935 29.7001 45.2608 29.9474C45.0281 30.1947 44.8245 29.8601 44.5336 29.9619Z" fill="#F6F9F8"/>
<path d="M52.01 37.9177C51.9106 38.7263 51.9352 39.5454 52.0827 40.3466C52.4306 42.7562 52.4648 45.2006 52.1845 47.6189C52.0797 48.1405 51.9437 48.6553 51.7773 49.1607C51.7046 49.3934 51.5882 49.757 51.2682 49.6843C50.9483 49.6115 51.0501 49.2334 51.0937 49.0007C51.3415 47.9665 51.4732 46.9079 51.4864 45.8445C51.1664 42.441 50.7883 39.0667 50.3665 35.6633C50.3161 35.3883 50.2015 35.1292 50.0319 34.9069C49.0516 33.3875 47.9781 31.9303 46.8176 30.5436C46.4558 30.2184 46.1733 29.8146 45.9918 29.3633C45.8103 28.9121 45.7345 28.4252 45.7704 27.9401C45.7704 27.6783 45.7704 27.3728 45.9595 27.1983C46.1485 27.0238 46.4685 27.3001 46.6576 27.4456C47.523 28.076 48.3092 28.8086 48.9993 29.6272C49.5229 30.2672 49.4938 30.3254 48.592 30.5581L49.901 32.4634C50.0664 31.5839 50.0266 30.678 49.7847 29.8163C49.7847 29.6854 49.6101 29.5691 49.5956 29.4236C49.5956 28.7837 49.5956 28.0419 50.2356 27.8092C50.8755 27.5765 50.8901 28.3473 51.0937 28.7255C51.5067 29.4492 51.8152 30.2278 52.01 31.0381C52.0827 31.4308 52.6063 32.0562 51.6028 32.0998C51.4282 32.0998 51.5155 32.4053 51.5155 32.5653C51.4198 34.1879 51.8704 35.7957 52.7954 37.1323C54.5053 39.4786 55.8763 42.054 56.8679 44.7827C57.1671 45.3757 57.2543 46.0532 57.1152 46.7026C56.7079 46.5281 56.6352 46.1208 56.4752 45.8009C55.3843 43.4025 54.1255 41.0842 52.7082 38.8631C52.5045 38.5431 52.3736 38.1649 51.9955 37.9759V37.8595V37.9613L52.01 37.9177Z" fill="#F6F9F8"/>
<path d="M73.6094 51.9679C73.9041 51.5203 74.2789 51.1307 74.7148 50.8189L76.9546 48.7972C77.5057 48.2761 77.9467 47.6497 78.2515 46.9552C78.5562 46.2607 78.7186 45.5121 78.7291 44.7538C78.7691 41.9445 78.5696 39.1369 78.1327 36.3615C77.8419 33.8308 77.6819 31.2855 77.2019 28.7838C77.0855 28.1584 77.5073 27.722 77.8855 27.3293C78.2636 26.9366 78.3073 27.3293 78.4382 27.5039C79.0176 28.4343 79.4724 29.4367 79.7908 30.4855C79.7908 30.7328 80.0381 31.0818 79.4418 30.98C79.0927 30.9073 79.2527 31.3146 79.2672 31.4891C79.4127 33.918 79.6018 36.3324 79.8781 38.7614C80.3658 41.4525 80.3362 44.2118 79.7908 46.8918C79.4104 48.2725 78.612 49.5015 77.5052 50.4103C76.3985 51.3192 75.0376 51.8632 73.6094 51.9679Z" fill="#F6F9F8"/>
<path d="M51.9668 52.2588C52.2924 51.9567 52.695 51.7504 53.1304 51.6624C54.653 51.244 55.973 50.2893 56.8471 48.9742C57.7211 47.6591 58.0903 46.0723 57.8865 44.5065C57.644 39.9492 57.2756 35.4016 56.7811 30.8636C56.7617 30.5366 56.6981 30.2136 56.592 29.9037C56.4911 29.718 56.4284 29.514 56.4075 29.3038C56.3866 29.0935 56.4079 28.8812 56.4702 28.6793C56.5326 28.4774 56.6346 28.2899 56.7705 28.1281C56.9063 27.9662 57.073 27.8331 57.261 27.7365C57.5956 27.4893 57.7701 27.5475 57.9155 27.9111C58.3109 28.8451 58.5988 29.821 58.7737 30.82C58.7737 31.0673 58.9918 31.4309 58.4391 31.4163C57.8865 31.4018 58.1773 31.809 58.1773 31.9981C58.1773 34.078 58.4682 36.1433 58.6428 38.2087C59.0281 41.2411 59.0281 44.3102 58.6428 47.3427C58.5463 48.1123 58.2942 48.8542 57.9018 49.5232C57.5095 50.1923 56.9851 50.7745 56.3605 51.2344C55.736 51.6943 55.0243 52.0223 54.269 52.1984C53.5136 52.3745 52.7303 52.395 51.9668 52.2588Z" fill="#F6F9F8"/>
<path d="M61.93 48.7389C61.5975 42.6315 60.8589 36.553 59.7193 30.5436C59.5623 30.0618 59.5136 29.5513 59.5764 29.0486C59.6393 28.5458 59.8122 28.063 60.0829 27.6347C60.5483 26.9947 60.9265 27.0238 61.2028 27.751C61.602 28.9296 62.0881 30.077 62.6573 31.1836C62.9191 31.6344 62.6573 31.9981 62.1628 31.8235C61.6682 31.649 61.6537 31.9981 61.6973 32.3471C62.1918 36.4681 62.6767 40.5842 63.1518 44.6955C63.3304 45.6756 63.2192 46.6866 62.8318 47.6044C62.6633 48.071 62.3466 48.4695 61.93 48.7389Z" fill="#F6F9F8"/>
<path d="M24.1719 34.0634C24.8555 33.5107 25.5391 32.958 26.1936 32.3762C26.8481 31.7944 27.139 31.4744 27.648 31.0235C27.7426 30.9594 27.8235 30.8771 27.8858 30.7813C27.9481 30.6855 27.9907 30.5783 28.011 30.4658C28.0313 30.3534 28.029 30.238 28.0041 30.1265C27.9793 30.0149 27.9324 29.9095 27.8662 29.8163C27.6892 29.5029 27.619 29.1404 27.6663 28.7835C27.7135 28.4267 27.8756 28.0949 28.128 27.8383C28.236 27.603 28.4331 27.4202 28.6758 27.3302C28.9186 27.2402 29.1872 27.2503 29.4225 27.3583C29.6578 27.4663 29.8405 27.6634 29.9306 27.9061C30.0206 28.1489 30.0105 28.4175 29.9024 28.6528C29.8297 29.2782 29.437 29.8018 29.5388 30.5145C29.5388 30.9217 28.9134 30.9217 28.6225 31.3144C27.5229 32.7418 25.9405 33.7192 24.1719 34.0634Z" fill="#F6F9F8"/>
<path d="M8.85617 45.2336C8.99114 45.783 8.99114 46.3569 8.85617 46.9063C8.65365 47.4648 8.56464 48.0582 8.59436 48.6516C8.59436 49.088 8.46346 49.6261 8.95798 49.8443C9.4525 50.0625 9.59794 49.5098 9.93247 49.3207C10.0829 49.6062 10.1341 49.9337 10.0779 50.2515C10.094 50.393 10.0808 50.5362 10.0389 50.6723C9.997 50.8084 9.92743 50.9343 9.83456 51.0422C9.74168 51.1501 9.62749 51.2377 9.49917 51.2993C9.37085 51.361 9.23116 51.3955 9.08888 51.4006C8.39074 51.4006 8.05621 51.0079 7.93986 50.4115C7.80657 49.5258 7.84111 48.6228 8.04167 47.7499C8.19393 46.8771 8.46811 46.0301 8.85617 45.2336Z" fill="#F6F9F8"/>
<path d="M66.0602 36.0705C66.0602 35.5178 66.0602 34.9651 66.0602 34.4124C66.0533 34.2045 66.099 33.9981 66.1931 33.8125C66.2871 33.6269 66.4265 33.4681 66.5983 33.3507C66.6325 33.3108 66.6748 33.2787 66.7225 33.2567C66.7702 33.2348 66.8222 33.2234 66.8747 33.2234C66.9272 33.2234 66.9791 33.2348 67.0268 33.2567C67.0745 33.2787 67.1169 33.3108 67.151 33.3507C67.2604 33.4685 67.3421 33.6094 67.3899 33.7629C67.4377 33.9165 67.4505 34.0788 67.4274 34.2379C67.4274 34.4852 67.151 34.3543 66.991 34.3106C66.4965 34.1797 66.5402 34.5724 66.5256 34.8342C66.5256 35.5469 66.5256 36.2887 66.5256 36.9723C66.5256 37.1177 66.5256 37.3504 66.3365 37.3941C66.1474 37.4377 66.0311 37.2341 65.9438 37.0886C65.8566 36.9432 65.5511 36.3614 65.3329 36.0123C65.1148 35.6633 65.1293 35.4451 64.6348 35.576C64.1403 35.7069 64.2712 35.1978 64.2421 34.9506C64.213 34.7033 64.2421 34.2379 64.5621 34.1215C64.8821 34.0052 65.0711 34.267 65.1875 34.5142C65.4638 35.0233 65.7111 35.5615 65.9584 36.0851L66.0602 36.0705Z" fill="#F6F9F8"/>
<path d="M8.1582 42.0048C9.16076 40.7174 10.53 39.764 12.0852 39.2704C12.3471 39.1831 12.6816 38.9504 12.8416 39.3722C12.8849 39.4507 12.9085 39.5385 12.9103 39.6281C12.9121 39.7177 12.8921 39.8064 12.8521 39.8865C12.812 39.9667 12.753 40.0359 12.6802 40.0882C12.6075 40.1405 12.5231 40.1743 12.4343 40.1867C10.9872 40.7164 9.59425 41.3837 8.27456 42.1793L8.1582 42.0048Z" fill="#F6F9F8"/>
<path d="M49.741 50.0481C49.5475 50.4645 49.2582 50.8292 48.8967 51.1123C48.5352 51.3955 48.1118 51.589 47.6611 51.6771C46.7739 51.8516 46.4103 51.488 46.6285 50.6153C46.7739 50.0045 46.6285 49.8154 46.0176 49.8881C46.0176 49.6118 46.2357 49.6118 46.3521 49.539C46.4685 49.4663 47.0793 48.8991 47.4429 49.1027C47.8066 49.3063 47.4429 49.8008 47.4429 50.1499C47.3411 50.8481 47.4429 51.0081 48.1993 50.7317L49.741 50.0481Z" fill="#F6F9F8"/>
<path d="M64.7227 41.4232C65.7591 40.2597 66.909 39.2024 68.1552 38.267C68.4461 38.0197 68.577 38.267 68.6497 38.4851C68.7096 38.6381 68.7148 38.8071 68.6645 38.9635C68.6141 39.1198 68.5113 39.254 68.3734 39.3433C67.1225 39.9832 65.988 40.7977 64.7227 41.4232Z" fill="#F6F9F8"/>
<path d="M70.7148 50.4697C70.933 50.7315 71.4857 50.4697 71.442 51.0224C71.3984 51.5751 70.9911 51.4442 70.7148 51.6042C70.5875 51.6805 70.4506 51.7392 70.3076 51.7787C69.973 51.7787 69.5658 52.1132 69.3476 51.6914C69.1294 51.2696 69.5221 51.1242 69.7985 50.9497C70.0748 50.7751 70.3221 50.4115 69.9148 50.1061C69.5076 49.8006 69.3767 49.8297 69.6385 49.5243C69.7765 49.3673 69.9619 49.2596 70.1667 49.2176C70.3715 49.1756 70.5843 49.2016 70.773 49.2916C71.1802 49.437 71.093 49.7134 70.9475 50.0043L70.7148 50.4697Z" fill="#F6F9F8"/>
<path d="M40.2869 38.1505L40.9851 39.0668C41.3778 38.6159 41.276 38.1214 41.3632 37.6123C41.5352 37.808 41.6559 38.0434 41.7143 38.2973C41.7727 38.5512 41.767 38.8156 41.6978 39.0668C41.6978 39.4013 41.3923 39.7504 41.1451 39.6631C40.9241 39.5605 40.6752 39.5349 40.4379 39.5902C40.2007 39.6456 39.9888 39.7788 39.8361 39.9685C39.6033 40.2012 39.3415 39.9685 39.1961 39.6776C38.963 39.2298 38.906 38.711 39.0361 38.2232C39.3997 38.5141 39.2979 39.1977 39.7633 39.1831C40.2288 39.1686 39.9815 38.485 40.2869 38.1505Z" fill="#F6F9F8"/>
<path d="M54.3079 31.2271C54.3539 30.755 54.2986 30.2785 54.1456 29.8295C53.9926 29.3805 53.7454 28.9694 53.4207 28.6236C53.3442 28.5496 53.2865 28.4585 53.2523 28.3578C53.2181 28.257 53.2084 28.1496 53.2241 28.0443C53.2397 27.9391 53.2802 27.8391 53.3422 27.7527C53.4043 27.6662 53.486 27.5958 53.5807 27.5473C54.0461 27.2128 54.1916 27.7364 54.3225 28.0127C54.6475 28.4863 54.8202 29.0478 54.8176 29.6222C54.815 30.1966 54.6372 30.7565 54.3079 31.2271Z" fill="#F6F9F8"/>
<path d="M76.0964 32.8853C76.1332 32.408 76.0694 31.9284 75.909 31.4774C75.7487 31.0264 75.4954 30.6141 75.1656 30.2672C74.7583 29.8891 75.0492 29.4528 75.3692 29.2055C75.6892 28.9582 75.9219 29.3655 76.0528 29.6127C76.3875 30.0909 76.5707 30.6587 76.5785 31.2423C76.5863 31.8259 76.4183 32.3984 76.0964 32.8853Z" fill="#F6F9F8"/>
<path d="M27.9821 33.5688C27.8512 33.9034 27.7057 34.2524 27.5894 34.6015C27.473 34.9506 27.3421 35.1688 27.5894 35.4306C27.8366 35.6924 28.1421 35.5033 28.4184 35.4306C28.6948 35.3578 28.6511 35.2415 28.8111 35.3433C28.6511 36.1142 28.1566 36.4923 27.4876 36.3469C26.8185 36.2014 26.7458 35.6778 26.8185 35.1106C26.8292 34.7648 26.9469 34.4309 27.1553 34.1548C27.3636 33.8787 27.6525 33.674 27.9821 33.5688Z" fill="#F6F9F8"/>
<path d="M18.2958 27.8529C18.3685 28.9292 18.2085 29.0747 17.3649 28.7692C17.307 28.7374 17.2419 28.7207 17.1758 28.7207C17.1097 28.7207 17.0447 28.7374 16.9868 28.7692C16.9132 28.8318 16.827 28.8776 16.734 28.9037C16.641 28.9297 16.5435 28.9353 16.4482 28.9201C16.3528 28.9049 16.2619 28.8693 16.1816 28.8156C16.1014 28.7619 16.0337 28.6915 15.9832 28.6092C15.8285 28.4178 15.7441 28.1791 15.7441 27.9329C15.7441 27.6868 15.8285 27.4481 15.9832 27.2566C16.3904 27.5184 15.9832 28.1874 16.5359 28.2747C17.0886 28.362 16.9868 27.8238 17.2486 27.6057C17.714 28.5802 17.714 28.5802 18.2958 27.8529Z" fill="#F6F9F8"/>
<path d="M68.0534 43.8082C68.1907 43.4431 68.2038 43.0429 68.0907 42.6695C67.9777 42.2962 67.7447 41.9705 67.428 41.7429C67.0789 41.4811 67.1371 41.1902 67.428 40.9138C67.7189 40.6375 67.9516 40.7975 68.1843 41.0302C68.366 41.2171 68.5073 41.4394 68.5996 41.6832C68.6919 41.927 68.7332 42.1871 68.721 42.4475C68.7087 42.7079 68.6431 42.9631 68.5283 43.1971C68.4135 43.4311 68.2518 43.6391 68.0534 43.8082Z" fill="#F6F9F8"/>
<path d="M53.5225 32.8854C54.2061 34.1799 54.3806 33.5399 54.5551 32.9872C54.8169 33.1618 54.8024 33.5108 55.0933 33.6126C55.486 33.4236 55.4278 32.9581 55.6751 32.6672C55.8573 32.9679 55.9245 33.3244 55.8641 33.6708C55.8642 33.7738 55.8437 33.8758 55.8037 33.9707C55.7638 34.0657 55.7052 34.1516 55.6314 34.2235C55.0933 34.5435 54.4969 34.1508 53.8861 34.2235C53.4934 34.369 53.6534 33.6272 53.5225 32.8854Z" fill="#F6F9F8"/>
<path d="M26.0769 45.9319C25.9315 45.5974 26.266 45.3356 26.1787 45.0156C26.0915 44.6956 26.1787 44.5211 25.8151 44.5356C25.4515 44.5502 25.2915 44.2302 25.3351 43.8811C25.3376 43.7296 25.395 43.5842 25.4967 43.4718C25.5984 43.3595 25.7373 43.2879 25.8878 43.2703C26.2805 43.2703 26.4696 43.4448 26.6005 43.7793C26.7677 44.1448 26.807 44.5559 26.712 44.9464C26.617 45.3369 26.3933 45.6841 26.0769 45.9319Z" fill="#F6F9F8"/>
<path d="M38.2506 30.8492C38.1928 30.0051 37.9334 29.1872 37.4943 28.4639C37.4404 28.4116 37.4005 28.3467 37.378 28.275C37.3556 28.2034 37.3514 28.1273 37.3658 28.0536C37.3803 27.9799 37.4129 27.911 37.4608 27.8531C37.5086 27.7952 37.5701 27.7502 37.6398 27.7221C37.9888 27.5185 38.0906 27.8676 38.1925 28.0858C38.3849 28.5195 38.4892 28.9872 38.4992 29.4617C38.5092 29.9361 38.4247 30.4078 38.2506 30.8492Z" fill="#F6F9F8"/>
<path d="M9.70044 29.5401C9.77235 29.2143 9.82095 28.8838 9.84589 28.5511C9.84589 28.2311 10.0204 27.7366 9.33683 28.0857C8.95867 28.2602 8.84231 27.9839 9.01684 27.6493C9.19138 27.3148 9.46773 26.9803 9.91861 27.053C10.3695 27.1257 10.3404 27.5621 10.3404 27.9112C10.3529 28.2123 10.3024 28.5126 10.1922 28.7931C10.082 29.0736 9.91451 29.328 9.70044 29.5401Z" fill="#F6F9F8"/>
<path d="M8.27476 42.1794C8.20204 42.1794 8.08568 42.1794 8.05659 42.1794C8.0275 42.1794 8.05659 42.063 8.1584 42.0339L8.27476 42.1794Z" fill="#F6F9F8"/>
<path d="M46.1637 39.8232C45.9164 40.1432 45.5528 40.1141 45.2619 40.2014C44.971 40.2886 44.7092 40.4195 44.5783 40.0414C44.5031 39.8978 44.4639 39.7381 44.4639 39.576C44.4639 39.4138 44.5031 39.2541 44.5783 39.1105C44.7819 38.8633 45.0583 39.1105 45.291 39.256C45.6256 39.3675 45.926 39.5627 46.1637 39.8232Z" fill="#046C35"/>
<path d="M65.653 65.4508H67.9655C68.1983 65.4508 68.6637 65.2763 68.5037 65.8145C68.3437 66.3526 68.751 66.818 67.9365 66.7162C67.122 66.6144 66.482 66.978 65.9148 66.3962C65.8475 66.3339 65.7592 66.2992 65.6675 66.2992C65.5758 66.2992 65.4875 66.3339 65.4202 66.3962C64.7948 67.0798 63.9658 66.7162 63.2531 66.7599C62.7586 66.7599 62.4968 66.3672 62.5113 65.8581C62.5259 65.349 62.9913 65.5381 63.2676 65.5236C64.053 65.5236 64.853 65.5236 65.653 65.5236V65.4508Z" fill="#046C35"/>
<path d="M18.4121 41.3067C17.8739 41.3067 17.6412 41.0595 17.6267 40.6086C17.6121 40.1577 17.6267 40.0704 17.9612 40.0995C18.1985 40.1241 18.4237 40.2168 18.6095 40.3665C18.7953 40.5162 18.9339 40.7164 19.0084 40.9431C19.1102 41.3213 18.5866 41.1904 18.4121 41.3067Z" fill="#046C35"/>
<path d="M52.0099 37.918H51.8936V37.8162V37.9325L52.0099 37.918Z" fill="#046C35"/>
</svg>
