<svg width="94" height="94" viewBox="0 0 94 94" fill="none" xmlns="http://www.w3.org/2000/svg">
<circle cx="46.5428" cy="46.5428" r="46.5428" fill="white"/>
<path d="M2.90869 51.6624V42.7902L3.02505 42.6448L2.90869 42.6157V41.423C3.27231 41.423 3.22867 41.1758 3.24322 40.9721C3.35878 39.5828 3.59234 38.2058 3.94136 36.856C4.31423 34.967 4.88964 33.1238 5.65762 31.3582H87.4274C88.682 34.5656 89.5038 37.9259 89.8709 41.3503C89.8709 41.5685 89.6236 41.9757 90.1763 41.9466V51.1388C89.9582 51.1388 89.8564 51.1388 89.8564 51.4006C89.8159 52.3498 89.6943 53.2938 89.4927 54.2223C89.0956 56.7951 88.4026 59.3135 87.4274 61.7273H5.65762C5.58968 61.6386 5.52657 61.5464 5.46854 61.451C4.37419 58.4631 3.6275 55.3592 3.24322 52.2006C3.21413 51.9824 3.33049 51.6479 2.90869 51.6624Z" fill="#0052B3"/>
<path d="M49.9456 90.1764H42.9642L42.8042 90.0746V90.1764H41.437C41.437 89.7983 41.1897 89.8419 41.0006 89.8419C40.5804 89.8191 40.1623 89.7657 39.7498 89.6819C35.0019 88.9493 30.4132 87.4148 26.1797 85.144C21.3442 82.6363 17.0456 79.2073 13.5259 75.05H14.4567H78.6275H79.5584C79.5004 75.1455 79.4373 75.2377 79.3693 75.3264C75.4373 79.8077 70.625 83.4318 65.232 85.9731C61.3889 87.7978 57.3039 89.0615 53.1018 89.7256C52.5927 89.8128 51.8655 89.5074 51.4873 90.1764H50.2947C50.1783 89.9001 50.0619 90.0601 49.9456 90.1764Z" fill="#D70027"/>
<path d="M42.1788 2.90894H42.8624V3.02529L42.9642 2.90894H50.1201L50.2801 3.02529V2.90894H50.6146C50.6146 3.35982 50.9055 3.22892 51.1091 3.24346C52.3309 3.37436 53.5672 3.418 54.7744 3.65071C59.5613 4.54718 64.1572 6.26449 68.3591 8.72678C72.6135 11.1427 76.4054 14.2944 79.5584 18.0353H78.6275H14.4567H13.5259C18.8526 11.7552 25.8848 7.15299 33.772 4.78519C36.3645 3.92341 39.0588 3.40508 41.7861 3.24346C41.9897 3.24346 42.1788 3.21437 42.1788 2.90894Z" fill="#D70027"/>
<path d="M49.9458 90.1766C50.0622 90.0603 50.1785 89.9003 50.2949 90.1766H49.9458Z" fill="black"/>
<path d="M42.9652 2.90894L42.8052 3.02529V2.90894H42.9652Z" fill="black"/>
<path d="M50.2951 2.90894V3.02529L50.1206 2.90894H50.2951Z" fill="black"/>
<path d="M42.7896 90.1765V90.0747L42.9495 90.1765H42.7896Z" fill="black"/>
<path d="M5.65771 31.3583C7.43663 26.4701 10.1044 21.9532 13.5263 18.0354H14.4572H78.628H79.5589C82.9808 21.9532 85.6486 26.4701 87.4275 31.3583H5.65771Z" fill="#EFEFEF"/>
<path d="M13.5263 75.0502C10.1044 71.1324 7.43663 66.6155 5.65771 61.7273H87.4275C85.6408 66.6118 82.9738 71.1273 79.5589 75.0502H78.628H14.4572H13.5263Z" fill="#EFEFEF"/>
</svg>
