<svg width="88" height="88" viewBox="0 0 88 88" fill="none" xmlns="http://www.w3.org/2000/svg">
<path d="M84.8965 29.5475C86.7675 34.909 87.5344 40.5936 87.1509 46.2593C86.9324 50.1073 86.1786 53.906 84.911 57.5459H23.4746C23.4746 53.1534 23.4746 48.7561 23.4746 44.3539C23.4746 39.4281 23.4746 34.4878 23.4746 29.533L84.8965 29.5475Z" fill="#FAFAFA"/>
<path d="M23.4749 57.5603H84.9113C84.8853 58.1146 84.7363 58.6561 84.475 59.1457C82.5279 64.1351 79.7111 68.7395 76.1554 72.7449C73.1854 75.9955 69.7553 78.7935 65.9742 81.0498C62.8541 82.9456 59.4933 84.4132 55.9821 85.4132C53.3823 86.1704 50.7196 86.6912 48.0262 86.9695C45.5176 87.2215 42.9919 87.2555 40.4775 87.0713C35.4384 86.7983 30.4996 85.5537 25.9329 83.4061C25.0254 83.0977 24.1642 82.6671 23.373 82.1261C23.373 80.759 23.373 79.4063 23.373 78.0537C23.4215 71.2177 23.4555 64.3866 23.4749 57.5603Z" fill="#1D1D1D"/>
<path d="M84.8965 29.5476H23.4746C23.4746 29.1549 23.4746 28.7767 23.4746 28.384V6.13078C23.4746 5.75262 23.4746 5.35991 23.4746 4.96721C27.4372 2.80998 31.7345 1.33493 36.1866 0.603825C38.6697 0.103355 41.2053 -0.0871791 43.7352 0.0365852C45.1897 0.138397 46.7751 0.211121 48.2877 0.298388C53.4624 0.651307 58.5059 2.08312 63.0941 4.50178C73.1104 9.42965 80.8337 18.039 84.6492 28.5295C84.8259 28.8388 84.9116 29.1917 84.8965 29.5476Z" fill="#32AA45"/>
<path d="M23.3874 4.96704C23.3874 5.35975 23.3874 5.75245 23.3874 6.13061V28.3839C23.3874 28.7766 23.3874 29.1547 23.3874 29.5474C23.3874 34.4926 23.3874 39.4329 23.3874 44.3684C23.3874 48.7803 23.3874 53.1776 23.3874 57.5603C23.3874 64.3478 23.3874 71.179 23.3874 78.0537C23.3874 79.4064 23.3874 80.759 23.3874 82.1262C18.4736 79.6112 14.1043 76.1514 10.5299 71.945C5.72975 66.3467 2.4315 59.6201 0.945022 52.397C0.0704528 48.5153 -0.199379 44.5218 0.145068 40.5577C1.65771 24.6459 9.33726 12.792 23.3001 5.01067L23.3874 4.96704Z" fill="#E82B2B"/>
</svg>
