<svg width="88" height="88" viewBox="0 0 88 88" fill="none" xmlns="http://www.w3.org/2000/svg">
<path d="M0 48.7535V40.0268L0.101812 39.8668H0V38.4996C0.465427 38.4996 0.290892 38.1214 0.334526 37.8887C0.37816 37.656 0.218169 37.3215 0.509061 37.1033H1.43992C12.9883 37.1033 24.5368 37.1033 36.0997 37.1033C36.9142 37.1033 37.176 36.9724 37.176 36.0706C37.176 24.2022 37.176 12.3338 37.176 0.479972C37.766 0.370592 38.365 0.317026 38.965 0.319981C39.1395 0.349071 39.2704 0.218169 39.2704 0H39.954V0.116357L40.0559 0H47.0373C47.1536 0.130901 47.27 0.247258 47.3863 0H47.7209C47.6481 0.218169 47.7209 0.349071 47.9681 0.319981C48.6904 0.334288 49.4103 0.407251 50.1207 0.538151C50.1207 12.455 50.1207 24.3719 50.1207 36.2888C50.1207 37.0015 50.3098 37.1615 51.0079 37.1615C62.9151 37.1615 74.832 37.1615 86.7586 37.1615C87.064 37.6124 86.904 38.136 86.9622 38.6159C86.9622 38.8341 86.8895 39.1105 87.2822 39.0377V39.8813C87.0931 39.9831 87.0931 40.0413 87.2822 40.2304V48.2299C87.064 48.2299 86.9477 48.2299 86.9622 48.4772C86.9704 49.028 86.8969 49.577 86.744 50.1062C74.8563 50.1062 62.9685 50.1062 51.0807 50.1062C50.3098 50.1062 50.1062 50.2953 50.1207 51.0807C50.1207 62.9685 50.1207 74.8563 50.1207 86.744C49.8444 86.9768 49.4953 86.9186 49.1753 86.9622C48.8553 87.0059 48.579 86.8168 48.579 87.2822H38.5141C38.5141 86.904 38.2232 86.9768 38.0051 86.9477C37.7869 86.9186 37.3942 86.9477 37.1469 86.7586C37.1469 74.8514 37.1469 62.9297 37.1469 50.9934C37.1469 50.2953 36.9869 50.1062 36.2743 50.1207H0.523606C0.373613 49.861 0.307572 49.5613 0.334526 49.2626C0.319981 49.0299 0.392704 48.739 0 48.7535Z" fill="#C7102E"/>
<path d="M47.3867 0C47.2703 0.247258 47.154 0.130902 47.0376 0H47.3867Z" fill="black"/>
<path d="M87.2678 40.2304C87.0787 40.0413 87.0787 39.9832 87.2678 39.8813V40.2304Z" fill="black"/>
<path d="M40.056 0L39.896 0.116357V0H40.056Z" fill="black"/>
<path d="M0 39.8813H0.101812L0 40.0559V39.8813Z" fill="black"/>
<path d="M32.595 1.4544C34.0867 1.03277 35.6087 0.726433 37.1474 0.538086C37.1474 12.3919 37.1474 24.2603 37.1474 36.1287C37.1474 37.0305 36.8856 37.1614 36.0711 37.1614C24.5082 37.1614 12.9597 37.1614 1.41132 37.1614H0.480469C0.709043 35.6201 1.03452 34.0948 1.45496 32.5944H17.454L14.0506 29.8018L5.41109 22.675C6.26782 20.9623 7.30125 19.3439 8.49455 17.8462L25.7154 32.1435C25.9772 32.3617 26.1953 32.6235 26.588 32.6089C28.4352 32.6089 30.2824 32.6089 32.115 32.6089C32.3041 32.6089 32.5077 32.6089 32.595 32.3762C32.6939 31.9784 32.6911 31.562 32.5869 31.1655C32.4827 30.769 32.2804 30.4051 31.9986 30.1073L21.3374 21.2205L12.0434 13.5846C13.3792 12.0816 14.8766 10.7304 16.5086 9.55574C16.6525 9.72633 16.808 9.8867 16.9741 10.0357L30.4569 21.2496L32.595 23.0241V1.4544Z" fill="#FCFBFC"/>
<path d="M85.8136 32.6088C86.2043 34.1014 86.5006 35.617 86.7009 37.1468C74.7937 37.1468 62.8768 37.1468 50.9502 37.1468C50.2521 37.1468 50.063 36.9868 50.063 36.2741C50.063 24.3475 50.063 12.4306 50.063 0.523438C51.6229 0.706316 53.165 1.01766 54.6736 1.45429V23.3876L58.5425 20.1877L71.08 9.74472C72.5894 10.8955 73.9827 12.1913 75.2397 13.6136C75.0797 13.7736 74.9197 13.9336 74.7452 14.079C68.3601 19.4023 61.9314 24.7257 55.4881 30.0635C55.1862 30.2807 54.9476 30.5744 54.7968 30.9144C54.646 31.2544 54.5884 31.6284 54.63 31.998C54.63 32.5798 54.8627 32.6816 55.3863 32.6816C57.0929 32.6816 58.7946 32.6816 60.4915 32.6816C60.9404 32.6873 61.3756 32.5267 61.7132 32.2307L71.3854 24.173L78.8031 17.9333C80.049 19.5073 81.1082 21.2205 81.9593 23.0385C80.1267 24.333 78.4832 25.8601 76.7523 27.271C74.6434 29.0018 72.549 30.7762 70.2509 32.6816L85.8136 32.6088Z" fill="#FCFBFC"/>
<path d="M8.4942 69.4213C7.27527 67.856 6.20408 66.181 5.29438 64.418L17.0464 54.6585H1.4546C1.05006 53.1692 0.753553 51.6526 0.567383 50.1206H36.3617C37.0744 50.1206 37.2343 50.2951 37.2343 50.9933C37.2343 62.9199 37.2343 74.8416 37.2343 86.7585C35.6992 86.5688 34.1784 86.2772 32.6819 85.8858V63.8798L16.1883 77.5226C14.694 76.3699 13.3066 75.0848 12.0431 73.6829L12.5231 73.3338C18.8936 68.0396 25.2496 62.7162 31.6492 57.4511C31.9999 57.2147 32.2781 56.8856 32.4528 56.5003C32.6274 56.1151 32.6916 55.689 32.6382 55.2694C32.6382 54.7603 32.4637 54.6003 31.9547 54.6003C30.2966 54.6003 28.653 54.6003 27.0095 54.6003C26.5301 54.5852 26.0627 54.7514 25.7005 55.0658C19.9699 59.8849 14.2345 64.6701 8.4942 69.4213Z" fill="#FCFBFC"/>
<path d="M86.7298 50.1062C86.5415 51.6497 86.2351 53.1765 85.8135 54.6732H70.6435L74.5123 57.9021L82.061 64.1126C81.1848 65.9982 80.0914 67.775 78.803 69.4069C78.7594 69.3356 78.7108 69.2676 78.6575 69.2032C72.9464 64.452 67.2352 59.6959 61.524 54.935C61.3104 54.7501 61.0355 54.6516 60.7531 54.6586H55.2698C55.0807 54.6586 54.8771 54.6586 54.7462 54.8186C54.6635 55.1813 54.6637 55.5581 54.7468 55.9207C54.8299 56.2833 54.9938 56.6225 55.2262 56.913L64.5929 64.6944L75.2977 73.6539C74.0831 75.0629 72.7008 76.3182 71.1816 77.3919C71.0798 77.101 70.8035 76.9846 70.5998 76.8101L57.9169 66.2507C56.8988 65.4071 55.8952 64.5635 54.7317 63.6181V85.8132C53.2367 86.2082 51.7153 86.4949 50.1792 86.6713C50.1792 74.7835 50.1792 62.8957 50.1792 51.0079C50.1792 50.2225 50.3683 50.0334 51.1391 50.0334C62.9882 50.1013 74.8517 50.1256 86.7298 50.1062Z" fill="#FCFCFC"/>
<path d="M71.0797 9.74477L58.5422 20.1878L54.6733 23.3876V1.45435C59.4983 2.68928 64.0708 4.75652 68.1853 7.56308C69.2412 8.16077 70.2143 8.89425 71.0797 9.74477Z" fill="#022269"/>
<path d="M78.8028 17.8608L71.385 24.1004L61.7129 32.1581C61.3753 32.4541 60.9401 32.6148 60.4911 32.609C58.7846 32.609 57.0828 32.609 55.386 32.609C54.8624 32.609 54.6587 32.5072 54.6297 31.9254C54.6012 31.5676 54.6651 31.2084 54.8154 30.8824C54.9657 30.5564 55.1972 30.2745 55.4878 30.0637C61.9311 24.7259 68.3598 19.4025 74.7449 14.0792C74.9194 13.9338 75.0794 13.7738 75.2394 13.6138C76.6082 14.8672 77.8062 16.2951 78.8028 17.8608Z" fill="#C7122F"/>
<path d="M85.8132 32.6091H70.2505C72.5485 30.7038 74.6139 28.9294 76.7519 27.1985C78.4827 25.7441 80.1263 24.2896 81.9589 22.9661C82.7329 24.0032 83.3368 25.157 83.7479 26.384C84.6603 28.3779 85.3529 30.4653 85.8132 32.6091Z" fill="#022269"/>
<path d="M32.5946 1.45435V23.024L30.4566 21.2496L16.9737 10.0357C16.8077 9.88665 16.6521 9.72628 16.5083 9.55569C17.6926 8.40901 19.0286 7.43024 20.479 6.64677C23.7637 4.5622 27.336 2.96965 31.082 1.91977C31.5613 1.69287 32.0707 1.53612 32.5946 1.45435Z" fill="#022269"/>
<path d="M12.043 13.5845L21.2934 21.2204L31.9982 30.1072C32.2876 30.4007 32.498 30.7626 32.6099 31.1593C32.7218 31.5561 32.7316 31.9746 32.6382 32.3761C32.5509 32.6525 32.3473 32.6088 32.1582 32.6088C30.3256 32.6088 28.4784 32.6088 26.6313 32.6088C26.2386 32.6088 26.0204 32.3616 25.7586 32.1434L8.49414 17.846C9.48971 16.2794 10.6824 14.8471 12.043 13.5845Z" fill="#C7122F"/>
<path d="M5.41072 22.675L14.0502 29.8019L17.4537 32.5945H1.45459C1.95336 30.5558 2.60486 28.5575 3.40357 26.6166C3.81082 25.5694 4.49441 24.6677 4.85803 23.5914C4.91912 23.2268 5.11674 22.8992 5.41072 22.675Z" fill="#022269"/>
<path d="M54.6733 85.8132V63.6182C55.8369 64.5636 56.8405 65.4071 57.8586 66.2507L70.5415 76.8101C70.7451 76.9847 71.0215 77.101 71.1233 77.3919C70.5148 78.1697 69.7523 78.8134 68.8834 79.2827C64.6389 82.2914 59.8832 84.5041 54.8479 85.8132H54.6733Z" fill="#022269"/>
<path d="M75.2394 73.6537L64.5346 64.6942L55.1678 56.9128C54.9354 56.6223 54.7716 56.2831 54.6885 55.9205C54.6054 55.5578 54.6051 55.1811 54.6879 54.8184C54.8188 54.6002 55.0224 54.6584 55.2115 54.6584H60.753C61.0354 54.6513 61.3102 54.7499 61.5238 54.9348C67.2253 59.7054 72.9365 64.4615 78.6574 69.203C78.7106 69.2674 78.7592 69.3354 78.8028 69.4066C77.8019 70.9691 76.6043 72.3965 75.2394 73.6537Z" fill="#C7122F"/>
<path d="M82.0611 64.1125L74.5124 57.902L70.6436 54.6731H85.8136C84.9843 57.8513 83.8088 60.9289 82.3083 63.8507C82.2938 63.9962 82.2211 64.098 82.0611 64.1125Z" fill="#022269"/>
<path d="M16.1885 77.5227L32.5948 63.8799V85.8132C28.9504 84.9212 25.4496 83.5209 22.1954 81.6534C20.1919 80.5465 18.289 79.2665 16.5085 77.8282C16.3776 77.7845 16.2176 77.7118 16.1885 77.5227Z" fill="#022269"/>
<path d="M8.49414 69.4213C14.2344 64.6507 19.9698 59.8801 25.7004 55.1094C26.0626 54.7951 26.5301 54.6289 27.0094 54.644C28.653 54.644 30.2965 54.644 31.9546 54.644C32.4637 54.644 32.58 54.804 32.6382 55.3131C32.6832 55.7257 32.6149 56.1428 32.4407 56.5195C32.2664 56.8962 31.9928 57.2183 31.6492 57.4511C25.2495 62.7163 18.9081 68.0396 12.523 73.3338L12.043 73.6829C10.6784 72.4241 9.48518 70.9913 8.49414 69.4213Z" fill="#C7122F"/>
<path d="M1.45459 54.6587H17.0464L5.29437 64.4181C4.08182 62.4193 3.10563 60.2863 2.38544 58.0621C1.95945 56.9625 1.64753 55.8221 1.45459 54.6587Z" fill="#022269"/>
</svg>
