<svg width="94" height="94" viewBox="0 0 94 94" fill="none" xmlns="http://www.w3.org/2000/svg">
<rect width="93.09" height="93.09" rx="46.545" fill="white"/>
<g clip-path="url(#clip0_996_2908)">
<path d="M5.41747 60.6386C4.60787 58.7177 4.03636 56.705 3.71569 54.6454C3.00628 50.8663 2.79895 47.0102 3.09911 43.1768C3.30353 39.8202 3.94187 36.5041 4.99819 33.3115C5.10788 33.0101 5.24839 32.7208 5.41747 32.4482H87.0042C87.3011 32.5017 87.5751 32.6431 87.7906 32.8542C88.0061 33.0653 88.1532 33.3363 88.2127 33.6321C89.7963 38.9289 90.3981 44.4707 89.9885 49.984C89.7587 53.1679 89.1544 56.3136 88.188 59.3561C87.9907 59.9973 87.7194 60.4413 87.0042 60.4906H86.5602C86.4376 60.4297 86.3025 60.3981 86.1656 60.3981C86.0287 60.3981 85.8937 60.4297 85.771 60.4906H72.7241C70.2577 60.4906 67.7914 60.4906 65.1524 60.4906H64.9797H64.2891C63.9685 60.4906 63.6479 60.4906 63.3273 60.4906H44.0404H40.0943C40.0441 60.4438 39.978 60.4178 39.9093 60.4178C39.8407 60.4178 39.7746 60.4438 39.7243 60.4906C37.8253 60.4906 35.9508 60.4906 34.0518 60.4906H21.0294C20.9068 60.4297 20.7717 60.3981 20.6348 60.3981C20.4979 60.3981 20.3629 60.4297 20.2402 60.4906H19.525C19.4747 60.4438 19.4086 60.4178 19.34 60.4178C19.2713 60.4178 19.2052 60.4438 19.155 60.4906L5.41747 60.6386Z" fill="#FEFEFE"/>
<path d="M86.9049 62.4884C86.4404 64.4696 85.6034 66.3444 84.4386 68.013C79.3666 77.1993 71.1131 84.2161 61.2303 87.7438C52.0821 91.0029 42.1074 91.1131 32.8895 88.0569C23.6715 85.0006 15.7385 78.953 10.3496 70.874C8.53643 68.2752 7.07672 65.4471 6.00879 62.4637H83.748C84.8085 62.4144 85.8444 62.9077 86.9049 62.4884Z" fill="#2EB14C"/>
<path d="M6.00879 30.6725C7.35941 27.0083 9.26421 23.573 11.6567 20.4865C15.7615 14.9628 21.1325 10.5053 27.318 7.48882C37.1646 2.63736 48.4805 1.68495 58.9995 4.82234C69.5184 7.95973 78.4638 14.9553 84.044 24.408C85.2811 26.379 86.2983 28.4797 87.0776 30.6725H6.00879ZM65.793 28.8227C65.9154 28.6897 66.0641 28.5835 66.2297 28.5108C66.3953 28.4382 66.5741 28.4007 66.7549 28.4007C66.9357 28.4007 67.1145 28.4382 67.2801 28.5108C67.4456 28.5835 67.5943 28.6897 67.7168 28.8227C67.6266 28.6667 67.5691 28.4939 67.5476 28.315C67.5262 28.136 67.5413 27.9546 67.592 27.7817C67.6428 27.6087 67.7281 27.4479 67.8428 27.3089C67.9575 27.1699 68.0992 27.0556 68.2594 26.973C67.2975 27.0963 66.9029 26.5537 66.6316 25.4931C66.4836 26.7017 65.9657 27.0469 64.9791 26.973C66.1383 27.3182 65.719 28.1568 65.7684 28.8474L65.793 28.8227ZM59.7998 13.2107C59.7998 12.4708 59.5778 11.6816 60.5397 11.213C59.5285 11.3856 59.1339 10.8184 58.8133 9.7332C58.8133 10.9664 58.098 11.2377 57.1855 11.3363C58.2707 11.6569 58.024 12.4215 57.8514 13.482C58.6406 12.3475 59.2325 12.7175 59.7998 13.2107ZM42.2394 20.8071C42.9053 20.5111 43.5712 20.2645 44.2618 20.9797C44.1631 20.8092 44.1 20.6204 44.0764 20.4248C44.0527 20.2292 44.0691 20.0308 44.1245 19.8417C44.1798 19.6526 44.273 19.4767 44.3983 19.3247C44.5237 19.1727 44.6786 19.0477 44.8537 18.9573C43.8672 19.1793 43.4972 18.5874 43.226 17.7982C43.0286 18.2174 42.9547 18.6367 42.708 18.8094C42.3674 18.9315 42.0093 18.9981 41.6475 19.0067C42.5354 19.4259 42.4614 20.1165 42.2641 20.8318V20.8071H42.2394ZM30.5736 10.0045C28.8669 9.73831 27.1197 9.958 25.5321 10.6384C23.9444 11.3189 22.5804 12.4325 21.5961 13.852C20.3092 15.4007 19.5804 17.3371 19.5267 19.35C19.4731 21.3629 20.0976 23.3354 21.3001 24.9506C22.2601 26.4998 23.6509 27.7356 25.3023 28.5065C26.9538 29.2775 28.7942 29.5502 30.5983 29.2913C25.6656 27.6389 22.8046 24.3586 23.0266 19.1546C23.0724 17.003 23.8421 14.9296 25.2115 13.2693C26.5809 11.609 28.47 10.4588 30.5736 10.0045ZM49.4165 11.2623C50.3044 11.6816 50.2304 12.3969 50.1071 13.2354C50.7483 12.3475 51.3896 12.7915 52.2528 13.2354C51.6115 12.1995 52.0308 11.6569 52.9434 10.991C51.7348 11.2377 51.2662 10.8431 50.9949 9.93051C50.9949 11.0897 50.255 11.2377 49.4165 11.2623ZM66.6809 10.1031C66.5576 11.1637 65.7684 11.1637 64.7818 11.287C65.793 11.6569 66.015 12.2242 65.7437 13.0134C66.1876 13.0134 66.5083 12.6928 66.7796 12.7421C67.0962 12.8212 67.3966 12.9547 67.6674 13.1368C67.0509 12.2242 67.6674 11.7803 68.4567 11.1637C67.4701 11.2623 66.9275 10.9417 66.7302 10.1031H66.6809ZM57.3088 19.13C58.098 19.5739 58.098 20.2152 57.8514 21.1524C58.6406 20.2892 59.2325 20.5605 60.0958 21.1524C59.5285 20.0919 59.7751 19.4999 60.5397 19.0067C59.5038 19.1793 59.1092 18.5874 58.7886 17.4775C58.6899 18.7354 58.394 19.204 57.3088 19.13ZM52.6227 19.13C51.6609 19.3273 51.3156 18.7354 50.9456 17.9461C50.9456 19.056 50.181 19.0807 49.1205 19.1053C50.2797 19.6232 50.329 20.2645 49.8604 21.325C50.7236 20.4618 51.3649 20.5111 52.0801 21.0784C51.9725 20.9149 51.9009 20.7303 51.8701 20.537C51.8392 20.3438 51.8497 20.1461 51.9011 19.9572C51.9524 19.7683 52.0432 19.5925 52.1677 19.4413C52.2921 19.2902 52.4472 19.1673 52.6227 19.0807V19.13ZM67.9387 21.1524C67.2975 20.1412 67.7414 19.6232 68.358 19.056C67.3468 19.3766 67.0509 18.7107 66.6562 17.9708C66.6562 19.13 65.867 19.056 65.0038 19.204C66.1383 19.5493 65.9657 20.2892 65.7684 21.1524C66.3849 20.1905 67.0262 20.5851 67.9387 21.1031V21.1524ZM58.8133 25.7398C58.8133 26.7756 58.172 27.0223 57.3088 27.0469C58.1227 27.4909 58.098 28.1321 57.8021 29.0694C57.9144 28.9057 58.0612 28.7688 58.2322 28.6681C58.4032 28.5674 58.5943 28.5054 58.7918 28.4866C58.9894 28.4678 59.1887 28.4926 59.3756 28.5592C59.5625 28.6258 59.7326 28.7326 59.8738 28.872C59.7788 28.7117 59.72 28.5326 59.7013 28.3472C59.6826 28.1618 59.7045 27.9746 59.7656 27.7985C59.8266 27.6224 59.9253 27.4618 60.0547 27.3277C60.1841 27.1937 60.3412 27.0895 60.515 27.0223C59.5285 27.0963 59.1092 26.5537 58.8133 25.7398ZM42.2394 28.9707C42.8807 28.1075 43.5219 28.4528 44.4345 28.9707C44.3114 28.8067 44.2225 28.6197 44.1731 28.4207C44.1238 28.2217 44.1149 28.0148 44.1471 27.8123C44.1794 27.6098 44.252 27.4159 44.3606 27.2421C44.4693 27.0682 44.6118 26.918 44.7797 26.8003C43.6206 27.2689 43.5959 26.2577 43.152 25.6411C43.0286 26.5783 42.5847 27.0223 41.4009 26.825C42.3874 27.4662 42.5847 28.0581 42.2394 28.9214V28.9707ZM49.3672 27.0223C50.3784 27.3922 50.2304 28.1075 50.0824 28.9707C50.7483 28.1075 51.3649 28.4528 52.1295 28.9707C51.4389 28.0581 52.1295 27.5895 52.6721 26.9976C51.5375 27.4169 51.3649 26.5783 50.9949 25.6658C50.773 26.5783 50.403 27.0963 49.3672 26.973V27.0223ZM33.7552 27.0223C34.0758 27.5649 34.8897 27.7375 34.3718 28.4774C34.2238 28.7241 34.6431 28.8474 34.7664 28.7241C34.8897 28.6007 35.7529 28.7241 36.3202 28.7241C36.0489 27.9595 36.3202 27.5156 37.0354 27.0469C35.8269 27.4909 35.7529 26.4797 35.2597 25.7644C35.161 26.6277 34.7664 27.0963 33.7305 26.8743L33.7552 27.0223Z" fill="#1A99B5"/>
<path d="M86.9051 62.4882C85.8445 62.9075 84.8087 62.4882 83.7481 62.4882H6.00892C5.65559 61.942 5.45151 61.3127 5.41699 60.6631H19.1545H20.2397C20.3624 60.7239 20.4974 60.7556 20.6343 60.7556C20.7713 60.7556 20.9063 60.7239 21.029 60.6631H34.0513C35.9504 60.6631 37.8248 60.6631 39.7239 60.6631H40.0938H44.04H63.1542C63.4748 60.6631 63.7954 60.6631 64.116 60.6631H64.8066C67.2729 60.6631 69.8626 60.6631 72.3783 60.6631H85.4253C85.5479 60.7239 85.683 60.7556 85.8199 60.7556C85.9568 60.7556 86.0918 60.7239 86.2145 60.6631H86.6584C87.127 60.6631 87.571 60.7864 87.2257 61.403C86.8804 62.0196 87.423 62.2909 86.9051 62.4882Z" fill="#C9252F"/>
<path d="M6.00892 30.6724H87.0777C87.2257 31.0177 87.3737 31.3629 87.5463 31.6836C87.719 32.0042 87.5463 32.4975 87.0037 32.4975H5.41699C5.44802 31.8472 5.65239 31.2171 6.00892 30.6724Z" fill="#C9252F"/>
<path d="M21.0295 60.5891C20.9068 60.6499 20.7718 60.6816 20.6348 60.6816C20.4979 60.6816 20.3629 60.6499 20.2402 60.5891C20.3629 60.5282 20.4979 60.4966 20.6348 60.4966C20.7718 60.4966 20.9068 60.5282 21.0295 60.5891Z" fill="#ECEEED"/>
<path d="M86.5597 60.5891C86.4371 60.6499 86.302 60.6816 86.1651 60.6816C86.0282 60.6816 85.8932 60.6499 85.7705 60.5891C85.8932 60.5282 86.0282 60.4966 86.1651 60.4966C86.302 60.4966 86.4371 60.5282 86.5597 60.5891Z" fill="#ECEEED"/>
<path d="M19.5242 60.5892H19.1543C19.2045 60.5424 19.2706 60.5164 19.3393 60.5164C19.4079 60.5164 19.474 60.5424 19.5242 60.5892Z" fill="#ECEEED"/>
<path d="M40.0936 60.5892H39.7236C39.7739 60.5424 39.84 60.5164 39.9086 60.5164C39.9773 60.5164 40.0434 60.5424 40.0936 60.5892Z" fill="#ECEEED"/>
<path d="M64.2889 60.5891L64.2149 60.6385L64.1162 60.5891L64.2149 60.5398L64.2889 60.5891Z" fill="#ECEEED"/>
<path d="M30.5735 10.0044C28.4698 10.4587 26.5808 11.6089 25.2114 13.2692C23.842 14.9295 23.0722 17.0029 23.0265 19.1545C22.8045 24.3832 25.6408 27.6388 30.5981 29.2912C28.8096 29.53 26.9901 29.2475 25.3583 28.4775C23.7264 27.7075 22.3515 26.4828 21.3987 24.9504C20.1962 23.3353 19.5716 21.3628 19.6253 19.3499C19.6789 17.337 20.4078 15.4006 21.6946 13.8519C22.6711 12.4491 24.019 11.346 25.5873 10.6664C27.1556 9.98682 28.8822 9.75757 30.5735 10.0044Z" fill="#FEFEFE"/>
<path d="M49.417 11.2622C50.2555 11.2622 50.8968 11.0896 50.9955 10.0291C51.2668 10.9416 51.7354 11.3362 52.9439 11.0896C52.0313 11.7555 51.612 12.2981 52.2533 13.334C51.3901 12.7914 50.7488 12.3474 50.1076 13.334C50.2309 12.3967 50.3049 11.6815 49.417 11.2622Z" fill="#ECEEED"/>
<path d="M66.7301 10.103C66.9274 10.9909 67.47 11.2622 68.5059 11.1636C67.8153 11.7801 67.1001 12.2241 67.7167 13.1366C67.4459 12.9546 67.1454 12.821 66.8288 12.742C66.5575 12.742 66.2369 12.89 65.7929 13.0133C66.0642 12.2241 65.7929 11.6568 64.8311 11.2869C65.7929 11.1636 66.6068 11.1636 66.7301 10.103Z" fill="#ECEEED"/>
<path d="M42.264 20.807C42.4614 20.0918 42.5353 19.4012 41.6475 18.9819C42.0093 18.9734 42.3673 18.9068 42.708 18.7846C42.9546 18.612 43.0286 18.1927 43.2259 17.7734C43.4972 18.5627 43.8672 19.1546 44.8537 18.9326C44.6786 19.023 44.5237 19.148 44.3983 19.3C44.273 19.452 44.1798 19.6279 44.1244 19.817C44.0691 20.0061 44.0527 20.2045 44.0763 20.4001C44.0999 20.5957 44.163 20.7845 44.2618 20.955C43.5712 20.2398 42.9053 20.4864 42.2394 20.7824L42.264 20.807Z" fill="#ECEEED"/>
<path d="M59.7999 13.2107C59.2326 12.7174 58.6407 12.3475 57.8515 13.482C58.0241 12.4215 58.2707 11.6569 57.1855 11.3363C58.0981 11.3363 58.7147 10.9663 58.8133 9.73315C59.134 10.8183 59.5286 11.3856 60.5398 11.213C59.5779 11.6816 59.7999 12.4708 59.7999 13.2107Z" fill="#ECEEED"/>
<path d="M57.3086 19.13C58.2705 19.13 58.6897 18.7354 58.7884 17.5515C59.109 18.6614 59.5036 19.2533 60.5395 19.0806C59.7749 19.5739 59.5283 20.1658 60.0956 21.2264C59.2323 20.5605 58.6404 20.2892 57.8512 21.2264C58.0978 20.2152 58.0978 19.5739 57.3086 19.13Z" fill="#ECEEED"/>
<path d="M52.6233 19.0806C52.4548 19.1678 52.306 19.2889 52.1863 19.4361C52.0667 19.5834 51.9786 19.7538 51.9277 19.9366C51.8768 20.1194 51.8641 20.3108 51.8904 20.4987C51.9167 20.6867 51.9815 20.8672 52.0807 21.029C51.3655 20.4617 50.7242 20.4124 49.861 21.2756C50.3296 20.2151 50.2803 19.5738 49.1211 19.0559C50.1816 19.0559 50.9462 19.0559 50.9462 17.8967C51.3161 18.686 51.6614 19.2779 52.6233 19.0806Z" fill="#ECEEED"/>
<path d="M67.9389 21.103C67.0263 20.585 66.3851 20.1904 65.7685 21.103C65.9658 20.2398 66.1384 19.4998 65.0039 19.1546C65.8671 19.0066 66.6564 19.1546 66.6564 17.9214C67.051 18.6613 67.3469 19.3272 68.3581 19.0066C67.7416 19.5738 67.2976 20.0918 67.9389 21.103Z" fill="#ECEEED"/>
<path d="M58.8131 25.7397C59.109 26.603 59.5283 27.1456 60.5148 27.0222C60.341 27.0894 60.1839 27.1937 60.0545 27.3277C59.9251 27.4618 59.8264 27.6224 59.7654 27.7985C59.7043 27.9745 59.6824 28.1618 59.7011 28.3472C59.7198 28.5326 59.7787 28.7117 59.8736 28.872C59.7324 28.7325 59.5624 28.6257 59.3754 28.5591C59.1885 28.4925 58.9892 28.4678 58.7916 28.4866C58.5941 28.5054 58.403 28.5673 58.232 28.668C58.061 28.7687 57.9142 28.9057 57.8019 29.0693C58.0978 28.1321 58.1225 27.4909 57.3086 27.0469C58.1718 26.9729 58.8131 26.7263 58.8131 25.7397Z" fill="#ECEEED"/>
<path d="M42.2399 28.9213C42.5852 28.0581 42.3879 27.4662 41.4014 26.8743C42.5852 27.0716 43.0292 26.6276 43.1525 25.6904C43.5964 26.307 43.6211 27.3182 44.7803 26.8496C44.6124 26.9673 44.4698 27.1175 44.3611 27.2914C44.2525 27.4652 44.1799 27.6591 44.1477 27.8616C44.1154 28.0641 44.1243 28.271 44.1736 28.47C44.223 28.669 44.3119 28.856 44.435 29.02C43.5964 28.4034 42.8812 28.0581 42.2399 28.9213Z" fill="#ECEEED"/>
<path d="M49.3672 26.973C50.4031 27.0963 50.773 26.5783 50.995 25.5425C51.3649 26.455 51.5376 27.2936 52.6721 26.8743C52.0802 27.4662 51.4389 27.9348 52.1295 28.8474C51.3649 28.4034 50.7483 28.0582 50.0824 28.8474C50.2304 28.0582 50.3784 27.3429 49.3672 26.973Z" fill="#ECEEED"/>
<path d="M65.7931 28.8474C65.7931 28.1568 66.1631 27.3183 65.0039 26.973C65.9904 26.973 66.5084 26.7017 66.6564 25.4932C66.9277 26.5537 67.3223 27.0963 68.2841 26.973C68.113 27.0505 67.9602 27.1634 67.8358 27.3041C67.7114 27.4449 67.6182 27.6104 67.5623 27.7898C67.5064 27.9691 67.4891 28.1583 67.5115 28.3448C67.5339 28.5313 67.5955 28.711 67.6922 28.8721C67.5698 28.739 67.4211 28.6328 67.2555 28.5602C67.09 28.4875 66.9111 28.45 66.7303 28.45C66.5495 28.45 66.3707 28.4875 66.2052 28.5602C66.0396 28.6328 65.8909 28.739 65.7685 28.8721L65.7931 28.8474Z" fill="#ECEEED"/>
<path d="M33.7305 26.8743C34.7417 27.0963 35.1363 26.6277 35.2349 25.6165C35.7282 26.3317 35.8022 27.3429 37.0107 26.899C36.3941 27.3676 36.0242 27.8115 36.2955 28.5761C35.7282 28.5761 35.2349 28.1568 34.7417 28.5761C34.2484 28.9953 34.1991 28.5761 34.3471 28.3294C34.8897 27.5895 34.0758 27.4169 33.7305 26.8743Z" fill="#ECEEED"/>
<path d="M59.7998 13.186L59.8491 13.2107H59.7998V13.186Z" fill="#ECEEED"/>
</g>
<defs>
<clipPath id="clip0_996_2908">
<rect width="87.0867" height="87.21" fill="white" transform="translate(3 3)"/>
</clipPath>
</defs>
</svg>
