<svg width="70" height="70" viewBox="0 0 70 70" fill="none" xmlns="http://www.w3.org/2000/svg">
<g clip-path="url(#clip0_404_122)">
<path d="M35 70C54.33 70 70 54.33 70 35C70 15.67 54.33 0 35 0C15.67 0 0 15.67 0 35C0 54.33 15.67 70 35 70Z" fill="#EE4423"/>
<path d="M35.634 11.4844C36.5845 11.6551 37.4872 12.0281 38.2809 12.5781C39.3034 13.3343 40.033 14.4207 40.3461 15.6532C40.6591 16.8858 40.5364 18.1887 39.9987 19.3411C39.4611 20.4935 38.5415 21.4246 37.3958 21.9765C36.2501 22.5285 34.9489 22.6674 33.7125 22.3696C32.4762 22.0718 31.3808 21.3558 30.612 20.3428C29.8433 19.3297 29.4484 18.0821 29.4943 16.8112C29.5403 15.5404 30.0242 14.3245 30.8641 13.3696C31.704 12.4147 32.8482 11.7796 34.1028 11.5719C34.1892 11.5908 34.2788 11.5908 34.3653 11.5719L35.634 11.4844Z" fill="white"/>
<path d="M57.138 35.4811C57.138 37.6686 57.138 39.6811 57.138 41.7811C57.1526 42.6871 56.9793 43.5864 56.6292 44.4222C56.2791 45.258 55.7597 46.0122 55.1037 46.6373L48.5412 53.0467C48.4357 53.1383 48.3531 53.2532 48.3 53.3823C48.2468 53.5114 48.2245 53.6512 48.2349 53.7904V56.8748C48.26 57.0896 48.2358 57.3073 48.1641 57.5114C48.0924 57.7154 47.9751 57.9004 47.8211 58.0523C47.6671 58.2042 47.4805 58.3189 47.2755 58.3878C47.0705 58.4567 46.8525 58.4779 46.638 58.4498H37.888C37.6764 58.478 37.4612 58.4574 37.2588 58.3897C37.0564 58.3219 36.8722 58.2088 36.7202 58.0589C36.5682 57.909 36.4525 57.7264 36.382 57.525C36.3114 57.3235 36.2878 57.1086 36.313 56.8967V47.9498C36.3005 47.3155 36.4183 46.6854 36.6592 46.0984C36.9 45.5114 37.2586 44.9801 37.713 44.5373C39.1568 43.1154 40.5786 41.6717 42.088 40.2717C42.9863 39.3454 44.1728 38.752 45.4527 38.589C46.7327 38.426 48.0301 38.7031 49.1318 39.3748C49.8974 39.8342 49.9849 40.4248 49.3505 41.0592C47.6224 42.7873 45.8943 44.4936 44.2099 46.2217C43.9407 46.5046 43.765 46.8636 43.7068 47.2498C43.6807 47.4763 43.7341 47.7048 43.8578 47.8963C43.9815 48.0877 44.1678 48.2304 44.3849 48.2998C44.5952 48.3962 44.8303 48.4248 45.0576 48.3817C45.2849 48.3386 45.4932 48.2259 45.6537 48.0592L47.4036 46.3092L51.2099 42.4592C51.318 42.3687 51.4038 42.2545 51.4607 42.1256C51.5176 41.9966 51.5441 41.8563 51.538 41.7154C51.538 37.3404 51.538 32.9654 51.538 28.5904C51.563 28.1316 51.7013 27.6861 51.9407 27.2939C52.1802 26.9017 52.5131 26.5749 52.9098 26.343C53.3065 26.1111 53.7545 25.9811 54.2137 25.9649C54.673 25.9486 55.129 26.0465 55.5411 26.2498C56.0305 26.4626 56.4433 26.8194 56.7247 27.2727C57.0061 27.7261 57.1426 28.2544 57.1162 28.7873C57.138 30.9967 57.138 33.2279 57.138 35.4811Z" fill="white"/>
<path d="M18.4845 35.2842C18.4845 37.4717 18.4845 39.6592 18.4845 41.8467C18.4963 42.0756 18.5894 42.2928 18.747 42.4592C20.5408 44.2967 22.3564 46.1342 24.172 47.9498C24.2963 48.1145 24.4589 48.2464 24.6457 48.3341C24.8324 48.4218 25.0378 48.4626 25.2439 48.4529C25.4604 48.4413 25.6688 48.3668 25.8436 48.2386C26.0184 48.1104 26.1521 47.934 26.2283 47.7311C26.3238 47.5295 26.3541 47.3031 26.3149 47.0836C26.2757 46.864 26.1689 46.6621 26.0095 46.5061L24.2814 44.7342L20.672 41.1467C20.0158 40.4904 20.1033 39.9217 20.8689 39.4186C21.9062 38.7795 23.1218 38.4919 24.3354 38.5983C25.5491 38.7046 26.6961 39.1994 27.6064 40.0092C29.2908 41.5623 30.8876 43.2029 32.4626 44.8217C32.832 45.1916 33.123 45.6321 33.3184 46.1169C33.5139 46.6017 33.6097 47.1209 33.6001 47.6436C33.6001 50.7936 33.6001 53.9654 33.6001 57.1154C33.6064 57.3 33.5743 57.4838 33.5059 57.6553C33.4375 57.8268 33.3342 57.9823 33.2026 58.1118C33.071 58.2413 32.914 58.3421 32.7414 58.4078C32.5689 58.4736 32.3846 58.5027 32.2001 58.4936C29.1595 58.4936 26.1408 58.4936 23.122 58.4936C22.9289 58.4998 22.7365 58.466 22.5571 58.3943C22.3776 58.3226 22.215 58.2145 22.0793 58.0768C21.9437 57.9391 21.8381 57.7748 21.769 57.5943C21.7 57.4138 21.6691 57.221 21.6783 57.0279C21.6783 55.9561 21.6783 54.8404 21.6783 53.8123C21.6835 53.6631 21.6547 53.5147 21.594 53.3782C21.5334 53.2418 21.4425 53.1209 21.3283 53.0248L14.897 46.6811C14.2049 46.0528 13.6525 45.2861 13.2757 44.4307C12.8988 43.5752 12.7059 42.6502 12.7095 41.7154C12.7095 37.3404 12.7095 32.9654 12.7095 28.7217C12.7149 28.1775 12.8879 27.6482 13.205 27.2059C13.5221 26.7635 13.9678 26.4297 14.4814 26.2498C14.9544 25.9821 15.4988 25.8677 16.0395 25.9226C16.5802 25.9774 17.0906 26.1988 17.5001 26.5561C17.8316 26.8141 18.0974 27.1466 18.2761 27.5267C18.4547 27.9069 18.5411 28.3238 18.5283 28.7436C18.4845 30.9311 18.4845 33.0967 18.4845 35.2842Z" fill="white"/>
<path d="M29.5533 23.2312C31.072 24.5457 33.0134 25.2692 35.022 25.2692C37.0306 25.2692 38.972 24.5457 40.4908 23.2312L41.2126 24.0187C42.5216 25.506 43.2447 27.4187 43.247 29.4V33.4468C43.2635 33.6492 43.2359 33.8528 43.1658 34.0434C43.0958 34.2341 42.9852 34.4072 42.8416 34.5508C42.698 34.6944 42.5249 34.805 42.3342 34.875C42.1436 34.945 41.94 34.9727 41.7376 34.9562H28.2626C28.0585 34.9761 27.8525 34.951 27.6591 34.8825C27.4658 34.814 27.2898 34.7039 27.1438 34.5599C26.9977 34.4159 26.885 34.2416 26.8138 34.0492C26.7425 33.8569 26.7144 33.6512 26.7314 33.4468C26.7314 31.7187 26.7314 29.9687 26.7314 28.2625C26.9778 26.2809 27.9908 24.4747 29.5533 23.2312Z" fill="white"/>
</g>
<defs>
<clipPath id="clip0_404_122">
<rect width="70" height="70" fill="white"/>
</clipPath>
</defs>
</svg>
