<svg width="52" height="41" viewBox="0 0 52 41" fill="none" xmlns="http://www.w3.org/2000/svg">
<g clip-path="url(#clip0_404_3)">
<path d="M51.8531 27.7562C51.6825 28.4181 51.2742 28.994 50.7063 29.3742C50.1383 29.7545 49.4503 29.9124 48.7734 29.818H48.3868L48.3095 29.9211C48.1167 30.8098 47.5954 31.5929 46.85 32.1138C46.1045 32.6347 45.1899 32.8548 44.2891 32.7302H19.5739C19.4914 32.7156 19.4067 32.7183 19.3252 32.7381C19.2438 32.7579 19.1673 32.7944 19.1007 32.8452C19.0341 32.8961 18.9788 32.9602 18.9382 33.0336C18.8977 33.107 18.8728 33.1879 18.8652 33.2714C18.4033 34.9362 17.5006 36.4456 16.2524 37.6402C15.0042 38.8348 13.4568 39.6704 11.7733 40.0589C10.0898 40.4474 8.33268 40.3744 6.68724 39.8475C5.0418 39.3207 3.56903 38.3595 2.42428 37.0655C1.27953 35.7714 0.505232 34.1924 0.183046 32.495C-0.139141 30.7975 0.00273076 29.0446 0.593697 27.4211C1.18466 25.7976 2.20282 24.3636 3.54078 23.2705C4.87873 22.1774 6.4869 21.4656 8.19565 21.2102L8.59511 21.1458V7.73155C8.54043 7.21046 8.60284 6.68374 8.77778 6.18986C8.95272 5.69598 9.23577 5.24741 9.60626 4.87692C9.97674 4.50643 10.4253 4.22338 10.9192 4.04844C11.4131 3.8735 11.9398 3.8111 12.4609 3.86578H14.1747C14.1747 3.22148 14.1747 2.57718 14.1747 1.98443C14.1771 1.58121 14.3015 1.18816 14.5315 0.856961C14.7615 0.525763 15.0863 0.271936 15.4633 0.128863C15.7554 0.0316042 16.0663 0.00457913 16.3709 0.0499802C16.6754 0.0953813 16.9649 0.21193 17.2159 0.390169C17.467 0.568408 17.6725 0.803318 17.8157 1.07584C17.959 1.34836 18.036 1.65081 18.0405 1.95866C18.0405 2.60296 18.0405 3.24725 18.0405 3.90443H22.3959C22.3959 3.26014 22.3959 2.61584 22.3959 1.92C22.3604 1.6388 22.3863 1.35323 22.4719 1.08303C22.5575 0.812819 22.7008 0.56441 22.8917 0.354951C23.0827 0.145492 23.3168 -0.0200257 23.578 -0.130173C23.8391 -0.240321 24.1211 -0.292474 24.4044 -0.283031C24.6877 -0.273589 24.9655 -0.202775 25.2188 -0.0754802C25.472 0.0518146 25.6946 0.232557 25.8712 0.454268C26.0478 0.675978 26.1742 0.933374 26.2416 1.20868C26.309 1.48399 26.3159 1.77065 26.2617 2.04886C26.2617 2.6545 26.2617 3.26014 26.2617 3.90443H30.6687C30.6687 3.23437 30.6687 2.61584 30.6687 1.86846C30.7235 1.39428 30.9507 0.956808 31.3071 0.639261C31.6635 0.321714 32.1242 0.14625 32.6016 0.14625C33.0789 0.14625 33.5396 0.321714 33.896 0.639261C34.2524 0.956808 34.4796 1.39428 34.5344 1.86846C34.5344 2.53853 34.5344 3.15705 34.5344 3.9302H38.9156C38.9156 3.28591 38.9156 2.64161 38.9156 2.0102C38.8697 1.72994 38.8853 1.44303 38.9613 1.16938C39.0373 0.895734 39.1719 0.641886 39.3558 0.425436C39.5397 0.208985 39.7684 0.0351112 40.0262 -0.0841338C40.2839 -0.203379 40.5645 -0.265142 40.8485 -0.265142C41.1325 -0.265142 41.4132 -0.203379 41.6709 -0.0841338C41.9287 0.0351112 42.1574 0.208985 42.3413 0.425436C42.5252 0.641886 42.6598 0.895734 42.7358 1.16938C42.8118 1.44303 42.8273 1.72994 42.7814 2.0102C42.7814 2.64161 42.7814 3.2988 42.7814 3.89155C42.7814 3.89155 42.7814 3.89155 42.7814 3.99463H44.4566C45.377 3.93007 46.286 4.22834 46.9893 4.8256C47.6925 5.42286 48.134 6.27166 48.2193 7.19034C49.3532 13.6762 50.4958 20.1536 51.6469 26.6223C51.6673 26.6805 51.6932 26.7366 51.7242 26.7898L51.8531 27.7562ZM47.124 11.9839H9.84504V21.0685L10.6053 21.1587C11.9029 21.2794 13.161 21.6695 14.2993 22.3041C15.4375 22.9386 16.4309 23.8037 17.2158 24.844C17.5508 25.2822 17.8472 25.6172 18.5044 25.5528C18.6326 25.5796 18.752 25.6387 18.8511 25.7243C18.9503 25.81 19.0261 25.9194 19.0714 26.0424C19.0714 26.2357 18.8523 26.4934 18.6977 26.7125C18.543 26.9315 18.5559 26.7125 18.4399 26.8027C19.0897 28.2809 19.3684 29.8955 19.2518 31.506H44.6499C44.8685 31.5252 45.0884 31.5252 45.3071 31.506C45.8573 31.3914 46.3462 31.0788 46.6812 30.6275C47.0161 30.1761 47.1737 29.6175 47.124 29.0577C47.124 23.5554 47.124 18.0532 47.124 12.5509V11.9839ZM9.83216 10.6953H47.124C47.124 9.54846 47.124 8.44027 47.124 7.33208C47.1253 6.83665 46.9514 6.35671 46.633 5.97708C46.3147 5.59745 45.8724 5.34256 45.3844 5.25745C44.5266 5.19086 43.665 5.19086 42.8072 5.25745C42.8072 5.82443 42.8072 6.37853 42.8072 6.93262C42.8147 7.22177 42.7546 7.50868 42.6315 7.77045C42.5085 8.03222 42.3259 8.2616 42.0985 8.44027C41.8257 8.68444 41.4863 8.84181 41.1237 8.8923C40.7611 8.94279 40.3916 8.88411 40.0625 8.72376C39.7082 8.57601 39.4067 8.32478 39.1975 8.00291C38.9883 7.68104 38.8811 7.30352 38.8899 6.91973C38.8899 6.35275 38.8899 5.78578 38.8899 5.2188H34.5602V5.79866C34.5602 6.24967 34.5602 6.71356 34.5602 7.16457C34.5602 7.6772 34.3566 8.16884 33.9941 8.53132C33.6316 8.89381 33.14 9.09745 32.6273 9.09745C32.1147 9.09745 31.6231 8.89381 31.2606 8.53132C30.8981 8.16884 30.6944 7.6772 30.6944 7.16457C30.6944 6.52027 30.6944 5.87598 30.6944 5.20591H26.3132C26.3132 5.82443 26.3132 6.39141 26.3132 6.97128C26.351 7.2524 26.3273 7.53837 26.2437 7.80941C26.1601 8.08046 26.0186 8.33011 25.829 8.5411C25.6394 8.7521 25.4063 8.91941 25.1457 9.03145C24.8852 9.1435 24.6033 9.19761 24.3198 9.19005C24.0363 9.18249 23.7577 9.11343 23.5035 8.98766C23.2493 8.86189 23.0254 8.68239 22.8473 8.46159C22.6693 8.24079 22.5413 7.98396 22.4723 7.70884C22.4032 7.43373 22.3948 7.1469 22.4475 6.86819V5.15437H18.0405V6.70067C18.098 6.9868 18.0913 7.28214 18.0208 7.56535C17.9503 7.84856 17.8178 8.11259 17.6329 8.33838C17.4479 8.56418 17.2152 8.74609 16.9514 8.87101C16.6877 8.99593 16.3994 9.06072 16.1076 9.06072C15.8157 9.06072 15.5275 8.99593 15.2638 8.87101C15 8.74609 14.7672 8.56418 14.5823 8.33838C14.3974 8.11259 14.2649 7.84856 14.1944 7.56535C14.1239 7.28214 14.1172 6.9868 14.1747 6.70067C14.1747 6.18524 14.1747 5.65692 14.1747 5.11571C13.2856 5.15437 12.4995 5.15437 11.7393 5.15437C11.2388 5.21637 10.7757 5.45113 10.4299 5.81813C10.0841 6.18512 9.87724 6.66133 9.84504 7.16457C9.7935 8.3243 9.83216 9.48403 9.83216 10.6953ZM9.58733 39.0443C11.2502 39.0622 12.8808 38.5854 14.2722 37.6746C15.6635 36.7638 16.7527 35.46 17.4015 33.9288C18.0503 32.3976 18.2293 30.7082 17.9159 29.075C17.6025 27.4419 16.8107 25.9387 15.6412 24.7565C14.4717 23.5743 12.9772 22.7663 11.3475 22.4352C9.71788 22.1042 8.02658 22.265 6.48848 22.8971C4.95038 23.5293 3.63488 24.6044 2.70906 25.9858C1.78325 27.3672 1.2889 28.9926 1.2888 30.6556C1.28516 32.8707 2.15383 34.9983 3.70687 36.5778C5.25991 38.1574 7.37242 39.062 9.58733 39.0958V39.0443ZM48.4512 14.8188V28.5809H48.9667C50.2552 28.5809 50.7578 27.9624 50.5387 26.7383C49.9975 23.5683 49.4305 20.3984 48.8765 17.2285C48.7476 16.4295 48.593 15.6306 48.4512 14.8188ZM16.7519 4.40698C16.7519 3.64671 16.7519 2.89933 16.7519 2.13906C16.7519 1.57208 16.4684 1.22416 16.0174 1.22416C15.5664 1.22416 15.2829 1.5592 15.2829 2.12618C15.2829 3.67249 15.2829 5.20591 15.2829 6.73933C15.2829 7.3192 15.5664 7.64135 16.0174 7.64135C16.4684 7.64135 16.7519 7.30631 16.7519 6.73933C16.8163 5.96618 16.7519 5.15437 16.7519 4.40698ZM41.5701 4.47141V2.13906C41.5701 1.57208 41.2738 1.23705 40.8357 1.22416C40.3975 1.21128 40.0883 1.5592 40.0883 2.12618V6.73933C40.0883 7.30631 40.3718 7.64135 40.8228 7.64135C41.2738 7.64135 41.5573 7.30631 41.5701 6.73933V4.47141ZM23.5299 4.40698V6.73933C23.5299 7.3192 23.8005 7.62846 24.2644 7.64135C24.7283 7.65423 24.986 7.3192 24.986 6.73933C24.986 5.20161 24.986 3.66819 24.986 2.13906C24.986 1.5592 24.7154 1.22416 24.2644 1.22416C23.8134 1.22416 23.5299 1.57208 23.5299 2.12618V4.40698ZM31.8155 4.40698C31.8155 5.19302 31.8155 5.99195 31.8155 6.77799C31.8155 7.33208 32.0732 7.62846 32.5242 7.64135C32.9752 7.65423 33.2587 7.34497 33.2587 6.80376V2.08752C33.2587 1.5592 32.9752 1.23705 32.5371 1.22416C32.099 1.21128 31.8155 1.54631 31.8155 2.07463C31.8799 2.84779 31.8928 3.63383 31.8928 4.40698H31.8155Z" fill="#58595B"/>
<path d="M28.5163 29.9339H23.6068C23.4393 29.9339 23.2202 29.9339 23.1042 29.9339C22.9032 29.8123 22.7558 29.6188 22.6919 29.3927C22.6919 29.1994 22.8981 28.9804 23.0656 28.8257C23.2331 28.6711 23.3491 28.8257 23.5037 28.8257H33.4259C33.5418 28.8257 33.6965 28.8257 33.7738 28.8257C33.8511 28.8257 34.2248 29.1865 34.2763 29.4185C34.2862 29.4948 34.2789 29.5723 34.2549 29.6453C34.231 29.7184 34.1909 29.7852 34.1378 29.8408C34.0847 29.8964 34.0198 29.9394 33.9479 29.9667C33.876 29.9939 33.7989 30.0048 33.7222 29.9984C33.3743 29.9984 33.0135 29.9984 32.6656 29.9984L28.5163 29.9339Z" fill="#58595B"/>
<path d="M28.4392 21.3648C27.7434 21.3648 27.0346 21.3648 26.3259 21.3648C25.8105 21.3648 25.5012 21.1071 25.5399 20.7205C25.5785 20.3339 25.9007 20.1406 26.3259 20.1406H30.6298C31.0422 20.1406 31.3643 20.2437 31.403 20.7334C31.4416 21.223 31.1452 21.3648 30.6169 21.3648C29.8953 21.3777 29.1737 21.3648 28.4392 21.3648Z" fill="#58595B"/>
<path d="M40.8227 20.1406H43.0004C43.4127 20.1406 43.6962 20.2953 43.7478 20.7205C43.7993 21.1457 43.4643 21.3648 43.0004 21.3648C41.5314 21.3648 40.0753 21.3648 38.6063 21.3648C38.1166 21.3648 37.846 21.12 37.8718 20.7205C37.8976 20.321 38.194 20.1406 38.6063 20.1406H40.8227Z" fill="#58595B"/>
<path d="M28.4522 26.7511H26.2745C25.7977 26.7511 25.5013 26.4934 25.54 26.1068C25.5787 25.7203 25.8621 25.527 26.2745 25.527H30.6686C31.1583 25.527 31.4289 25.7718 31.4031 26.1584C31.3773 26.545 31.0809 26.7511 30.6686 26.7511H28.4522Z" fill="#58595B"/>
<path d="M40.7712 26.7511H38.6579C38.2584 26.7511 37.962 26.5965 37.9363 26.1455C37.9105 25.6945 38.1811 25.527 38.6836 25.527H43.0777C43.4901 25.527 43.7736 25.6945 43.7993 26.1197C43.8251 26.545 43.5416 26.7383 43.052 26.7511H40.7712Z" fill="#58595B"/>
<path d="M16.1591 14.7543H18.2853C18.8265 14.7543 19.0842 14.9734 19.0713 15.3728C19.0584 15.7723 18.8007 15.9785 18.2466 15.9785H14.0071C13.4917 15.9785 13.1696 15.7337 13.2082 15.3471C13.2469 14.9605 13.569 14.7414 13.9814 14.7543H16.1591Z" fill="#58595B"/>
<path d="M28.4906 14.7543H30.6039C31.1451 14.7543 31.4157 14.9734 31.4028 15.3729C31.39 15.7723 31.1322 15.9785 30.5781 15.9785H26.3387C25.8232 15.9785 25.5011 15.7337 25.5398 15.3471C25.5784 14.9605 25.9006 14.7543 26.3129 14.7543H28.4906Z" fill="#58595B"/>
<path d="M40.8231 14.7543H42.9879C43.4776 14.7543 43.774 15.0121 43.7482 15.3729C43.7437 15.4623 43.7206 15.5499 43.6804 15.6299C43.6402 15.71 43.5837 15.7808 43.5146 15.8378C43.4455 15.8948 43.3652 15.9367 43.279 15.9609C43.1927 15.9852 43.1024 15.9911 43.0137 15.9785H38.6582C38.1557 15.9785 37.8851 15.7337 37.9109 15.3471C37.9366 14.9605 38.233 14.7543 38.6325 14.7543H40.8231Z" fill="#58595B"/>
<path d="M16.1721 20.1406H18.3369C18.7493 20.1406 19.0456 20.2824 19.0714 20.7205C19.0972 21.1586 18.8266 21.3648 18.3369 21.3648C16.8808 21.3648 15.4118 21.3648 13.9428 21.3648C13.4789 21.3648 13.1697 21.0942 13.2083 20.7205C13.247 20.3468 13.5305 20.1406 13.9428 20.1406H16.1721Z" fill="#58595B"/>
<path d="M7.358 32.9751C6.71371 32.9751 6.06941 32.9751 5.54109 32.9751C4.3427 32.9622 3.86592 32.4725 3.86592 31.287V29.9984C3.83768 29.783 3.85979 29.564 3.93051 29.3586C4.00123 29.1532 4.11864 28.967 4.2735 28.8146C4.42836 28.6623 4.61645 28.5479 4.82298 28.4805C5.02951 28.4132 5.24886 28.3946 5.46377 28.4264H7.358V27.4599C7.358 27.0604 7.358 26.661 7.358 26.2486C7.358 25.9069 7.49377 25.5791 7.73542 25.3375C7.97708 25.0958 8.30484 24.96 8.64659 24.96C9.23935 24.96 9.8321 24.96 10.4248 24.96C10.6083 24.9485 10.7921 24.9764 10.9639 25.0418C11.1357 25.1072 11.2916 25.2086 11.4209 25.3392C11.5503 25.4698 11.6503 25.6266 11.714 25.799C11.7778 25.9714 11.804 26.1555 11.7908 26.3388C11.7908 27.0347 11.7908 27.7176 11.7908 28.4779H13.6979C13.9242 28.418 14.1619 28.4152 14.3896 28.4696C14.6173 28.524 14.828 28.634 15.0029 28.7897C15.1777 28.9454 15.3113 29.142 15.3916 29.3619C15.472 29.5818 15.4966 29.8182 15.4632 30.05V31.4674C15.482 31.6629 15.4585 31.8601 15.3941 32.0456C15.3298 32.2311 15.2262 32.4006 15.0905 32.5425C14.9547 32.6843 14.79 32.7953 14.6075 32.8677C14.425 32.9401 14.229 32.9724 14.0329 32.9622C13.3628 32.9622 12.7443 32.9622 11.9454 32.9622V34.792C11.9454 35.9517 11.4428 36.4543 10.2831 36.4543H8.85277C8.65319 36.4717 8.4522 36.4455 8.26379 36.3774C8.07539 36.3093 7.90408 36.2009 7.76181 36.0599C7.61953 35.9188 7.50971 35.7485 7.43997 35.5607C7.37023 35.3729 7.34226 35.1721 7.358 34.9724C7.34512 34.341 7.358 33.6967 7.358 32.9751ZM6.62351 31.6865H7.73169C8.38888 31.6865 8.58216 31.8927 8.58216 32.5498C8.58216 33.207 8.58216 34.0317 8.58216 34.7662C8.58216 35.0884 8.65948 35.2301 9.0074 35.2043C9.35532 35.1786 9.81921 35.2043 10.2187 35.2043C10.6181 35.2043 10.6697 35.127 10.6568 34.7791C10.6568 34.0575 10.6568 33.3359 10.6568 32.6143C10.6568 31.8927 10.8372 31.6994 11.5846 31.6865H13.7623C14.0587 31.6865 14.2004 31.6092 14.1875 31.287C14.1607 30.8579 14.1607 30.4275 14.1875 29.9984C14.1875 29.6892 14.0844 29.5861 13.7752 29.5861C13.002 29.5861 12.2289 29.5861 11.4428 29.5861C10.8759 29.5861 10.6568 29.3541 10.6568 28.7743C10.6568 28.1944 10.6568 27.3311 10.6568 26.5966C10.6568 26.1971 10.5795 26.0038 10.1285 26.0425C9.75953 26.0683 9.38923 26.0683 9.02028 26.0425C8.69814 26.0425 8.56928 26.1327 8.58216 26.4677C8.58216 27.2409 8.58216 28.014 8.58216 28.8C8.58216 29.3413 8.35022 29.5603 7.80901 29.5732C7.06163 29.5732 6.32713 29.5732 5.57975 29.5732C5.20606 29.5732 5.01277 29.6505 5.06431 30.0757C5.09009 30.4447 5.09009 30.815 5.06431 31.1839C5.06431 31.5319 5.14163 31.6865 5.51532 31.6607C5.88901 31.6349 6.24981 31.738 6.62351 31.738V31.6865Z" fill="#EE4423"/>
</g>
<defs>
<clipPath id="clip0_404_3">
<rect width="51.8529" height="40.32" fill="white"/>
</clipPath>
</defs>
</svg>
