<svg width="85" height="78" viewBox="0 0 85 78" fill="none" xmlns="http://www.w3.org/2000/svg">
<g clip-path="url(#clip0_929_8190)">
<path d="M83.9514 27.0687C83.5606 25.1514 82.5438 23.4303 81.0709 22.1928C79.7586 21.0538 78.155 20.3301 76.4532 20.1089C74.7514 19.8877 73.0238 20.1783 71.4784 20.9458C69.9999 21.5638 68.7127 22.5856 67.7551 23.9014C66.7975 25.2172 66.2058 26.7772 66.0436 28.4138C66.0156 29.0747 65.8015 29.7129 65.4275 30.2503C65.0535 30.7878 64.5358 31.2013 63.9376 31.4402C63.2854 31.7064 62.674 32.0847 62.0354 32.3649C60.799 32.8833 60.0789 32.519 59.4674 31.258C57.6021 27.5044 54.7847 24.3425 51.3152 22.1088C50.6902 21.6884 49.9565 20.7077 50.038 20.1192C50.3097 19.1104 50.038 17.6252 51.5597 17.2189C55.269 16.2241 57.8234 14.0944 58.6386 9.97512C59.1006 7.59323 57.5245 2.96955 55.6766 1.56844C53.9582 0.467355 51.9655 -0.0926308 49.9429 -0.0428397C46.3151 -0.267018 42.5107 4.1605 42.633 7.45312C42.6555 9.54988 43.2692 11.5946 44.3993 13.3378C44.7567 13.9476 44.9545 14.6425 44.9736 15.3546C44.9926 16.0668 44.8322 16.7719 44.508 17.401C43.9781 18.6901 42.7689 18.8021 41.5461 18.7321C40.0804 18.6269 38.6095 18.6269 37.1438 18.7321C35.8313 18.838 34.5406 19.14 33.3123 19.6288C31.4916 20.4274 29.7932 21.5063 28.0405 22.431C27.3611 22.7953 26.6818 23.5099 25.8937 22.7113C25.1057 21.9126 23.7605 20.8618 24.1138 19.1384C24.4297 17.756 24.6431 16.3508 24.7524 14.9351C24.9846 12.5752 24.3972 10.2069 23.0948 8.25175C20.7442 5.00117 15.5403 2.6473 11.4099 4.24457C9.62058 4.80064 8.00865 5.8414 6.74209 7.25839C5.47552 8.67538 4.60067 10.4167 4.20871 12.301C3.86445 14.0777 3.91088 15.9114 4.34458 17.6672C4.51288 18.8767 4.93481 20.0338 5.58101 21.0579C7.65983 23.8602 10.2821 25.7517 13.9371 25.4995C15.3909 25.4014 16.8583 25.3313 18.3121 25.1912C19.1952 25.2352 20.0477 25.538 20.7697 26.0641C21.4918 26.5903 22.0532 27.3179 22.3882 28.1616C22.4202 28.4756 22.3484 28.7916 22.1844 29.0583C19.6844 33.1355 19.3583 37.6471 19.6165 42.2708C19.6382 43.7813 19.8204 45.2848 20.16 46.7544C20.6491 48.5618 20.5268 49.1082 18.8013 49.8088C17.823 50.2011 16.8855 50.7475 15.88 51.0418C15.3022 51.1376 14.7098 51.0496 14.1816 50.7896C13.7275 50.5065 13.3117 50.1625 12.9452 49.7668C11.7953 48.8702 10.4381 48.299 9.00817 48.1097C7.57825 47.9205 6.12519 48.1198 4.79296 48.6879C3.2537 49.1014 1.91511 50.083 1.03106 51.4466C0.147004 52.8102 -0.221045 54.4609 -0.00328925 56.0858C-0.137561 57.194 -0.0234505 58.3192 0.330259 59.3748C0.683969 60.4304 1.26785 61.3883 2.03695 62.1746C2.80604 62.9609 3.73986 63.5548 4.7665 63.9105C5.79315 64.2662 6.88525 64.3742 7.95875 64.2262C8.9642 64.1002 10.1599 64.3804 10.9615 63.904C13.0577 62.7731 14.6846 60.8962 15.5403 58.6218C15.7754 58.0254 16.2024 57.5306 16.7496 57.2207C18.8207 56.287 20.9387 55.4685 23.0948 54.7687C23.7909 54.6563 24.5021 54.8271 25.0785 55.2451C26.6012 56.6029 28.2078 57.8573 29.8883 59.0001C31.8602 60.1187 33.9933 60.904 36.2063 61.3259C38.5622 61.9307 41.0214 61.9691 43.3939 61.438C44.9156 60.9897 46.5189 60.7655 47.9863 60.2051C48.3716 59.984 48.8194 59.9079 49.2531 59.9897C49.6869 60.0715 50.0796 60.3061 50.3641 60.6534C51.773 62.4001 53.2792 64.0609 54.875 65.6274C55.595 66.2218 56.1606 66.9913 56.5211 67.8668C56.8816 68.7422 57.0256 69.6963 56.9402 70.6434C56.9402 72.731 57.1984 74.8467 59.1685 76.1497C59.9702 76.6681 60.8533 77.0464 61.6821 77.5508C63.6523 78.6157 65.5545 77.705 67.117 76.8083C68.0912 76.2072 68.8921 75.3487 69.4367 74.3215C69.9814 73.2943 70.25 72.1358 70.2148 70.9656C70.3235 67.0005 67.4023 63.8199 63.9919 64.1842C63.3328 64.2613 62.6674 64.2613 62.0082 64.1842C61.5821 64.1329 61.1849 63.9355 60.8805 63.6238C59.0055 61.452 57.1848 59.2243 55.3098 57.0385C54.6576 56.2679 54.8342 55.7495 55.4321 55.049C56.4807 53.8816 57.4264 52.6203 58.2582 51.28C60.1974 48.1289 61.1988 44.4611 61.1386 40.7296C61.0822 40.437 61.086 40.1356 61.1498 39.8447C61.2135 39.5537 61.3358 39.2799 61.5087 39.0408C61.6816 38.8017 61.9013 38.6028 62.1536 38.4568C62.4058 38.3109 62.6849 38.2212 62.9729 38.1936C63.8369 37.977 64.6561 37.6021 65.3914 37.0867C67.2393 35.8677 68.7882 36.288 70.4594 37.6051C71.8112 38.6206 73.4333 39.1828 75.1055 39.2154C76.7777 39.248 78.4192 38.7494 79.8073 37.7872C84.2367 34.8029 84.6851 32.0006 83.9514 27.0687ZM7.60548 61.424C5.6897 61.424 2.75489 59.3083 3.04022 56.5481C2.71413 54.4185 5.63536 51.7003 7.83647 51.8264C8.44556 51.7975 9.05392 51.8978 9.6239 52.1212C10.1939 52.3445 10.7134 52.686 11.1502 53.1247C11.587 53.5633 11.932 54.0898 12.1636 54.6714C12.3952 55.253 12.5086 55.8775 12.4968 56.5061C12.5784 59.2663 10.8664 61.34 7.60548 61.424ZM40.3776 58.4537C38.0929 58.5378 35.8149 58.1508 33.6772 57.3152C31.5394 56.4796 29.585 55.2123 27.9285 53.5876C26.2719 51.9629 24.9466 50.0134 24.0303 47.8536C23.1139 45.6938 22.625 43.367 22.5921 41.0098C22.5105 29.941 30.3231 22.0107 40.2553 22.0107C50.4592 22.0107 57.7283 29.3245 57.9185 39.8749C58.1767 49.5566 50.8804 58.9861 40.3776 58.4957V58.4537ZM75.2828 36.0358C73.6982 35.9918 72.1938 35.3079 71.0934 34.1312C69.993 32.9546 69.3848 31.3794 69.3996 29.7448C69.3399 28.9588 69.4418 28.1686 69.6984 27.4259C69.9551 26.6832 70.3609 26.0047 70.8892 25.4348C71.4176 24.8648 72.0566 24.4163 72.7645 24.1184C73.4724 23.8205 74.2333 23.68 74.9975 23.706C76.583 23.667 78.1187 24.2791 79.2666 25.4077C80.4145 26.5362 81.0806 28.0888 81.1185 29.7238C81.1563 31.3589 80.5627 32.9424 79.4683 34.1262C78.3739 35.3099 76.8684 35.9968 75.2828 36.0358Z" fill="#EE4423"/>
<path d="M30.5441 33.0777C29.8361 32.9924 29.1185 33.0682 28.4419 33.2997C27.7654 33.5313 27.1462 33.9129 26.6281 34.4178C26.11 34.9227 25.7055 35.5386 25.4431 36.2221C25.1807 36.9056 25.0667 37.6401 25.1093 38.3739C25.218 42.297 27.4191 43.7401 30.5441 43.9783C31.2671 44.0144 31.9894 43.8941 32.6646 43.6252C33.3398 43.3563 33.953 42.9447 34.4648 42.4169C34.9766 41.8891 35.3757 41.2568 35.6365 40.5605C35.8973 39.8642 36.0139 39.1194 35.979 38.3739C35.9902 37.6487 35.855 36.929 35.5819 36.2606C35.3088 35.5922 34.9037 34.9898 34.3925 34.4916C33.8813 33.9935 33.2751 33.6105 32.6126 33.367C31.95 33.1236 31.2456 33.0251 30.5441 33.0777Z" fill="#EE4423"/>
<path d="M43.4796 33.0941C40.7622 33.0941 39.2812 34.4952 39.4035 36.9892C39.5258 39.4831 40.7622 41.3186 43.4796 41.1925C44.0093 41.2406 44.5428 41.1719 45.0447 40.9911C45.5467 40.8103 46.0056 40.5216 46.3911 40.1439C46.7765 39.7663 47.0797 39.3085 47.2805 38.8008C47.4813 38.2931 47.5751 37.7472 47.5558 37.1993C47.2704 34.8034 46.5911 33.038 43.4796 33.0941Z" fill="#EE4423"/>
<path d="M42.2692 44.7804C41.4976 44.8398 40.7754 45.1949 40.2449 45.7757C39.7143 46.3565 39.4138 47.121 39.4023 47.9189C39.4128 48.2747 39.4917 48.6248 39.6343 48.9489C39.7769 49.273 39.9805 49.5647 40.2333 49.8071C40.486 50.0495 40.7829 50.2378 41.1068 50.361C41.4306 50.4842 41.7749 50.54 42.1198 50.525C42.4707 50.5524 42.8234 50.5038 43.1551 50.3825C43.4869 50.2612 43.7904 50.0697 44.0462 49.8204C44.302 49.5711 44.5045 49.2695 44.6407 48.9348C44.777 48.6001 44.8439 48.2398 44.8372 47.8769C44.8059 47.1392 44.536 46.4335 44.0706 45.8723C43.6052 45.3111 42.9711 44.9267 42.2692 44.7804Z" fill="#EE4423"/>
</g>
<defs>
<clipPath id="clip0_929_8190">
<rect width="84.24" height="78" fill="white"/>
</clipPath>
</defs>
</svg>
