<svg width="78" height="78" viewBox="0 0 78 78" fill="none" xmlns="http://www.w3.org/2000/svg">
<g clip-path="url(#clip0_420_267)">
<path d="M72.4867 21.2796C70.8682 20.8535 69.48 19.8123 68.6177 18.3779C67.3022 17.6814 66.1221 16.8109 66.1221 15.921C66.1774 14.9636 66.5365 14.0487 67.1474 13.3094C66.9874 13.2175 66.8436 13.0998 66.7218 12.9612C66.08 12.2169 65.179 11.7447 64.2018 11.6405C63.2245 11.5363 62.2442 11.8079 61.4599 12.4002C60.3799 13.2011 59.0709 13.6336 57.7263 13.6336C56.3817 13.6336 55.0727 13.2011 53.9927 12.4002C53.5573 12.0784 53.0592 11.8516 52.5307 11.7344C52.0021 11.6172 51.4549 11.6122 50.9243 11.7198C50.3937 11.8274 49.8916 12.0451 49.4504 12.3589C49.0093 12.6727 48.6389 13.0756 48.3632 13.5416C48.3125 13.7054 48.3125 13.8807 48.3632 14.0445V14.2573C50.427 17.5027 51.7532 21.1615 52.2479 24.9756C52.7426 28.7896 52.3939 32.6658 51.2263 36.3302C51.2263 36.4721 51.1876 36.6269 51.1102 36.7945C52.3677 36.5044 53.5864 36.1561 54.8439 35.982C57.4467 35.5924 60.1017 35.7381 62.6463 36.41C65.191 37.0819 67.5717 38.266 69.643 39.8898C69.7374 40.0001 69.8546 40.0886 69.9865 40.1493C70.1184 40.21 70.2619 40.2415 70.4071 40.2415C70.5523 40.2415 70.6958 40.21 70.8277 40.1493C70.9596 40.0886 71.0768 40.0001 71.1712 39.8898C71.7983 39.3787 72.2493 38.6839 72.461 37.9031C72.6727 37.1224 72.6343 36.2949 72.3513 35.5371C71.7468 34.236 71.5898 32.7714 71.9048 31.3717C72.2197 29.972 72.9889 28.7158 74.0924 27.799C74.5854 27.3287 74.9455 26.7366 75.1362 26.0825C75.327 25.4285 75.3416 24.7356 75.1787 24.074C75.0158 23.4125 74.681 22.8057 74.2083 22.315C73.7356 21.8243 73.1417 21.4672 72.4867 21.2796ZM58.1325 24.5683C57.1812 24.5001 56.2911 24.074 55.6413 23.3759C54.9915 22.6778 54.6302 21.7594 54.6302 20.8057C54.6302 19.8519 54.9915 18.9336 55.6413 18.2355C56.2911 17.5374 57.1812 17.1113 58.1325 17.043C58.6493 17.006 59.1682 17.0757 59.6569 17.248C60.1455 17.4203 60.5935 17.6914 60.9727 18.0445C61.352 18.3975 61.6544 18.8248 61.8613 19.2999C62.0681 19.775 62.1748 20.2876 62.1748 20.8057C62.1748 21.3238 62.0681 21.8364 61.8613 22.3115C61.6544 22.7865 61.352 23.2139 60.9727 23.5669C60.5935 23.9199 60.1455 24.1911 59.6569 24.3633C59.1682 24.5356 58.6493 24.6054 58.1325 24.5683ZM64.2843 33.3317C63.7848 33.3268 63.2913 33.2222 62.8328 33.0241C62.3742 32.826 61.9598 32.5383 61.6139 32.178C61.2679 31.8176 60.9974 31.3918 60.8182 30.9256C60.6389 30.4593 60.5546 29.962 60.57 29.4627C60.533 28.9459 60.6027 28.427 60.775 27.9383C60.9473 27.4497 61.2184 27.0018 61.5715 26.6225C61.9245 26.2432 62.3518 25.9408 62.8269 25.734C63.302 25.5271 63.8146 25.4204 64.3327 25.4204C64.8508 25.4204 65.3634 25.5271 65.8385 25.734C66.3135 25.9408 66.7409 26.2432 67.0939 26.6225C67.4469 27.0018 67.7181 27.4497 67.8903 27.9383C68.0626 28.427 68.1324 28.9459 68.0953 29.4627C68.0854 30.4721 67.6812 31.4377 66.9692 32.1533C66.2572 32.8689 65.2937 33.2779 64.2843 33.293V33.3317Z" fill="#EE4423"/>
<path d="M73.5122 43.5655C73.106 43.0432 72.661 42.5402 72.2354 42.0179C73.4893 41.1534 74.3917 39.8679 74.7786 38.3948C75.1655 36.9217 75.0113 35.3587 74.3441 33.9896C74.0886 33.2706 74.0515 32.4921 74.2374 31.752C74.4233 31.012 74.8238 30.3434 75.3887 29.8304C75.9097 29.3259 76.3765 28.7683 76.7815 28.1667C77.2599 27.3667 77.5509 26.4688 77.6326 25.5403C77.7142 24.6118 77.5845 23.6769 77.2532 22.8057C76.9218 21.9345 76.3974 21.1497 75.7194 20.5101C75.0413 19.8706 74.2272 19.393 73.3381 19.1131C72.1872 18.82 71.1994 18.0826 70.5911 17.0625C70.1461 16.2694 69.5464 16.0372 68.9274 16.4048C68.3083 16.7724 68.1923 17.3914 68.6372 18.1652C68.6766 18.2189 68.7091 18.2774 68.7339 18.3393C69.5963 19.7738 70.9845 20.8149 72.603 21.2411C73.2752 21.4182 73.8873 21.7732 74.3749 22.2687C74.8625 22.7643 75.2076 23.382 75.3739 24.057C75.5402 24.7321 75.5215 25.4394 75.3199 26.1047C75.1182 26.77 74.741 27.3687 74.228 27.8378C73.1245 28.7547 72.3553 30.0108 72.0404 31.4105C71.7255 32.8102 71.8825 34.2748 72.4869 35.5759C72.7699 36.3337 72.8083 37.1612 72.5966 37.942C72.385 38.7227 71.9339 39.4175 71.3068 39.9286C71.2124 40.0389 71.0952 40.1275 70.9633 40.1882C70.8314 40.2489 70.6879 40.2803 70.5427 40.2803C70.3975 40.2803 70.254 40.2489 70.1221 40.1882C69.9902 40.1275 69.873 40.0389 69.7786 39.9286C67.6907 38.3267 65.2979 37.1677 62.7466 36.5224C60.1953 35.877 57.5392 35.7591 54.9408 36.1756C53.6833 36.3497 52.4646 36.6979 51.2071 36.9881C51.2071 36.8205 51.2458 36.6657 51.3232 36.5238C52.4826 32.8468 52.8185 28.9597 52.307 25.1383C51.7954 21.3169 50.4491 17.6549 48.3634 14.4122C48.3525 14.3417 48.3525 14.2699 48.3634 14.1994C48.3198 14.0953 48.2973 13.9835 48.2973 13.8706C48.2973 13.7576 48.3198 13.6459 48.3634 13.5417C48.6334 13.0625 49.0025 12.6463 49.4461 12.321C49.8897 11.9957 50.3976 11.7688 50.9358 11.6553C51.474 11.5418 52.0303 11.5443 52.5674 11.6628C53.1046 11.7813 53.6103 12.0129 54.0509 12.3423C55.1309 13.1433 56.4399 13.5757 57.7845 13.5757C59.1292 13.5757 60.4381 13.1433 61.5182 12.3423C62.3024 11.75 63.2827 11.4784 64.26 11.5826C65.2373 11.6868 66.1383 12.159 66.7801 12.9033C66.9019 13.0419 67.0457 13.1596 67.2057 13.2515C67.393 13.4312 67.6425 13.5316 67.9021 13.5316C68.1617 13.5316 68.4112 13.4312 68.5985 13.2515C69.1015 12.7485 69.0241 12.0715 68.3857 11.317C67.4077 10.253 66.0853 9.5686 64.6518 9.38455C63.2184 9.2005 61.766 9.52863 60.5509 10.311C59.7602 10.9181 58.7911 11.2472 57.7942 11.2472C56.7973 11.2472 55.8283 10.9181 55.0375 10.311C53.7698 9.49389 52.2448 9.17421 50.7557 9.41347C49.2666 9.65273 47.9184 10.434 46.9705 11.6072L46.603 12.0715L46.1387 11.6072C38.3426 3.05658 28.8441 0.406281 17.9527 3.86908C12.2273 5.77967 7.3614 9.65223 4.21449 14.8027C1.06758 19.9531 -0.157814 26.05 0.754767 32.0164C1.45956 37.0131 3.33546 41.7725 6.22947 45.9063C7.89316 48.3631 9.67292 50.5878 11.6074 52.9673C11.472 52.9673 11.2399 53.2188 10.9691 53.3542C8.58959 54.6503 6.21012 55.9658 3.81131 57.2232C2.47966 57.8268 1.41845 58.9018 0.832148 60.2411C0.65804 60.6474 0.541969 61.0729 0.387207 61.4985V63.2976C1.50923 65.9093 2.59256 68.5209 3.77262 71.0357C4.13233 71.8792 4.69813 72.6188 5.41809 73.1867C6.13805 73.7545 6.98911 74.1324 7.89316 74.2857C9.62492 74.5321 11.386 74.1177 12.8262 73.125C13.0001 73.0897 13.1634 73.0143 13.3031 72.9048C13.4428 72.7952 13.555 72.6547 13.6309 72.4942C13.7067 72.3337 13.7441 72.1578 13.74 71.9803C13.7359 71.8029 13.6905 71.6288 13.6074 71.472C13.5243 71.3152 13.4057 71.1799 13.2612 71.0769C13.1166 70.9739 12.95 70.9061 12.7747 70.8788C12.5993 70.8514 12.42 70.8654 12.2509 70.9195C12.0819 70.9736 11.9278 71.0664 11.8009 71.1905L10.5241 71.8289C10.1002 72.0397 9.6374 72.1608 9.1646 72.1846C8.69179 72.2085 8.21914 72.1346 7.77618 71.9676C7.33321 71.8006 6.92944 71.544 6.59009 71.2139C6.25074 70.8838 5.98309 70.4873 5.80387 70.0491C4.81727 67.9985 3.86935 65.9479 2.97947 63.8393C2.77876 63.4328 2.66479 62.989 2.64481 62.536C2.62483 62.0831 2.69927 61.631 2.8634 61.2084C3.05797 60.7295 3.34652 60.2945 3.71201 59.929C4.0775 59.5635 4.51252 59.275 4.99137 59.0804C11.7332 55.8113 18.0861 51.7945 23.9304 47.1057C28.2546 43.7506 31.8987 39.601 34.667 34.8795C37.4769 29.8402 39.2465 24.288 39.8708 18.5521C40.4206 14.919 39.8185 11.2049 38.1491 7.93158C40.7154 9.34478 42.977 11.2514 44.8039 13.5417C47.5171 16.8592 49.2897 20.8446 49.9362 25.0813C50.5828 29.3181 50.0797 33.6507 48.4795 37.6265C48.3051 38.1737 47.9325 38.636 47.4348 38.9226C45.0753 40.3521 43.0406 42.259 41.4615 44.5211C39.8824 46.7832 38.7937 49.3504 38.2652 52.0581C38.1434 52.5833 37.8904 53.0692 37.5301 53.4703C33.6739 57.2632 29.4412 60.6532 24.8976 63.5878C22.286 65.2902 19.597 66.8378 16.9467 68.4822C16.6179 68.6756 16.1923 68.9658 16.1342 69.2947C16.1038 69.5051 16.1155 69.7195 16.1687 69.9254C16.2218 70.1313 16.3153 70.3246 16.4438 70.4941C16.8307 70.9584 17.3917 70.8423 17.8946 70.4941C20.5063 68.9078 23.1372 67.3408 25.7295 65.7158C25.9322 65.544 26.1892 65.4497 26.4549 65.4497C26.7206 65.4497 26.9777 65.544 27.1804 65.7158C31.7037 68.7206 36.4214 71.422 41.3024 73.8021C42.2242 74.3023 43.2682 74.533 44.315 74.468C45.3617 74.403 46.3691 74.0449 47.222 73.4345C47.4216 73.2808 47.6665 73.1975 47.9185 73.1975C48.1704 73.1975 48.4153 73.2808 48.6149 73.4345C52.3749 75.4235 56.6901 76.1042 60.8798 75.3691C64.2967 74.8408 67.5164 73.4291 70.22 71.2737C72.9235 69.1184 75.0171 66.2942 76.2935 63.0808C77.5698 59.8675 77.9846 56.3765 77.4968 52.9535C77.009 49.5305 75.6354 46.2944 73.5122 43.5655ZM13.542 51.7292C12.0717 49.9107 10.5241 48.1116 9.13125 46.2158C6.1629 42.2805 4.12569 37.7232 3.17292 32.8869C2.27049 28.1533 2.82896 23.2572 4.77422 18.8484C6.71947 14.4397 9.95951 10.7267 14.0643 8.20241L14.9348 7.73813C13.0702 11.1835 12.3904 15.1465 13.0003 19.0164C13.6603 24.4387 15.3337 29.6886 17.9333 34.4926C19.6112 37.5368 21.708 40.3304 24.1625 42.7917L24.7042 43.3721C21.2417 46.487 17.5059 49.284 13.542 51.7292ZM33.8738 30.256C33.1099 33.2407 31.6441 35.9998 29.5985 38.3036C28.6119 39.503 27.5479 40.625 26.4452 41.8631C23.3042 38.9755 20.8742 35.4001 19.3455 31.4167C18.6089 29.6095 18.5823 27.5907 19.271 25.7647C19.9598 23.9387 21.3131 22.4404 23.0598 21.57C24.344 20.8752 25.8076 20.583 27.2601 20.7313C28.7127 20.8797 30.087 21.4618 31.2042 22.4018C32.3923 23.288 33.2873 24.5101 33.7735 25.9102C34.2598 27.3104 34.3149 28.8242 33.9319 30.256H33.8738ZM36.3307 24.6846L36.0211 25.6518C34.0866 20.8929 30.8173 18.2232 25.6521 18.5521C21.2027 18.8423 18.3589 21.4539 16.7726 25.7872C16.4051 24.375 16.0569 23.1369 15.8054 21.9182C15.1214 18.9355 15.0098 15.8502 15.4765 12.8259C15.7185 10.7924 16.6486 8.90276 18.1124 7.47061C19.5763 6.03846 21.4858 5.14991 23.5241 4.95241C25.8578 4.57452 28.2428 4.65336 30.5464 5.18455C32.3869 5.5539 34.0596 6.50571 35.3173 7.89925C36.575 9.2928 37.3508 11.0541 37.5301 12.9226C38.0068 16.8797 37.6173 20.893 36.3887 24.6846H36.3307ZM42.1342 71.6548C38.407 69.6042 34.6799 67.5343 30.9527 65.445C30.1015 64.9613 29.289 64.4003 28.4958 63.878L37.8202 56.3721C37.9441 59.3418 38.727 62.2469 40.1122 64.8767C41.4974 67.5066 43.4502 69.7954 45.8292 71.5774C45.2863 71.905 44.6642 72.0782 44.0301 72.0782C43.396 72.0782 42.7739 71.905 42.231 71.5774L42.1342 71.6548ZM57.6104 73.2991C54.1259 73.2951 50.7212 72.256 47.8283 70.3136C44.9353 68.3712 42.6847 65.6132 41.362 62.3895C40.0393 59.1658 39.7041 55.6218 40.3991 52.2073C41.094 48.7928 42.7877 45.6617 45.2652 43.2115C47.7427 40.7612 50.8923 39.1022 54.3142 38.4451C57.7362 37.7879 61.2763 38.1622 64.4851 39.5205C67.694 40.8787 70.427 43.1597 72.3373 46.0739C74.2476 48.9881 75.2491 52.4041 75.2146 55.8884C75.174 60.5035 73.3187 64.9172 70.0498 68.1752C66.7809 71.4333 62.361 73.2739 57.7458 73.2991H57.6104Z" fill="#58595B"/>
<path d="M64.3803 25.7677C63.3739 25.7672 62.407 26.1589 61.6847 26.8596C60.9623 27.5602 60.5414 28.5148 60.5112 29.5207C60.5795 30.472 61.0055 31.3621 61.7037 32.0119C62.4018 32.6618 63.3201 33.023 64.2739 33.023C65.2276 33.023 66.146 32.6618 66.8441 32.0119C67.5422 31.3621 67.9683 30.472 68.0365 29.5207C68.0089 28.5506 67.6176 27.6263 66.9404 26.9311C66.2631 26.2359 65.3493 25.8207 64.3803 25.7677ZM64.3803 31.0296C63.9897 31.0404 63.6101 30.8993 63.3214 30.6359C63.0328 30.3725 62.8576 30.0074 62.8327 29.6174C62.8135 29.3173 62.8845 29.0182 63.0365 28.7587C63.1884 28.4992 63.4145 28.291 63.6857 28.1609C63.9568 28.0307 64.2607 27.9846 64.5582 28.0284C64.8558 28.0722 65.1335 28.2039 65.3556 28.4066C65.5778 28.6094 65.7343 28.8738 65.8051 29.1662C65.8759 29.4585 65.8577 29.7653 65.7528 30.0472C65.648 30.3291 65.4613 30.5732 65.2168 30.7483C64.9722 30.9233 64.6809 31.0213 64.3803 31.0296Z" fill="#58595B"/>
<path d="M58.0356 17.0045C57.0843 17.0728 56.1941 17.4989 55.5443 18.197C54.8945 18.8951 54.5332 19.8134 54.5332 20.7672C54.5332 21.7209 54.8945 22.6393 55.5443 23.3374C56.1941 24.0355 57.0843 24.4616 58.0356 24.5298C58.5524 24.5669 59.0713 24.4971 59.5599 24.3249C60.0486 24.1526 60.4965 23.8815 60.8757 23.5284C61.255 23.1754 61.5575 22.748 61.7643 22.273C61.9711 21.7979 62.0778 21.2853 62.0778 20.7672C62.0778 20.2491 61.9711 19.7365 61.7643 19.2614C61.5575 18.7864 61.255 18.359 60.8757 18.006C60.4965 17.6529 60.0486 17.3818 59.5599 17.2095C59.0713 17.0372 58.5524 16.9675 58.0356 17.0045ZM58.0356 22.2665C57.6673 22.2245 57.3273 22.0486 57.0805 21.7721C56.8336 21.4955 56.6972 21.1379 56.6972 20.7672C56.6972 20.3965 56.8336 20.0388 57.0805 19.7623C57.3273 19.4858 57.6673 19.3098 58.0356 19.2679C58.4291 19.273 58.805 19.4315 59.0833 19.7098C59.3616 19.988 59.5201 20.364 59.5251 20.7575C59.5111 21.1499 59.3502 21.5228 59.0743 21.8022C58.7985 22.0816 58.4278 22.2473 58.0356 22.2665Z" fill="#58595B"/>
<path d="M52.9279 50.9165V46.6026C52.9279 46.2156 52.9279 45.8094 52.9279 45.4031C52.9271 45.1355 52.9817 44.8707 53.0885 44.6253C53.1952 44.3799 53.3517 44.1593 53.5481 43.9775C53.7445 43.7957 53.9764 43.6566 54.2293 43.569C54.4822 43.4814 54.7505 43.4472 55.0172 43.4686C56.7841 43.4686 58.5445 43.4686 60.2985 43.4686C60.5953 43.4397 60.8949 43.476 61.1763 43.5748C61.4578 43.6736 61.7143 43.8326 61.9279 44.0407C62.1416 44.2488 62.3072 44.5011 62.4134 44.7798C62.5195 45.0586 62.5636 45.3571 62.5425 45.6546C62.5425 47.0862 62.5425 48.5177 62.5425 49.9493V50.8585H65.2315C66.1407 50.8585 67.0499 50.8585 67.9592 50.8585C68.4722 50.8585 68.9643 51.0623 69.3271 51.4251C69.6899 51.7879 69.8937 52.28 69.8937 52.793C69.8937 54.7276 69.8937 56.6621 69.8937 58.5966C69.8964 58.8751 69.839 59.151 69.7253 59.4053C69.6116 59.6595 69.4444 59.8863 69.235 60.07C69.0256 60.2536 68.779 60.3899 68.512 60.4695C68.2451 60.5491 67.9641 60.5701 67.6883 60.5311C66.2761 60.5311 64.8639 60.5311 63.4711 60.5311H62.5425V62.2915C62.5425 63.4523 62.5425 64.613 62.5425 65.7737C62.5558 66.0517 62.5118 66.3296 62.4133 66.5899C62.3147 66.8503 62.1637 67.0876 61.9696 67.2871C61.7755 67.4867 61.5424 67.6442 61.2849 67.7499C61.0274 67.8556 60.7509 67.9073 60.4726 67.9017C58.6541 67.9017 56.855 67.9017 55.0366 67.9017C54.7589 67.9017 54.484 67.8464 54.228 67.739C53.9719 67.6316 53.7399 67.4742 53.5454 67.2761C53.3508 67.078 53.1978 66.8431 53.0951 66.5851C52.9924 66.3271 52.9421 66.0513 52.9473 65.7737C52.9473 64.3615 52.9473 62.9686 52.9473 61.5564V60.6665H48.3624C46.4279 60.6665 45.6348 59.9121 45.6348 57.9389C45.6348 56.4493 45.6348 54.9597 45.6348 53.4895C45.6348 52.0192 46.4279 51.0133 48.1496 51.0133L52.9279 50.9165ZM47.8401 53.1799V58.3064C49.5425 58.3064 51.1868 58.3064 52.8505 58.3064C53.1651 58.2697 53.4839 58.3043 53.7833 58.4077C54.0827 58.5111 54.3549 58.6806 54.5798 58.9036C54.8046 59.1267 54.9764 59.3975 55.0823 59.696C55.1881 59.9945 55.2254 60.313 55.1913 60.6279C55.1913 61.5758 55.1913 62.5624 55.1913 63.4909V65.6383H60.3178V64.7677C60.3178 63.3555 60.3178 61.9433 60.3178 60.5505C60.2938 60.2463 60.3367 59.9406 60.4435 59.6548C60.5503 59.369 60.7184 59.1101 60.9359 58.8962C61.1535 58.6823 61.4153 58.5187 61.7029 58.4168C61.9904 58.3149 62.2968 58.2772 62.6005 58.3064C63.0648 58.3064 63.5485 58.3064 64.0321 58.3064H67.7077V53.1799H63.1422C61.0529 53.1799 60.3178 52.4642 60.3178 50.3749V45.8481H55.2687C55.2562 45.912 55.2562 45.9777 55.2687 46.0415C55.2687 47.5505 55.2687 49.0594 55.2687 50.5683C55.2687 52.4061 54.4949 53.1606 52.6571 53.1799H47.8401Z" fill="#58595B"/>
</g>
<defs>
<clipPath id="clip0_420_267">
<rect width="78" height="78" fill="white"/>
</clipPath>
</defs>
</svg>
