<svg width="78" height="74" viewBox="0 0 78 74" fill="none" xmlns="http://www.w3.org/2000/svg">
<path d="M73.125 41.1724C72.7188 40.6501 72.2738 40.1471 71.8482 39.6248C73.1021 38.7603 74.0045 37.4748 74.3914 36.0017C74.7783 34.5286 74.6241 32.9656 73.9568 31.5965C73.7014 30.8775 73.6643 30.099 73.8502 29.359C74.0361 28.6189 74.4366 27.9503 75.0015 27.4373C75.5225 26.9328 75.9893 26.3752 76.3943 25.7736C76.8727 24.9737 77.1637 24.0757 77.2453 23.1472C77.327 22.2188 77.1973 21.2838 76.866 20.4126C76.5346 19.5414 76.0102 18.7566 75.3322 18.1171C74.6541 17.4775 73.84 16.9999 72.9509 16.7201C71.8 16.4269 70.8122 15.6895 70.2039 14.6695C69.7589 13.8763 69.1592 13.6442 68.5402 14.0117C67.9211 14.3793 67.8051 14.9983 68.25 15.7721C68.2894 15.8259 68.3219 15.8844 68.3467 15.9462C69.2091 17.3807 70.5973 18.4218 72.2158 18.848C72.888 19.0252 73.5001 19.3802 73.9877 19.8757C74.4753 20.3712 74.8204 20.9889 74.9867 21.664C75.153 22.339 75.1343 23.0463 74.9327 23.7116C74.731 24.377 74.3538 24.9756 73.8408 25.4448C72.7373 26.3616 71.9681 27.6178 71.6532 29.0175C71.3382 30.4172 71.4952 31.8817 72.0997 33.1829C72.3827 33.9407 72.4211 34.7681 72.2094 35.5489C71.9977 36.3297 71.5467 37.0244 70.9196 37.5355C70.8252 37.6458 70.708 37.7344 70.5761 37.7951C70.4442 37.8558 70.3007 37.8872 70.1555 37.8872C70.0103 37.8872 69.8668 37.8558 69.7349 37.7951C69.603 37.7344 69.4858 37.6458 69.3914 37.5355C67.3035 35.9336 64.9107 34.7746 62.3594 34.1293C59.8081 33.484 57.152 33.366 54.5536 33.7826C53.2961 33.9567 52.0774 34.3049 50.8199 34.5951C50.8199 34.4274 50.8586 34.2726 50.936 34.1308C52.0954 30.4537 52.4313 26.5666 51.9198 22.7452C51.4082 18.9238 50.0619 15.2618 47.9762 12.0192C47.9653 11.9487 47.9653 11.8769 47.9762 11.8064C47.9326 11.7022 47.9101 11.5904 47.9101 11.4775C47.9101 11.3646 47.9326 11.2528 47.9762 11.1486C48.2462 10.6694 48.6153 10.2533 49.0589 9.92796C49.5025 9.60267 50.0103 9.3757 50.5486 9.26219C51.0868 9.14869 51.6431 9.15126 52.1802 9.26973C52.7174 9.3882 53.2231 9.61985 53.6637 9.94923C54.7437 10.7502 56.0527 11.1826 57.3973 11.1826C58.7419 11.1826 60.0509 10.7502 61.131 9.94923C61.9152 9.35694 62.8955 9.08532 63.8728 9.18951C64.8501 9.2937 65.7511 9.7659 66.3929 10.5102C66.5147 10.6489 66.6585 10.7665 66.8185 10.8585C67.0058 11.0382 67.2553 11.1385 67.5149 11.1385C67.7745 11.1385 68.024 11.0382 68.2113 10.8585C68.7143 10.3555 68.6369 9.67839 67.9985 8.92393C67.0205 7.85993 65.6981 7.17553 64.2646 6.99149C62.8312 6.80744 61.3788 7.13556 60.1637 7.91798C59.3729 8.52507 58.4039 8.85416 57.407 8.85416C56.4101 8.85416 55.441 8.52507 54.6503 7.91798C53.3826 7.10082 51.8576 6.78114 50.3685 7.0204C48.8793 7.25966 47.5312 8.04097 46.5833 9.21411L46.2158 9.67839L45.7515 9.21411C37.9554 0.663512 28.4568 -1.98679 17.5655 1.47601C11.8401 3.3866 6.97419 7.25917 3.82728 12.4096C0.680375 17.5601 -0.545021 23.657 0.367559 29.6233C1.07235 34.62 2.94826 39.3794 5.84226 43.5132C7.50595 45.9701 9.28572 48.1948 11.2202 50.5742C11.0848 50.5742 10.8527 50.8257 10.5818 50.9611C8.20238 52.2573 5.82292 53.5727 3.42411 54.8302C2.09245 55.4337 1.03124 56.5087 0.44494 57.848C0.270833 58.2543 0.154762 58.6799 0 59.1055V60.9046C1.12202 63.5162 2.20536 66.1278 3.38542 68.6427C3.74512 69.4861 4.31092 70.2257 5.03088 70.7936C5.75084 71.3614 6.6019 71.7394 7.50595 71.8927C9.23771 72.139 10.9988 71.7246 12.439 70.732C12.6129 70.6966 12.7762 70.6212 12.9159 70.5117C13.0556 70.4022 13.1678 70.2616 13.2436 70.1011C13.3195 69.9407 13.3569 69.7647 13.3528 69.5873C13.3487 69.4098 13.3033 69.2358 13.2202 69.079C13.1371 68.9221 13.0185 68.7868 12.874 68.6839C12.7294 68.5809 12.5628 68.513 12.3875 68.4857C12.2121 68.4584 12.0328 68.4723 11.8637 68.5264C11.6947 68.5805 11.5406 68.6733 11.4137 68.7974L10.1369 69.4358C9.713 69.6466 9.2502 69.7677 8.77739 69.7915C8.30458 69.8154 7.83194 69.7415 7.38897 69.5745C6.946 69.4075 6.54223 69.1509 6.20288 68.8208C5.86353 68.4908 5.59588 68.0942 5.41667 67.6561C4.43006 65.6055 3.48214 63.5549 2.59226 61.4462C2.39155 61.0397 2.27758 60.5959 2.2576 60.143C2.23762 59.69 2.31206 59.2379 2.47619 58.8153C2.67076 58.3364 2.95932 57.9014 3.3248 57.5359C3.69029 57.1704 4.12531 56.8819 4.60417 56.6873C11.346 53.4182 17.6989 49.4014 23.5432 44.7126C27.8674 41.3576 31.5115 37.2079 34.2798 32.4864C37.0897 27.4471 38.8593 21.895 39.4836 16.159C40.0334 12.5259 39.4313 8.81186 37.7619 5.53851C40.3282 6.95172 42.5898 8.8583 44.4167 11.1486C47.1299 14.4662 48.9025 18.4515 49.549 22.6883C50.1956 26.925 49.6925 31.2576 48.0923 35.2335C47.9179 35.7807 47.5453 36.243 47.0476 36.5296C44.6881 37.959 42.6534 39.8659 41.0743 42.128C39.4952 44.3901 38.4065 46.9573 37.878 49.665C37.7561 50.1903 37.5032 50.6761 37.1429 51.0772C33.2867 54.8701 29.054 58.2602 24.5104 61.1948C21.8988 62.8971 19.2098 64.4448 16.5595 66.0891C16.2307 66.2826 15.8051 66.5727 15.747 66.9016C15.7166 67.1121 15.7283 67.3265 15.7815 67.5324C15.8346 67.7383 15.9281 67.9315 16.0565 68.101C16.4435 68.5653 17.0045 68.4492 17.5074 68.101C20.119 66.5147 22.75 64.9477 25.3423 63.3227C25.545 63.151 25.802 63.0567 26.0677 63.0567C26.3334 63.0567 26.5905 63.151 26.7932 63.3227C31.3165 66.3275 36.0342 69.0289 40.9152 71.409C41.837 71.9092 42.881 72.1399 43.9278 72.075C44.9745 72.0099 45.9819 71.6518 46.8348 71.0415C47.0344 70.8877 47.2793 70.8044 47.5312 70.8044C47.7832 70.8044 48.0281 70.8877 48.2277 71.0415C51.9877 73.0305 56.3029 73.7111 60.4926 72.976C63.9095 72.4477 67.1292 71.036 69.8328 68.8807C72.5363 66.7253 74.6299 63.9011 75.9063 60.6878C77.1826 57.4744 77.5974 53.9834 77.1096 50.5604C76.6218 47.1375 75.2482 43.9013 73.125 41.1724ZM13.1548 49.3361C11.6845 47.5177 10.1369 45.7186 8.74405 43.8227C5.77569 39.8874 3.73848 35.3302 2.78571 30.4939C1.88328 25.7603 2.44176 20.8642 4.38701 16.4554C6.33226 12.0466 9.5723 8.33365 13.6771 5.80934L14.5476 5.34506C12.683 8.79047 12.0032 12.7535 12.6131 16.6233C13.2731 22.0456 14.9465 27.2955 17.5461 32.0995C19.224 35.1437 21.3208 37.9374 23.7753 40.3986L24.317 40.979C20.8545 44.094 17.1187 46.891 13.1548 49.3361ZM33.4866 27.8629C32.7227 30.8476 31.2569 33.6067 29.2113 35.9105C28.2247 37.1099 27.1607 38.232 26.058 39.4701C22.917 36.5825 20.487 33.007 18.9583 29.0236C18.2217 27.2164 18.195 25.1976 18.8838 23.3716C19.5726 21.5456 20.9259 20.0473 22.6726 19.1769C23.9568 18.4821 25.4204 18.1899 26.8729 18.3383C28.3255 18.4866 29.6997 19.0687 30.817 20.0087C32.0051 20.8949 32.9001 22.117 33.3863 23.5172C33.8726 24.9173 33.9277 26.4311 33.5446 27.8629H33.4866ZM35.9435 22.2915L35.6339 23.2587C33.6994 18.4998 30.4301 15.8302 25.2649 16.159C20.8155 16.4492 17.9717 19.0608 16.3854 23.3942C16.0179 21.982 15.6696 20.7439 15.4182 19.5251C14.7342 16.5425 14.6226 13.4571 15.0893 10.4329C15.3313 8.39933 16.2614 6.50969 17.7252 5.07754C19.189 3.64539 21.0986 2.75684 23.1369 2.55935C25.4706 2.18145 27.8555 2.26029 30.1592 2.79149C31.9997 3.16083 33.6724 4.11265 34.9301 5.50619C36.1878 6.89973 36.9636 8.66101 37.1429 10.5296C37.6196 14.4866 37.2301 18.5 36.0015 22.2915H35.9435ZM41.747 69.2617C38.0198 67.2111 34.2927 65.1412 30.5655 63.0519C29.7143 62.5683 28.9018 62.0073 28.1086 61.4849L37.433 53.979C37.5569 56.9488 38.3398 59.8538 39.725 62.4837C41.1102 65.1135 43.063 67.4024 45.442 69.1843C44.899 69.512 44.277 69.6851 43.6429 69.6851C43.0087 69.6851 42.3867 69.512 41.8438 69.1843L41.747 69.2617ZM57.2232 70.9061C53.7387 70.9021 50.334 69.8629 47.441 67.9206C44.5481 65.9782 42.2975 63.2201 40.9748 59.9964C39.6521 56.7727 39.3169 53.2288 40.0119 49.8142C40.7068 46.3997 42.4005 43.2687 44.878 40.8184C47.3555 38.3681 50.505 36.7092 53.927 36.052C57.349 35.3948 60.8891 35.7691 64.0979 37.1274C67.3068 38.4856 70.0398 40.7666 71.9501 43.6808C73.8604 46.595 74.8619 50.011 74.8274 53.4954C74.7868 58.1104 72.9315 62.5241 69.6626 65.7822C66.3937 69.0402 61.9738 70.8808 57.3586 70.9061H57.2232Z" fill="#58595B"/>
</svg>
