<svg width="76" height="78" viewBox="0 0 76 78" fill="none" xmlns="http://www.w3.org/2000/svg">
<path fill-rule="evenodd" clip-rule="evenodd" d="M35.1631 28.8162C35.3923 28.9309 35.3812 29.1601 35.4385 29.3436C38.1607 37.8545 40.8751 46.3659 43.582 54.8768C44.0064 56.2073 44.4657 56.689 45.3145 56.6776C46.163 56.6659 46.633 56.1265 46.9541 54.7274C48.147 49.5735 49.3169 44.4194 50.4639 39.2655C50.7736 39.2655 50.7622 39.5758 50.8311 39.7479C51.611 41.5486 52.3795 43.338 53.125 45.1502C53.4232 45.8498 53.8135 46.4111 54.6621 46.4227C55.5108 46.4342 55.9696 45.8841 56.2793 45.1502L60.1797 36.1688C60.3058 35.905 60.3515 35.5839 60.7871 35.5838H71.833C71.4201 36.3293 71.0765 36.9833 70.6865 37.6141C68.1387 41.6749 65.0512 45.3713 61.5098 48.6024C54.7884 54.9567 48.0556 61.2883 41.8389 68.1014C40.6918 69.3975 39.4527 70.6483 38.3057 71.9559C37.9387 72.3687 37.7547 72.3688 37.3877 71.9559C32.9718 67.1156 28.4875 62.3553 23.8193 57.7674C20.0571 54.0625 16.065 50.598 12.3486 46.8358C9.77571 44.2862 7.46987 41.4807 5.4668 38.4627C5.30624 38.3251 5.11068 38.1646 5.12207 37.8436H22.7861C23.0049 37.8227 23.2247 37.877 23.4082 37.9979C23.5918 38.1189 23.7288 38.2992 23.7959 38.5086C25.0806 41.1926 26.3841 43.8692 27.707 46.5379C27.7758 46.7498 27.8906 46.9438 28.043 47.1063C28.1953 47.2687 28.3819 47.3952 28.5889 47.4774C28.7959 47.5595 29.0189 47.5956 29.2412 47.5819C29.4634 47.5681 29.6798 47.5052 29.875 47.3983C30.1097 47.2548 30.3102 47.061 30.4609 46.8309C30.6117 46.6008 30.7093 46.3397 30.7471 46.0672L34.9795 29.4471C35.0368 29.2407 35.0943 29.0341 35.1631 28.8162ZM49.9248 6.30062C53.0155 5.50241 56.264 5.54999 59.3301 6.43831C62.7063 7.30155 65.8024 9.02214 68.3184 11.4334C70.8343 13.8449 72.6848 16.8662 73.6904 20.203C74.0803 21.3498 74.1272 22.611 74.54 23.7694L74.5508 27.6239C74.138 28.7706 74.1154 29.9175 73.7256 31.0643C73.2324 32.5095 73.2665 32.5213 71.7295 32.5213H60.1221C59.6225 32.4725 59.1211 32.5979 58.7031 32.8758C58.2852 33.1537 57.9754 33.5672 57.8271 34.0467C56.9095 36.1113 55.9694 38.1649 55.0518 40.241L54.708 40.9979C53.9051 39.0939 53.1247 37.2359 52.3447 35.4237C52.1039 34.8731 51.8864 34.276 51.6455 33.7713C51.2326 32.8195 50.7274 32.4408 49.959 32.5096C49.1905 32.5784 48.7314 33.0835 48.502 34.0584C47.8138 37.0176 47.1259 39.9999 46.4492 42.9705C45.9675 45.0351 45.4859 47.0885 44.9697 49.325C44.0522 46.4462 43.1803 43.7281 42.3086 41.0213L36.5615 23.036C36.1715 21.8316 35.4149 21.3383 34.4629 21.6825C34.1832 21.7962 33.9379 21.9805 33.751 22.2176C33.564 22.4549 33.4418 22.7373 33.3965 23.036C31.8671 28.9698 30.337 34.8998 28.8076 40.826C28.7503 41.0439 28.693 41.262 28.5898 41.5946C27.7181 39.7708 26.8469 38.0727 26.0898 36.3407C25.9238 35.8776 25.6077 35.4833 25.1924 35.2196C24.777 34.9558 24.2857 34.838 23.7959 34.8846H4.16992C3.95449 34.913 3.73545 34.8635 3.55273 34.7459C3.37023 34.6283 3.23515 34.4497 3.17188 34.242C2.29605 32.2662 1.66855 30.1894 1.30273 28.0594C1.30273 27.9448 1.30226 27.8077 1.15332 27.7733V23.6209C1.44008 23.3686 1.37136 23.0127 1.42871 22.703C1.88639 19.9285 2.92003 17.2804 4.46289 14.9295C6.00571 12.5788 8.02362 10.5773 10.3867 9.05355C13.2835 7.13969 16.6362 6.02707 20.1025 5.82991C23.3025 5.54505 26.516 6.20309 29.3467 7.72249C32.8669 9.706 35.6459 12.7827 37.2617 16.4862C37.4567 16.8761 37.6173 17.2775 37.8467 17.7821C38.512 16.1221 39.3662 14.5443 40.3926 13.0799C42.651 9.74737 46.0356 7.34023 49.9248 6.30062Z" fill="#EE4423"/>
</svg>
