<svg width="56" height="78" viewBox="0 0 56 78" fill="none" xmlns="http://www.w3.org/2000/svg">
<g clip-path="url(#clip0_404_247)">
<path d="M11.4907 32.7209C11.4907 32.7209 42.5844 49.1789 55.0179 47.1119L53.5447 51.7334L45.6878 56.3744L32.7633 54.9119L18.7387 50.2124L13.9264 44.5379L11.4907 32.7209Z" fill="#EE4423"/>
<path d="M16.185 10.2376C16.0993 9.57937 15.968 8.92782 15.7921 8.28755C15.5751 7.76545 15.4838 7.20024 15.5257 6.63695C15.5675 6.07365 15.7413 5.52785 16.0332 5.04301C16.325 4.55818 16.7269 4.14772 17.2068 3.84434C17.6868 3.54096 18.2314 3.35304 18.7974 3.29555C19.7206 3.12005 20.6438 2.90555 21.5866 2.78855C22.6787 2.59046 23.666 2.01757 24.3758 1.17005C24.7747 0.709757 25.294 0.367832 25.8763 0.182016C26.4586 -0.00379999 27.0813 -0.0262815 27.6757 0.117053C28.2819 0.220178 28.8359 0.522114 29.2489 0.974593C29.662 1.42707 29.9103 2.00397 29.9542 2.61305C30.0524 3.54905 30.5434 3.84155 31.447 3.49055C31.8553 3.22919 32.3224 3.07212 32.8067 3.03335C33.291 2.99457 33.7774 3.07529 34.2226 3.26831C34.6679 3.46134 35.0582 3.76068 35.3587 4.13967C35.6592 4.51867 35.8606 4.96556 35.9451 5.44055C36.2397 6.25955 36.554 7.05905 36.77 7.89755C36.9498 8.47131 36.9249 9.08903 36.6995 9.64667C36.4741 10.2043 36.062 10.6678 35.5326 10.9591C34.7862 11.4856 33.9808 11.9341 33.2344 12.4801C32.2714 13.1869 31.5788 14.1977 31.2702 15.3466C31.2045 15.4832 31.1705 15.6327 31.1707 15.7841C31.1708 15.9355 31.2052 16.085 31.2711 16.2215C31.337 16.358 31.4329 16.4782 31.5517 16.5731C31.6705 16.668 31.8092 16.7353 31.9577 16.7701C37.5244 19.1734 42.5829 22.6007 46.8661 26.871C51.2935 31.0714 54.3227 36.5143 55.548 42.4711C56.0554 44.7182 56.0554 47.0489 55.548 49.2961C55.0634 51.2197 54.0285 52.9631 52.5682 54.316C51.1079 55.6689 49.2845 56.5734 47.3179 56.9206C44.8424 57.4335 42.294 57.4996 39.7949 57.1156C34.5448 56.6617 29.3719 55.5613 24.3954 53.8396C22.897 53.278 21.4342 52.6269 20.0152 51.8895C17.815 50.8987 15.9081 49.3634 14.4773 47.4308C13.0464 45.4981 12.1397 43.233 11.844 40.8526C11.3697 37.8998 11.1593 34.9111 11.2155 31.9216C11.2073 31.4436 11.1004 30.9723 10.9012 30.5371C10.0566 28.743 9.15306 26.9491 8.22987 25.194C8.00063 24.7712 7.68642 24.3995 7.30669 24.1021C6.0103 23.1271 4.67463 22.1521 3.37824 21.2356C2.98264 20.9892 2.65464 20.6495 2.4235 20.2466C2.19236 19.8438 2.06529 19.3904 2.05362 18.927C2.04195 18.4635 2.14604 18.0044 2.35661 17.5906C2.56719 17.1768 2.87768 16.8212 3.26039 16.5555C3.7318 16.1851 4.20321 15.8341 4.65498 15.4441C5.13308 14.9962 5.74746 14.7188 6.40164 14.6552C7.05581 14.5917 7.71271 14.7457 8.26916 15.0931C9.15306 15.5806 9.29055 15.5026 9.29055 14.5081C9.29055 13.8646 9.29055 13.2211 9.29055 12.5581C9.28368 12.1575 9.36443 11.7603 9.52723 11.3937C9.69003 11.0272 9.93101 10.7001 10.2335 10.435C10.536 10.1699 10.8929 9.97308 11.2795 9.8582C11.666 9.74332 12.0731 9.71307 12.4726 9.76955L16.185 10.2376ZM13.6118 33.9496H13.3958C13.7886 36.5625 14.1815 39.156 14.594 41.7495C14.7902 43.1232 15.2921 44.4362 16.0634 45.5931C16.8346 46.7501 17.8558 47.7219 19.0527 48.438C20.9178 49.6148 22.8908 50.6137 24.9454 51.4216C29.7891 53.1782 34.8507 54.2737 39.9914 54.6781C42.0301 54.9706 44.1006 54.9706 46.1394 54.6781C47.8551 54.5114 49.4706 53.7986 50.745 52.6459C52.0193 51.4933 52.8842 49.9625 53.2106 48.2821C53.4561 46.7447 53.4561 45.1785 53.2106 43.6411C52.3553 38.3606 49.879 33.471 46.1197 29.6401C41.8079 25.0508 36.5844 21.3989 30.7792 18.9151C30.3874 18.7941 30.0244 18.5959 29.7118 18.3322C29.3991 18.0685 29.1434 17.7448 28.96 17.3806C28.7765 17.0163 28.6691 16.619 28.6442 16.2125C28.6193 15.806 28.6773 15.3987 28.8149 15.0151C29.2988 13.0011 30.5526 11.2529 32.3112 10.1401C32.9987 9.63305 34.0594 9.16505 34.2755 8.50205C34.4915 7.83905 33.7844 6.86405 33.5094 6.02555C33.3523 5.53805 33.1166 5.53805 32.6844 5.53805C27.0078 7.70255 22.9812 12.0901 23.4526 18.6031C23.5269 19.2113 23.3929 19.8266 23.0723 20.3501C22.7516 20.8735 22.2629 21.2747 21.6848 21.4891C20.6241 21.9571 19.5831 22.5226 18.5028 22.9321C17.509 23.3473 16.6261 23.9863 15.9239 24.7985C15.2216 25.6107 14.7192 26.5739 14.4565 27.6121C13.8257 29.664 13.5403 31.8053 13.6118 33.9496ZM28.1667 5.07005C27.9035 4.43833 27.6933 3.78612 27.5382 3.12005C27.4203 2.39855 27.0471 2.39855 26.5757 2.61305C26.3175 2.75575 26.0851 2.94029 25.8882 3.15905C24.9208 4.20213 23.6262 4.88942 22.2151 5.10905C21.1937 5.24555 20.2509 5.49905 19.1902 5.69405C18.1296 5.88905 17.776 6.45455 18.1296 7.42955C18.6504 8.91998 18.6504 10.5411 18.1296 12.0316C17.7732 13.1866 17.504 14.3663 17.3242 15.5611C17.0411 17.276 17.2592 19.0355 17.9528 20.6311C18.7581 20.2606 19.4849 19.8901 20.2509 19.6171C20.5195 19.5395 20.7482 19.3632 20.8905 19.1241C21.0329 18.885 21.0781 18.6011 21.017 18.3301C20.864 16.0757 21.2691 13.8184 22.1969 11.7551C23.1248 9.69193 24.5472 7.88551 26.34 6.49355C26.9489 5.92805 27.6757 5.53805 28.1667 5.07005ZM11.9619 27.1051C11.9619 27.0076 12.119 26.9881 12.1387 26.949C12.7447 25.0042 13.8798 23.2633 15.4189 21.9181C15.5564 21.8011 15.5564 21.4111 15.4189 21.1771C15.2029 19.6366 14.8297 18.1156 14.7707 16.5751C14.8013 15.267 14.9327 13.9632 15.1636 12.6751L12.394 12.3241C11.8244 12.3241 11.6673 12.5191 11.6673 13.0066C11.6673 13.4941 11.6673 14.5276 11.6673 15.2686C11.6663 15.7273 11.5472 16.1782 11.3213 16.5784C11.0954 16.9786 10.7702 17.3148 10.3766 17.5551C9.98301 17.7955 9.53405 17.9319 9.07237 17.9515C8.6107 17.9711 8.15165 17.8732 7.73882 17.6671C7.37347 17.4053 6.91877 17.2973 6.47366 17.3667C6.02855 17.4361 5.62906 17.6772 5.36211 18.0375C5.18597 18.2035 4.99534 18.3536 4.79248 18.4861C4.32107 18.8176 4.34071 19.1101 4.79248 19.4221C5.67638 20.0461 6.521 20.7481 7.42454 21.3721C9.08215 22.3244 10.3533 23.8208 11.0191 25.6035C11.3137 26.0131 11.628 26.5201 11.9619 27.1051Z" fill="#58595B"/>
<path d="M35.9846 63.726L43.7039 61.3665L47.6324 60.1575C48.7368 59.7857 49.9447 59.8644 50.9907 60.3763C52.0367 60.8882 52.8352 61.7914 53.2108 62.8875C53.6342 63.9842 53.6033 65.2026 53.1249 66.2768C52.6465 67.3509 51.7594 68.1935 50.6573 68.6205C45.0396 70.9085 39.4088 73.164 33.765 75.387C31.7791 76.2637 29.7463 77.0318 27.6759 77.688C26.1411 78.068 24.5457 78.143 22.9816 77.9087C21.4175 77.6745 19.9155 77.1356 18.5619 76.323C17.0261 75.3471 15.3101 74.6843 13.5138 74.373H12.4532C12.1935 74.323 11.9244 74.3613 11.6893 74.4815C11.4541 74.6018 11.2666 74.7971 11.1568 75.036C10.8264 75.5345 10.3734 75.9411 9.84072 76.2175C9.308 76.4939 8.7131 76.6309 8.11223 76.6155C6.14801 76.6155 4.36056 76.6155 2.47491 76.6155C1.61065 76.6155 1.11959 76.206 1.09995 75.465C1.08031 74.724 1.57137 74.217 2.45527 74.1975H7.73903C8.97649 74.1975 9.40862 73.749 9.38897 72.5205L9.09434 58.4415C9.09434 57.018 8.64257 56.6475 7.13012 56.6475H1.53208C0.569613 56.6475 0.0196301 56.199 -1.21555e-05 55.458C-0.0196544 54.717 0.569612 54.21 1.55172 54.21C3.51595 54.21 5.57838 54.21 7.58189 54.21C8.25245 54.1979 8.91497 54.3564 9.50636 54.6704C10.0977 54.9844 10.5983 55.4435 10.9604 56.004C11.1018 56.1099 11.264 56.1854 11.4364 56.2256C11.6089 56.2659 11.7879 56.2701 11.9621 56.238C13.9497 56.0765 15.9501 56.295 17.8548 56.8815C18.894 57.266 19.8992 57.7357 20.86 58.2855C22.6707 59.3515 24.7463 59.8919 26.8509 59.8455C28.5205 59.8455 30.2097 59.8455 31.899 59.8455C32.4013 59.7945 32.9089 59.8431 33.3922 59.9885C33.8754 60.1339 34.3248 60.3733 34.7141 60.6926C35.1034 61.0119 35.4248 61.4049 35.6598 61.8486C35.8948 62.2924 36.0385 62.7781 36.0828 63.2775C35.906 63.3945 35.9453 63.531 35.9846 63.726ZM11.7853 71.721C12.8264 71.8575 13.7495 71.9355 14.6531 72.0915C16.5315 72.5198 18.3242 73.2581 19.9565 74.2755C21.2512 75.0065 22.6951 75.4387 24.1811 75.54C25.6671 75.6413 27.157 75.409 28.5401 74.8605C35.5328 72.111 42.5254 69.2835 49.4984 66.495C49.7828 66.4203 50.0484 66.2878 50.2784 66.1058C50.5084 65.9238 50.6977 65.6962 50.8344 65.4377C50.9711 65.1791 51.0521 64.8952 51.0724 64.6039C51.0926 64.3125 51.0516 64.0202 50.9519 63.7455C50.5591 62.5755 49.518 62.1465 48.0842 62.5755L36.0435 66.261C35.4542 66.4365 34.8649 66.6705 34.2757 66.8655C33.5112 67.1663 32.7133 67.3758 31.899 67.4895C29.7973 67.626 27.7152 67.6065 25.6135 67.626H22.1171C21.8006 67.6368 21.4923 67.5247 21.2576 67.3136C21.0229 67.1024 20.8803 66.8088 20.86 66.495C20.8486 66.1818 20.9582 65.8761 21.1663 65.6405C21.3744 65.4049 21.6654 65.2571 21.9796 65.2275C22.2215 65.2081 22.4645 65.2081 22.7064 65.2275L31.7418 65.091C32.8222 65.091 33.4703 64.5255 33.4507 63.687C33.4311 62.8485 32.8222 62.283 31.7418 62.283C30.6615 62.283 29.5223 62.283 28.4027 62.283C24.9588 62.5972 21.5067 61.7747 18.5815 59.943C16.4125 58.7669 13.9063 58.3545 11.4711 58.773L11.7853 71.721Z" fill="#58595B"/>
<path d="M6.06955 69.4005C6.06072 69.724 5.93128 70.0327 5.70629 70.2669C5.48131 70.501 5.17679 70.644 4.85173 70.668C4.51122 70.6733 4.1823 70.5453 3.93604 70.3118C3.68978 70.0783 3.54598 69.7579 3.5357 69.42C3.51329 69.2417 3.52933 69.0607 3.58276 68.889C3.63618 68.7173 3.72577 68.5589 3.84558 68.4242C3.96539 68.2895 4.11267 68.1816 4.27768 68.1077C4.44268 68.0338 4.62161 67.9956 4.80262 67.9956C4.98363 67.9956 5.16257 68.0338 5.32757 68.1077C5.49257 68.1816 5.63986 68.2895 5.75967 68.4242C5.87948 68.5589 5.96907 68.7173 6.02249 68.889C6.07592 69.0607 6.09196 69.2417 6.06955 69.42V69.4005Z" fill="#58595B"/>
<path d="M38.9704 28.938C39.3112 29.0496 39.635 29.2071 39.9328 29.406C42.2414 31.4709 43.8474 34.1963 44.5291 37.206C44.7059 38.1615 44.313 38.8245 43.5274 38.9415C42.7417 39.0585 42.2899 38.571 42.1131 37.6155C41.5214 35.219 40.2621 33.0362 38.4793 31.317C38.1424 30.9287 37.9731 30.4243 38.0079 29.913C38.0668 29.562 38.6364 29.2695 38.9704 28.938Z" fill="#58595B"/>
</g>
<defs>
<clipPath id="clip0_404_247">
<rect width="56" height="78" fill="white"/>
</clipPath>
</defs>
</svg>
