<svg width="32" height="31" viewBox="0 0 32 31" fill="none" xmlns="http://www.w3.org/2000/svg">
<g clip-path="url(#clip0_994_22)">
<path d="M18.4666 27.5105C16.854 27.97 15.146 27.97 13.5333 27.5105L12.3462 29.569C12.144 29.9312 11.9417 30.2934 11.7307 30.6468C11.6909 30.7414 11.6259 30.823 11.5428 30.8828C11.4597 30.9426 11.3617 30.9781 11.2598 30.9854C11.1578 30.9927 11.0559 30.9715 10.9652 30.9243C10.8744 30.877 10.7985 30.8054 10.7458 30.7174C10.3413 30.2315 9.93676 29.7457 9.55863 29.2421C9.50008 29.1525 9.41548 29.0833 9.31635 29.0438C9.21722 29.0042 9.10837 28.9964 9.00463 29.0212C8.25717 29.1537 7.50972 29.2598 6.77105 29.3923C6.6562 29.4283 6.53312 29.4282 6.41836 29.3918C6.3036 29.3555 6.20266 29.2848 6.12912 29.1891C6.0565 29.084 6.01758 28.9592 6.01758 28.8313C6.01758 28.7034 6.0565 28.5785 6.12912 28.4735C6.94692 27.0777 7.74714 25.673 8.56495 24.2683C8.62219 24.1886 8.65299 24.0928 8.65299 23.9944C8.65299 23.8961 8.62219 23.8003 8.56495 23.7206C7.86382 22.6003 7.42214 21.3362 7.27253 20.0214C7.12292 18.7067 7.26921 17.375 7.70059 16.1247C8.13197 14.8744 8.83742 13.7374 9.76484 12.7978C10.6923 11.8581 11.8179 11.1397 13.0588 10.6957C14.2996 10.2517 15.6238 10.0934 16.9337 10.2326C18.2436 10.3717 19.5056 10.8046 20.6266 11.4995C21.7476 12.1943 22.6989 13.1333 23.4102 14.247C24.1216 15.3607 24.5748 16.6207 24.7364 17.934C24.9981 19.9596 24.537 22.0129 23.435 23.7294C23.3757 23.8032 23.3434 23.8952 23.3434 23.99C23.3434 24.0849 23.3757 24.1768 23.435 24.2506L25.8268 28.394C25.9675 28.6502 26.0819 28.8976 25.8972 29.1714C25.7125 29.4453 25.4575 29.4276 25.1673 29.3746L23.0393 29.0389C22.9318 29.0065 22.8167 29.0105 22.7118 29.0504C22.6069 29.0904 22.518 29.1639 22.4589 29.2598C22.1159 29.7192 21.7378 30.1432 21.3773 30.6026C21.0167 31.062 20.5682 31.1327 20.1989 30.4877L18.4666 27.5105ZM16.0044 11.2729C14.4816 11.2729 12.9929 11.7263 11.7265 12.5759C10.4601 13.4255 9.47276 14.6331 8.88921 16.0462C8.30566 17.4593 8.15209 19.0144 8.4479 20.5151C8.7437 22.0159 9.47562 23.3948 10.5512 24.4779C11.6267 25.5609 12.9977 26.2993 14.4908 26.5999C15.9839 26.9005 17.5322 26.7498 18.9401 26.1668C20.348 25.5837 21.5523 24.5945 22.4008 23.3242C23.2494 22.0539 23.7041 20.5594 23.7076 19.0295C23.7134 18.0107 23.5182 17.0009 23.1334 16.0584C22.7485 15.1158 22.1816 14.2592 21.4654 13.538C20.7492 12.8168 19.8978 12.2453 18.9605 11.8565C18.0231 11.4677 17.0184 11.2694 16.0044 11.2729ZM9.45311 24.9397L7.60645 28.1466C8.21321 28.0583 8.74082 27.9876 9.26844 27.8816C9.42234 27.8377 9.58612 27.844 9.73623 27.8996C9.88633 27.9552 10.015 28.0571 10.1038 28.1908C10.4292 28.6148 10.7722 29.0212 11.1415 29.4718L12.4869 27.1307C11.3373 26.6161 10.3049 25.8705 9.45311 24.9397ZM20.8848 29.4718C21.2454 29.0301 21.5883 28.5883 21.9049 28.2085C21.9935 28.0625 22.1285 27.9509 22.2881 27.8916C22.4476 27.8323 22.6224 27.8288 22.7842 27.8816C23.3119 27.9964 23.8395 28.0494 24.4374 28.1466L22.626 24.9751C22.1423 25.3903 21.6938 25.8585 21.2014 26.1854C20.7089 26.5123 20.1462 26.8391 19.5922 27.1748L20.8848 29.4718Z" fill="white"/>
<path d="M13.7357 8.29553C13.6485 8.3034 13.5606 8.29037 13.4794 8.25751C13.3981 8.22466 13.3258 8.17292 13.2683 8.10653C13.2108 8.04014 13.1697 7.961 13.1486 7.87561C13.1274 7.79021 13.1267 7.70099 13.1466 7.61528C13.2521 6.96153 13.3664 6.29895 13.4983 5.65403C13.5344 5.5601 13.5411 5.45733 13.5176 5.35945C13.494 5.26158 13.4413 5.17326 13.3664 5.1063C12.8915 4.67341 12.4343 4.22286 11.9682 3.7723C11.8615 3.70747 11.7788 3.60936 11.7328 3.49292C11.6867 3.37648 11.6798 3.24811 11.7132 3.12739C11.7549 3.00259 11.8356 2.89471 11.9434 2.81986C12.0512 2.74502 12.1802 2.70724 12.3112 2.71217C12.9355 2.63266 13.5599 2.51781 14.1842 2.45597C14.2844 2.45357 14.3813 2.41998 14.4616 2.35985C14.542 2.29971 14.6017 2.21599 14.6327 2.12026C14.8965 1.54603 15.1779 0.980622 15.4505 0.406384C15.4879 0.288295 15.5617 0.18524 15.6613 0.112168C15.7609 0.0390957 15.8811 -0.000193108 16.0045 7.13691e-07C16.1252 0.00662493 16.2411 0.0498502 16.3368 0.123976C16.4326 0.198102 16.5037 0.299646 16.5409 0.415219C16.8311 1.01596 17.1125 1.6167 17.4203 2.1821C17.4538 2.24075 17.4994 2.29156 17.5539 2.33116C17.6085 2.37076 17.6709 2.39825 17.7368 2.4118C18.3788 2.52665 19.0207 2.60616 19.6714 2.6945C19.944 2.6945 20.1815 2.80051 20.2782 3.10972C20.3145 3.23114 20.311 3.36106 20.2682 3.48034C20.2255 3.59962 20.1457 3.70196 20.0408 3.7723C19.5659 4.22286 19.091 4.65574 18.6338 5.14164C18.5386 5.25454 18.4912 5.40044 18.5019 5.54802C18.6074 6.2106 18.7305 6.86435 18.8536 7.5181C18.8912 7.63417 18.8911 7.75927 18.8531 7.87524C18.8152 7.99121 18.7414 8.09201 18.6426 8.16301C18.5488 8.22996 18.4366 8.26594 18.3216 8.26594C18.2066 8.26594 18.0944 8.22996 18.0006 8.16301C17.4203 7.84497 16.8311 7.5446 16.2419 7.21773C16.167 7.16975 16.0801 7.14427 15.9913 7.14427C15.9025 7.14427 15.8155 7.16975 15.7407 7.21773C15.1867 7.53577 14.6151 7.83614 14.0523 8.10117C13.9468 8.21602 13.8149 8.26019 13.7357 8.29553ZM14.4216 6.71416C14.8349 6.4933 15.1955 6.31662 15.5472 6.10459C15.6841 6.00922 15.8467 5.95811 16.0133 5.95811C16.1799 5.95811 16.3425 6.00922 16.4793 6.10459C16.8223 6.30778 17.1828 6.4933 17.5873 6.70533C17.4994 6.2106 17.4378 5.77772 17.3411 5.3625C17.3093 5.22804 17.3155 5.08733 17.359 4.95621C17.4025 4.8251 17.4816 4.7088 17.5873 4.62041C17.8863 4.3112 18.1765 3.98433 18.4667 3.66629C18.071 3.61328 17.6489 3.53377 17.218 3.4896C17.0806 3.48273 16.9483 3.43555 16.8373 3.3539C16.7263 3.27225 16.6416 3.15972 16.5937 3.03021C16.4178 2.64149 16.2243 2.26161 16.0045 1.81106C15.7846 2.26161 15.5824 2.6945 15.4065 3.03904C15.3615 3.1629 15.2821 3.27119 15.1776 3.35105C15.0732 3.43091 14.9482 3.479 14.8173 3.4896C14.3777 3.54261 13.938 3.61328 13.4455 3.68396C13.7973 4.0285 14.1051 4.32887 14.4216 4.62041C14.5284 4.70781 14.6076 4.82442 14.6497 4.95612C14.6919 5.08783 14.6951 5.22898 14.6591 5.3625C14.5623 5.77772 14.5008 6.21944 14.4216 6.71416Z" fill="white"/>
<path d="M24.798 12.6864C24.9211 12.0327 25.0354 11.3524 25.1673 10.6722C25.2016 10.5651 25.2023 10.45 25.1693 10.3425C25.1363 10.2351 25.0711 10.1404 24.9826 10.0714C24.5078 9.65622 24.1033 9.18799 23.6108 8.76394C23.5132 8.69377 23.4396 8.59492 23.4003 8.481C23.3609 8.36709 23.3577 8.24371 23.391 8.12786C23.4269 8.01398 23.4968 7.91394 23.5911 7.84125C23.6855 7.76857 23.7998 7.72676 23.9186 7.72148L25.8268 7.47412C25.9278 7.471 26.0256 7.43727 26.1072 7.37736C26.1888 7.31745 26.2504 7.23416 26.2841 7.13841C26.5479 6.55534 26.8381 5.9811 27.1107 5.37152C27.1472 5.255 27.2198 5.15321 27.3178 5.08095C27.4159 5.00869 27.5343 4.96973 27.6559 4.96973C27.7775 4.96973 27.8959 5.00869 27.994 5.08095C28.092 5.15321 28.1646 5.255 28.2011 5.37152C28.4737 5.96343 28.7727 6.5465 29.0805 7.13841C29.1131 7.22919 29.1728 7.30762 29.2516 7.36297C29.3303 7.41832 29.4241 7.44789 29.5201 7.44761L31.4547 7.71265C31.5695 7.71504 31.6807 7.75321 31.773 7.82187C31.8652 7.89053 31.934 7.98629 31.9697 8.0959C32.0054 8.20552 32.0064 8.32358 31.9724 8.43376C31.9384 8.54394 31.8712 8.6408 31.7801 8.71094C31.2965 9.17916 30.804 9.64738 30.3292 10.1244C30.2801 10.1809 30.243 10.2469 30.2203 10.3183C30.1976 10.3897 30.1898 10.4651 30.1972 10.5397C30.294 11.1934 30.4259 11.8472 30.549 12.5097C30.593 12.7659 30.549 13.031 30.3292 13.137C30.1254 13.216 29.8997 13.216 29.696 13.137C29.098 12.8543 28.5177 12.5274 27.9373 12.2005C27.8632 12.1504 27.776 12.1236 27.6867 12.1236C27.5974 12.1236 27.5101 12.1504 27.4361 12.2005C26.8469 12.5362 26.2577 12.8543 25.6773 13.1723C25.5914 13.2311 25.491 13.2649 25.3872 13.2698C25.2834 13.2748 25.1803 13.2508 25.0892 13.2005C24.9982 13.1502 24.9228 13.0755 24.8713 12.9848C24.8199 12.894 24.7945 12.7908 24.798 12.6864ZM26.0906 11.7146C26.5039 11.4938 26.8733 11.3171 27.225 11.1051C27.3551 11.0177 27.5082 10.9711 27.6647 10.9711C27.8212 10.9711 27.9742 11.0177 28.1044 11.1051C28.4561 11.3171 28.8254 11.5026 29.2475 11.7235C29.1684 11.3083 29.1332 10.9637 29.0453 10.628C28.9712 10.4229 28.9654 10.1991 29.0289 9.99036C29.0923 9.78164 29.2215 9.59927 29.397 9.4707C29.6632 9.22512 29.9102 8.9593 30.1357 8.6756C29.7224 8.62259 29.3179 8.56075 28.9046 8.51658C28.7616 8.51018 28.6234 8.46266 28.5065 8.37965C28.3895 8.29665 28.2988 8.18166 28.2451 8.04835C28.078 7.6508 27.8757 7.27092 27.6647 6.82037C27.4536 7.24442 27.2602 7.60663 27.1019 7.98651C27.046 8.14338 26.9435 8.27921 26.8082 8.3756C26.673 8.47199 26.5115 8.52429 26.3456 8.52541C25.9499 8.52541 25.563 8.63143 25.1937 8.68443C25.4927 9.01131 25.7741 9.33818 26.073 9.63855C26.1764 9.73033 26.2525 9.84906 26.2928 9.9816C26.3332 10.1141 26.3363 10.2553 26.3017 10.3895C26.2577 10.8047 26.1961 11.2376 26.1082 11.7146H26.0906Z" fill="white"/>
<path d="M4.3264 4.89453C4.51696 5.05003 4.6882 5.228 4.83643 5.4246C5.14421 6.0165 5.40801 6.62608 5.71579 7.19148C5.76136 7.26305 5.82055 7.32486 5.88997 7.37338C5.95939 7.42189 6.03766 7.45615 6.1203 7.47418C6.77103 7.58903 7.43055 7.65087 8.08128 7.77455C8.18257 7.79163 8.2784 7.83255 8.36094 7.89397C8.44347 7.95539 8.51036 8.03556 8.55613 8.12793C8.57649 8.23497 8.57285 8.34522 8.54547 8.45067C8.51809 8.55611 8.46766 8.6541 8.39785 8.73751C7.95817 9.21457 7.51848 9.66512 6.99087 10.098C6.90812 10.1654 6.84721 10.256 6.81589 10.3582C6.78456 10.4605 6.78425 10.5698 6.81499 10.6722C6.93811 11.3083 7.07001 11.9356 7.14915 12.5716C7.15921 12.6791 7.14638 12.7874 7.1115 12.8895C7.07663 12.9916 7.02052 13.085 6.9469 13.1636C6.85083 13.2098 6.74565 13.2338 6.63912 13.2338C6.53259 13.2338 6.42742 13.2098 6.33135 13.1636C5.75097 12.8985 5.18817 12.5805 4.63418 12.2801C4.54365 12.2134 4.43429 12.1774 4.322 12.1774C4.20971 12.1774 4.10035 12.2134 4.00983 12.2801C3.47342 12.5982 2.91062 12.8809 2.35663 13.1636C2.25878 13.2353 2.14078 13.2739 2.01965 13.2739C1.89851 13.2739 1.78052 13.2352 1.68268 13.1635C1.58485 13.0917 1.51223 12.9906 1.47531 12.8747C1.43839 12.7588 1.43907 12.6341 1.47726 12.5186C1.6121 11.8826 1.72642 11.2376 1.82022 10.5839C1.83032 10.4241 1.78008 10.2664 1.67952 10.1422C1.23104 9.67396 0.747393 9.25874 0.281331 8.78168C0.175529 8.71479 0.09447 8.61491 0.0505689 8.49732C0.00666788 8.37974 0.00234623 8.25094 0.0382661 8.13065C0.0741859 8.01036 0.148367 7.90522 0.249445 7.83133C0.350523 7.75744 0.472925 7.71888 0.597902 7.72155C1.22225 7.64204 1.8466 7.54486 2.47094 7.47418C2.57757 7.47145 2.68106 7.43734 2.76859 7.3761C2.85613 7.31486 2.92385 7.22917 2.96339 7.12964C3.2272 6.5289 3.4998 5.93699 3.84275 5.36276C3.89551 5.18607 4.10656 5.07122 4.3264 4.89453ZM2.73475 11.7147C3.13047 11.5027 3.491 11.3437 3.80757 11.1316C3.95651 11.0251 4.13478 10.9679 4.31761 10.9679C4.50043 10.9679 4.6787 11.0251 4.82764 11.1316C5.153 11.3348 5.49595 11.5027 5.89166 11.7147C5.80373 11.2376 5.75097 10.8313 5.66303 10.4337C5.62003 10.284 5.62123 10.125 5.66651 9.97604C5.71178 9.82705 5.79917 9.69447 5.91804 9.59445C6.21703 9.31174 6.48963 8.9937 6.79741 8.711C6.41928 8.658 6.04116 8.57849 5.66303 8.55198C5.48788 8.54725 5.31813 8.49006 5.17555 8.38775C5.03297 8.28543 4.92407 8.14266 4.86281 7.97775C4.71332 7.6067 4.51986 7.26216 4.31761 6.84694C4.11535 7.27099 3.93069 7.62437 3.7724 7.99541C3.71573 8.15841 3.60989 8.2996 3.46962 8.39936C3.32935 8.49911 3.16162 8.55246 2.98977 8.55198C2.60285 8.55198 2.21593 8.658 1.85539 8.711C2.17196 9.05555 2.47094 9.38242 2.77872 9.70046C2.8685 9.78079 2.93538 9.88369 2.97247 9.99859C3.00956 10.1135 3.01553 10.2362 2.98977 10.3542C2.88424 10.7694 2.81389 11.2111 2.73475 11.7147Z" fill="white"/>
<path d="M10.5874 19.029C10.584 17.9519 10.8987 16.8981 11.4918 16.0008C12.0849 15.1035 12.9296 14.4033 13.9191 13.9887C14.9086 13.5741 15.9983 13.4638 17.0503 13.6718C18.1022 13.8797 19.069 14.3966 19.8284 15.157C20.5877 15.9174 21.1053 16.887 21.3158 17.9431C21.5262 18.9993 21.42 20.0944 21.0105 21.0898C20.601 22.0852 19.9068 22.9362 19.0156 23.535C18.1244 24.1337 17.0764 24.4533 16.0043 24.4534C14.5714 24.451 13.1976 23.8794 12.1828 22.8631C11.1679 21.8469 10.5944 20.4685 10.5874 19.029ZM16.0043 23.349C16.859 23.349 17.6945 23.0942 18.4049 22.6168C19.1153 22.1393 19.6687 21.4608 19.995 20.6672C20.3212 19.8736 20.4057 19.0005 20.2377 18.1586C20.0696 17.3167 19.6567 16.5438 19.0511 15.9379C18.4455 15.3319 17.6745 14.9202 16.8358 14.7548C15.9971 14.5895 15.1284 14.6779 14.3398 15.0089C13.5511 15.3399 12.878 15.8987 12.4057 16.6143C11.9334 17.33 11.6832 18.1704 11.6866 19.029C11.6959 20.1749 12.1543 21.271 12.9625 22.0797C13.7707 22.8884 14.8636 23.3444 16.0043 23.349Z" fill="white"/>
<path d="M15.1252 20.1164L17.4467 17.7753C17.5244 17.6913 17.6066 17.6117 17.6929 17.5367C17.743 17.4844 17.8031 17.4427 17.8695 17.4142C17.936 17.3858 18.0076 17.3711 18.0798 17.3711C18.1521 17.3711 18.2236 17.3858 18.2901 17.4142C18.3566 17.4427 18.4167 17.4844 18.4668 17.5367C18.5677 17.6407 18.6243 17.7802 18.6243 17.9255C18.6243 18.0707 18.5677 18.2102 18.4668 18.3142C18.2997 18.4997 18.115 18.6676 17.9391 18.8531L15.5385 21.2649C15.0988 21.6978 14.7646 21.6536 14.4657 21.1412L13.5247 19.498C13.3225 19.1269 13.3753 18.8266 13.6654 18.6145C13.7354 18.5748 13.813 18.5505 13.893 18.5433C13.9731 18.5362 14.0537 18.5463 14.1295 18.5731C14.2053 18.5999 14.2746 18.6427 14.3326 18.6986C14.3905 18.7545 14.4359 18.8222 14.4657 18.8972C14.6679 19.3213 14.8878 19.6923 15.1252 20.1164Z" fill="white"/>
</g>
<defs>
<clipPath id="clip0_994_22">
<rect width="32" height="31" fill="white"/>
</clipPath>
</defs>
</svg>
