<svg width="70" height="70" viewBox="0 0 70 70" fill="none" xmlns="http://www.w3.org/2000/svg">
<g clip-path="url(#clip0_404_210)">
<path d="M35 70C54.33 70 70 54.33 70 35C70 15.67 54.33 0 35 0C15.67 0 0 15.67 0 35C0 54.33 15.67 70 35 70Z" fill="#EE4423"/>
<path d="M26.9275 48.7156L23.165 42.1531L27.54 39.5938L29.0057 38.7406C29.2529 38.5822 29.5321 38.4804 29.8233 38.4426C30.1146 38.4048 30.4105 38.4319 30.69 38.5219L39.7463 40.9281C39.9748 40.9813 40.1893 41.0829 40.3753 41.226C40.5613 41.3691 40.7143 41.5505 40.8242 41.7578C40.9341 41.9652 40.9982 42.1937 41.0123 42.4279C41.0263 42.6621 40.99 42.8967 40.9057 43.1156C40.7382 43.473 40.4444 43.7556 40.0808 43.9091C39.7173 44.0626 39.3098 44.0761 38.9369 43.9469L32.5932 42.4375H32.3525C32.0244 42.4375 31.7619 42.4375 31.6744 42.7875C31.5869 43.1375 31.6744 43.3344 32.1119 43.4219L34.8244 44.1438C36.3994 44.5594 37.9963 44.9313 39.5494 45.3906C39.9516 45.522 40.378 45.5627 40.7978 45.5098C41.2176 45.4568 41.6205 45.3116 41.9775 45.0844C44.165 43.7938 46.3525 42.5469 48.54 41.3L51.7119 39.375C51.9297 39.2266 52.1753 39.1238 52.434 39.0731C52.6926 39.0224 52.9588 39.0247 53.2165 39.08C53.4743 39.1352 53.7181 39.2421 53.9332 39.3944C54.1484 39.5466 54.3304 39.741 54.4682 39.9656C54.6084 40.1938 54.6996 40.4487 54.7357 40.714C54.7719 40.9794 54.7523 41.2494 54.6782 41.5067C54.6041 41.7641 54.4771 42.0031 54.3053 42.2086C54.1335 42.4141 53.9208 42.5815 53.6807 42.7L40.7307 50.3125C40.3876 50.5145 40.0068 50.644 39.6117 50.6929C39.2166 50.7418 38.8157 50.7092 38.4338 50.5969C35.6775 49.8531 32.9213 49.1531 30.165 48.4094C29.6492 48.1587 29.0743 48.0547 28.5034 48.1088C27.9324 48.1628 27.3872 48.3727 26.9275 48.7156Z" fill="white"/>
<path d="M41.6941 31.2594C40.0132 32.0038 38.1368 32.1853 36.3445 31.7769C34.5521 31.3685 32.9396 30.392 31.7471 28.993C30.5546 27.594 29.8459 25.8471 29.7265 24.0127C29.6072 22.1783 30.0835 20.3543 31.0847 18.8126C32.0776 17.2687 33.542 16.0862 35.2605 15.4407C36.9789 14.7953 38.8597 14.7214 40.6235 15.2299C42.3873 15.7384 43.94 16.8022 45.0511 18.2634C46.1622 19.7246 46.7723 21.5051 46.791 23.3407C45.9044 23.4519 45.0531 23.7563 44.2971 24.2326C43.5412 24.7088 42.899 25.3453 42.416 26.0969C41.9132 26.8469 41.587 27.7011 41.462 28.5953C41.337 29.4894 41.4163 30.4003 41.6941 31.2594ZM38.7847 27.8907C38.9269 27.87 39.0664 27.8333 39.2003 27.7813C39.7184 27.5553 40.204 27.261 40.6441 26.9063C40.8887 26.6523 41.0683 26.3428 41.1675 26.0044C41.2667 25.6659 41.2826 25.3085 41.2139 24.9626C41.1451 24.6166 40.9938 24.2925 40.7727 24.0177C40.5515 23.7429 40.2673 23.5256 39.9441 23.3844C39.6562 23.2577 39.3555 23.1623 39.0472 23.1001L37.1878 22.6407C36.964 22.5953 36.7605 22.4795 36.607 22.3103C36.4535 22.1411 36.3581 21.9273 36.3347 21.7001C36.3 21.4673 36.3307 21.2294 36.4234 21.0131C36.5161 20.7967 36.6672 20.6105 36.8597 20.4751C37.2756 20.1711 37.7774 20.0073 38.2925 20.0073C38.8077 20.0073 39.3094 20.1711 39.7253 20.4751C39.979 20.7155 40.1673 21.0167 40.2722 21.3501C40.4035 21.8094 40.5785 22.0501 40.9066 21.9844C41.2347 21.9188 41.3878 21.6126 41.3003 21.1532C41.2471 20.7352 41.0742 20.3415 40.8026 20.0195C40.5309 19.6974 40.1721 19.4606 39.7691 19.3376C39.0691 19.0969 38.6097 18.8126 38.8066 17.9813C38.8078 17.91 38.7931 17.8394 38.7637 17.7744C38.7342 17.7095 38.6907 17.652 38.6363 17.6059C38.5818 17.5598 38.5179 17.5265 38.449 17.5082C38.38 17.4899 38.3079 17.4871 38.2378 17.5001C38.1102 17.5001 37.9878 17.5508 37.8975 17.641C37.8073 17.7313 37.7566 17.8537 37.7566 17.9813C37.7566 18.2438 37.7566 18.4844 37.7566 18.7251C37.7566 18.9657 37.7566 19.0313 37.4503 19.1188C36.9094 19.3209 36.4009 19.6009 35.941 19.9501C35.6764 20.2017 35.479 20.5155 35.3668 20.8629C35.2546 21.2103 35.2311 21.5803 35.2985 21.9392C35.3659 22.298 35.5221 22.6342 35.7527 22.9172C35.9834 23.2002 36.2812 23.421 36.6191 23.5594C36.8664 23.6629 37.1227 23.7435 37.3847 23.8001L39.2878 24.2376C39.5374 24.2829 39.7657 24.4073 39.9391 24.5925C40.1124 24.7777 40.2215 25.0137 40.2503 25.2657C40.274 25.5229 40.22 25.7814 40.0952 26.0076C39.9704 26.2338 39.7806 26.4173 39.5503 26.5344C39.1777 26.7603 38.7502 26.8798 38.3144 26.8798C37.8786 26.8798 37.4511 26.7603 37.0785 26.5344C36.8534 26.4418 36.6585 26.2884 36.5155 26.0914C36.3726 25.8944 36.2873 25.6615 36.2691 25.4188C36.2691 25.0688 36.0722 24.8501 35.7003 24.8719C35.3285 24.8938 35.1972 25.1782 35.2628 25.5719C35.2882 26.0444 35.466 26.496 35.7697 26.8588C36.0734 27.2217 36.4866 27.4763 36.9472 27.5844C37.6691 27.7813 37.866 28.1094 37.7566 28.7876C37.7392 28.8611 37.7394 28.9377 37.7571 29.0111C37.7748 29.0845 37.8096 29.1528 37.8586 29.2103C37.9076 29.2678 37.9694 29.3129 38.0391 29.3421C38.1088 29.3713 38.1844 29.3836 38.2597 29.3782C38.3325 29.3784 38.4045 29.3636 38.4713 29.3345C38.538 29.3054 38.5979 29.2628 38.6473 29.2093C38.6967 29.1558 38.7344 29.0926 38.758 29.0238C38.7817 28.955 38.7908 28.882 38.7847 28.8094V27.8907Z" fill="white"/>
<path d="M16.9528 42.4595L17.6746 43.7063L20.1028 47.9063C20.1456 47.9984 20.1968 48.0863 20.2559 48.1688C20.2856 48.2337 20.3287 48.2915 20.3824 48.3384C20.4362 48.3854 20.4992 48.4203 20.5675 48.441C20.6358 48.4617 20.7077 48.4676 20.7784 48.4584C20.8491 48.4492 20.9171 48.4251 20.9778 48.3876C21.0405 48.3523 21.0949 48.3039 21.1374 48.2458C21.1798 48.1877 21.2093 48.1211 21.2238 48.0506C21.2383 47.9801 21.2375 47.9073 21.2215 47.8371C21.2055 47.767 21.1746 47.701 21.1309 47.6438L20.1684 45.9376L17.8278 41.9345C18.659 41.4751 19.4246 41.0157 20.2559 40.622C20.6934 40.4032 21.0215 40.622 21.284 41.0157L26.9278 50.7938C27.006 50.8873 27.0614 50.9977 27.0897 51.1163C27.118 51.2349 27.1184 51.3584 27.0909 51.4772C27.0633 51.596 27.0085 51.7067 26.9309 51.8007C26.8532 51.8947 26.7548 51.9693 26.6434 52.0188C26.2278 52.3032 25.7684 52.5438 25.3309 52.8063L22.3121 54.5563C21.5246 55.0157 21.1746 54.9063 20.7153 54.1188C18.9069 50.9542 17.1059 47.7897 15.3121 44.6251C15.2259 44.5238 15.1645 44.4038 15.1329 44.2746C15.1012 44.1454 15.1003 44.0106 15.13 43.881C15.1598 43.7513 15.1598 43.6304 15.3042 43.5279C15.389 43.4254 15.4966 43.3442 15.6184 43.2907L16.9528 42.4595Z" fill="white"/>
<path d="M42.4375 29.3782C42.4419 28.3822 42.7418 27.4099 43.2992 26.5845C43.8567 25.7591 44.6465 25.1177 45.5688 24.7416C46.491 24.3654 47.5042 24.2715 48.4799 24.4717C49.4556 24.6718 50.3499 25.1571 51.0496 25.866C51.7492 26.5748 52.2228 27.4754 52.4101 28.4537C52.5975 29.4319 52.4904 30.4437 52.1022 31.361C51.7141 32.2782 51.0624 33.0597 50.2298 33.6062C49.3972 34.1528 48.421 34.44 47.425 34.4313C46.0945 34.4198 44.8227 33.8816 43.8879 32.9346C42.9532 31.9876 42.4317 30.7088 42.4375 30.3782ZM46.9657 31.1501L45.6313 29.772C45.3105 29.4657 45.0261 29.422 44.7782 29.6407C44.5303 29.8595 44.574 30.1438 44.9094 30.4938L47.0969 32.6813C47.4907 33.0751 47.7094 33.0751 48.1032 32.6813L50.2907 30.4938C50.6188 30.1876 50.6625 29.8813 50.4219 29.6407C50.1813 29.4001 49.8969 29.4657 49.5688 29.772L48.125 31.2813C48.125 31.0188 48.125 30.8876 48.125 30.7345V27.3438C48.125 26.972 48.125 26.622 48.125 26.272C48.125 25.922 47.9501 25.747 47.6219 25.747C47.2938 25.747 47.1407 25.9657 47.1188 26.272V31.1501H46.9657Z" fill="white"/>
<path d="M50.0062 39.1783L41.978 43.7501C42.0768 43.5501 42.1939 43.3597 42.328 43.1814C43.8593 41.6283 45.3905 40.097 46.9436 38.5658C47.149 38.3481 47.4022 38.1813 47.6832 38.0786C47.9642 37.9759 48.2653 37.9401 48.5625 37.9741C48.8598 38.0081 49.145 38.1109 49.3956 38.2743C49.6462 38.4378 49.8552 38.6574 50.0062 38.9158V39.1783Z" fill="white"/>
<path d="M40.7969 40.1189C41.3219 39.5939 41.8906 38.9814 42.5031 38.4126C42.6877 38.2275 42.9096 38.0839 43.1541 37.9914C43.3986 37.8989 43.66 37.8596 43.9209 37.8761C44.1817 37.8927 44.4361 37.9647 44.6669 38.0874C44.8977 38.2101 45.0997 38.3807 45.2594 38.5876L42.1313 41.7158L40.7969 40.1189Z" fill="white"/>
</g>
<defs>
<clipPath id="clip0_404_210">
<rect width="70" height="70" fill="white"/>
</clipPath>
</defs>
</svg>