<svg width="36" height="41" viewBox="0 0 36 41" fill="none" xmlns="http://www.w3.org/2000/svg">
<g clip-path="url(#clip0_404_19)">
<path d="M28.6534 12.0825C29.066 12.3825 29.4089 12.768 29.6588 13.2128C29.9087 13.6575 30.0596 14.1509 30.1013 14.6594C30.143 15.1678 30.0744 15.6792 29.9002 16.1587C29.726 16.6382 29.4504 17.0744 29.0921 17.4375C28.7167 17.9079 28.2387 18.2862 27.6947 18.5435C27.1507 18.8009 26.5551 18.9305 25.9534 18.9225C25.8385 18.9064 25.722 18.9365 25.6293 19.006C25.5365 19.0756 25.4751 19.179 25.4584 19.2938C24.9745 20.7351 24.0931 22.0104 22.9159 22.9725C22.8409 23.0434 22.7812 23.1288 22.7405 23.2236C22.6999 23.3185 22.6792 23.4206 22.6796 23.5238C22.6796 24.255 22.7471 24.9863 22.8259 25.7738C22.8259 25.9425 23.0284 26.0888 23.1296 26.2463H23.2084C24.0522 26.7826 25.0133 27.1068 26.0096 27.1913C26.5834 27.1913 26.7971 27.54 26.7521 27.99C26.7071 28.44 26.4146 28.6763 25.8521 28.6313C25.2896 28.5863 25.2671 28.7213 25.1321 29.1375C23.8535 33.095 21.6649 36.6976 18.7421 39.6563C17.9096 40.5113 17.8984 40.5113 17.0546 39.6563C14.1801 36.7118 12.0107 33.1539 10.7096 29.25C10.5746 28.845 10.4509 28.5863 9.93336 28.6313C9.41586 28.6763 9.07836 28.3838 9.06711 27.99C9.05586 27.5963 9.37086 27.2363 9.91086 27.1913C10.3711 27.206 10.8316 27.1683 11.2834 27.0788C11.8924 26.8334 12.4827 26.5438 13.0496 26.2125C13.0496 26.2125 13.1059 26.055 13.1171 25.9763C13.1734 25.1325 13.2409 24.3 13.2746 23.4675C13.2597 23.2855 13.1751 23.1162 13.0384 22.995C11.8508 22.0448 10.9638 20.771 10.4846 19.3275C10.46 19.2071 10.3905 19.1005 10.2902 19.0295C10.1899 18.9585 10.0664 18.9282 9.94461 18.945C9.32343 18.9138 8.71632 18.7487 8.1648 18.4612C7.61327 18.1737 7.13033 17.7705 6.749 17.2791C6.36767 16.7878 6.09693 16.2199 5.9553 15.6142C5.81366 15.0086 5.80447 14.3795 5.92836 13.77C5.97183 13.4871 6.0732 13.2162 6.22612 12.9742C6.37904 12.7323 6.58023 12.5245 6.81711 12.3638C6.94413 12.2905 7.041 12.1745 7.09045 12.0365C7.1399 11.8984 7.13872 11.7473 7.08711 11.61C6.76085 9.93072 6.76085 8.20432 7.08711 6.52502C7.35422 5.17465 7.97512 3.91942 8.88632 2.88764C9.79753 1.85586 10.9664 1.08454 12.2734 0.652523C14.2664 -0.142746 16.4743 -0.218333 18.5171 0.438773C18.8996 0.551273 19.2821 0.697523 19.6421 0.810023C19.7819 0.849442 19.9298 0.849442 20.0696 0.810023C20.9148 0.495152 21.8243 0.392045 22.7185 0.50971C23.6128 0.627374 24.4646 0.96223 25.1996 1.48502C26.1268 2.02708 26.9374 2.74766 27.5843 3.60505C28.2312 4.46244 28.7016 5.43961 28.9684 6.48002C29.2595 8.15479 29.1944 9.87214 28.7771 11.52L28.6534 12.0825ZM8.62836 11.7C8.82296 11.6824 9.01876 11.6824 9.21336 11.7C10.0644 11.8632 10.9386 11.8632 11.7896 11.7C14.6193 11.2739 17.2502 9.98987 19.3271 8.02127C19.8221 7.51502 20.3171 7.61627 20.6321 8.29127C21.0812 9.20753 21.7383 10.0061 22.5508 10.6234C23.3634 11.2406 24.309 11.6594 25.3121 11.8463C25.4013 11.863 25.4929 11.863 25.5821 11.8463C26.0659 11.8463 26.5609 11.7675 27.0446 11.7C27.1095 11.6941 27.1721 11.6726 27.2269 11.6374C27.2818 11.6021 27.3273 11.5541 27.3596 11.4975C27.8173 9.92624 27.9021 8.26982 27.6071 6.66002C27.3564 5.75531 26.9198 4.91284 26.3251 4.18642C25.7304 3.46001 24.9908 2.86563 24.1534 2.44127C23.5774 2.0617 22.907 1.8501 22.2175 1.83023C21.5279 1.81036 20.8465 1.983 20.2496 2.32877C20.1394 2.37581 20.0207 2.40006 19.9009 2.40006C19.781 2.40006 19.6624 2.37581 19.5521 2.32877C17.5832 1.35326 15.3126 1.17983 13.2184 1.84502C12.2417 2.09754 11.3369 2.57347 10.5756 3.23529C9.81417 3.89711 9.21691 4.72674 8.83086 5.65877C8.1744 7.60946 8.104 9.70976 8.62836 11.7ZM11.3171 13.1738C11.3846 14.5238 11.4634 15.8175 11.4971 17.1225C11.4806 18.7536 12.0819 20.3305 13.1804 21.5364C14.2788 22.7423 15.7929 23.4879 17.4185 23.6232C19.044 23.7585 20.6606 23.2737 21.9433 22.266C23.2261 21.2584 24.0799 19.8026 24.3334 18.1913C24.5359 16.605 24.5246 14.9963 24.6259 13.3988C24.6259 13.1288 24.4909 13.0838 24.2996 13.0163C22.7338 12.5244 21.3458 11.586 20.3059 10.3163C20.0921 10.0688 19.9009 9.81002 19.6871 9.54002C17.3336 11.5775 14.4127 12.8456 11.3171 13.1738ZM14.6921 23.985C14.6921 24.6488 14.5796 25.245 14.5796 25.8413C14.5782 26.1781 14.6472 26.5114 14.7821 26.82C15.4586 28.1051 16.6148 29.0713 17.9996 29.5088C18.1058 29.5424 18.2197 29.5424 18.3259 29.5088C18.8895 29.3585 19.4161 29.0936 19.8727 28.7306C20.3293 28.3675 20.7061 27.9142 20.9796 27.399C21.253 26.8837 21.4173 26.3176 21.462 25.736C21.5068 25.1544 21.431 24.5698 21.2396 24.0188C20.205 24.4651 19.0891 24.6925 17.9623 24.6867C16.8355 24.6809 15.7221 24.442 14.6921 23.985ZM17.9996 32.6363C17.7462 33.2592 17.2772 33.7702 16.6782 34.0759C16.0792 34.3816 15.3902 34.4616 14.7371 34.3013C15.6592 35.7746 16.738 37.1438 17.9546 38.385C19.1714 37.1916 20.2232 35.8409 21.0821 34.3688C19.2259 34.2788 19.1246 34.2338 17.9996 32.6363ZM13.4996 27.5625L11.9696 28.3838C12.4084 29.5088 12.8134 30.5325 13.2746 31.5788C13.4507 31.961 13.7243 32.2901 14.0679 32.533C14.4115 32.7759 14.8131 32.9241 15.2321 32.9625C15.4185 32.9904 15.6088 32.971 15.7857 32.9061C15.9626 32.8413 16.1204 32.733 16.2446 32.5913C16.6921 32.0756 17.0052 31.4572 17.1559 30.7913C15.5817 30.2009 14.2802 29.0515 13.4996 27.5625ZM18.9221 30.6675C19.1098 31.113 19.32 31.5485 19.5521 31.9725C19.6985 32.2298 19.9104 32.4437 20.1663 32.5925C20.4222 32.7413 20.713 32.8197 21.009 32.8197C21.305 32.8197 21.5957 32.7413 21.8516 32.5925C22.1075 32.4437 22.3195 32.2298 22.4659 31.9725C23.1071 30.7688 23.5909 29.4638 24.0971 28.1925L22.6346 27.405C21.8282 28.9237 20.4844 30.087 18.8659 30.6675H18.9221ZM10.1246 17.415C10.0571 16.0425 10.0009 14.6813 9.92211 13.3088C9.90024 13.2532 9.86531 13.2038 9.82027 13.1646C9.77522 13.1254 9.7214 13.0977 9.66336 13.0838C9.23349 13.0723 8.8036 13.1062 8.38086 13.185C7.48086 13.3988 7.17711 13.8375 7.25586 14.6363C7.25586 14.7938 7.25586 14.9625 7.33461 15.12C7.44096 15.7765 7.78294 16.3716 8.2965 16.7941C8.81006 17.2165 9.45999 17.4373 10.1246 17.415ZM26.1221 13.05L25.8746 17.46H26.1334C26.8981 17.3618 27.5927 16.9644 28.0651 16.355C28.5374 15.7456 28.749 14.9739 28.6534 14.2088C28.6384 14.018 28.5658 13.8362 28.4453 13.6876C28.3248 13.5389 28.1619 13.4304 27.9784 13.3763C27.3709 13.2413 26.7521 13.1625 26.0771 13.05H26.1221Z" fill="#58595B"/>
<path d="M26.2011 37.8113C26.3249 37.8113 26.5049 37.8113 26.5836 37.8675C26.6624 37.9238 27.0336 38.2613 27.0561 38.4863C27.0786 38.7113 26.8761 38.97 26.7074 39.1838C26.5386 39.3975 26.4261 39.2738 26.2799 39.2738C25.0649 39.2738 24.7386 39.3413 24.7949 37.8563C24.7949 37.0013 24.7949 36.1463 24.7949 35.2913C24.735 34.4295 24.984 33.5746 25.4974 32.8798C26.0107 32.185 26.7548 31.6958 27.5961 31.5C27.5961 30.6 27.5961 29.6775 27.5961 28.7438C27.5961 28.2488 27.7986 28.0013 28.1924 27.9338C28.2953 27.9063 28.4033 27.904 28.5073 27.9271C28.6113 27.9501 28.7082 27.9979 28.7898 28.0663C28.8714 28.1347 28.9354 28.2217 28.9763 28.3201C29.0173 28.4184 29.0339 28.5251 29.0249 28.6313C29.0249 29.4488 29.0249 30.27 29.0249 31.095C29.0249 31.3763 29.0924 31.5 29.3961 31.5788C30.1362 31.781 30.7892 32.221 31.2547 32.8308C31.7202 33.4406 31.9724 34.1866 31.9724 34.9538C31.9724 36.0788 31.9724 37.2938 31.9724 38.4525V38.5875C31.9695 38.6831 31.9476 38.7771 31.908 38.8641C31.8684 38.9511 31.8119 39.0293 31.7417 39.0943C31.6716 39.1592 31.5892 39.2095 31.4994 39.2422C31.4096 39.275 31.3141 39.2895 31.2186 39.285C30.6786 39.285 30.0036 39.5663 29.6661 38.8688C29.4299 38.3625 29.7336 37.9688 30.4311 37.8225C30.4311 36.7763 30.4986 35.7075 30.4311 34.6613C30.3667 34.1653 30.118 33.7117 29.7345 33.3907C29.351 33.0697 28.8607 32.9048 28.3611 32.9288C27.8451 32.8818 27.3316 33.0414 26.933 33.3725C26.5344 33.7035 26.2834 34.1791 26.2349 34.695C26.1224 35.6963 26.2011 36.7425 26.2011 37.8113Z" fill="#58595B"/>
<path d="M6.91862 31.6574C6.91862 30.7124 6.91862 29.7674 6.91862 28.8224C6.91862 28.2712 7.17737 27.9787 7.62737 27.9899C8.07737 28.0012 8.34737 28.2824 8.34737 28.8224C8.34737 30.6824 8.34737 32.5387 8.34737 34.3912C8.3242 34.5134 8.35019 34.6399 8.4197 34.7431C8.48921 34.8463 8.59662 34.9179 8.71862 34.9424C9.33957 35.1811 9.8483 35.6442 10.1441 36.24C10.44 36.8358 10.5013 37.521 10.3161 38.1599C10.1362 38.8251 9.71826 39.401 9.14175 39.7785C8.56524 40.1559 7.87023 40.3085 7.18862 40.2074C6.5174 40.0818 5.91632 39.7125 5.50097 39.1705C5.08562 38.6284 4.88533 37.952 4.93862 37.2712C4.95342 36.7586 5.12084 36.2621 5.41946 35.8452C5.71808 35.4284 6.13431 35.1101 6.61487 34.9312C6.72743 34.9019 6.82475 34.8311 6.88734 34.733C6.94993 34.635 6.97315 34.5169 6.95237 34.4024C6.90737 33.5024 6.91862 32.5349 6.91862 31.6574ZM7.66112 36.2137C7.4788 36.1968 7.29496 36.2181 7.12135 36.2763C6.94774 36.3344 6.78817 36.4282 6.65285 36.5516C6.51753 36.6749 6.40944 36.8251 6.33548 36.9926C6.26151 37.1601 6.22331 37.3412 6.22331 37.5243C6.22331 37.7074 6.26151 37.8885 6.33548 38.056C6.40944 38.2235 6.51753 38.3737 6.65285 38.4971C6.78817 38.6204 6.94774 38.7142 7.12135 38.7724C7.29496 38.8305 7.4788 38.8518 7.66112 38.8349C7.83121 38.8456 8.0017 38.8217 8.16227 38.7646C8.32284 38.7074 8.47016 38.6184 8.59531 38.5027C8.72046 38.387 8.82084 38.2471 8.89037 38.0915C8.95991 37.9359 8.99716 37.7678 8.99987 37.5974C9.00285 37.4187 8.97058 37.2411 8.90491 37.0748C8.83924 36.9085 8.74145 36.7567 8.61714 36.6282C8.49282 36.4997 8.3444 36.397 8.18037 36.3259C8.01633 36.2547 7.83989 36.2166 7.66112 36.2137Z" fill="#EE4423"/>
<path d="M36.0004 39.2849C36.0004 40.2074 35.6404 40.5449 34.8754 40.2524C34.7368 40.1958 34.6197 40.0967 34.5408 39.9694C34.462 39.8421 34.4256 39.693 34.4367 39.5437C34.4385 37.8818 34.0758 36.2398 33.3741 34.7334C32.6724 33.227 31.6488 31.8928 30.3754 30.8249C29.9479 30.4649 29.8917 30.1162 30.1729 29.7787C30.4542 29.4412 30.8704 29.3962 31.2979 29.7787C33.8548 31.921 35.5164 34.9433 35.9554 38.2499C36.0004 38.5987 36.0004 38.9699 36.0004 39.2849Z" fill="#58595B"/>
<path d="M0.000242915 39.1837C0.0786645 37.3455 0.547608 35.545 1.37588 33.902C2.20415 32.259 3.37277 30.8112 4.80399 29.655C4.94144 29.5269 5.12235 29.4556 5.31024 29.4556C5.49814 29.4556 5.67904 29.5269 5.81649 29.655C5.8756 29.7362 5.91812 29.8283 5.94163 29.926C5.96513 30.0237 5.96917 30.1251 5.9535 30.2243C5.93783 30.3235 5.90276 30.4187 5.8503 30.5044C5.79784 30.5901 5.72901 30.6646 5.64774 30.7237C3.93131 32.1198 2.67009 33.996 2.02524 36.1125C1.72149 37.17 1.64274 38.2837 1.42899 39.3637C1.40062 39.6216 1.29471 39.8648 1.12524 40.0612C1.0218 40.1339 0.902599 40.1809 0.777431 40.1985C0.652264 40.2161 0.524706 40.2038 0.405243 40.1625C0.202743 40.0612 0.112743 39.735 0.0114929 39.4875C-0.0897571 39.24 0.000242915 39.285 0.000242915 39.1837Z" fill="#58595B"/>
</g>
<defs>
<clipPath id="clip0_404_19">
<rect width="36" height="40.32" fill="white"/>
</clipPath>
</defs>
</svg>
