<svg width="70" height="70" viewBox="0 0 70 70" fill="none" xmlns="http://www.w3.org/2000/svg">
<g clip-path="url(#clip0_404_158)">
<path d="M35 70C54.33 70 70 54.33 70 35C70 15.67 54.33 0 35 0C15.67 0 0 15.67 0 35C0 54.33 15.67 70 35 70Z" fill="#EE4423"/>
<path d="M30.6244 23.4939C31.4037 23.5305 32.1731 23.3074 32.8119 22.8595C33.4123 22.4318 34.131 22.2019 34.8682 22.2019C35.6053 22.2019 36.3241 22.4318 36.9244 22.8595C37.6214 23.3255 38.4495 23.5555 39.2869 23.5157C40.0562 23.4362 40.8306 23.6058 41.4962 23.9997C42.1618 24.3935 42.6832 24.9907 42.9838 25.7032C43.3209 26.4003 43.8836 26.963 44.5807 27.3001C45.3138 27.6236 45.9228 28.1753 46.317 28.873C46.7111 29.5707 46.8694 30.3771 46.7682 31.172C46.7061 31.8933 46.8997 32.6134 47.315 33.2064C47.7774 33.842 48.0265 34.6078 48.0265 35.3939C48.0265 36.1799 47.7774 36.9457 47.315 37.5814C46.8888 38.2276 46.6887 38.9969 46.7463 39.7689C46.825 40.488 46.6804 41.2139 46.3321 41.8479C45.9837 42.482 45.4486 42.9934 44.7994 43.3126C43.9562 43.7506 43.2686 44.4381 42.8307 45.2814C42.5347 45.9011 42.0596 46.4179 41.4669 46.765C40.8742 47.1121 40.191 47.2734 39.5057 47.2282C38.5314 47.1786 37.5665 47.439 36.7494 47.972C36.1811 48.3566 35.5106 48.5622 34.8244 48.5622C34.1382 48.5622 33.4677 48.3566 32.8994 47.972C32.1174 47.4538 31.1894 47.2007 30.2525 47.2501C29.5379 47.3029 28.8241 47.1364 28.2066 46.7729C27.589 46.4094 27.097 45.8662 26.7963 45.2157C26.4125 44.431 25.7825 43.7934 25.0025 43.4001C24.314 43.0852 23.7436 42.5593 23.3739 41.8986C23.0043 41.2379 22.8545 40.4766 22.9463 39.7251C23.0262 38.9544 22.8327 38.1801 22.3994 37.5376C21.9371 36.9019 21.688 36.1361 21.688 35.3501C21.688 34.5641 21.9371 33.7983 22.3994 33.1626C22.818 32.5137 23.0103 31.7446 22.9463 30.9751C22.869 30.2339 23.0231 29.4869 23.3873 28.8367C23.7516 28.1865 24.3082 27.665 24.9807 27.3439C25.7314 26.9872 26.3456 26.396 26.7307 25.6595C27.0588 24.9265 27.6154 24.3194 28.3173 23.929C29.0192 23.5386 29.8286 23.386 30.6244 23.4939ZM34.9994 43.9032C36.6833 43.9076 38.3307 43.4122 39.7329 42.4798C41.1352 41.5474 42.2292 40.2199 42.8766 38.6654C43.524 37.1109 43.6957 35.3993 43.3698 33.7472C43.044 32.0951 42.2353 30.5768 41.0461 29.3846C39.8569 28.1923 38.3407 27.3797 36.6895 27.0496C35.0382 26.7195 33.3261 26.8867 31.77 27.5301C30.2138 28.1736 28.8835 29.2642 27.9475 30.664C27.0116 32.0639 26.5119 33.7099 26.5119 35.3939C26.5119 37.6469 27.4054 39.808 28.9965 41.4032C30.5876 42.9984 32.7464 43.8974 34.9994 43.9032Z" fill="white"/>
<path d="M25.7909 45.4125L26.0315 45.8719C26.3829 46.6097 26.9339 47.2344 27.6221 47.6752C28.3102 48.1159 29.1081 48.3551 29.9253 48.3656C31.104 48.3021 32.2647 48.676 33.1847 49.4156L31.1284 57.0938L29.619 54.6875L28.1097 52.325L23.144 54.9063L25.6815 45.3906L25.7909 45.4125Z" fill="white"/>
<path d="M46.8565 54.95L41.8909 52.3468L38.8722 57.0937L36.8159 49.3937C37.6819 48.7131 38.7552 48.3502 39.8565 48.3656C40.7036 48.4029 41.5432 48.1932 42.2733 47.7622C43.0034 47.3311 43.5926 46.6972 43.969 45.9375L44.1659 45.5437H44.2972L46.8565 54.95Z" fill="white"/>
<path d="M46.2432 15.925C46.1338 16.7782 46.0463 17.5657 45.915 18.3094C45.8849 18.4169 45.8949 18.5317 45.9432 18.6324C45.9915 18.733 46.0748 18.8126 46.1775 18.8563L48.1682 20.2125C47.3369 20.3657 46.615 20.5188 45.8713 20.6063C45.7349 20.6106 45.6047 20.6638 45.5043 20.7562C45.4039 20.8486 45.3401 20.9739 45.3244 21.1094C45.1275 21.8313 44.9088 22.5532 44.6682 23.2969C44.2963 22.6188 43.9463 22.0282 43.6619 21.4157C43.6014 21.2284 43.4748 21.0696 43.3057 20.9689C43.1366 20.8683 42.9366 20.8327 42.7432 20.8688C42.0869 20.8688 41.4088 20.8688 40.665 20.8688C41.1682 20.3438 41.6275 19.8188 42.1307 19.3594C42.2805 19.2496 42.3838 19.0876 42.4202 18.9055C42.4567 18.7233 42.4236 18.5341 42.3275 18.375C42.065 17.7625 41.8463 17.1063 41.5838 16.3407C42.3713 16.7125 43.0275 17.0188 43.7713 17.3688C43.873 17.4523 44.0006 17.498 44.1322 17.498C44.2639 17.498 44.3914 17.4523 44.4932 17.3688L46.2432 15.925Z" fill="white"/>
<path d="M25.3312 23.3406C25.0906 22.5312 24.85 21.8093 24.675 21.1531C24.6638 21.0003 24.5936 20.8578 24.4793 20.7558C24.365 20.6538 24.2156 20.6001 24.0625 20.6062L21.875 20.2125L22.2031 19.95L23.8437 18.8343C23.9295 18.7852 23.9971 18.7096 24.0365 18.619C24.0759 18.5284 24.085 18.4274 24.0625 18.3312C23.9313 17.5656 23.8438 16.8 23.7125 15.9031C24.3906 16.4281 24.9813 16.8656 25.55 17.3468C25.6338 17.4455 25.7476 17.514 25.8741 17.5417C26.0006 17.5693 26.1327 17.5547 26.25 17.5L28.4375 16.4937C28.1531 17.2812 27.9344 17.9375 27.6719 18.6812C27.5902 18.8235 27.563 18.9906 27.5952 19.1515C27.6274 19.3124 27.7168 19.4562 27.8469 19.5562C28.35 20.0375 28.8313 20.5625 29.3781 21.1312C28.8906 21.175 28.4001 21.175 27.9125 21.1312C27.7188 21.0649 27.5131 21.0405 27.3093 21.0597C27.1054 21.0789 26.9079 21.1413 26.73 21.2427C26.5521 21.344 26.3978 21.4821 26.2773 21.6477C26.1568 21.8133 26.0729 22.0026 26.0312 22.2031C25.8251 22.5983 25.5912 22.9784 25.3312 23.3406Z" fill="white"/>
<path d="M31.3473 15.6407L33.5348 15.4876C33.6519 15.4967 33.7686 15.4645 33.8645 15.3965C33.9604 15.3286 34.0295 15.2293 34.0598 15.1157C34.3223 14.4157 34.6285 13.7157 34.9566 12.9282C35.2848 13.7157 35.591 14.3938 35.8316 15.1157C35.8747 15.2482 35.9601 15.3628 36.0748 15.4418C36.1894 15.5209 36.3269 15.56 36.466 15.5532C37.1879 15.5532 37.9098 15.5532 38.6535 15.7063L36.7723 17.2813C36.6909 17.3384 36.6314 17.4215 36.6036 17.517C36.5757 17.6124 36.5812 17.7145 36.6191 17.8063C36.816 18.5501 36.991 19.3157 37.1879 20.1688C36.6518 19.8707 36.1332 19.5421 35.6348 19.1845C35.5331 19.082 35.4121 19.0006 35.2788 18.9451C35.1456 18.8895 35.0026 18.8609 34.8582 18.8609C34.7138 18.8609 34.5709 18.8895 34.4376 18.9451C34.3043 19.0006 34.1833 19.082 34.0816 19.1845C33.5812 19.5569 33.0549 19.8932 32.5066 20.1907C32.7035 19.3376 32.8785 18.572 33.0754 17.8282C33.1171 17.7313 33.1223 17.6226 33.0902 17.5221C33.058 17.4216 32.9906 17.3361 32.9004 17.2813L31.1504 15.8157L31.3473 15.6407Z" fill="white"/>
<path d="M19.7966 22.2471C19.9497 23.1002 20.1028 23.8221 20.2122 24.5658C20.2156 24.6874 20.261 24.804 20.3408 24.8957C20.4206 24.9875 20.5298 25.0487 20.6497 25.0689L22.8372 25.7252C22.3694 26.0245 21.8794 26.2878 21.3716 26.5127C21.202 26.5505 21.042 26.6228 20.9015 26.7251C20.761 26.8273 20.643 26.9573 20.5548 27.107C20.4666 27.2568 20.4101 27.423 20.3888 27.5954C20.3675 27.7679 20.3818 27.9429 20.431 28.1096C20.4755 28.6555 20.4755 29.2042 20.431 29.7502C20.0765 29.4574 19.7472 29.1355 19.4466 28.7877C19.3445 28.6017 19.2039 28.4397 19.0341 28.3126C18.8643 28.1854 18.6693 28.096 18.4621 28.0505C18.2549 28.0049 18.0404 28.0041 17.8329 28.0483C17.6254 28.0924 17.4298 28.1805 17.2591 28.3064C16.8102 28.5256 16.3414 28.7014 15.8591 28.8314C16.231 28.0658 16.5153 27.4096 16.8653 26.7533C16.9669 26.6474 17.0237 26.5063 17.0237 26.3596C17.0237 26.2128 16.9669 26.0717 16.8653 25.9658C16.406 25.4189 15.9903 24.8502 15.4653 24.1721C16.231 24.1721 16.8653 24.3033 17.4997 24.4346C17.7064 24.5094 17.9337 24.5036 18.1363 24.4185C18.339 24.3334 18.5022 24.1751 18.5935 23.9752C18.9653 23.4064 19.3591 22.8814 19.7966 22.2471Z" fill="white"/>
<path d="M50.3122 22.2471C50.7716 22.9471 51.2091 23.5158 51.581 24.1283C51.6553 24.2706 51.7762 24.3831 51.9236 24.4468C52.071 24.5105 52.2357 24.5216 52.3903 24.4783C53.0685 24.3471 53.7685 24.2814 54.5778 24.1502C54.1185 24.7408 53.7685 25.2877 53.3528 25.7252C53.2558 25.8036 53.1752 25.9005 53.116 26.0104C53.0567 26.1202 53.0199 26.2407 53.0077 26.3649C52.9955 26.4891 53.0081 26.6145 53.0448 26.7337C53.0816 26.853 53.1416 26.9638 53.2216 27.0596C53.5497 27.5846 53.7685 28.1752 54.0966 28.8314L51.9091 28.0221C51.8015 27.9642 51.6771 27.9456 51.5573 27.9696C51.4375 27.9935 51.3299 28.0585 51.2528 28.1533C50.7278 28.7002 50.181 29.2033 49.5903 29.7502C49.5903 29.0502 49.5903 28.3939 49.5903 27.7596C49.6384 27.5282 49.5975 27.2871 49.4759 27.0845C49.3543 26.8818 49.1609 26.7323 48.9341 26.6658C48.3653 26.4252 47.8403 26.0971 47.1841 25.7471C47.9497 25.5064 48.6278 25.2877 49.3716 25.1127C49.5398 25.0963 49.6959 25.0177 49.8092 24.8923C49.9225 24.7668 49.9849 24.6036 49.9841 24.4346C49.9185 23.7346 50.0497 23.0564 50.3122 22.2471Z" fill="white"/>
<path d="M34.9999 42.8311C33.8704 42.8364 32.7547 42.5828 31.7385 42.0899C30.7222 41.5969 29.8324 40.8777 29.1374 39.9874C29.0689 39.932 29.0136 39.862 28.9756 39.7825C28.9377 39.7031 28.918 39.6161 28.918 39.528C28.918 39.4399 28.9377 39.353 28.9756 39.2735C29.0136 39.194 29.0689 39.124 29.1374 39.0686C29.8525 38.2749 30.7661 37.686 31.7842 37.3624C31.9198 37.3216 32.0643 37.3216 32.1999 37.3624C33.0031 37.9886 33.9924 38.3286 35.0108 38.3286C36.0292 38.3286 37.0185 37.9886 37.8217 37.3624C37.884 37.3359 37.951 37.3223 38.0186 37.3223C38.0863 37.3223 38.1532 37.3359 38.2155 37.3624C39.2812 37.6701 40.2276 38.296 40.928 39.1561C40.9787 39.1993 41.0195 39.2529 41.0474 39.3133C41.0754 39.3738 41.0898 39.4395 41.0898 39.5061C41.0898 39.5727 41.0754 39.6385 41.0474 39.6989C41.0195 39.7594 40.9787 39.813 40.928 39.8561C40.2386 40.7781 39.344 41.527 38.3151 42.0434C37.2861 42.5597 36.1511 42.8294 34.9999 42.8311Z" fill="white"/>
<path d="M38.4999 33.8405C38.4956 34.5318 38.2867 35.2063 37.8995 35.779C37.5123 36.3517 36.9641 36.7969 36.3242 37.0584C35.6843 37.32 34.9813 37.3862 34.3038 37.2487C33.6263 37.1112 33.0047 36.7761 32.5174 36.2858C32.0301 35.7954 31.699 35.1717 31.5657 34.4934C31.4324 33.8151 31.503 33.1125 31.7685 32.4742C32.034 31.8359 32.4826 31.2906 33.0577 30.907C33.6328 30.5234 34.3086 30.3186 34.9999 30.3186C35.9302 30.3244 36.8204 30.698 37.4761 31.3578C38.1319 32.0177 38.5 32.9102 38.4999 33.8405Z" fill="white"/>
</g>
<defs>
<clipPath id="clip0_404_158">
<rect width="70" height="70" fill="white"/>
</clipPath>
</defs>
</svg>
