<svg width="52" height="41" viewBox="0 0 52 41" fill="none" xmlns="http://www.w3.org/2000/svg">
<g clip-path="url(#clip0_996_720)">
<path d="M51.8531 27.7562C51.6825 28.4181 51.2742 28.994 50.7063 29.3742C50.1383 29.7544 49.4503 29.9124 48.7734 29.818H48.3868L48.3095 29.921C48.1167 30.8098 47.5954 31.5929 46.85 32.1138C46.1045 32.6346 45.1899 32.8548 44.2891 32.7302H19.5739C19.4914 32.7156 19.4067 32.7182 19.3252 32.738C19.2438 32.7578 19.1673 32.7943 19.1007 32.8452C19.0341 32.8961 18.9788 32.9602 18.9382 33.0336C18.8977 33.1069 18.8728 33.1879 18.8652 33.2714C18.4033 34.9362 17.5006 36.4455 16.2524 37.6401C15.0042 38.8348 13.4568 39.6704 11.7733 40.0589C10.0898 40.4474 8.33268 40.3743 6.68724 39.8475C5.0418 39.3206 3.56903 38.3595 2.42428 37.0654C1.27953 35.7714 0.505232 34.1923 0.183046 32.4949C-0.139141 30.7975 0.00273076 29.0446 0.593697 27.4211C1.18466 25.7975 2.20282 24.3636 3.54078 23.2705C4.87873 22.1773 6.4869 21.4656 8.19565 21.2102L8.59511 21.1457V7.73152C8.54043 7.21043 8.60284 6.68371 8.77778 6.18983C8.95272 5.69594 9.23577 5.24738 9.60626 4.87689C9.97674 4.5064 10.4253 4.22335 10.9192 4.04841C11.4131 3.87347 11.9398 3.81106 12.4609 3.86574H14.1747C14.1747 3.22145 14.1747 2.57715 14.1747 1.9844C14.1771 1.58118 14.3015 1.18813 14.5315 0.85693C14.7615 0.525733 15.0863 0.271905 15.4633 0.128832C15.7554 0.0315737 16.0663 0.00454861 16.3709 0.0499497C16.6754 0.0953507 16.9649 0.211899 17.2159 0.390138C17.467 0.568378 17.6725 0.803287 17.8157 1.07581C17.959 1.34833 18.036 1.65078 18.0405 1.95863C18.0405 2.60293 18.0405 3.24722 18.0405 3.9044H22.3959C22.3959 3.26011 22.3959 2.61581 22.3959 1.91997C22.3604 1.63877 22.3863 1.3532 22.4719 1.08299C22.5575 0.812788 22.7008 0.564379 22.8917 0.354921C23.0827 0.145462 23.3168 -0.0200562 23.578 -0.130204C23.8391 -0.240352 24.1211 -0.292505 24.4044 -0.283062C24.6877 -0.273619 24.9655 -0.202805 25.2188 -0.0755107C25.472 0.0517841 25.6946 0.232527 25.8712 0.454237C26.0478 0.675948 26.1742 0.933343 26.2416 1.20865C26.309 1.48396 26.3159 1.77062 26.2617 2.04883C26.2617 2.65447 26.2617 3.26011 26.2617 3.9044H30.6687C30.6687 3.23434 30.6687 2.61581 30.6687 1.86843C30.7235 1.39425 30.9507 0.956778 31.3071 0.639231C31.6635 0.321683 32.1242 0.14622 32.6016 0.14622C33.0789 0.14622 33.5396 0.321683 33.896 0.639231C34.2524 0.956778 34.4796 1.39425 34.5344 1.86843C34.5344 2.5385 34.5344 3.15702 34.5344 3.93017H38.9156C38.9156 3.28588 38.9156 2.64158 38.9156 2.01017C38.8697 1.7299 38.8853 1.443 38.9613 1.16935C39.0373 0.895703 39.1719 0.641855 39.3558 0.425405C39.5397 0.208955 39.7684 0.0350807 40.0262 -0.0841644C40.2839 -0.203409 40.5645 -0.265173 40.8485 -0.265173C41.1325 -0.265173 41.4132 -0.203409 41.6709 -0.0841644C41.9287 0.0350807 42.1574 0.208955 42.3413 0.425405C42.5252 0.641855 42.6598 0.895703 42.7358 1.16935C42.8118 1.443 42.8273 1.7299 42.7814 2.01017C42.7814 2.64158 42.7814 3.29876 42.7814 3.89152C42.7814 3.89152 42.7814 3.89152 42.7814 3.9946H44.4566C45.377 3.93004 46.286 4.22831 46.9893 4.82557C47.6925 5.42283 48.134 6.27163 48.2193 7.19031C49.3532 13.6762 50.4958 20.1535 51.6469 26.6223C51.6673 26.6804 51.6932 26.7365 51.7242 26.7898L51.8531 27.7562ZM47.124 11.9839H9.84504V21.0684L10.6053 21.1586C11.9029 21.2793 13.161 21.6695 14.2993 22.304C15.4375 22.9386 16.4309 23.8037 17.2158 24.844C17.5508 25.2821 17.8472 25.6172 18.5044 25.5527C18.6326 25.5796 18.752 25.6386 18.8511 25.7243C18.9503 25.81 19.0261 25.9194 19.0714 26.0424C19.0714 26.2357 18.8523 26.4934 18.6977 26.7125C18.543 26.9315 18.5559 26.7125 18.4399 26.8027C19.0897 28.2809 19.3684 29.8955 19.2518 31.506H44.6499C44.8685 31.5252 45.0884 31.5252 45.3071 31.506C45.8573 31.3914 46.3462 31.0787 46.6812 30.6274C47.0161 30.1761 47.1737 29.6175 47.124 29.0577C47.124 23.5554 47.124 18.0531 47.124 12.5508V11.9839ZM9.83216 10.6953H47.124C47.124 9.54843 47.124 8.44024 47.124 7.33205C47.1253 6.83662 46.9514 6.35668 46.633 5.97705C46.3147 5.59742 45.8724 5.34253 45.3844 5.25742C44.5266 5.19083 43.665 5.19083 42.8072 5.25742C42.8072 5.8244 42.8072 6.3785 42.8072 6.93259C42.8147 7.22174 42.7546 7.50865 42.6315 7.77042C42.5085 8.03219 42.3259 8.26157 42.0985 8.44024C41.8257 8.68441 41.4863 8.84177 41.1237 8.89227C40.7611 8.94276 40.3916 8.88408 40.0625 8.72373C39.7082 8.57598 39.4067 8.32475 39.1975 8.00288C38.9883 7.68101 38.8811 7.30349 38.8899 6.9197C38.8899 6.35272 38.8899 5.78574 38.8899 5.21876H34.5602V5.79863C34.5602 6.24964 34.5602 6.71353 34.5602 7.16454C34.5602 7.67717 34.3566 8.16881 33.9941 8.53129C33.6316 8.89378 33.14 9.09742 32.6273 9.09742C32.1147 9.09742 31.6231 8.89378 31.2606 8.53129C30.8981 8.16881 30.6944 7.67717 30.6944 7.16454C30.6944 6.52024 30.6944 5.87595 30.6944 5.20588H26.3132C26.3132 5.8244 26.3132 6.39138 26.3132 6.97125C26.351 7.25237 26.3273 7.53834 26.2437 7.80938C26.1601 8.08043 26.0186 8.33008 25.829 8.54107C25.6394 8.75207 25.4063 8.91938 25.1457 9.03142C24.8852 9.14347 24.6033 9.19758 24.3198 9.19002C24.0363 9.18246 23.7577 9.1134 23.5035 8.98763C23.2493 8.86185 23.0254 8.68236 22.8473 8.46156C22.6693 8.24076 22.5413 7.98393 22.4723 7.70881C22.4032 7.4337 22.3948 7.14687 22.4475 6.86816V5.15434H18.0405V6.70064C18.098 6.98677 18.0913 7.2821 18.0208 7.56532C17.9503 7.84853 17.8178 8.11256 17.6329 8.33835C17.4479 8.56415 17.2152 8.74606 16.9514 8.87098C16.6877 8.9959 16.3994 9.06069 16.1076 9.06069C15.8157 9.06069 15.5275 8.9959 15.2638 8.87098C15 8.74606 14.7672 8.56415 14.5823 8.33835C14.3974 8.11256 14.2649 7.84853 14.1944 7.56532C14.1239 7.2821 14.1172 6.98677 14.1747 6.70064C14.1747 6.18521 14.1747 5.65689 14.1747 5.11568C13.2856 5.15434 12.4995 5.15434 11.7393 5.15434C11.2388 5.21634 10.7757 5.4511 10.4299 5.8181C10.0841 6.18509 9.87724 6.6613 9.84504 7.16454C9.7935 8.32427 9.83216 9.484 9.83216 10.6953ZM9.58733 39.0443C11.2502 39.0621 12.8808 38.5854 14.2722 37.6746C15.6635 36.7637 16.7527 35.4599 17.4015 33.9288C18.0503 32.3976 18.2293 30.7081 17.9159 29.075C17.6025 27.4418 16.8107 25.9387 15.6412 24.7565C14.4717 23.5742 12.9772 22.7663 11.3475 22.4352C9.71788 22.1042 8.02658 22.2649 6.48848 22.8971C4.95038 23.5293 3.63488 24.6044 2.70906 25.9858C1.78325 27.3672 1.2889 28.9926 1.2888 30.6555C1.28516 32.8707 2.15383 34.9982 3.70687 36.5778C5.25991 38.1574 7.37242 39.0619 9.58733 39.0958V39.0443ZM48.4512 14.8188V28.5809H48.9667C50.2552 28.5809 50.7578 27.9624 50.5387 26.7382C49.9975 23.5683 49.4305 20.3984 48.8765 17.2284C48.7476 16.4295 48.593 15.6306 48.4512 14.8188ZM16.7519 4.40695C16.7519 3.64668 16.7519 2.8993 16.7519 2.13903C16.7519 1.57205 16.4684 1.22413 16.0174 1.22413C15.5664 1.22413 15.2829 1.55917 15.2829 2.12615C15.2829 3.67246 15.2829 5.20588 15.2829 6.7393C15.2829 7.31917 15.5664 7.64131 16.0174 7.64131C16.4684 7.64131 16.7519 7.30628 16.7519 6.7393C16.8163 5.96615 16.7519 5.15434 16.7519 4.40695ZM41.5701 4.47138V2.13903C41.5701 1.57205 41.2738 1.23702 40.8357 1.22413C40.3975 1.21125 40.0883 1.55917 40.0883 2.12615V6.7393C40.0883 7.30628 40.3718 7.64131 40.8228 7.64131C41.2738 7.64131 41.5573 7.30628 41.5701 6.7393V4.47138ZM23.5299 4.40695V6.7393C23.5299 7.31917 23.8005 7.62843 24.2644 7.64131C24.7283 7.6542 24.986 7.31917 24.986 6.7393C24.986 5.20158 24.986 3.66816 24.986 2.13903C24.986 1.55917 24.7154 1.22413 24.2644 1.22413C23.8134 1.22413 23.5299 1.57205 23.5299 2.12615V4.40695ZM31.8155 4.40695C31.8155 5.19299 31.8155 5.99192 31.8155 6.77796C31.8155 7.33205 32.0732 7.62843 32.5242 7.64131C32.9752 7.6542 33.2587 7.34494 33.2587 6.80373V2.08749C33.2587 1.55917 32.9752 1.23702 32.5371 1.22413C32.099 1.21125 31.8155 1.54628 31.8155 2.0746C31.8799 2.84776 31.8928 3.6338 31.8928 4.40695H31.8155Z" fill="#58595B"/>
<path d="M28.5168 29.9339H23.6073C23.4398 29.9339 23.2207 29.9339 23.1047 29.9339C22.9037 29.8123 22.7563 29.6188 22.6924 29.3927C22.6924 29.1994 22.8986 28.9804 23.0661 28.8257C23.2336 28.6711 23.3496 28.8257 23.5042 28.8257H33.4263C33.5423 28.8257 33.6969 28.8257 33.7743 28.8257C33.8516 28.8257 34.2253 29.1865 34.2768 29.4185C34.2867 29.4948 34.2794 29.5723 34.2554 29.6453C34.2314 29.7184 34.1914 29.7852 34.1383 29.8408C34.0852 29.8964 34.0203 29.9394 33.9484 29.9667C33.8765 29.9939 33.7994 30.0048 33.7227 29.9984C33.3748 29.9984 33.014 29.9984 32.6661 29.9984L28.5168 29.9339Z" fill="#58595B"/>
<path d="M28.4397 21.3648C27.7438 21.3648 27.0351 21.3648 26.3264 21.3648C25.811 21.3648 25.5017 21.107 25.5404 20.7205C25.579 20.3339 25.9012 20.1406 26.3264 20.1406H30.6303C31.0426 20.1406 31.3648 20.2437 31.4034 20.7333C31.4421 21.223 31.1457 21.3648 30.6174 21.3648C29.8958 21.3776 29.1742 21.3648 28.4397 21.3648Z" fill="#58595B"/>
<path d="M40.8227 20.1406H43.0004C43.4127 20.1406 43.6962 20.2952 43.7478 20.7205C43.7993 21.1457 43.4643 21.3648 43.0004 21.3648C41.5314 21.3648 40.0753 21.3648 38.6063 21.3648C38.1166 21.3648 37.846 21.1199 37.8718 20.7205C37.8976 20.321 38.194 20.1406 38.6063 20.1406H40.8227Z" fill="#58595B"/>
<path d="M28.4527 26.7511H26.275C25.7982 26.7511 25.5018 26.4934 25.5405 26.1068C25.5791 25.7202 25.8626 25.5269 26.275 25.5269H30.6691C31.1587 25.5269 31.4293 25.7718 31.4036 26.1584C31.3778 26.5449 31.0814 26.7511 30.6691 26.7511H28.4527Z" fill="#58595B"/>
<path d="M40.7712 26.7511H38.6579C38.2584 26.7511 37.962 26.5965 37.9363 26.1455C37.9105 25.6945 38.1811 25.5269 38.6836 25.5269H43.0777C43.4901 25.5269 43.7736 25.6945 43.7993 26.1197C43.8251 26.5449 43.5416 26.7382 43.052 26.7511H40.7712Z" fill="#58595B"/>
<path d="M16.1591 14.7543H18.2853C18.8265 14.7543 19.0842 14.9733 19.0713 15.3728C19.0584 15.7722 18.8007 15.9784 18.2466 15.9784H14.0071C13.4917 15.9784 13.1696 15.7336 13.2082 15.347C13.2469 14.9604 13.569 14.7414 13.9814 14.7543H16.1591Z" fill="#58595B"/>
<path d="M28.4911 14.7543H30.6044C31.1456 14.7543 31.4162 14.9733 31.4033 15.3728C31.3904 15.7723 31.1327 15.9784 30.5786 15.9784H26.3392C25.8237 15.9784 25.5016 15.7336 25.5402 15.347C25.5789 14.9604 25.901 14.7543 26.3134 14.7543H28.4911Z" fill="#58595B"/>
<path d="M40.8231 14.7543H42.9879C43.4776 14.7543 43.774 15.012 43.7482 15.3728C43.7437 15.4623 43.7206 15.5498 43.6804 15.6299C43.6402 15.7099 43.5837 15.7807 43.5146 15.8377C43.4455 15.8947 43.3652 15.9366 43.279 15.9609C43.1927 15.9851 43.1024 15.9911 43.0137 15.9784H38.6582C38.1557 15.9784 37.8851 15.7336 37.9109 15.347C37.9366 14.9604 38.233 14.7543 38.6325 14.7543H40.8231Z" fill="#58595B"/>
<path d="M16.1721 20.1406H18.3369C18.7493 20.1406 19.0456 20.2823 19.0714 20.7205C19.0972 21.1586 18.8266 21.3648 18.3369 21.3648C16.8808 21.3648 15.4118 21.3648 13.9428 21.3648C13.4789 21.3648 13.1697 21.0942 13.2083 20.7205C13.247 20.3468 13.5305 20.1406 13.9428 20.1406H16.1721Z" fill="#58595B"/>
<path d="M7.35849 32.975C6.7142 32.975 6.0699 32.975 5.54158 32.975C4.34319 32.9621 3.86641 32.4725 3.86641 31.287V29.9984C3.83817 29.783 3.86028 29.564 3.931 29.3585C4.00172 29.1531 4.11913 28.9669 4.27399 28.8146C4.42885 28.6622 4.61694 28.5478 4.82347 28.4805C5.03 28.4131 5.24935 28.3946 5.46426 28.4263H7.35849V27.4598C7.35849 27.0604 7.35849 26.6609 7.35849 26.2486C7.35849 25.9068 7.49425 25.5791 7.73591 25.3374C7.97757 25.0957 8.30533 24.96 8.64708 24.96C9.23983 24.96 9.83258 24.96 10.4253 24.96C10.6088 24.9485 10.7926 24.9764 10.9644 25.0418C11.1362 25.1072 11.2921 25.2086 11.4214 25.3392C11.5508 25.4698 11.6507 25.6265 11.7145 25.7989C11.7783 25.9714 11.8045 26.1554 11.7912 26.3388C11.7912 27.0346 11.7912 27.7176 11.7912 28.4778H13.6984C13.9247 28.418 14.1624 28.4151 14.3901 28.4695C14.6178 28.5239 14.8285 28.6339 15.0034 28.7896C15.1782 28.9453 15.3118 29.1419 15.3921 29.3619C15.4724 29.5818 15.497 29.8182 15.4637 30.0499V31.4674C15.4825 31.6628 15.4589 31.86 15.3946 32.0455C15.3303 32.2311 15.2267 32.4005 15.091 32.5424C14.9552 32.6843 14.7905 32.7952 14.608 32.8676C14.4255 32.9401 14.2295 32.9723 14.0334 32.9621C13.3633 32.9621 12.7448 32.9621 11.9459 32.9621V34.7919C11.9459 35.9517 11.4433 36.4542 10.2836 36.4542H8.85326C8.65368 36.4717 8.45269 36.4455 8.26428 36.3773C8.07587 36.3092 7.90457 36.2009 7.7623 36.0598C7.62002 35.9188 7.51019 35.7484 7.44046 35.5606C7.37072 35.3728 7.34275 35.1721 7.35849 34.9723C7.34561 34.3409 7.35849 33.6966 7.35849 32.975ZM6.62399 31.6864H7.73218C8.38936 31.6864 8.58265 31.8926 8.58265 32.5498C8.58265 33.207 8.58265 34.0317 8.58265 34.7662C8.58265 35.0883 8.65997 35.2301 9.00789 35.2043C9.35581 35.1785 9.8197 35.2043 10.2192 35.2043C10.6186 35.2043 10.6702 35.127 10.6573 34.779C10.6573 34.0574 10.6573 33.3358 10.6573 32.6142C10.6573 31.8926 10.8377 31.6993 11.5851 31.6864H13.7628C14.0592 31.6864 14.2009 31.6091 14.188 31.287C14.1611 30.8579 14.1611 30.4275 14.188 29.9984C14.188 29.6891 14.0849 29.586 13.7757 29.586C13.0025 29.586 12.2294 29.586 11.4433 29.586C10.8763 29.586 10.6573 29.3541 10.6573 28.7742C10.6573 28.1943 10.6573 27.331 10.6573 26.5965C10.6573 26.197 10.58 26.0037 10.129 26.0424C9.76002 26.0683 9.38972 26.0683 9.02077 26.0424C8.69863 26.0424 8.56977 26.1326 8.58265 26.4676C8.58265 27.2408 8.58265 28.0139 8.58265 28.8C8.58265 29.3412 8.35071 29.5603 7.8095 29.5731C7.06212 29.5731 6.32762 29.5731 5.58024 29.5731C5.20654 29.5731 5.01326 29.6505 5.0648 30.0757C5.09058 30.4446 5.09058 30.8149 5.0648 31.1839C5.0648 31.5318 5.14212 31.6864 5.51581 31.6607C5.8895 31.6349 6.2503 31.738 6.62399 31.738V31.6864Z" fill="#EE4423"/>
</g>
<defs>
<clipPath id="clip0_996_720">
<rect width="51.8529" height="40.32" fill="white"/>
</clipPath>
</defs>
</svg>
