<svg width="78" height="78" viewBox="0 0 78 78" fill="none" xmlns="http://www.w3.org/2000/svg">
<path d="M74.0723 31.3199C73.3692 27.9981 72.1967 24.7933 70.5901 21.8021C69.3295 19.2655 67.3124 17.1828 64.8175 15.8418C62.3225 14.5007 59.4726 13.9674 56.6615 14.3155C53.7756 14.6082 50.9989 15.5757 48.5559 17.1399C46.8342 18.2039 45.1898 19.4033 43.4681 20.5833C42.1597 19.1083 41.1891 17.3653 40.6243 15.4762C39.5667 11.9753 39.244 8.29366 39.6764 4.66219C39.8118 3.1726 39.4443 2.72766 37.9547 2.72766H30.6035C29.2493 2.72766 28.9398 3.03718 28.8044 4.39135C28.4802 7.81225 28.5516 11.2591 29.0172 14.6637C29.5896 20.5106 32.0163 26.0214 35.9428 30.3914C36.9706 31.5359 37.8009 32.8434 38.3996 34.2604C39.0845 35.644 39.48 37.1527 39.5621 38.6944C39.6441 40.236 39.411 41.7782 38.8768 43.2267C38.3427 44.6751 37.5188 45.9995 36.4556 47.1188C35.3923 48.2381 34.112 49.1288 32.6928 49.7366C30.9706 50.4275 29.1714 50.9081 27.3342 51.1681C24.2116 51.5454 21.055 51.5454 17.9324 51.1681C14.8357 50.9525 11.76 51.8182 9.23046 53.6175C6.70087 55.4168 4.87408 58.0381 4.06185 61.0342C3.04592 65.163 2.68041 69.4251 2.97851 73.6667C2.97851 74.7693 3.40411 75.1175 4.52613 75.1175C6.92494 75.1175 9.30441 75.1175 11.7032 75.1175C13.2315 75.1175 13.483 74.9047 13.6377 73.4152L15.4755 62.5431C15.4646 62.096 15.609 61.6588 15.8841 61.3061C16.1592 60.9534 16.5481 60.7069 16.9845 60.6086C17.4128 60.4869 17.8691 60.5079 18.2844 60.6684C18.6997 60.829 19.0515 61.1203 19.2866 61.4985C22.2804 65.4998 26.5094 68.403 31.3193 69.7589C38.5555 71.8459 46.2805 71.4647 53.2761 68.6756C67.9205 63.2396 77.9607 48.1503 74.0723 31.3199ZM61.788 60.9568C58.4685 63.7868 54.6135 65.92 50.4526 67.2294C46.2916 68.5388 41.9098 68.9978 37.5678 68.5789C32.028 68.33 26.7795 66.0265 22.8461 62.1175C22.2344 61.513 21.6655 60.8666 21.1437 60.183C20.645 59.431 19.924 58.8535 19.0812 58.531C18.2385 58.2084 17.3161 58.157 16.4428 58.3839C15.5267 58.564 14.6952 59.0403 14.0765 59.7394C13.4577 60.4386 13.086 61.3218 13.0187 62.253C12.477 65.5416 11.974 68.8497 11.4711 72.1384C11.4711 72.3512 11.4711 72.5253 11.3357 72.7574H5.31929C5.31929 71.8095 5.31929 70.8229 5.31929 69.933C5.36157 67.2283 5.69888 64.5363 6.32524 61.9047C6.97881 59.3751 8.49757 57.1542 10.6179 55.6276C12.7381 54.101 15.3261 53.3651 17.9324 53.5476C21.6793 53.977 25.4673 53.8924 29.1913 53.2961C32.7845 52.7705 36.0891 51.0295 38.5544 48.3631C40.385 46.1639 41.5176 43.4684 41.8071 40.6216C42.0966 37.7749 41.5298 34.9066 40.1794 32.3839C39.5533 31.128 38.7593 29.963 37.8193 28.9211C34.5767 25.4078 32.4492 21.0115 31.7062 16.2887C31.1009 12.8938 30.8996 9.43921 31.1065 5.99701C31.1065 5.72617 31.1065 5.45534 31.1065 5.16516H37.0068V7.09969C36.8286 10.7761 37.4558 14.447 38.8446 17.8556C39.6121 19.7512 40.7954 21.4503 42.3074 22.8274C43.236 23.6399 43.6615 23.6399 44.6095 22.8274C47.2602 20.4491 50.3483 18.6094 53.7017 17.4107C55.5681 16.6663 57.5945 16.4141 59.5865 16.6783C61.5784 16.9426 63.469 17.7143 65.0767 18.9196C66.4791 19.9358 67.6305 21.2592 68.4428 22.7887C71.0173 27.5484 72.4168 32.8546 72.5247 38.2649C72.5952 42.6173 71.6636 46.9277 69.8018 50.8626C67.9401 54.7974 65.1981 58.2512 61.788 60.9568Z" fill="#58595B"/>
<path d="M63.5876 47.7634C63.313 48.9224 62.9376 50.0552 62.4656 51.1488C61.6031 53.0285 60.3382 54.6959 58.7604 56.033C57.1826 57.3701 55.3304 58.3444 53.3346 58.8869C52.501 59.0802 51.6341 59.0802 50.8004 58.8869C50.3071 58.7607 49.8436 58.5383 49.4364 58.2325C49.0292 57.9268 48.6864 57.5436 48.4276 57.1051C48.1688 56.6666 47.9991 56.1813 47.9283 55.677C47.8574 55.1728 47.8868 54.6595 48.0147 54.1667C48.3096 52.5547 48.9715 51.0323 49.9492 49.7173C51.7888 46.9546 54.5201 44.9062 57.6873 43.9137C58.1994 43.7784 58.725 43.7005 59.2543 43.6815C59.8048 43.6418 60.3575 43.7204 60.8752 43.9119C61.3928 44.1034 61.8635 44.4035 62.2557 44.7919C62.6478 45.1804 62.9523 45.6482 63.1486 46.1641C63.345 46.68 63.4287 47.2318 63.3942 47.7827L63.5876 47.7634Z" fill="#EE4423"/>
<path d="M45.0745 60.1636C45.0782 61.063 44.814 61.9431 44.3154 62.6917C43.8168 63.4403 43.1065 64.0233 42.2752 64.3665C41.4438 64.7097 40.5291 64.7975 39.6477 64.6187C38.7662 64.4399 37.958 64.0025 37.3262 63.3624C36.6944 62.7223 36.2675 61.9085 36.1001 61.0249C35.9327 60.1412 36.0323 59.2276 36.3863 58.4008C36.7402 57.574 37.3325 56.8713 38.0874 56.3825C38.8424 55.8937 39.7259 55.6408 40.6251 55.6562C41.8073 55.6813 42.9332 56.166 43.7639 57.0076C44.5946 57.8491 45.0647 58.9812 45.0745 60.1636Z" fill="#EE4423"/>
</svg>
