<svg width="41" height="41" viewBox="0 0 41 41" fill="none" xmlns="http://www.w3.org/2000/svg">
<g clip-path="url(#clip0_404_66)">
<path d="M-0.000194739 22.1844V8.97244C-0.033411 8.49257 0.0366507 8.01116 0.205266 7.56066C0.373882 7.11016 0.637131 6.70105 0.977264 6.36092C1.3174 6.02078 1.7265 5.75754 2.177 5.58892C2.6275 5.4203 3.10892 5.35024 3.58879 5.38346H5.27113C5.36543 5.3709 5.46132 5.37816 5.55266 5.40475C5.64401 5.43135 5.7288 5.4767 5.80163 5.53792C5.87445 5.59913 5.93371 5.67487 5.97562 5.76028C6.01752 5.84569 6.04115 5.9389 6.045 6.03396C6.045 6.43772 5.7534 6.71811 5.27113 6.71811H3.58879C3.28688 6.68848 2.98215 6.72614 2.69653 6.82839C2.41092 6.93064 2.15152 7.09494 1.93701 7.30945C1.7225 7.52396 1.5582 7.78335 1.45596 8.06897C1.35371 8.35458 1.31604 8.65931 1.34567 8.96123V35.4749C1.32388 35.7662 1.36521 36.0587 1.46685 36.3326C1.56849 36.6065 1.72803 36.8552 1.9346 37.0618C2.14116 37.2683 2.38987 37.4279 2.66374 37.5295C2.93761 37.6311 3.23019 37.6725 3.5215 37.6507H24.1918C24.3614 37.665 24.5189 37.744 24.6317 37.8714C24.7444 37.9988 24.8038 38.1648 24.7974 38.3348C24.7978 38.4969 24.7367 38.653 24.6263 38.7717C24.516 38.8904 24.3647 38.9627 24.203 38.9741C24.0762 38.9853 23.9486 38.9853 23.8217 38.9741H3.63365C3.14917 39.0143 2.66173 38.9491 2.20489 38.7828C1.74805 38.6166 1.33266 38.3533 0.987305 38.0112C0.641953 37.669 0.374847 37.2561 0.204374 36.8008C0.0339008 36.3456 -0.0358902 35.8587 -0.000194739 35.3739V22.1844Z" fill="#595959"/>
<path d="M30.2816 23.9117C30.405 23.7659 30.5059 23.6425 30.6069 23.5415C31.2025 22.7706 32.004 22.1836 32.9187 21.8482C33.8335 21.5129 34.8244 21.4428 35.7772 21.6461C36.7954 21.8429 37.739 22.3182 38.5033 23.0191C39.2676 23.72 39.8225 24.6191 40.1065 25.6164C40.5563 27.2804 40.3972 29.0503 39.6578 30.6074C38.8555 32.4421 37.714 34.1087 36.2932 35.5198C34.6409 37.2552 32.7972 38.7979 30.7975 40.1182C30.6384 40.2456 30.4406 40.315 30.2368 40.315C30.0329 40.315 29.8351 40.2456 29.676 40.1182C26.6759 38.2181 24.0803 35.7445 22.0382 32.8393C20.8264 31.1621 20.1784 29.1435 20.1876 27.0744C20.2118 26.2673 20.407 25.4744 20.7602 24.7483C21.1135 24.0221 21.6168 23.3792 22.2369 22.8619C22.857 22.3446 23.5798 21.9648 24.3575 21.7474C25.1353 21.5301 25.9503 21.4803 26.7487 21.6012C27.9367 21.8522 29.0111 22.4819 29.8106 23.3957L30.2816 23.9117ZM21.5335 27.3661C21.5986 28.9703 22.1114 30.5243 23.0139 31.8523C24.8856 34.6028 27.2878 36.9517 30.0797 38.7611C30.146 38.7937 30.2189 38.8107 30.2928 38.8107C30.3667 38.8107 30.4396 38.7937 30.5059 38.7611C32.5022 37.3897 34.3118 35.7648 35.8894 33.9272C37.1221 32.6007 38.0553 31.0249 38.626 29.3063C38.8658 28.6536 38.9744 27.96 38.9456 27.2652C38.9167 26.5704 38.7509 25.8881 38.4578 25.2575C38.1811 24.6539 37.761 24.1271 37.2341 23.7231C36.7073 23.319 36.0895 23.05 35.4348 22.9394C34.7801 22.8288 34.1083 22.88 33.4779 23.0886C32.8475 23.2971 32.2777 23.6567 31.8182 24.136C31.4735 24.506 31.155 24.8995 30.8648 25.3136C30.4611 25.8744 29.9676 25.8632 29.5414 25.3136C29.1915 24.8088 28.7934 24.3393 28.3525 23.9117C28.0229 23.5765 27.6302 23.3098 27.1972 23.127C26.7641 22.9441 26.2991 22.8487 25.829 22.8462C25.2482 22.8578 24.6755 22.9841 24.1437 23.2179C23.6118 23.4517 23.1315 23.7882 22.7302 24.2083C22.3289 24.6283 22.0146 25.1235 21.8054 25.6655C21.5962 26.2074 21.4961 26.7853 21.511 27.3661H21.5335Z" fill="#595959"/>
<path d="M4.03798 9.47715V34.9702H21.6352C21.8058 34.976 21.9672 35.0487 22.0847 35.1725C22.2022 35.2962 22.2663 35.4612 22.2633 35.6319C22.2666 35.8018 22.2043 35.9665 22.0895 36.0917C21.9746 36.217 21.816 36.2933 21.6464 36.3048C21.5455 36.3048 21.4221 36.3048 21.31 36.3048C15.6349 36.3048 9.94859 36.3048 4.26229 36.3048C4.05185 36.3359 3.83708 36.3178 3.63477 36.2521C3.43245 36.1864 3.24807 36.0748 3.09604 35.926C2.94401 35.7773 2.82844 35.5954 2.75837 35.3945C2.68829 35.1937 2.66562 34.9793 2.69211 34.7683V9.64538C2.66072 9.43242 2.6792 9.21507 2.74609 9.01046C2.81298 8.80585 2.92646 8.61956 3.07758 8.46626C3.22871 8.31297 3.41336 8.19684 3.61699 8.12703C3.82062 8.05723 4.03768 8.03564 4.25107 8.06399H5.30534C5.3992 8.05455 5.49399 8.06495 5.58357 8.09452C5.67314 8.12409 5.7555 8.17216 5.8253 8.23561C5.8951 8.29907 5.95078 8.37649 5.98873 8.46285C6.02667 8.54921 6.04604 8.64259 6.04556 8.73692C6.04556 9.12947 5.74274 9.38742 5.28291 9.39864H4.16135L4.03798 9.47715Z" fill="#595959"/>
<path d="M19.47 3.36471H22.0048C22.2098 3.33655 22.4185 3.35524 22.6152 3.41939C22.8119 3.48354 22.9915 3.59147 23.1405 3.73506C23.2895 3.87865 23.404 4.05416 23.4753 4.24838C23.5467 4.44261 23.5731 4.65049 23.5525 4.85638V9.93704C23.5734 10.1371 23.5495 10.3393 23.4827 10.529C23.4158 10.7187 23.3077 10.8911 23.166 11.0339C23.0243 11.1767 22.8526 11.2861 22.6634 11.3544C22.4743 11.4227 22.2723 11.4481 22.0721 11.4287H8.8601C8.66387 11.4456 8.46632 11.4196 8.28116 11.3524C8.09601 11.2853 7.92768 11.1786 7.78788 11.0399C7.64808 10.9012 7.54016 10.7337 7.4716 10.549C7.40304 10.3644 7.37549 10.167 7.39086 9.97069C7.39086 8.24349 7.39086 6.5275 7.39086 4.8003C7.37718 4.60632 7.4057 4.41168 7.47445 4.22978C7.5432 4.04787 7.65056 3.88303 7.78913 3.74659C7.92769 3.61016 8.09418 3.50537 8.27713 3.43944C8.46008 3.37352 8.65514 3.34802 8.84888 3.36471H11.4733C11.5693 2.82308 11.7738 2.30644 12.0745 1.84582C12.3751 1.38519 12.7658 0.990069 13.223 0.684187C13.9328 0.203942 14.778 -0.035863 15.6343 3.66915e-05C16.5571 0.0535898 17.4355 0.413682 18.1304 1.02321C18.8252 1.63273 19.2967 2.45679 19.47 3.36471ZM22.1618 4.71058H18.9429C18.4158 4.71058 18.1915 4.48627 18.1466 3.95914C18.131 3.70795 18.0859 3.45949 18.012 3.21891C17.8261 2.61763 17.4345 2.10095 16.9059 1.75938C16.3773 1.41781 15.7453 1.27314 15.1208 1.35071C14.4962 1.42828 13.9188 1.72314 13.4898 2.18364C13.0608 2.64415 12.8075 3.24092 12.7743 3.86941C12.7743 4.51991 12.5276 4.71058 11.8883 4.72179H8.77038V10.0941H22.1618V4.71058Z" fill="#595959"/>
<path d="M30.9215 14.7709V20.7825C30.9328 20.9206 30.9328 21.0594 30.9215 21.1975C30.9006 21.3567 30.8225 21.5029 30.7018 21.6089C30.5811 21.7148 30.426 21.7732 30.2654 21.7732C30.1048 21.7732 29.9496 21.7148 29.8289 21.6089C29.7082 21.5029 29.6301 21.3567 29.6093 21.1975C29.5925 21.0596 29.5925 20.9203 29.6093 20.7825V8.97249C29.6389 8.67057 29.6012 8.36584 29.499 8.08023C29.3967 7.79461 29.2324 7.53522 29.0179 7.3207C28.8034 7.10619 28.544 6.9419 28.2584 6.83965C27.9728 6.7374 27.668 6.69974 27.3661 6.72937H25.6614C25.1679 6.72937 24.8651 6.44898 24.8763 6.04522C24.8801 5.95016 24.9038 5.85695 24.9457 5.77154C24.9876 5.68612 25.0468 5.61039 25.1197 5.54918C25.1925 5.48796 25.2773 5.4426 25.3686 5.41601C25.46 5.38941 25.5558 5.38216 25.6502 5.39472H27.6241C28.4932 5.41193 29.322 5.76486 29.9366 6.37955C30.5513 6.99423 30.9043 7.82297 30.9215 8.6921C30.9215 10.7221 30.9215 12.7521 30.9215 14.7822V14.7709Z" fill="#595959"/>
<path d="M8.07536 16.1392V20.1881H8.49034C9.48852 20.1881 10.4979 20.1881 11.5073 20.1881C11.8617 20.1691 12.2122 20.105 12.5504 19.9974C12.6365 19.9696 12.7273 19.9592 12.8175 19.9667C12.9077 19.9743 12.9955 19.9996 13.0759 20.0414C13.1562 20.0831 13.2274 20.1403 13.2855 20.2098C13.3435 20.2793 13.3872 20.3596 13.414 20.446C13.466 20.5521 13.4938 20.6685 13.4952 20.7867C13.4967 20.9049 13.4718 21.022 13.4224 21.1293C13.373 21.2367 13.3003 21.3318 13.2096 21.4076C13.1189 21.4834 13.0125 21.538 12.8981 21.5676C12.7862 21.5787 12.6735 21.5787 12.5616 21.5676C10.9129 21.5676 9.26421 21.5676 7.60431 21.5676C6.9538 21.5115 6.72949 21.3096 6.72949 20.6367V15.7018C6.72949 15.0401 6.9538 14.8158 7.61552 14.8158H9.91472C10.4082 14.8158 10.711 15.0738 10.7335 15.4663C10.7559 15.8588 10.4194 16.1504 9.9035 16.1617L8.07536 16.1392Z" fill="#595959"/>
<path d="M8.08656 26.222V30.2821H8.44546C9.46608 30.2821 10.4867 30.2821 11.5073 30.2821C11.8606 30.2615 12.2105 30.2013 12.5504 30.1026C12.6365 30.0748 12.7273 30.0644 12.8175 30.0719C12.9077 30.0795 12.9955 30.1048 13.0758 30.1466C13.1562 30.1883 13.2274 30.2456 13.2855 30.315C13.3435 30.3845 13.3872 30.4648 13.414 30.5512C13.458 30.6544 13.4793 30.7658 13.4767 30.878C13.474 30.9901 13.4473 31.1004 13.3984 31.2013C13.3495 31.3023 13.2796 31.3916 13.1933 31.4633C13.1069 31.5349 13.0063 31.5872 12.898 31.6167C12.7862 31.6279 12.6735 31.6279 12.5616 31.6167H7.60429C6.94257 31.6167 6.72948 31.3924 6.71826 30.7307V25.7958C6.71826 25.1341 6.94257 24.9098 7.60429 24.9098H9.9147C10.4082 24.9098 10.7222 25.1677 10.7334 25.5715C10.7447 25.9753 10.4194 26.2557 9.90349 26.2557L8.08656 26.222Z" fill="#595959"/>
<path d="M26.9174 9.40987H25.6164C25.5216 9.41942 25.4258 9.40872 25.3354 9.37849C25.2451 9.34826 25.1621 9.29919 25.0922 9.23451C25.0222 9.16983 24.9667 9.09103 24.9295 9.00332C24.8923 8.91561 24.8741 8.82098 24.8761 8.72572C24.8772 8.6338 24.8974 8.54312 24.9355 8.45945C24.9736 8.37578 25.0287 8.30096 25.0972 8.23976C25.1658 8.17856 25.2464 8.13232 25.3339 8.10399C25.4213 8.07566 25.5137 8.06586 25.6051 8.07521C26.0426 8.07521 26.4687 8.07521 26.9062 8.07521C27.2533 8.07516 27.5866 8.21151 27.8341 8.45487C28.0817 8.69824 28.2237 9.02912 28.2296 9.37622C28.2296 12.8082 28.2296 16.2289 28.2296 19.6609C28.2376 19.7558 28.2254 19.8513 28.1937 19.9411C28.1621 20.0309 28.1117 20.113 28.046 20.1819C27.9803 20.2508 27.9006 20.305 27.8124 20.3408C27.7242 20.3767 27.6294 20.3934 27.5342 20.3899C27.1529 20.3899 26.8949 20.0759 26.8949 19.6048V9.40987H26.9174Z" fill="#595959"/>
<path d="M19.874 16.1392H23.3621C23.8892 16.1392 24.2032 16.3972 24.2032 16.8122C24.2032 17.2271 23.8892 17.4851 23.3621 17.4851H16.3075C15.7803 17.4851 15.4663 17.2271 15.4663 16.8122C15.4663 16.3972 15.7803 16.1392 16.3075 16.1392H19.874Z" fill="#595959"/>
<path d="M10.6773 17.8777L13.5148 14.513C13.5988 14.3737 13.729 14.2682 13.8826 14.2149C14.0363 14.1617 14.2038 14.1639 14.356 14.2214C14.4616 14.2639 14.5547 14.3326 14.6266 14.4209C14.6984 14.5092 14.7467 14.6143 14.7669 14.7264C14.7871 14.8384 14.7785 14.9538 14.7419 15.0616C14.7054 15.1695 14.642 15.2663 14.5579 15.343L12.4942 17.8216L11.3727 19.1787C11.3162 19.2736 11.2375 19.3535 11.1435 19.4115C11.0494 19.4694 10.9427 19.5037 10.8324 19.5114C10.7222 19.5191 10.6118 19.5001 10.5105 19.4558C10.4093 19.4115 10.3203 19.3434 10.2511 19.2572C9.83613 18.8646 9.43237 18.4497 9.02861 18.0459C8.95701 17.9828 8.89966 17.9051 8.86038 17.8181C8.8211 17.7311 8.80078 17.6367 8.80078 17.5412C8.80078 17.4457 8.8211 17.3514 8.86038 17.2643C8.89966 17.1773 8.95701 17.0997 9.02861 17.0365C9.09465 16.9685 9.17453 16.9154 9.26284 16.881C9.35116 16.8465 9.44585 16.8314 9.5405 16.8368C9.63515 16.8421 9.72756 16.8677 9.81146 16.9118C9.89536 16.9559 9.9688 17.0176 10.0268 17.0926C10.195 17.3169 10.4081 17.5861 10.6773 17.8777Z" fill="#595959"/>
<path d="M10.6662 27.9717L13.4589 24.6743C13.5361 24.5765 13.6224 24.4864 13.7169 24.4051C13.8298 24.2962 13.9805 24.2353 14.1375 24.2353C14.2944 24.2353 14.4451 24.2962 14.558 24.4051C14.6853 24.4975 14.7717 24.6357 14.7989 24.7906C14.8262 24.9455 14.792 25.1049 14.7038 25.2351C14.6005 25.4004 14.4802 25.5545 14.3449 25.6949L11.4065 29.1605C10.9691 29.6765 10.6214 29.6989 10.1503 29.2278C9.67926 28.7568 9.38766 28.4764 9.02876 28.1063C8.66986 27.7362 8.65864 27.3548 8.96147 27.0745C9.02827 27.0071 9.10878 26.9548 9.19755 26.9213C9.28631 26.8877 9.38126 26.8737 9.47593 26.8801C9.57061 26.8865 9.6628 26.9131 9.74626 26.9583C9.82972 27.0034 9.9025 27.066 9.95965 27.1417C10.1952 27.4109 10.4195 27.6913 10.6662 27.9717Z" fill="#595959"/>
<path d="M17.4624 20.188H16.2062C16.1114 20.1976 16.0156 20.1869 15.9253 20.1567C15.8349 20.1264 15.752 20.0774 15.682 20.0127C15.612 19.948 15.5566 19.8692 15.5193 19.7815C15.4821 19.6938 15.4639 19.5992 15.466 19.5039C15.4671 19.412 15.4873 19.3213 15.5253 19.2376C15.5634 19.154 15.6185 19.0791 15.6871 19.0179C15.7557 18.9567 15.8363 18.9105 15.9237 18.8822C16.0112 18.8538 16.1035 18.844 16.195 18.8534H18.7521C18.847 18.8411 18.9435 18.8491 19.035 18.877C19.1265 18.9049 19.2111 18.952 19.283 19.0152C19.3549 19.0783 19.4125 19.1561 19.4519 19.2433C19.4914 19.3304 19.5118 19.425 19.5118 19.5207C19.5118 19.6164 19.4914 19.711 19.4519 19.7982C19.4125 19.8854 19.3549 19.9631 19.283 20.0263C19.2111 20.0894 19.1265 20.1365 19.035 20.1644C18.9435 20.1923 18.847 20.2004 18.7521 20.188H17.4624Z" fill="#595959"/>
<path d="M17.1034 27.5679C16.7781 27.5679 16.4641 27.5679 16.1389 27.5679C16.0505 27.5679 15.963 27.5505 15.8813 27.5167C15.7997 27.4829 15.7255 27.4333 15.663 27.3708C15.6005 27.3083 15.551 27.2341 15.5171 27.1525C15.4833 27.0708 15.4659 26.9833 15.4659 26.895C15.4644 26.8076 15.4805 26.7209 15.5132 26.6399C15.5459 26.559 15.5946 26.4854 15.6563 26.4237C15.7181 26.3619 15.7917 26.3132 15.8726 26.2805C15.9536 26.2478 16.0403 26.2317 16.1276 26.2332C16.8006 26.2332 17.4735 26.2332 18.1464 26.2332C18.2347 26.2302 18.3226 26.2451 18.4049 26.2771C18.4872 26.3092 18.5621 26.3576 18.6251 26.4195C18.688 26.4814 18.7377 26.5555 18.7711 26.6373C18.8045 26.719 18.821 26.8067 18.8194 26.895C18.8194 27.0715 18.75 27.241 18.6263 27.3669C18.5025 27.4928 18.3342 27.565 18.1577 27.5679C17.81 27.5791 17.4511 27.5679 17.1034 27.5679Z" fill="#595959"/>
<path d="M17.1601 30.282C16.8237 30.282 16.4872 30.282 16.1507 30.282C16.0558 30.2944 15.9594 30.2863 15.8679 30.2584C15.7763 30.2305 15.6918 30.1834 15.6199 30.1203C15.548 30.0571 15.4904 29.9794 15.451 29.8922C15.4115 29.805 15.3911 29.7104 15.3911 29.6147C15.3911 29.519 15.4115 29.4244 15.451 29.3372C15.4904 29.2501 15.548 29.1723 15.6199 29.1091C15.6918 29.046 15.7763 28.9989 15.8679 28.971C15.9594 28.9431 16.0558 28.9351 16.1507 28.9474C16.8125 28.9474 17.463 28.9474 18.1247 28.9474C18.2131 28.9459 18.3009 28.9618 18.3831 28.9943C18.4653 29.0267 18.5403 29.0751 18.6038 29.1365C18.6674 29.198 18.7182 29.2713 18.7533 29.3524C18.7885 29.4335 18.8074 29.5207 18.8088 29.6091C18.8088 29.6999 18.7908 29.7898 18.7557 29.8735C18.7206 29.9573 18.6692 30.0332 18.6045 30.0969C18.5398 30.1606 18.463 30.2107 18.3787 30.2444C18.2944 30.2781 18.2043 30.2947 18.1135 30.2932H17.1601V30.282Z" fill="#595959"/>
<path d="M29.1603 29.6428L28.7117 30.4839C28.0836 31.7625 28.207 31.6055 26.8723 31.6055H25.4367C24.9432 31.6055 24.6404 31.3475 24.6292 30.9438C24.618 30.54 24.932 30.2596 25.4592 30.2596C25.9863 30.2596 26.491 30.2596 27.0069 30.2596C27.1149 30.279 27.2262 30.2591 27.3208 30.2036C27.4154 30.148 27.4871 30.0605 27.5228 29.9568C27.8593 29.2502 28.2294 28.5661 28.5771 27.8595C28.6256 27.7123 28.7185 27.5837 28.843 27.4913C28.9675 27.3989 29.1175 27.3473 29.2724 27.3436C29.4277 27.3556 29.5752 27.4162 29.694 27.5169C29.8129 27.6176 29.8969 27.7531 29.9342 27.9043L31.5941 31.8074C31.5941 31.9307 31.7174 32.0541 31.796 32.2448C32.0651 31.7176 32.3119 31.2578 32.5474 30.7868C32.6131 30.616 32.7334 30.4717 32.8896 30.3764C33.0458 30.281 33.2291 30.24 33.411 30.2596H35.0933C35.5756 30.2596 35.8896 30.5512 35.8784 30.955C35.8672 31.3587 35.5756 31.5943 35.1045 31.6055C35.0486 31.6111 34.9923 31.6111 34.9363 31.6055C34.7382 31.5395 34.5282 31.5167 34.3206 31.5389C34.1129 31.561 33.9125 31.6275 33.7327 31.7339C33.553 31.8402 33.3982 31.9839 33.2789 32.1553C33.1595 32.3266 33.0784 32.5216 33.0409 32.727C32.868 33.1702 32.6578 33.5979 32.4128 34.0056C32.3682 34.1469 32.2802 34.2705 32.1615 34.359C32.0428 34.4476 31.8992 34.4966 31.7511 34.4991C31.5948 34.4932 31.4444 34.4379 31.3215 34.3411C31.1986 34.2444 31.1095 34.1113 31.0669 33.9608C30.4949 32.6149 29.9454 31.2578 29.3397 29.9119C29.2862 29.8182 29.2263 29.7282 29.1603 29.6428Z" fill="#EE4423"/>
</g>
<defs>
<clipPath id="clip0_404_66">
<rect width="40.3536" height="40.32" fill="white"/>
</clipPath>
</defs>
</svg>
