<svg width="80" height="78" viewBox="0 0 80 78" fill="none" xmlns="http://www.w3.org/2000/svg">
<g clip-path="url(#clip0_929_8273)">
<path d="M38.9168 69.3025C38.9168 67.0612 38.9168 64.8199 38.9168 62.5659C38.9168 60.8976 37.9999 59.8916 36.9556 58.6309C34.9623 56.3936 33.4072 53.8017 32.3712 50.99C31.1187 46.8359 30.2658 42.5716 29.8242 38.2553C29.7551 35.9622 30.0211 33.6713 30.6138 31.455C30.8939 29.9396 31.5434 28.5006 31.9509 26.9979C32.3532 25.2989 32.2148 23.5167 31.555 21.9003C30.8951 20.2838 29.7469 18.9138 28.2706 17.9817C26.851 17.2156 25.6134 16.1524 24.642 14.8646C23.6707 13.5767 22.9884 12.0946 22.6418 10.5192C22.4918 10.1085 22.2581 9.73349 21.9556 9.41783C21.6531 9.10217 21.2884 8.85276 20.8845 8.68539C17.2933 7.15722 13.6384 5.88375 10.0218 4.48294C8.44267 3.87167 6.97818 3.10759 5.19532 3.89714C4.35171 4.15184 3.62209 4.69034 3.13008 5.4214C2.63806 6.15247 2.41389 7.03115 2.49556 7.90857C2.55924 8.90188 2.49556 9.90792 2.55924 10.9012C2.55353 11.3418 2.64435 11.7783 2.82532 12.18C3.0063 12.5817 3.27303 12.9389 3.60678 13.2266C3.94054 13.5142 4.33323 13.7253 4.75726 13.8449C5.18129 13.9646 5.62638 13.99 6.06128 13.9193C12.4286 12.6459 17.6498 19.4589 18.8724 23.9925C19.1823 24.9251 19.197 25.9306 18.9144 26.8719C18.6318 27.8131 18.0657 28.6443 17.2933 29.2519C15.3194 30.7928 13.1545 30.3726 11.2061 29.15C7.51303 26.8578 4.83875 23.7123 4.3803 19.2424C4.1257 17.0933 3.23933 15.068 1.83336 13.4227C1.01135 12.5584 0.444283 11.4837 0.194825 10.3173C-0.0546324 9.15093 0.02323 7.93829 0.419809 6.81339C2.31728 1.98694 6.68528 0.446039 11.1934 3.13306C14.5314 5.09405 18.23 6.36301 22.0688 6.86433C23.2276 7.00441 24.7813 5.66726 25.8892 4.67396C27.8853 2.90372 30.2657 1.62195 32.8423 0.929957C35.7357 0.0976235 38.7557 -0.204383 41.7566 0.0385289C46.8505 0.242284 51.3713 1.71951 54.9243 5.57812C56.86 7.67935 58.3372 7.38645 62.3232 5.87102C64.9847 4.86498 67.5316 3.61698 70.155 2.53453C71.3267 1.95108 72.6469 1.73381 73.9438 1.91096C75.2407 2.08812 76.4542 2.65151 77.4265 3.52784C79.9734 6.18939 80.8521 9.02922 78.8655 11.7799C76.5096 15.0145 76.0002 18.6949 74.8159 22.2351C73.6316 25.7753 70.9955 27.8638 67.85 29.5066C65.9271 30.5254 63.9405 30.8947 62.2595 28.9972C61.5464 28.2029 61.0867 27.2137 60.9392 26.1565C60.7917 25.0992 60.9632 24.022 61.4317 23.0629C62.9089 19.2424 65.163 15.9951 69.1871 14.5179C70.5423 14.1219 71.9539 13.9541 73.3641 14.0212C76.0639 14.0212 77.1845 13.0024 77.4265 10.2772C77.4265 9.7169 77.5029 9.15657 77.5029 8.59624C77.5029 4.77584 74.8796 2.73828 71.212 4.06269C68.665 4.97959 66.2327 6.29126 63.6858 7.28457C62.2085 7.85763 60.5785 8.04865 59.1013 8.63445C58.3627 8.91461 57.3694 9.58955 57.2293 10.239C56.4946 13.3683 54.5958 16.1004 51.9189 17.8798C47.8693 20.8343 46.5321 23.9415 48.3914 28.5006C50.0978 32.703 49.7285 36.9691 49.5503 41.2353C49.2956 47.3989 48.0476 53.5115 43.4885 58.0069C40.9416 60.5538 40.9416 63.2663 41.018 66.2844C41.018 69.5318 41.018 72.7791 41.018 76.0265C41.018 76.7523 40.4704 78.0385 40.1138 78.064C38.713 78.1531 39.2097 76.8797 39.1842 76.1283C39.1078 73.8743 39.1842 71.633 39.1842 69.3789L38.9168 69.3025Z" fill="#EE4423"/>
</g>
<defs>
<clipPath id="clip0_929_8273">
<rect width="79.7829" height="78" fill="white"/>
</clipPath>
</defs>
</svg>
