<svg width="41" height="41" viewBox="0 0 41 41" fill="none" xmlns="http://www.w3.org/2000/svg">
<g clip-path="url(#clip0_404_201)">
<path d="M20.1199 7.24315L11.066 14.7679L4.32588 20.3814C4.18529 20.5374 4.01019 20.6584 3.81453 20.7348C3.61888 20.8111 3.40808 20.8407 3.19897 20.8212C2.98985 20.8016 2.78819 20.7335 2.61007 20.6222C2.43195 20.5109 2.28231 20.3595 2.17307 20.1802L0.402528 17.967C0.268748 17.829 0.166497 17.6637 0.102834 17.4824C0.0391702 17.3011 0.0156115 17.1082 0.0337841 16.9169C0.0519567 16.7256 0.111428 16.5405 0.208091 16.3745C0.304754 16.2084 0.436306 16.0653 0.593665 15.955C1.81091 14.949 3.02816 13.943 4.25546 12.937C4.35698 12.8625 4.43791 12.7634 4.49069 12.649C4.54348 12.5347 4.56638 12.4088 4.55726 12.2831C4.55726 9.15452 4.55726 6.0259 4.55726 2.89728C4.51575 2.68935 4.52425 2.47454 4.58206 2.27055C4.63988 2.06655 4.74534 1.87922 4.88977 1.72398C5.03419 1.56875 5.21344 1.45007 5.41274 1.37771C5.61204 1.30535 5.82568 1.2814 6.03606 1.30782H9.59726C9.79598 1.2834 9.99766 1.30458 10.187 1.36976C10.3763 1.43493 10.5483 1.54239 10.6899 1.68397C10.8314 1.82555 10.9389 1.99752 11.0041 2.18684C11.0692 2.37616 11.0904 2.57783 11.066 2.77656V7.19285C11.7601 6.61944 12.3838 6.10638 12.9975 5.58327L19.1139 0.492968C19.2414 0.340759 19.4007 0.218347 19.5806 0.134356C19.7604 0.0503645 19.9566 0.00683594 20.1551 0.00683594C20.3536 0.00683594 20.5498 0.0503645 20.7296 0.134356C20.9095 0.218347 21.0688 0.340759 21.1963 0.492968C27.3731 5.62351 33.5431 10.7608 39.7065 15.9047C39.8776 16.0137 40.0215 16.1604 40.1271 16.3336C40.2327 16.5069 40.2972 16.702 40.3157 16.904C40.3341 17.1061 40.306 17.3096 40.2336 17.4991C40.1611 17.6886 40.0462 17.859 39.8976 17.9972C39.294 18.7416 38.6703 19.476 38.0567 20.2103C37.9471 20.3852 37.7986 20.5324 37.6227 20.6404C37.4468 20.7483 37.2483 20.8141 37.0428 20.8326C36.8372 20.8512 36.6302 20.8219 36.4378 20.7471C36.2455 20.6723 36.0731 20.554 35.934 20.4015L20.4619 7.48459L20.1199 7.24315ZM3.38025 19.5061L3.76253 19.2043L19.4761 6.1265C20.0696 5.63357 20.2507 5.62351 20.8341 6.1265L34.757 17.7054C35.4713 18.309 36.1855 18.9025 36.9299 19.5061L39.0123 17.0214L20.1702 1.31788L19.8181 1.59956L10.9855 8.95333C10.8813 9.07122 10.7437 9.15458 10.5909 9.19232C10.4382 9.23006 10.2775 9.22038 10.1304 9.16458C9.79845 9.01369 9.74815 8.71189 9.74815 8.37991C9.74815 6.59932 9.74815 4.82878 9.74815 3.05824V2.63572H5.85498V3.13872C5.85498 6.31764 5.85498 9.50662 5.85498 12.6855C5.86647 12.8534 5.83565 13.0215 5.76535 13.1744C5.69505 13.3273 5.58751 13.4602 5.45259 13.5608C4.17498 14.5667 2.90744 15.6733 1.63989 16.7296L1.30792 17.0214L3.38025 19.5061Z" fill="#58595B"/>
<path d="M20.1197 40.32H7.39399C7.09994 40.3478 6.80339 40.3105 6.52539 40.2108C6.24739 40.111 5.99476 39.9513 5.78544 39.7429C5.57612 39.5346 5.41523 39.2827 5.31421 39.0051C5.2132 38.7276 5.17452 38.4312 5.20093 38.1371V22.4135C5.1909 22.2929 5.1909 22.1718 5.20093 22.0513C5.21346 21.8938 5.28436 21.7467 5.39974 21.6387C5.51512 21.5308 5.66666 21.4698 5.82465 21.4678C5.99047 21.4621 6.15209 21.5207 6.2758 21.6313C6.3995 21.7419 6.47573 21.8959 6.4886 22.0614C6.4886 22.1921 6.4886 22.333 6.4886 22.4638C6.4886 27.6681 6.4886 32.869 6.4886 38.0666C6.4886 38.8412 6.66967 39.0223 7.49459 39.0223H32.8656C33.6302 39.0223 33.8213 38.8412 33.8213 38.0666V22.4638C33.8112 22.3265 33.8112 22.1886 33.8213 22.0513C33.8213 21.8805 33.8891 21.7168 34.0099 21.596C34.1306 21.4753 34.2944 21.4075 34.4651 21.4075C34.6359 21.4075 34.7996 21.4753 34.9204 21.596C35.0411 21.7168 35.109 21.8805 35.109 22.0513C35.109 22.1519 35.109 22.2626 35.109 22.3732V38.1471C35.1332 38.4377 35.094 38.7301 34.994 39.0041C34.894 39.278 34.7356 39.527 34.5299 39.7336C34.3242 39.9403 34.076 40.0998 33.8025 40.2011C33.529 40.3023 33.2368 40.3429 32.9461 40.32H20.1197Z" fill="#58595B"/>
<path d="M20.1701 21.7495C20.8434 20.8415 21.696 20.0813 22.675 19.5162C23.2574 19.1795 23.9044 18.9697 24.5736 18.9003C25.2427 18.831 25.919 18.9037 26.5581 19.1138C27.2346 19.3477 27.8318 19.7669 28.2817 20.3235C28.7317 20.8802 29.0163 21.552 29.1032 22.2625C29.3394 23.3732 29.2987 24.5249 28.9846 25.6161C28.6706 26.7073 28.0929 27.7045 27.3025 28.5198C25.3869 30.6684 23.0831 32.4363 20.5121 33.7308C20.4107 33.7757 20.3011 33.7989 20.1902 33.7989C20.0793 33.7989 19.9696 33.7757 19.8683 33.7308C16.9967 32.3298 14.474 30.3055 12.4843 27.8055C11.7924 26.9376 11.3309 25.909 11.1427 24.8151C10.9546 23.7212 11.0458 22.5975 11.4079 21.5483C11.5724 21.0383 11.8399 20.5676 12.1938 20.1653C12.5477 19.763 12.9804 19.4376 13.4652 19.2094C13.95 18.9812 14.4765 18.8549 15.012 18.8385C15.5476 18.822 16.0808 18.9157 16.5787 19.1138C17.9102 19.563 19.0769 20.4004 19.9286 21.5181L20.1701 21.7495ZM12.3334 23.6709C12.3334 23.9828 12.3334 24.2141 12.4038 24.4455C12.6425 25.7589 13.2739 26.9691 14.2146 27.9162C15.8745 29.6849 17.8154 31.1669 19.9588 32.3023C20.0303 32.3393 20.1096 32.3587 20.1902 32.3587C20.2707 32.3587 20.35 32.3393 20.4215 32.3023C21.498 31.6182 22.5844 30.9543 23.6105 30.2098C24.8757 29.3187 25.981 28.2201 26.88 26.9605C27.3678 26.3081 27.7033 25.5547 27.8617 24.7556C28.0201 23.9566 27.9975 23.1322 27.7954 22.343C27.7389 21.9858 27.6077 21.6444 27.4104 21.3413C27.2132 21.0381 26.9543 20.7799 26.6506 20.5834C26.3469 20.387 26.0052 20.2567 25.6478 20.2011C25.2904 20.1454 24.9253 20.1657 24.5763 20.2606C23.9629 20.4082 23.3783 20.6563 22.846 20.995C21.991 21.5745 21.2762 22.3374 20.7535 23.2283C20.7011 23.3416 20.6174 23.4375 20.5122 23.5048C20.4071 23.572 20.2848 23.6078 20.16 23.6078C20.0352 23.6078 19.9129 23.572 19.8077 23.5048C19.7026 23.4375 19.6188 23.3416 19.5665 23.2283C19.2019 22.708 18.8054 22.2107 18.3794 21.7394C17.7717 21.0489 16.9794 20.5463 16.0958 20.2908C15.7164 20.1434 15.3082 20.0852 14.9028 20.1206C14.4973 20.156 14.1054 20.2842 13.7574 20.4952C13.4093 20.7061 13.1144 20.9943 12.8954 21.3374C12.6764 21.6804 12.5392 22.0692 12.4944 22.4738C12.4139 22.8862 12.3837 23.3289 12.3334 23.6709Z" fill="#EE4423"/>
</g>
<defs>
<clipPath id="clip0_404_201">
<rect width="40.32" height="40.32" fill="white"/>
</clipPath>
</defs>
</svg>
