<svg width="70" height="70" viewBox="0 0 70 70" fill="none" xmlns="http://www.w3.org/2000/svg">
<g clip-path="url(#clip0_404_235)">
<path d="M35 70C54.33 70 70 54.33 70 35C70 15.67 54.33 0 35 0C15.67 0 0 15.67 0 35C0 54.33 15.67 70 35 70Z" fill="#EE4423"/>
<path d="M28.6129 15.3125H41.5629C41.8628 15.4116 42.1186 15.6123 42.2863 15.8798C42.454 16.1474 42.5231 16.4651 42.4817 16.7781C42.4817 17.7188 42.4817 18.6813 42.4817 19.6219C42.4817 19.7531 42.4817 19.8844 42.4817 20.0594H46.0692C46.226 20.0532 46.3823 20.0796 46.5284 20.1367C46.6745 20.1939 46.8072 20.2807 46.9182 20.3917C47.0291 20.5026 47.1159 20.6353 47.1731 20.7814C47.2303 20.9275 47.2566 21.0839 47.2504 21.2406V54.6875H39.3754V45.9375C39.3887 45.7761 39.3667 45.6139 39.3109 45.4619C39.2551 45.3099 39.1669 45.1719 39.0524 45.0574C38.938 44.9429 38.7999 44.8547 38.648 44.799C38.496 44.7432 38.3337 44.7211 38.1723 44.7344H31.8942C31.7277 44.7106 31.5581 44.7248 31.3979 44.7759C31.2376 44.827 31.0911 44.9136 30.969 45.0293C30.847 45.145 30.7528 45.2868 30.6933 45.4441C30.6338 45.6013 30.6106 45.77 30.6254 45.9375V54.6875H22.7723V21.4156C22.7445 21.2369 22.7582 21.0541 22.8122 20.8815C22.8662 20.7088 22.9591 20.5509 23.0838 20.4199C23.2085 20.2888 23.3617 20.1882 23.5314 20.1257C23.7012 20.0632 23.883 20.0405 24.0629 20.0594H27.6723V19.6875C27.6723 18.7469 27.6723 17.8063 27.6723 16.8656C27.6094 16.5363 27.6707 16.1953 27.8444 15.9084C28.0181 15.6216 28.2919 15.4093 28.6129 15.3125ZM36.1598 22.2469V21.1531C36.1657 20.9962 36.1402 20.8397 36.0848 20.6927C36.0294 20.5457 35.9453 20.4113 35.8373 20.2972C35.7294 20.1831 35.5998 20.0918 35.4561 20.0284C35.3124 19.965 35.1575 19.9309 35.0004 19.9281C34.8425 19.9279 34.6862 19.9599 34.5411 20.0222C34.396 20.0845 34.2651 20.1759 34.1565 20.2906C34.048 20.4053 33.964 20.5409 33.9098 20.6893C33.8555 20.8376 33.8321 20.9954 33.8411 21.1531V22.2469H32.8129C32.6524 22.2379 32.4917 22.2619 32.3407 22.3172C32.1897 22.3726 32.0517 22.4582 31.9349 22.5688C31.8182 22.6794 31.7253 22.8126 31.6618 22.9604C31.5984 23.1082 31.5658 23.2673 31.5661 23.4281C31.5715 23.5843 31.6085 23.7378 31.6747 23.8793C31.741 24.0209 31.8352 24.1475 31.9517 24.2517C32.0681 24.356 32.2045 24.4355 32.3525 24.4857C32.5005 24.5359 32.6571 24.5556 32.8129 24.5438H33.8848V25.6375C33.879 25.7955 33.9043 25.9531 33.9594 26.1014C34.0146 26.2496 34.0984 26.3855 34.206 26.5013C34.3137 26.6171 34.4432 26.7105 34.587 26.7763C34.7308 26.842 34.8862 26.8787 35.0442 26.8844C35.2021 26.8846 35.3585 26.8526 35.5036 26.7903C35.6487 26.728 35.7795 26.6366 35.8881 26.5219C35.9967 26.4072 36.0806 26.2716 36.1349 26.1232C36.1891 25.9749 36.2125 25.8171 36.2036 25.6594V24.5438H37.1879C37.3455 24.5588 37.5045 24.5414 37.6551 24.4926C37.8057 24.4439 37.9447 24.3648 38.0635 24.2603C38.1824 24.1557 38.2786 24.028 38.3462 23.8849C38.4138 23.7418 38.4514 23.5863 38.4567 23.4281C38.4569 23.2673 38.4244 23.1082 38.3609 22.9604C38.2975 22.8126 38.2046 22.6794 38.0878 22.5688C37.9711 22.4582 37.833 22.3726 37.682 22.3172C37.5311 22.2619 37.3704 22.2379 37.2098 22.2469H36.1598ZM29.1598 29.1594H28.4379C28.1606 29.1977 27.9066 29.3352 27.7227 29.5463C27.5388 29.7573 27.4374 30.0278 27.4374 30.3078C27.4374 30.5878 27.5388 30.8583 27.7227 31.0694C27.9066 31.2805 28.1606 31.4179 28.4379 31.4563H29.8598C30.1371 31.4179 30.3912 31.2805 30.5751 31.0694C30.759 30.8583 30.8603 30.5878 30.8603 30.3078C30.8603 30.0278 30.759 29.7573 30.5751 29.5463C30.3912 29.3352 30.1371 29.1977 29.8598 29.1594H29.1598ZM34.9786 29.1594H34.3661C34.0888 29.1977 33.8347 29.3352 33.6508 29.5463C33.4669 29.7573 33.3656 30.0278 33.3656 30.3078C33.3656 30.5878 33.4669 30.8583 33.6508 31.0694C33.8347 31.2805 34.0888 31.4179 34.3661 31.4563H35.7442C36.0421 31.4341 36.3205 31.3 36.5235 31.0808C36.7264 30.8616 36.8388 30.5737 36.8379 30.275C36.8268 29.9789 36.7027 29.6983 36.4912 29.4908C36.2797 29.2834 35.9967 29.1648 35.7004 29.1594H34.9786ZM40.8848 31.4563H41.5629C41.8588 31.4339 42.1349 31.299 42.3343 31.0792C42.5337 30.8595 42.6413 30.5717 42.6348 30.275C42.6291 29.9771 42.5067 29.6934 42.294 29.4848C42.0813 29.2762 41.7953 29.1593 41.4973 29.1594H40.2286C39.9513 29.1977 39.6972 29.3352 39.5133 29.5463C39.3294 29.7573 39.2281 30.0278 39.2281 30.3078C39.2281 30.5878 39.3294 30.8583 39.5133 31.0694C39.6972 31.2805 39.9513 31.4179 40.2286 31.4563H40.8848ZM29.1817 33.775H28.4379C28.14 33.7749 27.854 33.8918 27.6413 34.1004C27.4285 34.309 27.3062 34.5927 27.3004 34.8906C27.294 35.1873 27.4016 35.4751 27.601 35.6949C27.8004 35.9146 28.0764 36.0495 28.3723 36.0719C28.839 36.0719 29.2984 36.0719 29.7504 36.0719C30.0483 36.0497 30.3268 35.9156 30.5297 35.6964C30.7326 35.4772 30.845 35.1893 30.8442 34.8906C30.8331 34.5945 30.709 34.3139 30.4974 34.1065C30.2859 33.899 30.003 33.7804 29.7067 33.775H29.1817ZM35.0442 33.775H34.3442C34.0537 33.7804 33.7763 33.8967 33.5689 34.1C33.3615 34.3034 33.2397 34.5785 33.2286 34.8687C33.2164 35.1691 33.3214 35.4625 33.5213 35.687C33.7213 35.9114 34.0007 36.0494 34.3004 36.0719C34.7598 36.0719 35.2411 36.0719 35.7223 36.0719C36.0182 36.0441 36.2921 35.9038 36.4875 35.6799C36.6829 35.456 36.7848 35.1656 36.7723 34.8687C36.7612 34.5785 36.6394 34.3034 36.432 34.1C36.2245 33.8967 35.9472 33.7804 35.6567 33.775H35.0442ZM40.8629 33.775H40.2067C39.9104 33.7804 39.6275 33.899 39.4159 34.1065C39.2044 34.3139 39.0803 34.5945 39.0692 34.8906C39.0684 35.1893 39.1807 35.4772 39.3837 35.6964C39.5866 35.9156 39.8651 36.0497 40.1629 36.0719C40.6296 36.0719 41.089 36.0719 41.5411 36.0719C41.839 36.0549 42.1182 35.9216 42.3187 35.7006C42.5192 35.4796 42.6249 35.1888 42.6129 34.8906C42.6018 34.5945 42.4777 34.3139 42.2662 34.1065C42.0547 33.899 41.7717 33.7804 41.4754 33.775H40.8629ZM29.1598 38.3906C28.9411 38.3906 28.7223 38.3906 28.5036 38.3906C28.2131 38.396 27.9357 38.5123 27.7283 38.7157C27.5208 38.919 27.3991 39.1941 27.3879 39.4844C27.3754 39.7813 27.4774 40.0716 27.6728 40.2955C27.8682 40.5194 28.1421 40.6597 28.4379 40.6875H29.8598C30.1596 40.6651 30.439 40.527 30.6389 40.3026C30.8389 40.0781 30.9439 39.7848 30.9317 39.4844C30.9206 39.1941 30.7988 38.919 30.5914 38.7157C30.3839 38.5123 30.1065 38.396 29.8161 38.3906C29.5973 38.3687 29.3786 38.3906 29.1598 38.3906ZM35.0004 40.6875H35.6786C35.9765 40.6654 36.2549 40.5312 36.4578 40.312C36.6608 40.0929 36.7731 39.8049 36.7723 39.5062C36.7666 39.2084 36.6442 38.9246 36.4315 38.716C36.2188 38.5074 35.9328 38.3906 35.6348 38.3906C35.2122 38.3687 34.7887 38.3687 34.3661 38.3906C34.2196 38.3877 34.0739 38.4137 33.9374 38.4671C33.801 38.5205 33.6764 38.6003 33.5707 38.7019C33.4651 38.8034 33.3805 38.9248 33.3218 39.0591C33.2631 39.1933 33.2314 39.3379 33.2286 39.4844C33.2227 39.6367 33.2469 39.7886 33.2999 39.9315C33.3528 40.0744 33.4333 40.2055 33.537 40.3172C33.6406 40.429 33.7652 40.5192 33.9037 40.5827C34.0422 40.6463 34.1919 40.6819 34.3442 40.6875H35.0004ZM40.8411 38.3906C40.6223 38.3906 40.4036 38.3906 40.1848 38.3906C39.9471 38.4585 39.738 38.602 39.5892 38.7994C39.4403 38.9967 39.3598 39.2372 39.3598 39.4844C39.3598 39.7316 39.4403 39.972 39.5892 40.1694C39.738 40.3667 39.9471 40.5102 40.1848 40.5781C40.6724 40.6219 41.1629 40.6219 41.6504 40.5781C41.799 40.5698 41.9444 40.5319 42.0781 40.4666C42.2118 40.4013 42.3311 40.3099 42.4289 40.1978C42.5268 40.0857 42.6012 39.9551 42.6478 39.8138C42.6945 39.6725 42.7123 39.5233 42.7004 39.375C42.6839 39.0886 42.5598 38.819 42.3529 38.6202C42.146 38.4214 41.8717 38.3082 41.5848 38.3031C41.2786 38.3687 41.0598 38.3906 40.8411 38.3906Z" fill="white"/>
<path d="M15.3125 30.625C15.4157 30.3293 15.618 30.0784 15.8852 29.9149C16.1523 29.7514 16.4678 29.6854 16.7781 29.7281H20.475V54.6875H15.3125V30.625Z" fill="white"/>
<path d="M49.5254 54.6875V29.6407H53.2223C53.5438 29.6028 53.8684 29.6812 54.1372 29.8617C54.406 30.0423 54.6013 30.313 54.6879 30.625V54.6875H49.5254Z" fill="white"/>
<path d="M33.0088 54.6875V47.0094H36.99V54.6875H33.0088Z" fill="white"/>
</g>
<defs>
<clipPath id="clip0_404_235">
<rect width="70" height="70" fill="white"/>
</clipPath>
</defs>
</svg>
