<svg width="76" height="78" viewBox="0 0 76 78" fill="none" xmlns="http://www.w3.org/2000/svg">
<g clip-path="url(#clip0_929_8255)">
<path d="M65.8128 20.2917C62.4785 16.0047 58.3848 12.3668 53.7357 9.55925C52.816 8.86989 51.6944 8.50341 50.5451 8.51667C49.3958 8.52993 48.283 8.9222 47.3794 9.63259C46.2737 10.4641 45.3745 11.539 44.7513 12.7741C44.2426 14.1143 43.9737 15.5335 43.9567 16.9669C43.8467 19.0938 43.9567 21.2207 43.9567 23.5555C43.1996 23.1659 42.5683 22.57 42.1357 21.8367C41.7031 21.1034 41.4868 20.2627 41.5119 19.4116C41.6464 13.532 41.5119 7.65234 41.5119 1.77269V0.000244141H39.0672V1.74825C39.0672 6.95558 39.3117 12.1874 38.9816 17.3702C38.7494 21.0374 39.6173 23.8978 42.6488 26.0125C44.2256 27.1126 44.0912 28.6406 43.8711 30.5842L37.7592 23.9955L31.9285 30.413C31.5251 28.3228 31.6473 26.8315 33.1509 25.658C34.0782 24.9638 34.9014 24.1405 35.5956 23.2132C36.1656 22.5162 36.5147 21.665 36.598 20.7685C36.6224 14.5221 36.6224 8.11684 36.6224 1.71157V0.000244141H34.1777V1.74825C34.1777 7.57899 34.0799 13.4097 34.1777 19.2405C34.2119 20.1045 34.0003 20.9605 33.5676 21.7091C33.1349 22.4578 32.4987 23.0683 31.7329 23.4699C31.7329 20.634 31.8185 18.1159 31.7329 15.61C31.5129 9.90151 26.1222 6.9678 21.3671 9.97486C8.87443 17.8714 -3.71607 34.728 1.05121 56.7309C1.8498 60.1887 3.08193 63.5319 4.71834 66.681C5.08226 67.4487 5.63581 68.111 6.32676 68.6054C7.0177 69.0998 7.82323 69.41 8.66732 69.5066C9.51141 69.6033 10.3662 69.4832 11.151 69.1578C11.9358 68.8324 12.6247 68.3123 13.1528 67.6467C13.599 67.0823 14.153 66.6122 14.7826 66.2639C15.4121 65.9155 16.1047 65.6958 16.8199 65.6175C18.3183 65.2483 19.7791 64.7409 21.1838 64.1018C21.5994 63.9429 22.0028 63.7473 22.4062 63.5517C24.1175 72.2062 29.0681 77.3157 36.219 77.9391C39.5382 78.2799 42.8771 77.515 45.7169 75.7633C47.8101 74.4886 49.5679 72.7317 50.8438 70.6393C52.1197 68.5469 52.8765 66.1796 53.0512 63.7351C55.1169 64.507 57.2224 65.168 59.3587 65.7153C59.9321 65.7639 60.489 65.9314 60.9941 66.2071C61.4992 66.4828 61.9414 66.8607 62.2924 67.3167C62.7814 68.0077 63.4334 68.5675 64.1905 68.9463C64.9476 69.3251 65.7865 69.5113 66.6328 69.4883C67.4791 69.4653 68.3066 69.2339 69.0421 68.8146C69.7776 68.3953 70.3982 67.801 70.849 67.0844C71.6146 65.9829 72.235 64.7874 72.6948 63.5273C78.4156 47.8564 76.093 33.4201 65.8128 20.2917ZM48.2595 12.004C48.7846 11.462 49.4831 11.1211 50.2334 11.0407C50.9838 10.9603 51.7386 11.1455 52.3667 11.5639C57.3014 14.6048 61.5847 18.5932 64.9694 23.2988C65.0599 23.5265 65.1215 23.7647 65.1528 24.0078C59.7078 20.2909 53.3305 18.1737 46.7437 17.8959C46.3772 16.8749 46.3257 15.7675 46.596 14.717C46.8663 13.6664 47.4458 12.7213 48.2595 12.004ZM31.7329 35.3759C31.7818 34.5837 32.0863 33.8288 32.6008 33.2245C34.1777 31.4643 35.9257 29.8141 37.7592 27.9683C39.8006 30.0463 41.6586 31.9043 43.48 33.799C43.7557 34.0923 43.92 34.4729 43.9445 34.8747C43.9445 39.3975 43.9445 43.9203 43.9445 48.6998C40.0576 47.16 35.7298 47.16 31.8429 48.6998C31.8429 48.0764 31.7207 47.5997 31.7207 47.123C31.7329 43.2113 31.7329 39.2875 31.7329 35.3759ZM12.9083 20.5607C15.6797 17.2264 18.9494 14.3402 22.6017 12.004C23.2008 11.5575 23.91 11.2824 24.6535 11.208C25.3969 11.1336 26.1466 11.2628 26.8222 11.5818C27.4978 11.9008 28.074 12.3975 28.489 13.0188C28.904 13.6401 29.1422 14.3626 29.1781 15.1088C29.2468 16.0529 29.2468 17.0007 29.1781 17.9448C22.3309 18.5801 15.7221 20.7844 9.86456 24.3867C10.9525 23.0788 11.857 21.8564 12.9083 20.5607ZM21.7461 60.9725C19.6684 62.3321 17.3049 63.1938 14.8396 63.4906C13.6983 63.7424 12.6816 64.387 11.967 65.312C9.96235 67.6467 7.83541 67.5856 6.36855 64.8475C4.27367 60.698 3.027 56.1726 2.70142 51.5357C1.96922 44.7896 3.03625 37.9699 5.79404 31.7699C6.0169 31.1963 6.36329 30.6788 6.80861 30.2541C13.0183 25.0346 19.9614 21.4163 28.1513 20.4751C28.3549 20.4631 28.559 20.4631 28.7625 20.4751C28.941 20.5168 29.1165 20.5698 29.2882 20.634V22.3453C29.2882 31.0609 29.2882 39.7642 29.2882 48.4798C29.326 48.9483 29.2437 49.4187 29.0491 49.8465C28.8544 50.2743 28.5539 50.6453 28.1758 50.9246C25.5377 53.0377 23.6899 55.9794 22.9318 59.2734C22.7533 59.9637 22.3324 60.5668 21.7461 60.9725ZM37.8448 75.5433C35.3125 75.5433 32.8371 74.792 30.7319 73.3847C28.6267 71.9773 26.9863 69.977 26.0184 67.637C25.0504 65.297 24.7984 62.7224 25.2942 60.2391C25.79 57.7558 27.0114 55.4754 28.8037 53.6865C30.596 51.8976 32.8788 50.6807 35.363 50.1896C37.8472 49.6985 40.4213 49.9555 42.7595 50.9279C45.0976 51.9003 47.0948 53.5445 48.4981 55.6524C49.9015 57.7603 50.648 60.2371 50.6431 62.7694C50.6447 64.4494 50.3146 66.1132 49.6717 67.6653C49.0288 69.2174 48.0858 70.6273 46.8967 71.8141C45.7076 73.001 44.2959 73.9413 42.7426 74.5812C41.1892 75.2212 39.5248 75.5481 37.8448 75.5433ZM70.189 63.075C69.8151 64.0372 69.3224 64.9489 68.7221 65.7887C68.4908 66.1715 68.1661 66.4893 67.7784 66.7122C67.3906 66.9352 66.9526 67.056 66.5054 67.0634C66.0582 67.0707 65.6165 66.9643 65.2217 66.7542C64.8269 66.544 64.4919 66.2371 64.2482 65.862C63.6826 65.111 62.9642 64.4884 62.1403 64.0354C61.3164 63.5824 60.4059 63.3092 59.4687 63.2339C57.3902 62.665 55.3965 61.8224 53.5402 60.728C53.1368 60.5325 52.8801 59.8479 52.7578 59.3345C51.9351 56.0028 50.0622 53.0242 47.416 50.839C46.8916 50.4023 46.5547 49.781 46.4748 49.1032C46.4015 39.8131 46.4015 30.523 46.4015 21.2452C46.4206 20.9742 46.4573 20.7047 46.5115 20.4384C50.2189 20.4541 53.8853 21.2148 57.2929 22.6754C61.0074 24.2411 64.4616 26.3639 67.5364 28.9706C68.8813 30.0946 69.9059 31.5535 70.5068 33.2001C74.2804 42.8225 74.1665 53.535 70.189 63.075Z" fill="#EE4423"/>
<path d="M51.1441 32.9191H48.9561V35.156H51.1441V32.9191Z" fill="#EE4423"/>
<path d="M51.1446 37.845H48.9443V40.0941H51.1446V37.845Z" fill="#EE4423"/>
<path d="M48.9561 44.9715H51.1808V42.7101H48.9561V44.9715Z" fill="#EE4423"/>
<path d="M26.7702 32.9554H24.5332V35.2046H26.7702V32.9554Z" fill="#EE4423"/>
<path d="M24.5576 44.9596H26.8435V42.7471H24.5576V44.9596Z" fill="#EE4423"/>
<path d="M26.733 37.8575H24.4961V40.0578H26.733V37.8575Z" fill="#EE4423"/>
<path d="M35.1438 54.6404C34.117 54.9827 33.0291 55.1416 31.6601 55.4594C31.4156 56.4862 31.0733 57.9042 30.6699 59.5544C32.1857 59.2121 33.3836 58.9432 34.5693 58.6376C34.7771 58.6376 35.1194 58.3442 35.1072 58.2098C35.0216 56.7429 36.2073 56.8774 37.0263 56.7429C38.4987 56.5242 39.9999 56.8594 41.2395 57.6835C42.4791 58.5077 43.3691 59.7622 43.7372 61.2046C43.8961 61.8402 43.9939 62.4881 44.1528 63.2582L46.4019 63.0259C46.1941 56.7674 40.6934 52.7946 35.1438 54.6404Z" fill="#EE4423"/>
<path d="M41.0477 67.2554C40.5466 67.7077 40.1187 68.38 39.5442 68.5634C38.7649 68.7997 37.9458 68.8754 37.1364 68.7857C36.327 68.6961 35.5443 68.443 34.8356 68.0418C34.127 67.6406 33.5072 67.0997 33.0138 66.4518C32.5204 65.8039 32.1638 65.0626 31.9655 64.2728C31.8188 63.7472 31.7088 63.2093 31.5743 62.5981L29.374 62.9404C29.3942 64.2732 29.7282 65.5824 30.3488 66.762C30.9695 67.9416 31.8594 68.9584 32.9463 69.7299C34.0333 70.5013 35.2868 71.0058 36.6051 71.2024C37.9235 71.399 39.2696 71.2822 40.5343 70.8614C41.7567 70.5069 42.8813 70.1891 44.287 69.7857L45.2527 65.7152L40.7544 66.7909L41.0477 67.2554Z" fill="#EE4423"/>
</g>
<defs>
<clipPath id="clip0_929_8255">
<rect width="75.7386" height="78" fill="white"/>
</clipPath>
</defs>
</svg>
