<svg width="35" height="40" viewBox="0 0 35 40" fill="none" xmlns="http://www.w3.org/2000/svg">
<g clip-path="url(#clip0_996_5915)">
<path d="M25.9397 40C25.3824 39.8907 24.8315 39.7505 24.2897 39.58C23.0156 39.1552 21.886 38.382 21.0287 37.3481C20.1715 36.3141 19.6211 35.0608 19.4397 33.73L19.3497 33.34H3.63973C2.82252 33.3827 2.01506 33.1464 1.34973 32.67C0.901403 32.3311 0.542367 31.8882 0.303665 31.3794C0.0649621 30.8706 -0.0462216 30.3114 -0.0202727 29.75C-0.0202727 24.15 -0.0202727 18.55 -0.0202727 12.96C-0.0202727 9.82 -0.0202727 6.68333 -0.0202727 3.55C-0.0549513 2.98537 0.0588067 2.4215 0.309686 1.91448C0.560564 1.40746 0.93982 0.974957 1.40973 0.66C1.90586 0.387376 2.42858 0.166224 2.96973 0L24.8497 0C25.2797 0.18 25.3497 0.54 25.3497 1C25.3497 4.5 25.3497 8 25.3497 11.5C25.3319 11.6265 25.3529 11.7555 25.41 11.8698C25.4672 11.9841 25.5578 12.0784 25.6697 12.14C25.8723 12.2842 26.06 12.4483 26.2297 12.63C28.3997 14.8 30.5597 16.98 32.7497 19.14C33.3923 19.7449 33.902 20.477 34.2463 21.2896C34.5907 22.1022 34.7621 22.9775 34.7497 23.86C34.7497 28.94 34.7497 34.01 34.7497 39.09C34.7783 39.2844 34.749 39.483 34.6654 39.6608C34.5818 39.8387 34.4477 39.9879 34.2797 40.09L25.9397 40ZM19.3497 32C19.3539 31.7085 19.2943 31.4197 19.1751 31.1537C19.0559 30.8876 18.88 30.6509 18.6597 30.46C17.2697 29.06 15.8397 27.69 14.4897 26.24C14.1826 25.9062 13.948 25.5123 13.8009 25.0833C13.6537 24.6542 13.5971 24.1993 13.6347 23.7473C13.6723 23.2952 13.8032 22.8559 14.0193 22.457C14.2353 22.0582 14.5317 21.7085 14.8897 21.43C15.5389 20.9141 16.3577 20.6598 17.1849 20.7172C18.0121 20.7746 18.788 21.1394 19.3597 21.74C20.8097 23.16 22.2397 24.6 23.6797 26.04C23.7697 26.14 23.8797 26.23 24.0097 26.35V1.35H3.70973C3.38986 1.30329 3.06351 1.33177 2.75657 1.43319C2.44963 1.53461 2.17056 1.70617 1.9415 1.93427C1.71243 2.16236 1.53969 2.4407 1.43696 2.74721C1.33424 3.05371 1.30437 3.37994 1.34973 3.7V29.63C1.34973 29.76 1.34973 29.89 1.34973 30.02C1.34808 30.4002 1.45934 30.7723 1.66941 31.0892C1.87948 31.4061 2.1789 31.6535 2.52973 31.8C2.89314 31.94 3.28035 32.008 3.66973 32H18.9097H19.3497ZM19.7497 24L16.9397 26.82L17.1697 27.07L19.5997 29.5C20.2361 30.0923 20.6254 30.903 20.6897 31.77C20.6809 32.5165 20.7345 33.2624 20.8497 34C21.1316 35.3387 21.8684 36.5385 22.9349 37.3953C24.0014 38.2522 25.3317 38.7132 26.6997 38.7C28.8297 38.7 30.9697 38.7 33.0997 38.7H33.3597V38.2C33.3597 33.4 33.3597 28.59 33.3597 23.79C33.3785 23.099 33.252 22.4117 32.9884 21.7726C32.7249 21.1336 32.3301 20.5569 31.8297 20.08L25.6897 14L25.3497 13.63V14.17C25.3497 18.4833 25.3497 22.7933 25.3497 27.1C25.3327 27.2981 25.3628 27.4974 25.4375 27.6816C25.5122 27.8658 25.6295 28.0298 25.7797 28.16C26.2497 28.58 26.6997 29.04 27.1297 29.51C27.1959 29.5691 27.2489 29.6415 27.2852 29.7225C27.3215 29.8035 27.3402 29.8913 27.3402 29.98C27.3402 30.0687 27.3215 30.1565 27.2852 30.2375C27.2489 30.3185 27.1959 30.3909 27.1297 30.45C27.0027 30.574 26.8322 30.6434 26.6547 30.6434C26.4772 30.6434 26.3067 30.574 26.1797 30.45L25.9197 30.2L19.9797 24.26L19.7497 24ZM15.9197 25.79L18.6897 23C18.4538 22.667 18.1251 22.4107 17.7446 22.2631C17.3641 22.1155 16.9485 22.0831 16.5497 22.17C16.1724 22.2323 15.8236 22.4099 15.5514 22.6785C15.2792 22.9472 15.097 23.2935 15.0297 23.67C14.9496 24.0673 14.9885 24.4794 15.1414 24.8547C15.2944 25.23 15.5547 25.5519 15.8897 25.78L15.9197 25.79Z" fill="#595959"/>
<path d="M19.3498 11.34C19.3498 12.6596 18.9583 13.9496 18.225 15.0467C17.4916 16.1438 16.4493 16.9987 15.23 17.5032C14.0106 18.0078 12.669 18.1393 11.3748 17.8811C10.0807 17.6229 8.89225 16.9867 7.95983 16.0528C7.02741 15.119 6.39295 13.9296 6.13671 12.6351C5.88048 11.3406 6.014 9.99916 6.52037 8.78056C7.02674 7.56195 7.8832 6.52093 8.98139 5.78922C10.0796 5.05752 11.3701 4.66801 12.6898 4.66999C14.457 4.67264 16.151 5.37654 17.3997 6.62712C18.6484 7.8777 19.3498 9.57273 19.3498 11.34ZM11.9998 6.33999H11.8998C11.3145 6.91211 10.8487 7.59479 10.5294 8.3484C10.2101 9.10201 10.0437 9.91154 10.0398 10.73H12.0398L11.9998 6.33999ZM11.9998 16.43V12H10.0798C10.0298 13.73 10.9798 15.89 11.9898 16.39L11.9998 16.43ZM13.3498 10.65H15.3498C15.1498 8.96999 14.8298 7.38999 13.3498 6.17999V10.65ZM13.3498 16.48C13.9681 15.9068 14.464 15.2144 14.8077 14.4444C15.1514 13.6745 15.3358 12.843 15.3498 12H13.3498V16.48ZM9.45977 7.10999C8.89055 7.52063 8.41703 8.04969 8.07178 8.66079C7.72653 9.27188 7.51774 9.95051 7.45977 10.65H8.57977L9.45977 7.10999ZM15.8998 7.10999L16.7798 10.64H17.9598C17.8695 9.94247 17.6408 9.27001 17.287 8.66211C16.9333 8.0542 16.4616 7.5231 15.8998 7.09999V7.10999ZM7.39977 12C7.48828 12.7138 7.72532 13.4011 8.09562 14.0177C8.46593 14.6343 8.96128 15.1665 9.54977 15.58C9.08008 14.4981 8.79286 13.3458 8.69977 12.17C8.69977 12.11 8.56977 12.01 8.49977 12H7.39977ZM16.7798 12L15.8898 15.56C16.4563 15.137 16.9311 14.6034 17.2852 13.9914C17.6393 13.3795 17.8654 12.702 17.9498 12H16.7798Z" fill="#EE4423"/>
<path d="M5.94038 30.66C5.50038 30.66 5.05038 30.66 4.61038 30.66C4.35218 30.6575 4.09708 30.6034 3.86004 30.501C3.623 30.3986 3.40879 30.2499 3.22996 30.0636C3.05114 29.8773 2.9113 29.6572 2.81865 29.4162C2.72599 29.1752 2.68239 28.9181 2.69038 28.66C2.69038 27.8 2.69038 26.92 2.69038 26.05C2.68637 25.9599 2.70033 25.8698 2.73145 25.7852C2.76257 25.7005 2.81023 25.6228 2.87166 25.5567C2.93309 25.4907 3.00705 25.4375 3.08924 25.4003C3.17143 25.363 3.2602 25.3426 3.35038 25.34C3.74038 25.34 3.99038 25.64 3.99038 26.12C3.99038 26.89 3.99038 27.65 3.99038 28.42C3.99038 29.19 4.21038 29.33 4.90038 29.33H7.18038C7.32427 29.3116 7.47041 29.3348 7.60153 29.3969C7.73266 29.4589 7.8433 29.5571 7.92038 29.68C7.98461 29.7742 8.02253 29.8838 8.03022 29.9975C8.0379 30.1112 8.01508 30.2249 7.96411 30.3269C7.91313 30.4288 7.83586 30.5153 7.74027 30.5774C7.64468 30.6395 7.53425 30.6749 7.42038 30.68C6.93038 30.68 6.42038 30.68 5.94038 30.68V30.66Z" fill="#595959"/>
<path d="M6.02039 3.99999H4.85039C4.27039 3.99999 4.02039 4.25999 4.01039 4.83999C4.01039 5.65999 4.01039 6.47999 4.01039 7.28999C4.01039 7.60999 3.88039 7.89999 3.57039 7.93999C3.32278 7.96936 3.07312 7.90516 2.87039 7.75999C2.74515 7.61265 2.68078 7.42312 2.69039 7.22999C2.69039 6.37999 2.69039 5.53999 2.69039 4.68999C2.69018 4.42047 2.74444 4.1537 2.84991 3.90568C2.95539 3.65766 3.1099 3.43352 3.30418 3.24672C3.49845 3.05992 3.72847 2.91431 3.98044 2.81864C4.2324 2.72296 4.5011 2.67921 4.77039 2.68999C5.58039 2.68999 6.39039 2.68999 7.19039 2.68999C7.72039 2.68999 8.02039 2.94999 8.01039 3.37999C8.00039 3.80999 7.71039 4.01999 7.20039 4.01999L6.02039 3.99999Z" fill="#595959"/>
</g>
<defs>
<clipPath id="clip0_996_5915">
<rect width="34.69" height="40" fill="white"/>
</clipPath>
</defs>
</svg>
