<svg width="20" height="20" viewBox="0 0 20 20" fill="none" xmlns="http://www.w3.org/2000/svg">
<path d="M10 -4.37114e-07C12.6522 -3.21184e-07 15.1957 1.05357 17.0711 2.92893C18.9464 4.8043 20 7.34784 20 10C20 11.3132 19.7413 12.6136 19.2388 13.8268C18.7362 15.0401 17.9997 16.1425 17.0711 17.0711C16.1425 17.9997 15.0401 18.7362 13.8268 19.2388C12.6136 19.7413 11.3132 20 10 20C7.34783 20 4.8043 18.9464 2.92893 17.0711C1.05357 15.1957 -5.53044e-07 12.6522 -4.37114e-07 10C-3.79711e-07 8.68678 0.258657 7.38642 0.761203 6.17316C1.26375 4.95991 2.00035 3.85752 2.92893 2.92893C4.8043 1.05357 7.34784 -5.53044e-07 10 -4.37114e-07ZM5 8L10 13L15 8L5 8Z" fill="#58595B"/>
</svg>
