<svg width="78" height="78" viewBox="0 0 78 78" fill="none" xmlns="http://www.w3.org/2000/svg">
<g clip-path="url(#clip0_404_281)">
<path d="M25.4578 69.9523L27.3923 62.2142L11.9161 58.3452L7.91162 48.2083C7.91162 48.2083 19.0158 29.0178 46.9116 40.2767C74.8075 51.5357 46.3313 53.9538 46.3313 53.9538L38.0322 63.1815L34.4726 69.9523C33.9285 69.2814 33.2415 68.7405 32.4617 68.3689C31.6819 67.9973 30.829 67.8045 29.9652 67.8045C29.1014 67.8045 28.2485 67.9973 27.4687 68.3689C26.6889 68.7405 26.0019 69.2814 25.4578 69.9523Z" fill="#EE4423"/>
<path d="M0.154785 39.3869C0.243974 38.8454 0.386534 38.3141 0.58038 37.8006C1.07382 36.6213 1.68295 35.4937 2.39883 34.4346C3.02487 33.6994 3.44534 32.8118 3.61758 31.8616C3.98105 29.9122 4.87079 28.0993 6.1905 26.6191C6.43299 26.3209 6.58115 25.9572 6.61609 25.5744C6.68876 24.026 7.21029 22.5322 8.1171 21.275C9.02392 20.0179 10.2769 19.0516 11.7232 18.4941C12.1643 18.3338 12.5253 18.0075 12.7292 17.5849C13.423 16.2316 14.3843 15.0332 15.5548 14.0622C16.7252 13.0913 18.0806 12.368 19.5387 11.936C19.9125 11.8217 20.2517 11.6155 20.5253 11.3363C21.8847 9.93308 23.6161 8.94658 25.5164 8.49259C25.833 8.41819 26.1258 8.26516 26.3676 8.04765C27.8851 6.60349 29.7748 5.61049 31.8249 5.17996C33.875 4.74944 36.0045 4.8984 37.9747 5.61015C38.3147 5.71708 38.6794 5.71708 39.0194 5.61015C40.4362 5.01278 41.9944 4.83377 43.5098 5.09433C45.0251 5.35489 46.4341 6.04409 47.57 7.08039C47.6908 7.21587 47.8526 7.30811 48.0307 7.34304C48.2089 7.37796 48.3935 7.35366 48.5566 7.27384C50.3653 6.60111 52.3339 6.48479 54.2093 6.93985C56.0847 7.3949 57.7811 8.40053 59.0804 9.82742C59.345 10.0943 59.6608 10.3049 60.0089 10.4465C61.9706 11.1481 63.6533 12.4644 64.8066 14.1994C64.9113 14.3634 65.0538 14.4998 65.2221 14.5974C65.3903 14.695 65.5795 14.7509 65.7738 14.7605C68.0125 14.9805 70.1045 15.974 71.6898 17.5699C73.2752 19.1658 74.2547 21.2644 74.4598 23.5045C74.4793 23.7982 74.5578 24.085 74.6908 24.3476C74.8238 24.6102 75.0084 24.8433 75.2336 25.0328C76.6742 26.4034 77.5564 28.2589 77.71 30.2414C77.8636 32.224 77.2778 34.1932 76.0655 35.7694C75.8623 36.063 75.7729 36.4206 75.814 36.7753C76.1584 38.0346 76.1936 39.3584 75.9165 40.6342C75.6394 41.9099 75.0582 43.0999 74.2224 44.1028C73.3867 45.1057 72.321 45.8919 71.1161 46.3945C69.9113 46.8971 68.6028 47.1013 67.3021 46.9896C66.8657 46.9719 66.4341 47.0866 66.064 47.3185C64.6875 48.1923 63.0903 48.6554 61.4598 48.6533C61.1555 50.0467 60.4881 51.3348 59.5253 52.3869C58.5481 53.5259 57.2672 54.3634 55.832 54.8019C54.3968 55.2403 52.8665 55.2616 51.4197 54.8631C51.1401 54.7608 50.8465 54.7021 50.5491 54.689C49.1047 54.8051 47.6538 54.9599 46.1964 55.1533C45.9914 55.2152 45.8182 55.3538 45.7128 55.5402C43.6467 58.6849 41.2469 61.5972 38.5551 64.2262C37.371 65.5848 36.5698 67.234 36.2337 69.0045C36.0308 69.7287 35.8757 70.4654 35.7694 71.2099C35.7585 71.4455 35.6982 71.6762 35.5924 71.8871C35.4866 72.0979 35.3377 72.2842 35.1553 72.4337C34.9729 72.5833 34.7611 72.6929 34.5336 72.7553C34.3061 72.8177 34.0681 72.8317 33.8348 72.7962C32.8482 72.6608 32.3453 71.8676 32.4613 70.7262C32.824 66.9754 34.4789 63.4673 37.1429 60.8021C38.9226 58.8676 40.4896 56.9331 42.1339 54.9986C42.2933 54.7911 42.4356 54.5712 42.5595 54.3408C42.0372 54.1087 41.5536 53.8765 41.07 53.6831C40.9139 53.6253 40.7424 53.6253 40.5863 53.6831C38.6477 54.8693 36.3534 55.335 34.1057 54.9986C33.9896 55.695 33.9509 56.3334 33.7962 56.9331C33.3308 58.9822 32.0806 60.7671 30.314 61.9048C29.9885 62.1297 29.7282 62.4367 29.5595 62.7947C28.3793 65.4491 27.7224 68.3065 27.625 71.2099C27.625 71.4207 27.5835 71.6295 27.5028 71.8243C27.4221 72.0191 27.3038 72.1961 27.1547 72.3452C27.0056 72.4943 26.8286 72.6126 26.6338 72.6933C26.439 72.774 26.2302 72.8155 26.0194 72.8155C25.8085 72.8155 25.5997 72.774 25.4049 72.6933C25.2101 72.6126 25.0331 72.4943 24.884 72.3452C24.7349 72.1961 24.6166 72.0191 24.5359 71.8243C24.4552 71.6295 24.4137 71.4207 24.4137 71.2099C24.4709 68.839 24.8617 66.4881 25.5744 64.2262C25.5744 63.9361 25.7292 63.6459 25.8453 63.2977C24.2007 63.1821 22.6204 62.6129 21.2798 61.6533C21.051 61.5447 20.7958 61.5044 20.5447 61.5372C19.0164 61.5372 17.4688 61.5372 15.9405 61.5372C14.3409 61.4606 12.8286 60.7856 11.7035 59.6461C10.5783 58.5066 9.92249 56.9858 9.86609 55.3855C9.86609 54.689 9.86609 53.9733 9.86609 53.2768C9.85505 53.1403 9.81264 53.0082 9.74218 52.8908C9.67172 52.7733 9.5751 52.6737 9.45984 52.5997C8.20339 51.941 7.12739 50.9846 6.32592 49.814C6.15874 49.5982 5.94776 49.4202 5.70687 49.2917C4.28314 48.6179 3.04551 47.6066 2.10151 46.3457C1.15752 45.0848 0.535739 43.6124 0.290202 42.0566C0.252624 41.9689 0.207305 41.8847 0.154785 41.8051V39.3869ZM73.3185 27.7798C72.5512 29.182 71.31 30.2655 69.817 30.8363C69.5574 30.8965 69.3315 31.0554 69.1871 31.2793C69.0427 31.5032 68.991 31.7745 69.0432 32.0357C69.1612 33.7913 68.6389 35.5302 67.5729 36.9301C66.9766 37.667 66.2402 38.2785 65.4063 38.7292C65.0661 38.8947 64.6752 38.9227 64.3149 38.8074C63.9546 38.6921 63.6526 38.4424 63.4717 38.1102C63.2562 37.7703 63.1745 37.3625 63.2424 36.9658C63.3103 36.5691 63.523 36.2117 63.8393 35.9628L64.1295 35.7307C64.7522 35.2513 65.2375 34.6161 65.5364 33.8893C65.8353 33.1624 65.9372 32.3696 65.8319 31.5908C65.8038 31.4602 65.75 31.3365 65.6736 31.2269C65.5972 31.1172 65.4998 31.0239 65.3869 30.9524C62.0184 29.4131 59.1546 26.9516 57.1265 23.8527C56.9885 23.6834 56.8879 23.4869 56.8313 23.2759C56.7748 23.065 56.7634 22.8445 56.7982 22.6289C56.8329 22.4133 56.9128 22.2074 57.0328 22.0249C57.1527 21.8424 57.3099 21.6874 57.4941 21.57C57.6623 21.4475 57.8533 21.3598 58.0559 21.3119C58.2585 21.264 58.4685 21.257 58.6738 21.2912C58.8791 21.3254 59.0756 21.4002 59.2517 21.5112C59.4278 21.6222 59.58 21.7671 59.6994 21.9375C60.1057 22.4212 60.4732 22.9435 60.8795 23.4271C62.2823 25.224 64.0576 26.6957 66.0834 27.7411C66.6554 27.975 67.2766 28.0631 67.8911 27.9978C68.5057 27.9324 69.0944 27.7155 69.6044 27.3665C70.1145 27.0175 70.5299 26.5474 70.8135 25.9982C71.0971 25.4491 71.2399 24.8382 71.2292 24.2203C71.2166 23.4018 71.0388 22.5944 70.7064 21.8464C70.3739 21.0984 69.8937 20.4254 69.2947 19.8676C68.6913 19.2113 67.9496 18.6972 67.1232 18.3626C66.2968 18.0281 65.4064 17.8813 64.5164 17.9331C64.0808 18.0036 63.6342 17.9231 63.2507 17.705C62.8672 17.4868 62.5697 17.1441 62.4078 16.7337C61.8901 15.7436 61.14 14.8939 60.2217 14.2575L60.0863 14.4122C60.0935 14.5347 60.0935 14.6574 60.0863 14.7798C59.8213 15.901 59.2448 16.9244 58.4234 17.7322C57.6019 18.5399 56.5689 19.0991 55.4435 19.3453C55.0324 19.416 54.6099 19.326 54.2634 19.0938C54.038 18.9218 53.8628 18.6926 53.756 18.43C53.6492 18.1674 53.6148 17.8809 53.6562 17.6004C53.6977 17.32 53.8136 17.0558 53.9918 16.8353C54.1701 16.6148 54.4041 16.4461 54.6697 16.3468C55.2598 16.158 55.8105 15.8629 56.2947 15.4762C56.5612 15.2205 56.7686 14.9096 56.9023 14.5654C57.0361 14.2211 57.093 13.8518 57.069 13.4832C57.0451 13.1146 56.9408 12.7558 56.7636 12.4317C56.5864 12.1076 56.3405 11.8262 56.0432 11.6072C55.0725 10.7664 53.8739 10.2329 52.5995 10.0744C51.3252 9.916 50.0324 10.1398 48.8854 10.7173C47.3185 11.5105 46.9509 11.4524 45.8676 10.1176C45.3173 9.43965 44.5819 8.93614 43.7508 8.66827C42.9197 8.4004 42.0287 8.37969 41.186 8.60867L41.4182 9.30509C41.931 10.6767 41.9757 12.1794 41.5453 13.5791C41.1149 14.9787 40.2336 16.1967 39.0387 17.0432C38.0097 17.7641 36.8993 18.3615 35.7307 18.823C32.5974 19.9569 29.3563 20.7672 26.0581 21.2411C25.2387 21.3521 24.4835 21.745 23.9223 22.3521C23.361 22.9593 23.0286 23.7429 22.9822 24.5685C22.9103 26.4427 23.3093 28.305 24.1429 29.9852C24.2655 30.1836 24.3445 30.4058 24.3746 30.6371C24.4047 30.8685 24.3853 31.1035 24.3176 31.3267C24.2499 31.55 24.1355 31.7562 23.982 31.9318C23.8284 32.1074 23.6393 32.2484 23.4271 32.3453C23.2178 32.4364 22.9911 32.4806 22.763 32.475C22.5348 32.4693 22.3106 32.4139 22.1061 32.3126C21.9015 32.2112 21.7216 32.0664 21.5789 31.8883C21.4362 31.7102 21.3341 31.503 21.2798 31.2813C20.6318 29.6749 20.1395 28.01 19.8095 26.3096C19.6095 25.351 19.6116 24.3612 19.8157 23.4035C20.0198 22.4458 20.4214 21.5411 20.9949 20.7474C21.5684 19.9536 22.3011 19.2882 23.1462 18.7937C23.9914 18.2991 24.9304 17.9862 25.9033 17.875C28.689 17.2947 31.4554 16.6563 34.2024 15.9405C35.3551 15.5852 36.4358 15.0285 37.3944 14.2962C38.0748 13.7136 38.519 12.9027 38.6437 12.0157C38.7684 11.1287 38.5649 10.2267 38.0714 9.4792C38.0714 9.32444 37.7619 9.22771 37.6072 9.15033C36.074 8.43386 34.3568 8.20915 32.6909 8.507C31.025 8.80485 29.492 9.61069 28.3021 10.814C27.9218 11.2143 27.4297 11.4907 26.8899 11.6072C25.1694 11.8178 23.5964 12.684 22.4985 14.0253C22.0793 14.4552 21.551 14.7628 20.9703 14.9152C19.7229 15.2024 18.5626 15.7844 17.5865 16.6124C16.6103 17.4404 15.8469 18.4903 15.3601 19.6741C15.2164 20.1072 14.9624 20.4954 14.6232 20.8006C14.2841 21.1059 13.8714 21.3177 13.4256 21.4152C12.3389 21.6998 11.3894 22.3626 10.7476 23.2846C10.1058 24.2065 9.81382 25.3271 9.92413 26.445C9.96445 26.7546 9.9292 27.0695 9.8214 27.3626C9.7136 27.6556 9.53645 27.9183 9.30508 28.128C8.48743 28.8607 7.82996 29.7544 7.37389 30.753C6.91783 31.7517 6.67301 32.8339 6.65479 33.9316C6.64127 34.2574 6.56037 34.5769 6.4172 34.8699C6.27403 35.1629 6.07169 35.4231 5.82294 35.634C5.19654 36.1973 4.65563 36.849 4.21729 37.5685C3.4361 39.0193 3.25378 40.7183 3.70932 42.3018C4.16486 43.8854 5.22209 45.2277 6.65479 46.0417C9.37202 42.2667 13.1005 39.3361 17.4107 37.5878C17.4339 37.4404 17.4339 37.2903 17.4107 37.1429C16.695 35.9628 16.0179 34.7634 15.2441 33.6414C14.9287 33.3258 14.7515 32.8979 14.7515 32.4517C14.7515 32.0055 14.9287 31.5775 15.2441 31.2619C15.4123 31.1194 15.6072 31.0118 15.8175 30.9453C16.0277 30.8788 16.249 30.8548 16.4687 30.8746C16.6883 30.8944 16.9017 30.9576 17.0967 31.0607C17.2916 31.1637 17.4641 31.3044 17.6042 31.4747C17.811 31.6623 17.9989 31.8696 18.1652 32.0938L20.8348 36.5045C20.9775 36.4502 21.1275 36.4176 21.2798 36.4078C23.3884 36.1756 25.4777 35.9048 27.5863 35.7307C27.8031 35.7112 28.0215 35.7383 28.227 35.81C28.4324 35.8818 28.6202 35.9966 28.7777 36.1468C28.9352 36.2969 29.0588 36.479 29.1403 36.6809C29.2218 36.8827 29.2592 37.0996 29.25 37.317C29.2475 37.5321 29.2024 37.7445 29.1171 37.942C29.0319 38.1394 28.9084 38.318 28.7536 38.4674C28.5989 38.6167 28.416 38.7339 28.2156 38.812C28.0152 38.8902 27.8013 38.9278 27.5863 38.9227H26.5997C23.2524 38.9713 19.9625 39.799 16.9907 41.3403C14.019 42.8816 11.4472 45.094 9.47919 47.8021C9.16967 48.2084 9.24705 48.4405 9.47919 48.7694C10.2922 49.6302 11.3918 50.1643 12.571 50.2712C13.7503 50.3781 14.9279 50.0504 15.8825 49.3497C16.059 49.1526 16.2787 48.9988 16.5243 48.9003C16.77 48.8018 17.035 48.7613 17.2989 48.7819C17.5628 48.8025 17.8183 48.8836 18.0457 49.019C18.2731 49.1544 18.4663 49.3404 18.6101 49.5625C19.9528 50.9237 21.7381 51.7597 23.6433 51.9194C25.5486 52.0791 27.4481 51.5518 28.9985 50.4331C30.1399 49.6399 30.5462 49.6593 31.6875 50.4331C32.5222 51.0764 33.504 51.5017 34.5443 51.6706C35.5846 51.8395 36.6505 51.7466 37.6459 51.4003C39.0774 50.9554 39.1354 50.82 39 49.3111C39.0003 48.3015 38.606 47.3317 37.9012 46.6089C37.1964 45.886 36.237 45.4672 35.2277 45.442C34.1039 45.2966 32.9661 45.2966 31.8423 45.442C30.1185 45.8006 28.4139 46.2461 26.7351 46.7768C26.5144 46.8852 26.2725 46.9434 26.0266 46.947C25.7807 46.9507 25.5371 46.8998 25.3133 46.7981C25.0894 46.6963 24.8909 46.5462 24.732 46.3586C24.5731 46.1709 24.4578 45.9504 24.3944 45.7128C24.2924 45.3104 24.3503 44.8841 24.5559 44.5234C24.7615 44.1627 25.0988 43.8956 25.497 43.7783C28.4378 42.4798 31.6558 41.9346 34.8601 42.192C36.3253 42.2946 37.754 42.6962 39.0581 43.3721C40.6584 44.2076 42.3205 44.919 44.0298 45.5C45.0724 45.7606 46.1512 45.8456 47.2217 45.7515C47.543 45.7656 47.8599 45.6725 48.1225 45.4869C48.3851 45.3013 48.5786 45.0338 48.6726 44.7262C48.7654 44.4059 48.7535 44.0643 48.6386 43.7511C48.5238 43.438 48.3121 43.1696 48.0342 42.9852C47.5071 42.6071 46.9432 42.2831 46.3512 42.0179C45.944 41.8657 45.6136 41.5584 45.4323 41.1632C45.2511 40.7681 45.2337 40.3172 45.3839 39.9093C45.4385 39.7121 45.5332 39.5283 45.6619 39.3694C45.7907 39.2104 45.9508 39.0796 46.1323 38.9853C46.3138 38.8909 46.5128 38.8349 46.7168 38.8208C46.9209 38.8067 47.1257 38.8348 47.3185 38.9033C48.2714 39.1256 49.1578 39.5714 49.9045 40.2037C50.6512 40.8361 51.2369 41.6369 51.6131 42.5402C52.0518 43.6111 52.0636 44.8093 51.6463 45.8887C51.2289 46.968 50.4141 47.8466 49.3691 48.3438C48.4117 48.734 47.3848 48.9249 46.3512 48.9048C44.9448 48.8234 43.5435 48.6684 42.1533 48.4405C42.2315 48.9465 42.2767 49.457 42.2887 49.9688C42.2887 50.5105 42.5015 50.7233 42.9658 50.9167C45.0757 51.8761 47.4644 52.0276 49.6786 51.3423C50.3673 51.1005 51.1179 51.1005 51.8066 51.3423C52.4462 51.5863 53.1318 51.6865 53.8146 51.6356C54.4973 51.5848 55.1605 51.3842 55.757 51.0481C56.3534 50.712 56.8686 50.2486 57.2658 49.691C57.6629 49.1333 57.9324 48.495 58.0551 47.8215C58.2155 46.3948 58.1039 44.9506 57.7262 43.5655C57.4523 41.8668 56.6282 40.3051 55.3805 39.1203C54.1328 37.9355 52.5305 37.1932 50.82 37.0075C47.2991 36.5238 43.7589 36.1176 40.2575 35.5372C34.7291 34.5522 29.7684 31.5371 26.3482 27.0834C26.0901 26.7638 25.9677 26.3557 26.0075 25.9468C26.0473 25.538 26.2461 25.1611 26.561 24.8974C26.7117 24.7529 26.8903 24.6408 27.086 24.568C27.2816 24.4952 27.49 24.4633 27.6985 24.4742C27.9069 24.485 28.1109 24.5385 28.2979 24.6312C28.4849 24.724 28.6509 24.8541 28.7857 25.0134C29.134 25.3616 29.4048 25.7485 29.753 26.0968L33.2932 29.5015C33.4479 29.0372 33.5447 28.8051 33.622 28.5923C34.2652 26.8975 35.4055 25.4365 36.8933 24.4009C38.3811 23.3653 40.1471 22.8033 41.9598 22.7887C42.3698 22.7478 42.7801 22.8623 43.1097 23.1095C43.4393 23.3567 43.6641 23.7186 43.7396 24.1235C43.805 24.4859 43.7423 24.8597 43.5623 25.1809C43.3823 25.5021 43.0962 25.7506 42.753 25.884C42.4405 25.9853 42.1142 26.0375 41.7857 26.0387C40.4006 26.0894 39.0793 26.6342 38.061 27.5745C37.0426 28.5148 36.3944 29.7885 36.2337 31.1652C37.5925 31.6654 38.9817 32.0789 40.3929 32.4033C43.7009 32.945 47.0283 33.3706 50.3557 33.7962C51.9331 33.8802 53.4762 34.2896 54.8878 34.9987C56.2993 35.7078 57.549 36.7013 58.5581 37.9167C59.8696 39.7171 60.7679 41.7845 61.189 43.9718C61.3051 44.4554 61.4212 44.9197 61.5179 45.384C62.7539 45.4043 63.9487 44.9389 64.8453 44.0878C65.0999 43.8493 65.4112 43.6797 65.7498 43.595C66.0883 43.5104 66.4428 43.5136 66.7798 43.6042C67.6571 43.8372 68.584 43.8033 69.442 43.507C70.3 43.2107 71.0502 42.6653 71.5967 41.9405C72.175 41.2646 72.5479 40.4373 72.6713 39.5564C72.7947 38.6754 72.6635 37.7776 72.2932 36.9688C71.7708 35.634 71.8289 35.3244 72.8929 34.3378C73.8179 33.5157 74.3813 32.3619 74.461 31.1269C74.5407 29.8919 74.1301 28.6753 73.3185 27.7411V27.7798ZM13.0581 53.7218V54.9212C13.038 55.3777 13.1145 55.8334 13.2825 56.2584C13.4504 56.6834 13.7062 57.0682 14.0329 57.3877C14.3597 57.7072 14.7502 57.9541 15.1789 58.1125C15.6076 58.2708 16.0649 58.3369 16.5209 58.3066C18.1459 58.3066 19.7515 58.3066 21.3572 58.3066C21.9253 58.3546 22.4715 58.5478 22.9435 58.8676C23.4628 59.2703 24.0566 59.5664 24.6906 59.739C25.3247 59.9117 25.9866 59.9574 26.6384 59.8736C27.2995 59.7746 27.9343 59.5455 28.5061 59.1993C29.0779 58.8532 29.5753 58.3969 29.9694 57.857C30.3635 57.3172 30.6465 56.7044 30.802 56.0543C30.9574 55.4042 30.9823 54.7297 30.875 54.07C30.875 53.5283 30.4301 53.3736 29.8884 53.6444C27.9493 54.7459 25.725 55.2423 23.5016 55.07C21.2781 54.8976 19.157 54.0643 17.4107 52.6771C17.319 52.6127 17.2151 52.5675 17.1054 52.5442C16.9957 52.5209 16.8824 52.5201 16.7723 52.5417L13.0581 53.7218Z" fill="#58595B"/>
<path d="M50.2973 19.6742C49.7363 24.0849 52.406 27.4122 56.6426 29.0759C56.9534 29.1783 57.2571 29.3011 57.5518 29.4435C57.867 29.6227 58.1122 29.9034 58.2476 30.2398C58.383 30.5762 58.4005 30.9484 58.2973 31.2961C58.1942 31.6437 57.9764 31.9461 57.6794 32.1542C57.3825 32.3623 57.0239 32.4637 56.6619 32.442C56.5151 32.4717 56.3638 32.4717 56.217 32.442C51.6321 30.8557 48.1887 28.1087 47.1441 23.1176C46.9761 21.8334 46.9761 20.5328 47.1441 19.2486C47.1747 19.041 47.2462 18.8416 47.3545 18.6619C47.4627 18.4822 47.6055 18.3257 47.7747 18.2016C47.9438 18.0774 48.1359 17.9881 48.3397 17.9387C48.5436 17.8893 48.7553 17.8808 48.9625 17.9137C49.3619 17.993 49.7183 18.216 49.9643 18.5404C50.2103 18.8648 50.3288 19.2682 50.2973 19.6742Z" fill="#58595B"/>
</g>
<defs>
<clipPath id="clip0_404_281">
<rect width="78" height="78" fill="white"/>
</clipPath>
</defs>
</svg>
