<svg width="40" height="41" viewBox="0 0 40 41" fill="none" xmlns="http://www.w3.org/2000/svg">
<g clip-path="url(#clip0_404_225)">
<path d="M16.4631 29.7913C16.1161 29.1931 15.817 28.5949 15.4701 28.1044C15.4053 28.0419 15.3282 27.9937 15.2437 27.9628C15.1593 27.9319 15.0693 27.919 14.9795 27.9249H3.79282C2.99343 27.9575 2.20607 27.7221 1.55577 27.256C0.905475 26.79 0.429525 26.12 0.203507 25.3525C0.0984587 24.9625 0.0461476 24.5601 0.0479703 24.1561C0.0479703 17.3683 0.0479703 10.5885 0.0479703 3.81664C0.0154951 3.31314 0.0895379 2.80844 0.265268 2.33549C0.440998 1.86253 0.714467 1.43193 1.06783 1.07179C1.4212 0.711651 1.84653 0.430056 2.31606 0.245378C2.7856 0.0607006 3.2888 -0.0229107 3.79282 -7.05477e-07H35.4626C35.9632 -0.0256442 36.4637 0.0538777 36.9318 0.233442C37.3998 0.413006 37.8251 0.68863 38.1802 1.04256C38.5352 1.39648 38.8122 1.82086 38.9932 2.28835C39.1743 2.75584 39.2554 3.25607 39.2314 3.75682V24.1561C39.2554 24.6569 39.1743 25.1571 38.9932 25.6246C38.8122 26.0921 38.5352 26.5164 38.1802 26.8704C37.8251 27.2243 37.3998 27.4999 36.9318 27.6795C36.4637 27.859 35.9632 27.9386 35.4626 27.9129C31.7297 27.9129 27.9968 27.9129 24.2759 27.9129C24.1466 27.8916 24.0139 27.9142 23.899 27.9771C23.784 28.0399 23.6935 28.1395 23.6418 28.2599C23.3785 28.7624 23.0794 29.2529 22.7684 29.8033L24.575 29.9469C27.4274 30.148 30.2422 30.715 32.95 31.6339C33.9249 31.9585 34.8329 32.4571 35.6301 33.1055C35.956 33.3158 36.2241 33.6046 36.4097 33.9453C36.5953 34.2859 36.6925 34.6677 36.6925 35.0557C36.6925 35.4436 36.5953 35.8254 36.4097 36.1661C36.2241 36.5068 35.956 36.7955 35.6301 37.0059C34.4899 37.8725 33.1883 38.5029 31.8015 38.8603C29.2174 39.6273 26.5497 40.0772 23.8571 40.2004C21.4642 40.308 19.0714 40.3679 16.6785 40.2721C13.2123 40.2343 9.77474 39.6405 6.49678 38.5134C5.56066 38.1789 4.67187 37.7245 3.85265 37.1614C2.09388 35.965 2.12977 34.2062 3.85265 32.914C5.16645 32.0384 6.63713 31.4249 8.18376 31.1074C10.7492 30.4467 13.3747 30.0459 16.0204 29.911L16.4631 29.7913ZM19.6097 32.5431L19.861 32.1364C20.8182 30.4853 21.7753 28.8342 22.7085 27.1831C22.8016 26.9808 22.9552 26.8123 23.148 26.7009C23.3409 26.5894 23.5635 26.5406 23.7853 26.5609H35.4386C35.7623 26.5771 36.0857 26.5243 36.3874 26.4059C36.689 26.2875 36.9621 26.1064 37.1884 25.8744C37.4147 25.6424 37.5891 25.365 37.6999 25.0605C37.8108 24.756 37.8557 24.4314 37.8315 24.1082C37.8315 17.3364 37.8315 10.5646 37.8315 3.76878C37.8526 3.44593 37.8046 3.12229 37.6906 2.81949C37.5766 2.5167 37.3993 2.24172 37.1706 2.01294C36.9418 1.78416 36.6668 1.60685 36.364 1.49287C36.0612 1.37889 35.7376 1.33085 35.4147 1.35198H3.79282C3.47405 1.33471 3.15521 1.38477 2.85707 1.49892C2.55893 1.61306 2.28817 1.78872 2.06243 2.01446C1.83669 2.2402 1.66103 2.51096 1.54689 2.8091C1.43274 3.10724 1.38268 3.42608 1.39995 3.74485C1.39995 10.5287 1.39995 17.3125 1.39995 24.0843C1.39552 24.3092 1.41557 24.5338 1.45977 24.7543C1.58809 25.2821 1.89834 25.7477 2.33598 26.0694C2.77362 26.3911 3.31064 26.5482 3.85265 26.5131H15.506C15.7339 26.493 15.9626 26.543 16.1614 26.6563C16.3602 26.7696 16.5197 26.9409 16.6187 27.1472C17.5279 28.9658 18.5569 30.7126 19.6097 32.5431ZM20.2319 39.0518C21.0574 39.0518 22.541 38.968 24.0246 38.8603C26.6124 38.7036 29.1737 38.25 31.6579 37.5084C32.7864 37.216 33.8444 36.6993 34.7686 35.9889C35.5224 35.3548 35.5104 34.7924 34.7686 34.1344C34.6889 34.0534 34.6007 33.9812 34.5054 33.919C33.7918 33.5131 33.0569 33.1456 32.304 32.8183C29.0523 31.7565 25.6618 31.18 22.2419 31.1074C22.1614 31.1214 22.0847 31.152 22.0167 31.1973C21.9487 31.2426 21.8909 31.3017 21.8471 31.3706C21.3207 32.256 20.8182 33.1414 20.3037 34.0267C19.8969 34.7207 19.3346 34.7207 18.9397 34.0267C18.5449 33.3328 17.9467 32.3039 17.4083 31.4065C17.3709 31.3117 17.3011 31.2332 17.2113 31.185C17.1215 31.1368 17.0175 31.122 16.9178 31.1433C14.8838 31.3706 12.8499 31.5262 10.8279 31.8253C9.03195 32.0595 7.28619 32.5848 5.65927 33.3806C5.12814 33.6556 4.63705 34.0018 4.19961 34.4096C4.10275 34.4845 4.02434 34.5806 3.97039 34.6905C3.91644 34.8004 3.88839 34.9213 3.88839 35.0437C3.88839 35.1661 3.91644 35.287 3.97039 35.3969C4.02434 35.5068 4.10275 35.6029 4.19961 35.6778C4.46009 35.9908 4.78172 36.2473 5.1448 36.4316C6.14747 36.9047 7.18311 37.3046 8.24358 37.628C12.1564 38.6452 16.1897 39.1242 20.2319 39.0518Z" fill="#58595B"/>
<path d="M12.0361 6.55648C11.1148 6.29326 10.8396 5.99415 10.8396 5.037C10.8216 4.73018 10.8216 4.42256 10.8396 4.11574C10.8457 3.9753 10.8798 3.83749 10.94 3.71044C11.0002 3.58339 11.0852 3.46968 11.19 3.37601C11.2948 3.28234 11.4173 3.21061 11.5503 3.16504C11.6833 3.11948 11.8241 3.10102 11.9643 3.11073C13.8666 3.11073 15.7809 3.11073 17.6833 3.11073C17.8287 3.10587 17.9736 3.13053 18.1092 3.18322C18.2448 3.23591 18.3683 3.31553 18.4723 3.41729C18.5763 3.51904 18.6586 3.64081 18.7142 3.77525C18.7699 3.90969 18.7977 4.05401 18.796 4.19949C18.819 4.59797 18.819 4.99745 18.796 5.39593C18.796 6.00612 18.449 6.30523 17.6593 6.59237C17.6965 6.98168 17.8121 7.35943 17.9992 7.70283C18.1863 8.04624 18.4411 8.34817 18.7481 8.59042C19.4226 9.10973 19.9581 9.78795 20.3068 10.5646C20.6554 11.3412 20.8064 12.192 20.7462 13.0412C20.7462 16.3194 20.7462 19.5977 20.7462 22.8759C20.7462 23.6536 20.6385 23.9048 19.8847 24.0723C18.8973 24.3366 17.8883 24.5128 16.8697 24.5988C14.7734 24.7864 12.6616 24.6979 10.5884 24.3356H10.4209C9.06891 24.0006 8.92534 23.8211 8.92534 22.4213C8.92534 19.2268 8.92534 16.0323 8.92534 12.8497C8.87374 12.0362 9.0262 11.2227 9.36886 10.483C9.71153 9.74336 10.2335 9.10103 10.8875 8.61435C11.2088 8.36749 11.4764 8.05766 11.6739 7.70382C11.8714 7.34998 11.9947 6.95957 12.0361 6.55648ZM19.4061 13.0053C16.3985 13.4359 13.3448 13.4359 10.3371 13.0053V20.5309C13.3417 21.0035 16.4016 21.0035 19.4061 20.5309V13.0053ZM13.424 6.52058C13.3536 7.18525 13.1447 7.82781 12.8109 8.40686C12.4771 8.9859 12.0257 9.48861 11.4857 9.88258C11.2818 10.054 11.1008 10.2511 10.9473 10.4688C10.732 10.8278 10.5645 11.2106 10.3611 11.6055C13.3163 12.0924 16.3313 12.0924 19.2865 11.6055C19.2192 11.2327 19.0789 10.877 18.8736 10.5587C18.6682 10.2404 18.4019 9.9659 18.0901 9.75097C17.5056 9.32337 17.0436 8.74993 16.7501 8.08792C16.5347 7.59738 16.4031 7.07095 16.2236 6.52058H13.424ZM19.4061 21.9068C16.3981 22.3315 13.3452 22.3315 10.3371 21.9068C10.2175 22.84 10.2295 22.8998 10.9473 23.0195C13.5388 23.4382 16.1806 23.4382 18.772 23.0195C19.442 22.9118 19.4301 22.8759 19.4181 22.2179C19.4301 22.1341 19.4301 22.0504 19.4181 21.9068H19.4061ZM17.4799 4.47467H12.2754V5.13271H17.4799V4.47467Z" fill="#58595B"/>
<path d="M28.7145 5.55149V6.16168L29.0255 6.23346C29.3231 6.28718 29.5972 6.43056 29.811 6.6444C30.0249 6.85823 30.1683 7.1323 30.222 7.4299C30.234 7.62514 30.234 7.82092 30.222 8.01616C30.222 11.1748 30.222 14.3214 30.222 17.48C30.222 18.82 29.8511 19.2746 28.5111 19.478C28.2837 20.9018 28.0325 22.3375 27.8411 23.7733C27.7214 24.6347 27.183 24.7184 26.4891 24.527C26.2977 24.527 26.1062 24.1561 26.0584 23.9408C25.8071 22.5768 25.6037 21.2009 25.3884 19.837C25.3884 19.5738 25.3046 19.4541 25.0055 19.4182C24.6373 19.3854 24.2946 19.2164 24.0446 18.9442C23.7945 18.672 23.6551 18.3162 23.6535 17.9466V7.77687C23.6535 6.8915 24.156 6.36507 25.1491 6.17364V5.57542C25.1298 5.56806 25.1085 5.56806 25.0893 5.57542C24.7997 5.54983 24.5216 5.44984 24.2821 5.28514C24.0425 5.12045 23.8496 4.89664 23.722 4.63543C23.5944 4.37421 23.5364 4.08446 23.5538 3.79427C23.5711 3.50407 23.6632 3.22329 23.821 2.97915C23.9186 2.78541 24.067 2.62183 24.2503 2.50592C24.4337 2.39001 24.6451 2.32613 24.8619 2.32111C26.2498 2.32111 27.6377 2.32111 29.0255 2.32111C29.3429 2.32111 29.6472 2.44716 29.8715 2.67153C30.0959 2.89591 30.222 3.20023 30.222 3.51755C30.2339 3.71677 30.2339 3.91654 30.222 4.11576C30.222 5.07292 29.8511 5.47971 28.8939 5.58738L28.7145 5.55149ZM28.9059 11.9644C28.267 11.8327 27.6391 11.6527 27.0275 11.426C26.4972 11.1645 25.8934 11.0927 25.3166 11.2226C25.1012 11.2226 24.9935 11.3423 24.9935 11.6055C24.9935 13.6633 24.9935 15.7212 24.9935 17.7791C24.9935 18.1021 25.1132 18.1859 25.4123 18.1859C26.4173 18.1859 27.4343 18.1859 28.4393 18.1859C28.7982 18.1859 28.9298 18.0902 28.9179 17.7073C28.9179 15.8648 28.9179 14.0103 28.9179 12.1678C28.9179 12.0362 28.8939 11.9644 28.9059 11.9644ZM28.9059 10.5047C28.9059 9.53563 28.9059 8.68616 28.9059 7.83669C28.8822 7.77453 28.8437 7.71911 28.7936 7.67531C28.7435 7.63151 28.6835 7.60065 28.6187 7.58544C27.518 7.58544 26.4053 7.58544 25.3046 7.58544C25.2089 7.58544 25.0175 7.74098 25.0175 7.82473C25.0175 8.5067 25.0175 9.18867 25.0175 9.90653C25.9955 9.66844 27.028 9.82762 27.8889 10.3492C28.2213 10.4539 28.5698 10.4985 28.9179 10.4808L28.9059 10.5047ZM28.9059 3.67308H25.0055V4.15166H28.858L28.9059 3.67308ZM26.5489 6.1856H27.3505V5.53953H26.5489V6.1856ZM26.7284 19.5259L26.9318 20.7223H27.0036L27.183 19.5259H26.7284Z" fill="#58595B"/>
<path d="M15.554 16.475H16.7504C16.8417 16.465 16.934 16.4742 17.0215 16.502C17.109 16.5298 17.1897 16.5756 17.2584 16.6364C17.3272 16.6973 17.3824 16.7718 17.4206 16.8553C17.4588 16.9388 17.4791 17.0293 17.4802 17.1211C17.4804 17.2153 17.4613 17.3086 17.4242 17.3952C17.3871 17.4818 17.3328 17.56 17.2645 17.6249C17.1962 17.6899 17.1154 17.7402 17.027 17.7729C16.9386 17.8056 16.8445 17.8199 16.7504 17.815H15.554V19.0115C15.554 19.5259 15.3027 19.8011 14.884 19.8131C14.4652 19.825 14.214 19.5379 14.202 18.9995C14.202 18.6645 14.202 18.3175 14.202 17.9825C14.2094 17.943 14.2094 17.9024 14.202 17.8629H13.0414C12.5509 17.8629 12.2398 17.5997 12.2279 17.1929C12.2159 16.7861 12.527 16.5229 13.0534 16.5109H14.2499V15.3145C14.2499 14.8 14.4891 14.5129 14.8959 14.5009C15.3027 14.4889 15.5899 14.788 15.6018 15.3145L15.554 16.475Z" fill="#EE4423"/>
</g>
<defs>
<clipPath id="clip0_404_225">
<rect width="39.2312" height="40.32" fill="white"/>
</clipPath>
</defs>
</svg>
