<svg width="28" height="28" viewBox="0 0 28 28" fill="none" xmlns="http://www.w3.org/2000/svg">
<path d="M25.6318 21.3847C25.6318 21.8047 25.5385 22.2363 25.3402 22.6563C25.2303 22.8891 25.1025 23.1146 24.9528 23.333C24.9007 23.409 24.846 23.4841 24.7884 23.5583C24.713 23.6558 24.6325 23.7518 24.5468 23.8463C24.3256 24.0901 24.0958 24.3076 23.8557 24.4997C23.4755 24.8039 23.0698 25.0442 22.6335 25.223C21.9335 25.5147 21.1752 25.6663 20.3585 25.6663C19.1685 25.6663 17.8968 25.3863 16.5552 24.8147C15.2135 24.243 13.8718 23.473 12.5418 22.5047C11.2002 21.5247 9.9285 20.4397 8.71516 19.238C7.5135 18.0247 6.4285 16.753 5.46016 15.423C4.5035 14.093 3.7335 12.763 3.1735 11.4447C2.6135 10.1147 2.3335 8.84301 2.3335 7.62967C2.3335 6.83634 2.4735 6.07801 2.7535 5.37801C3.0335 4.66634 3.47683 4.01301 4.09516 3.42967C4.84183 2.69467 5.6585 2.33301 6.52183 2.33301C6.8485 2.33301 7.17516 2.40301 7.46683 2.54301C7.77016 2.68301 8.0385 2.89301 8.2485 3.19634L10.9552 7.01134C11.1652 7.30301 11.3168 7.57134 11.4218 7.82801C11.5268 8.07301 11.5852 8.31801 11.5852 8.53967C11.5852 8.81967 11.5035 9.09967 11.3402 9.36801C11.1885 9.63634 10.9668 9.91634 10.6868 10.1963L9.80016 11.118C9.67183 11.2463 9.6135 11.398 9.6135 11.5847C9.6135 11.678 9.62516 11.7597 9.6485 11.853C9.6835 11.9463 9.7185 12.0163 9.74183 12.0863C9.95183 12.4713 10.3135 12.973 10.8268 13.5797C11.3518 14.1863 11.9118 14.8047 12.5185 15.423C13.1485 16.0413 13.7552 16.613 14.3735 17.138C14.9802 17.6513 15.4818 18.0013 15.8785 18.2113C15.9368 18.2347 16.0068 18.2697 16.0885 18.3047C16.1818 18.3397 16.2752 18.3513 16.3802 18.3513C16.5785 18.3513 16.7302 18.2813 16.8585 18.153L17.7452 17.278C18.0368 16.9863 18.3168 16.7647 18.5852 16.6247C18.8535 16.4613 19.1218 16.3797 19.4135 16.3797C19.6352 16.3797 19.8685 16.4263 20.1252 16.5313C20.3818 16.6363 20.6502 16.788 20.9418 16.9863L24.8035 19.728C25.1068 19.938 25.3168 20.183 25.4452 20.4747C25.5618 20.7663 25.6318 21.058 25.6318 21.3847Z" fill="#58595B"/>
<path fill-rule="evenodd" clip-rule="evenodd" d="M3.48801 2.79955C4.36528 1.93865 5.39085 1.45801 6.52183 1.45801C6.96887 1.45801 7.42379 1.55295 7.83947 1.75131C8.26897 1.95068 8.66043 2.25593 8.96478 2.69376L11.6672 6.50267C11.9063 6.83524 12.0935 7.16063 12.2289 7.49008C12.3665 7.81296 12.4602 8.17385 12.4602 8.53967C12.4602 8.99102 12.3287 9.42241 12.095 9.81063C11.8964 10.1588 11.6251 10.4946 11.3117 10.8089L10.5082 11.6441C10.5163 11.6633 10.5272 11.6893 10.539 11.7194C10.7137 12.0256 11.0229 12.4564 11.4917 13.0108C12.0052 13.6041 12.5498 14.2051 13.1373 14.8043C13.7578 15.4132 14.3456 15.9664 14.9391 16.4704C15.5003 16.9452 15.9375 17.2478 16.2553 17.4206C16.281 17.4317 16.3047 17.4424 16.3239 17.4511L17.1286 16.6571C17.4477 16.3384 17.7897 16.0574 18.1549 15.8624C18.5364 15.6352 18.9523 15.5047 19.4135 15.5047C19.7634 15.5047 20.1091 15.5793 20.4565 15.7214C20.7865 15.8565 21.1097 16.0424 21.4338 16.2628L21.4412 16.2678L25.3062 19.0118C25.7199 19.2993 26.0441 19.6633 26.2461 20.1222L26.252 20.1359L26.2576 20.1498C26.4063 20.5213 26.5068 20.924 26.5068 21.3847C26.5068 21.9359 26.384 22.495 26.1314 23.03C26.0027 23.3024 25.852 23.5688 25.6745 23.8277C25.6129 23.9176 25.5482 24.0065 25.4802 24.0943C25.3908 24.2096 25.2958 24.3228 25.1951 24.4339C24.9452 24.7093 24.6815 24.9597 24.4024 25.1829C23.96 25.537 23.4832 25.8201 22.9677 26.0316C22.1577 26.3688 21.2854 26.5413 20.3585 26.5413C19.0301 26.5413 17.6417 26.2288 16.2122 25.6197C14.8034 25.0194 13.4046 24.2151 12.0269 23.212L12.0257 23.2112C10.648 22.205 9.34311 21.0914 8.09944 19.8597L8.09343 19.8538C6.86188 18.6102 5.74806 17.3051 4.75279 15.938L4.74983 15.934C3.76236 14.5612 2.95778 13.1748 2.36815 11.7867L2.36706 11.7842C1.77022 10.3667 1.4585 8.97952 1.4585 7.62967C1.4585 6.73349 1.6167 5.86488 1.94017 5.05533C2.26918 4.22013 2.78596 3.46355 3.48801 2.79955Z" fill="#58595B"/>
</svg>
