<svg width="117" height="117" viewBox="0 0 117 117" fill="none" xmlns="http://www.w3.org/2000/svg">
<g clip-path="url(#clip0_934_8389)">
<path d="M12.0801 56.4297H8.06006V60.4497H12.0801V56.4297Z" fill="#58595B"/>
<path d="M100.77 40.31H108.82V36.28L112.85 36.27V32.25H108.83L108.82 36.28H100.77L100.76 32.26L96.73 32.25V36.28H100.75L100.77 40.31Z" fill="#58595B"/>
<path d="M112.86 92.7097H116.86V88.7097H108.8V84.7097H116.8V80.7097H108.8V76.7097H112.8V72.7097H116.8V56.4498H112.8V52.4498H116.8V48.4498H112.8V44.4498H108.8V48.4498H100.8V44.4498H96.8001V36.2397H92.8001V44.2997H88.8001V32.2397H72.5501V36.2397H84.6401V44.2997H76.6401V40.2997H72.6401V36.2997H64.5801V28.2997H68.5801V32.2997H72.5801V28.2997H76.5801V20.2397H80.5801V28.2397H84.5801V20.1898H80.5801V16.1898H84.5801V0.0897217H80.5801V8.14972H76.5801V12.1497H80.5801V16.1497H76.5801V20.1497H68.5801V24.1497H64.5801V20.1497H60.5801V16.1497H64.5801V12.1497H72.6301V0.00976562H68.6301V4.00977H56.4301V0.00976562H52.4301V4.00977H48.4301V0.00976562H40.3801V4.00977H32.3301V8.00977H40.3301V12.0098H36.3301V16.0098H32.3301V20.0098H52.4701V24.0098H48.4701V28.0098H52.4701V24.0098H56.4701V28.0098H60.4701V32.0098H56.4701V36.0098H64.5201V40.0098H56.4701V36.0098H52.4701V32.0098H48.4701V40.0098H52.4701V48.0098H48.4701V44.0098H40.4201V32.2397H44.4201V24.2397H40.4201V32.2397H32.3701V36.2397H36.3701V40.2397H32.3701V36.2397H28.3701V32.2397H16.1201V40.2397H12.1201V32.2397H8.12009V36.2397H4.12009V40.2397H12.1201V44.2397H16.1201V40.2397H20.1201V48.2397H24.1201V52.2397H28.1201V56.2397H20.1801V52.2397H12.1301V48.2397H8.13008V44.2397H0.0800781V48.2397H8.14009V52.2397H0.0800781V60.2997H4.08008V56.2997H8.08008V52.2997H12.0801V56.2997H20.1801V60.2997H36.2901V64.2997H24.1801V68.2997H28.1801V72.2997H12.0801V68.2997H8.08008V76.2997H4.08008V80.2997H0.0800781V84.2997H8.14009V76.2997H20.1801V84.2997H32.2801V76.2997H48.4101V84.2997H60.5001V80.2997H52.4401V76.2997H60.4401V72.2997H56.4401V68.2997H60.4401V56.4297H56.4401V60.4297H52.4401V48.3698H60.4901V52.3698H64.4901V44.3698H68.4901V40.3698H72.4901V48.3698H80.5501V52.3698H84.5501V56.3698H88.5501V60.3698H84.5501V64.3698H88.5501V72.3698H92.5501V76.3698H88.5501V80.3698H80.5501V92.4597H72.5501V84.4097H76.5501V80.4097H68.4901V100.54H72.4901V104.54H76.4901V100.54H80.4901V104.54H84.4901V100.54H92.4901V104.54H96.4901V100.54H100.49V96.5397H104.49V92.5397H100.49V72.5698H96.4901V64.5698H92.4901V56.5698H96.4901V48.5098H100.49V56.5598H104.49V52.5598H108.49V56.5598H112.49V68.6398H108.49V64.6398H100.43V68.6398H104.43V72.6398H108.43V76.6398H104.43V88.7197H108.43V96.7197H112.43V100.72H104.43V108.77H92.7101V112.77H84.7101V108.77H76.7101V112.77H68.7101V116.77H92.8801V112.77H96.8801V116.46C96.8918 116.535 96.9229 116.606 96.9702 116.665C97.0176 116.725 97.0795 116.771 97.1501 116.8H100.9V112.8H104.9V116.8H112.9V112.8H116.9V108.8H108.84V104.8H116.9V96.7997H112.9L112.86 92.7097ZM72.5401 24.2397V28.2397H68.5401V24.2397H72.5401ZM40.3001 8.10974V4.10974H48.3501V8.10974H40.3001ZM40.3001 16.1797V12.1797H48.3501V16.1797H40.3001ZM52.3901 20.1797V16.1797H56.3901V20.1797H52.3901ZM52.3901 12.1097V8.10974H60.4401V12.1097H52.3901ZM44.3201 48.3898V52.3898H40.3201V48.3898H44.3201ZM28.2001 48.3898H24.2001V44.3898H28.2001V48.3898ZM24.2001 40.3898V36.3898H28.2001V40.3898H24.2001ZM28.2001 52.4797V48.4797H32.2001V44.4797H28.2001V40.4797H32.2001V44.4797H40.2601V48.4797H36.2601V52.4797H28.2001ZM40.2801 56.4797H36.2801V52.4797H40.2801V56.4797ZM24.1801 80.6097V76.6097H28.1801V80.6097H24.1801ZM48.3501 68.5198H40.3001V72.5198H32.3001V76.5198H28.3001V72.5198H32.3001V68.5198H36.3001V64.5198H44.3501V60.5198H48.3501V68.5198ZM44.3501 56.4398V52.4398H48.3501V56.4398H44.3501ZM60.4501 28.2397V24.2397H64.4501V28.2397H60.4501ZM84.6401 48.3798V44.3798H88.6401V48.3798H84.6401ZM72.5501 100.79V96.7897H76.5501V100.79H72.5501ZM96.7301 84.6697V96.7397H84.6401V84.6398L96.7301 84.6697ZM88.6801 52.4197V48.4197H92.6801V52.4197H88.6801Z" fill="#58595B"/>
<path d="M84.6299 56.4297H80.6099V60.4497H84.6299V56.4297Z" fill="#58595B"/>
<path d="M44.3302 80.6104L40.3002 80.6204V88.6604L36.2902 88.6804L36.2602 84.6504L32.2502 84.6404L32.2402 88.6703L36.2702 88.6804L36.2802 92.6804L32.2402 92.7304L32.2502 100.77H40.3002V108.82L36.2802 108.83L36.2702 104.8H32.2402V108.82L36.2702 108.83L36.2802 116.89H60.4502L60.4602 112.86L48.4002 112.85L48.3502 108.83H44.3302V112.85H40.3102V108.83H44.3302L44.3402 104.8L52.3802 104.79L52.4002 108.82H56.4202V104.81L52.3902 104.78L52.4102 100.77H60.4502L60.4702 104.8L64.4902 104.79L64.4802 100.77L60.4602 100.76L60.4502 96.7304H52.4002V92.7104H60.4502V88.6703H52.4002L52.3902 92.7003L48.3702 92.7104V96.7304L52.4002 96.7403L52.3802 100.76H40.3202L40.3002 96.7504L44.3302 96.7204V92.7204L40.3002 92.6804L40.3202 88.6804L48.3602 88.6703V84.6404H44.3402L44.3302 80.6104Z" fill="#58595B"/>
<path d="M16.1298 64.5002L20.1398 64.4902L20.1598 60.4502L16.1298 60.4602L16.1098 64.4802L12.0998 64.4902L12.0898 68.5302L16.1198 68.5202L16.1298 64.5002Z" fill="#58595B"/>
<path d="M64.4802 92.71H60.4502V96.73H64.4802V92.71Z" fill="#58595B"/>
<path d="M80.59 76.5804L80.62 72.5603L84.64 72.5504V68.5303L80.61 68.5104V60.4604H76.59L76.57 56.4403L72.55 56.4203L72.54 48.3604L68.52 48.3804V60.4504L72.54 60.4704L72.55 64.4804L76.57 64.5004L76.58 68.5104L68.53 68.5303L68.51 64.4903L64.48 64.5004V68.5104L68.51 68.5303L68.52 76.5704L64.49 76.5903L64.48 80.6104L68.52 80.6204V76.5903L80.59 76.5804Z" fill="#58595B"/>
<path d="M88.6599 104.8H84.6299V108.82H88.6599V104.8Z" fill="#58595B"/>
<path d="M28.18 0.00976562H0V28.2397H28.18V0.00976562ZM4.03999 24.2397V4.03973H24.18V24.2397H4.03999Z" fill="#58595B"/>
<path d="M116.88 28.2401V0.0400391H88.6602V28.2401H116.88ZM112.88 4.07007V24.2401H92.7002V4.04004L112.88 4.07007Z" fill="#58595B"/>
<path d="M0 88.6699V116.89H28.18V88.6899L0 88.6699ZM4 112.86V92.7099H24.18V112.86H4Z" fill="#58595B"/>
<path d="M3.97873 64.4929L-0.0512695 64.4971L-0.0428396 72.5471L3.98716 72.5428L3.97873 64.4929Z" fill="#58595B"/>
<path d="M36.28 24.1904H32.25V28.2204H36.28V24.1904Z" fill="#58595B"/>
<path d="M92.6999 88.6699H88.6699V92.6999H92.6999V88.6699Z" fill="#58595B"/>
<path d="M8.06006 8.05957V20.1596L20.1501 20.1496V8.06957L8.06006 8.05957Z" fill="#58595B"/>
<path d="M108.82 8.07031H96.73V20.1603H108.82V8.07031Z" fill="#58595B"/>
<path d="M8.07006 96.7305L8.06006 108.83L20.1501 108.82V96.7405L8.07006 96.7305Z" fill="#58595B"/>
</g>
<defs>
<clipPath id="clip0_934_8389">
<rect width="116.88" height="116.9" fill="white"/>
</clipPath>
</defs>
</svg>
