<svg width="78" height="78" viewBox="0 0 78 78" fill="none" xmlns="http://www.w3.org/2000/svg">
<g clip-path="url(#clip0_929_8227)">
<path d="M75.7753 25.1157C73.151 16.5584 63.8806 7.14535 52.2569 8.60009C47.9212 9.19911 43.9705 10.6253 41.3748 14.4476C41.1751 14.7614 40.9042 15.0466 40.676 15.3461H40.3052C40.134 13.8201 39.863 12.2797 39.8202 10.7394C39.7347 7.75862 39.8202 4.77782 39.8202 1.79702C39.8491 1.62244 39.8397 1.44368 39.793 1.27303C39.7462 1.10238 39.663 0.943872 39.5492 0.808383C39.4354 0.672894 39.2936 0.563634 39.1336 0.488102C38.9736 0.412569 38.7991 0.372553 38.6222 0.3708C35.8587 -0.128483 33.0281 -0.128483 30.2646 0.3708C30.0928 0.377062 29.9246 0.4211 29.7718 0.49978C29.619 0.57846 29.4854 0.689849 29.3805 0.82602C29.2757 0.962191 29.2021 1.1198 29.1651 1.28762C29.1281 1.45545 29.1285 1.62938 29.1664 1.79702C29.1664 3.79373 29.1664 5.77618 29.1664 7.77288C28.9011 14.5786 30.4517 21.3322 33.659 27.3406C34.9906 29.8806 35.7635 32.6761 35.9258 35.5394C36.0882 38.4027 35.6362 41.2676 34.6003 43.9418C33.7036 46.9234 31.7781 49.4901 29.1664 51.185C26.5547 52.88 23.4263 53.5933 20.3381 53.198C18.3984 52.9983 16.473 52.599 14.5476 52.3138C6.93159 51.2156 1.1554 55.3801 0.442289 62.9106C0.000160195 67.4174 0.199831 71.9813 0.114258 76.531C0.114258 77.2013 0.499337 77.4438 1.09835 77.5579C3.92168 78.1342 6.83234 78.1342 9.65567 77.5579C9.81236 77.5476 9.96525 77.5051 10.1048 77.4331C10.2443 77.3611 10.3674 77.261 10.4665 77.1392C10.5656 77.0173 10.6384 76.8764 10.6805 76.7251C10.7226 76.5738 10.733 76.4155 10.7111 76.26C10.7111 73.921 10.7111 71.5677 10.7111 69.2287C10.7053 68.2664 10.8251 67.3075 11.0676 66.3763C11.19 65.8062 11.4596 65.2782 11.8495 64.8447C12.2395 64.4113 12.7362 64.0875 13.2902 63.9058C13.8441 63.724 14.4361 63.6905 15.007 63.8087C15.578 63.9268 16.108 64.1925 16.5443 64.5793C17.6996 65.4635 18.812 66.4048 19.9245 67.3461C23.1867 70.2728 27.0385 72.4662 31.2201 73.7784C40.7901 76.5167 49.6469 74.8053 57.9047 69.6423C66.677 64.1095 73.0074 55.4377 75.6041 45.3966C77.671 38.8028 77.7306 31.7434 75.7753 25.1157ZM0.770319 76.6023C1.86851 75.5897 8.1724 75.5184 9.84108 76.4882C8.84273 77.5579 2.28211 77.6577 0.770319 76.6023ZM29.5942 1.56883C31.2059 0.285227 37.4242 0.24244 39.0358 1.46899C35.9307 2.1665 32.7134 2.20052 29.5942 1.56883ZM47.4505 68.7581C44.2151 69.8848 40.7729 70.2925 37.3638 69.9525C33.9548 69.6126 30.6608 68.5333 27.7116 66.7899C25.8551 65.7706 24.4237 64.1217 23.6754 62.1404C23.4111 61.6622 23.2728 61.1246 23.2733 60.5782C23.2739 60.0318 23.4133 59.4945 23.6786 59.0168C23.9438 58.5391 24.3261 58.1366 24.7896 57.8473C25.2531 57.5579 25.7825 57.3911 26.3282 57.3626C31.5054 56.4213 35.7555 54.0252 38.394 49.3187C40.2518 46.1063 41.1939 42.4463 41.1181 38.7361C41.0183 34.8711 40.8614 31.006 40.9042 27.141C40.8144 24.5797 41.4615 22.0466 42.7685 19.8421C44.0755 17.6376 45.9875 15.8545 48.2777 14.7043C53.2552 12.0658 58.1614 12.7219 62.8537 15.5743C65.0891 16.9977 66.9992 18.8767 68.459 21.0885C69.9188 23.3003 70.8955 25.7953 71.3254 28.4103C71.7818 30.5068 71.9245 32.689 72.2097 34.8283C72.162 42.3658 69.7456 49.6975 65.3024 55.7864C60.8593 61.8753 54.6142 66.4132 47.4505 68.7581Z" fill="#EE4423"/>
<path d="M63.8233 46.2807C63.5958 46.1784 63.3465 46.1339 63.0976 46.1514C62.8487 46.1688 62.6081 46.2475 62.397 46.3805C61.8685 46.7774 61.2253 46.992 60.5644 46.992C59.9034 46.992 59.2602 46.7774 58.7317 46.3805C58.4891 46.2641 58.2234 46.2037 57.9544 46.2037C57.6853 46.2037 57.4197 46.2641 57.1771 46.3805C56.6449 46.7688 56.0032 46.9781 55.3444 46.9781C54.6856 46.9781 54.0438 46.7688 53.5117 46.3805C53.27 46.2611 53.004 46.1989 52.7344 46.1989C52.4648 46.1989 52.1988 46.2611 51.9571 46.3805C51.4583 46.7645 50.8466 46.9727 50.2171 46.9727C49.5877 46.9727 48.9759 46.7645 48.4771 46.3805C48.2075 46.1724 47.8765 46.0594 47.5358 46.0594C47.1952 46.0594 46.8641 46.1724 46.5945 46.3805C46.1523 46.7152 45.6172 46.9045 45.0629 46.9224C44.5087 46.9402 43.9625 46.7858 43.4996 46.4804C42.1447 45.753 42.0734 45.81 41.4744 47.3076C40.5025 49.9082 38.9796 52.2678 37.0103 54.2247C34.2126 56.8889 30.6712 58.6397 26.8556 59.245C25.2583 59.5445 24.973 60.1008 25.5863 61.6126C26.219 63.0566 27.3123 64.2503 28.6954 65.007C31.2596 66.492 34.0981 67.4422 37.0396 67.8001C39.9811 68.158 42.9646 67.9161 45.8101 67.0892C52.5067 65.2381 58.4221 61.2645 62.668 55.7651C65.0212 53.0142 66.7964 49.8178 67.888 46.3663C67.2956 46.8017 66.5761 47.0293 65.8411 47.0139C65.1061 46.9984 64.3968 46.7407 63.8233 46.2807ZM41.9022 64.5934C41.6932 64.6705 41.4689 64.6975 41.2475 64.6723C41.0261 64.6471 40.8136 64.5703 40.6272 64.4482C40.4408 64.3261 40.2856 64.162 40.1741 63.969C40.0625 63.7761 39.9978 63.5597 39.9849 63.3372C39.9721 63.1147 40.0116 62.8923 40.1003 62.6879C40.1889 62.4834 40.3243 62.3026 40.4954 62.1598C40.6666 62.0171 40.8688 61.9165 41.0859 61.866C41.3029 61.8156 41.5288 61.8167 41.7454 61.8693C42.1236 61.8693 42.4864 62.0195 42.7539 62.287C43.0213 62.5545 43.1716 62.9172 43.1716 63.2955C43.1613 63.6316 43.0251 63.9516 42.79 64.192C42.5549 64.4324 42.238 64.5756 41.9022 64.5934ZM45.8957 58.4178C45.3581 58.4334 44.8358 58.2374 44.4411 57.8721C44.0464 57.5067 43.8108 57.0011 43.7849 56.4639C43.7849 55.9419 43.9922 55.4413 44.3613 55.0722C44.7304 54.7031 45.2311 54.4957 45.753 54.4957C46.275 54.4957 46.7757 54.7031 47.1448 55.0722C47.5139 55.4413 47.7212 55.9419 47.7212 56.4639C47.7033 56.9548 47.5087 57.4228 47.1734 57.7818C46.838 58.1408 46.3843 58.3666 45.8957 58.4178ZM54.0679 54.5956C53.4963 54.5632 52.9581 54.3159 52.5613 53.9032C52.1645 53.4906 51.9385 52.9431 51.9286 52.3706C51.9356 52.0784 52.0017 51.7906 52.1229 51.5245C52.2441 51.2584 52.4178 51.0196 52.6336 50.8225C52.8495 50.6253 53.1029 50.4738 53.3788 50.3771C53.6547 50.2804 53.9473 50.2405 54.2391 50.2598C54.5347 50.254 54.8285 50.308 55.1028 50.4184C55.3771 50.5289 55.6263 50.6936 55.8353 50.9027C56.0444 51.1118 56.2092 51.361 56.3196 51.6353C56.4301 51.9096 56.484 52.2034 56.4782 52.499C56.4344 53.0958 56.1564 53.651 55.7049 54.0437C55.2534 54.4364 54.665 54.6348 54.0679 54.5956Z" fill="#EE4423"/>
<path d="M47.3506 36.5826C47.3957 37.0387 47.5911 37.4669 47.9061 37.7999C48.221 38.133 48.6377 38.3519 49.0906 38.4224C49.3313 38.4287 49.5707 38.385 49.7937 38.294C50.0166 38.203 50.2183 38.0668 50.3858 37.8938C50.5534 37.7209 50.6833 37.5151 50.7672 37.2893C50.8511 37.0636 50.8873 36.823 50.8734 36.5826C50.8454 36.1305 50.6503 35.705 50.3261 35.3887C50.0019 35.0724 49.5717 34.8879 49.1191 34.8711C48.6894 34.9525 48.2929 35.1579 47.9786 35.4621C47.6643 35.7662 47.446 36.1557 47.3506 36.5826Z" fill="#EE4423"/>
<path d="M47.1932 27.2835C47.4325 27.2951 47.6717 27.2579 47.8963 27.1742C48.1208 27.0906 48.326 26.9621 48.4994 26.7967C48.6728 26.6314 48.8108 26.4325 48.9049 26.2121C48.9991 25.9918 49.0475 25.7546 49.0473 25.515C49.0361 25.0647 48.8494 24.6367 48.5269 24.3223C48.2045 24.0078 47.7719 23.8319 47.3215 23.832C47.091 23.8203 46.8605 23.856 46.6444 23.9371C46.4283 24.0182 46.2312 24.1429 46.0653 24.3034C45.8995 24.4639 45.7684 24.6569 45.6802 24.8702C45.5921 25.0835 45.5488 25.3127 45.553 25.5435C45.5452 25.9902 45.7124 26.4223 46.0188 26.7474C46.3253 27.0725 46.7468 27.2649 47.1932 27.2835Z" fill="#EE4423"/>
<path d="M55.052 40.8036C55.048 41.2503 55.2189 41.6808 55.528 42.0032C55.8371 42.3257 56.26 42.5145 56.7064 42.5294C56.9472 42.5512 57.1899 42.5227 57.419 42.4455C57.6481 42.3684 57.8587 42.2443 58.0372 42.0813C58.2157 41.9183 58.3583 41.7198 58.4559 41.4986C58.5534 41.2774 58.6038 41.0383 58.6038 40.7965C58.6038 40.5547 58.5534 40.3156 58.4559 40.0944C58.3583 39.8732 58.2157 39.6748 58.0372 39.5117C57.8587 39.3487 57.6481 39.2246 57.419 39.1475C57.1899 39.0703 56.9472 39.0418 56.7064 39.0637C56.2575 39.0786 55.8324 39.2693 55.5229 39.5949C55.2134 39.9204 55.0443 40.3545 55.052 40.8036Z" fill="#EE4423"/>
<path d="M54.9383 32.5891C55.3468 32.5891 55.7386 32.4268 56.0274 32.138C56.3163 31.8491 56.4786 31.4573 56.4786 31.0488C56.4786 30.6403 56.3163 30.2485 56.0274 29.9596C55.7386 29.6708 55.3468 29.5085 54.9383 29.5085C54.7256 29.5043 54.5143 29.5439 54.3175 29.6247C54.1208 29.7055 53.9427 29.8259 53.7943 29.9783C53.6459 30.1307 53.5303 30.3119 53.4548 30.5108C53.3793 30.7096 53.3454 30.9219 53.3552 31.1344C53.3737 31.5367 53.5505 31.9154 53.847 32.1879C54.1436 32.4604 54.5358 32.6046 54.9383 32.5891Z" fill="#EE4423"/>
</g>
<defs>
<clipPath id="clip0_929_8227">
<rect width="77.2156" height="78" fill="white"/>
</clipPath>
</defs>
</svg>
