<svg width="85" height="78" viewBox="0 0 85 78" fill="none" xmlns="http://www.w3.org/2000/svg">
<g clip-path="url(#clip0_929_8242)">
<path d="M44.6413 38.1007C49.5606 37.2013 54.4662 36.2338 59.4264 35.6206C63.9386 35.0226 68.1434 33.0038 71.4316 29.8565C75.2491 26.3674 78.5036 22.3085 81.0794 17.824C82.5408 15.469 83.6345 12.9049 84.3226 10.2202C84.8199 8.15325 84.4783 5.9735 83.3725 4.15779C82.2667 2.34209 80.4868 1.03825 78.4222 0.531514C77.5042 0.269302 76.556 0.127306 75.6014 0.109082C69.4421 0.109082 63.3373 0.0273212 57.1371 0.109082C53.9605 0.157256 50.8496 1.02063 48.1025 2.61642C47.8786 2.76582 47.6154 2.84555 47.3462 2.84555C47.077 2.84555 46.8138 2.76582 46.5899 2.61642C43.7954 1.07553 40.6765 0.216426 37.4872 0.109082C30.6919 -0.009017 23.9058 -0.009017 17.1287 0.109082C13.8559 0.0952302 10.6685 1.15291 8.05322 3.12061C2.76601 7.19504 0.367682 12.8229 0.0406385 19.3638C-0.0683762 22.934 0.0406385 26.5043 0.0406385 30.0881C0.0406385 33.672 0.0406385 37.1741 0.0406385 40.717C0.00487619 43.5852 0.624766 46.4237 1.85301 49.0158C2.47199 50.5037 3.56483 51.7457 4.9619 52.5489C6.35897 53.3522 7.98212 53.6718 9.57942 53.4581C11.9046 53.2644 14.1598 52.5669 16.1884 51.4141C20.2765 49.1657 24.3645 46.8082 28.4526 44.4917C33.4496 41.4632 38.9231 39.3024 44.6413 38.1007ZM44.0826 5.39629L46.8079 6.06401C44.5459 15.1531 43.6601 24.2013 46.8897 33.3177C46.3991 33.4948 45.9767 33.6447 45.527 33.7674L44.1643 34.1898C40.7849 24.5284 41.657 15.0168 44.0826 5.35541C44.0865 5.33993 44.0826 5.39629 44.0826 5.39629ZM19.7314 5.55982C16.5146 5.33502 13.3329 6.34361 10.8331 8.38057C9.52703 9.33862 8.49667 10.6241 7.84593 12.1074C7.19518 13.5907 6.94707 15.2194 7.12659 16.8292H4.82366C4.68776 16.8433 4.55075 16.8433 4.41485 16.8292C3.21569 8.51684 12.5092 1.9487 19.7314 2.94346V5.55982Z" fill="#EE4423"/>
<path d="M69.8103 45.0777C66.8838 45.0642 64.0191 45.9195 61.5791 47.5353C59.139 49.1511 57.2334 51.4546 56.1035 54.1543C54.9735 56.8539 54.6702 59.8281 55.2319 62.7002C55.7936 65.5723 57.1949 68.2132 59.2586 70.2883C61.3222 72.3634 63.9552 73.7794 66.8242 74.3569C69.6932 74.9345 72.669 74.6477 75.3749 73.5327C78.0807 72.4178 80.3948 70.525 82.0241 68.0939C83.6534 65.6628 84.5245 62.8029 84.5273 59.8764C84.5309 55.9646 82.9841 52.2107 80.2257 49.437C77.4673 46.6632 73.7221 45.0957 69.8103 45.0777ZM77.0461 68.3796C76.9371 68.4477 76.869 68.5158 76.8281 68.5022C76.239 68.3451 75.6244 68.3075 75.0206 68.3918C74.4168 68.476 73.8359 68.6804 73.3124 68.9928C71.9467 69.5387 70.4757 69.7701 69.0083 69.6699C67.541 69.5698 66.1151 69.1405 64.8363 68.4141C63.5575 67.6877 62.4586 66.6826 61.6212 65.4736C60.7838 64.2645 60.2294 62.8824 59.999 61.4299C59.999 61.0483 59.8899 60.6668 59.8082 60.1353L62.5336 59.6856C62.6426 60.2443 62.7243 60.7077 62.8061 61.171C62.9934 62.1189 63.3734 63.0184 63.9225 63.8135C64.4715 64.6087 65.178 65.2826 65.9982 65.7936C66.8183 66.3046 67.7347 66.6418 68.6904 66.7842C69.6462 66.9267 70.621 66.8713 71.5545 66.6217C73.1352 66.1993 73.1897 66.1311 73.0262 64.4823L78.2453 63.2422L77.0461 68.3796ZM76.9371 60.476C76.8281 59.7129 76.7463 59.0316 76.6101 58.3638C76.4108 57.4386 76.0264 56.5632 75.48 55.7904C74.9336 55.0175 74.2366 54.3632 73.4308 53.8667C72.625 53.3702 71.7271 53.0419 70.7911 52.9014C69.8551 52.761 68.9003 52.8113 67.9843 53.0494C66.5262 53.4309 66.5262 53.4309 66.7034 54.9435L61.4843 56.1835C61.9067 54.3575 62.3155 52.6678 62.7516 50.7328C64.3732 51.8093 65.6813 50.7328 67.0985 50.3376C68.5859 49.9241 70.1498 49.8665 71.6636 50.1693C73.1774 50.4721 74.5987 51.1269 75.8125 52.0808C77.0264 53.0346 77.9988 54.2608 78.651 55.66C79.3033 57.0592 79.6171 58.5923 79.5671 60.1353L76.9371 60.476Z" fill="#EE4423"/>
<path d="M41.3851 57.8948C41.1838 58.5792 40.1958 58.5793 40.0567 57.8796C39.6087 55.6272 39.342 53.3418 39.2595 51.0455C39.238 50.4482 38.5144 50.1374 38.0795 50.5473C37.6142 50.9858 37.1802 51.4012 36.7593 51.8278C36.727 51.8605 36.6977 51.8961 36.675 51.9359C36.544 52.1653 36.4893 52.4311 36.5201 52.6946C36.6554 56.1469 37.2512 59.5656 38.2916 62.8602C39.5725 66.703 41.0169 70.464 42.5431 74.225C43.0578 75.3199 43.6297 76.3868 44.2564 77.4214C44.4511 77.7428 44.8718 77.8373 45.1897 77.6369L45.8681 77.2093L46.4784 76.8C46.7838 76.5952 46.8777 76.1812 46.6858 75.8674C46.6407 75.7939 46.5964 75.7242 46.5494 75.6558C43.8174 71.5473 42.737 66.559 43.5243 61.6883C44.342 56.829 46.2472 52.2173 49.0976 48.1977C49.7596 47.2106 50.4809 46.2631 51.2111 45.2623C51.4252 44.9688 51.3676 44.5592 51.0828 44.3335L49.9404 43.4282C49.6527 43.2002 49.2357 43.2408 49.0024 43.5242C45.5168 47.758 42.9284 52.6475 41.3851 57.8948Z" fill="#EE4423"/>
<path d="M42.1615 41.7388C33.9854 43.8373 27.281 48.5522 20.0996 52.6402C20.2904 53.0218 20.4267 53.3761 20.6311 53.7031C22.4162 56.5375 25.3187 57.069 28.3847 55.0658C33.3272 51.7303 37.718 47.6429 41.3984 42.9516C41.6709 42.4882 41.9025 42.1067 42.1615 41.7388Z" fill="#EE4423"/>
</g>
<defs>
<clipPath id="clip0_929_8242">
<rect width="84.5273" height="78" fill="white"/>
</clipPath>
</defs>
</svg>
