<svg width="86" height="78" viewBox="0 0 86 78" fill="none" xmlns="http://www.w3.org/2000/svg">
<g clip-path="url(#clip0_929_8203)">
<path d="M85.6097 34.7818C85.8103 33.5472 85.856 32.2928 85.7457 31.0471C85.8041 29.2471 85.6719 27.4461 85.3511 25.6733C85.1801 24.3991 84.7253 23.1781 84.0196 22.098C83.3138 21.0179 82.3746 20.1055 81.2693 19.4263C81.1873 19.3926 81.1181 19.3342 81.0717 19.2594C81.0253 19.1847 81.004 19.0973 81.0108 19.0099C80.9855 17.7626 80.675 16.5372 80.1025 15.4252C79.5299 14.3132 78.7102 13.3433 77.7045 12.5882C75.6772 10.788 73.5138 9.12216 71.3505 7.48316C70.0747 6.42149 68.4736 5.81565 66.806 5.76356C66.7038 5.76612 66.6026 5.74276 66.5121 5.69573C66.4216 5.64869 66.3448 5.57954 66.289 5.49488C65.6129 4.58717 64.6963 3.88117 63.6401 3.45453C62.5839 3.0279 61.4289 2.89716 60.3023 3.07669C59.042 3.19692 57.8127 3.53335 56.6695 4.07083C56.2069 4.27235 55.9076 4.31265 55.7443 3.72154C55.6435 3.39081 55.4821 3.08117 55.2681 2.808C54.2999 1.55989 52.9433 0.660355 51.4069 0.247724C49.8705 -0.164906 48.2393 -0.0677837 46.7643 0.524156C46.6659 0.567912 46.5592 0.590539 46.4513 0.590539C46.3434 0.590539 46.2368 0.567912 46.1384 0.524156C43.2106 -0.332911 40.0669 -0.108469 37.2944 1.15557C37.205 1.21901 37.101 1.25957 36.9918 1.27364C36.8826 1.28771 36.7715 1.27484 36.6686 1.23618C35.145 0.676056 33.4868 0.57782 31.9064 0.954057C29.4568 1.39365 27.0491 2.0363 24.7088 2.87517C22.8992 3.34499 21.2442 4.27085 19.9059 5.56205C19.6144 5.98559 19.2287 6.33772 18.7783 6.59152C18.3279 6.84532 17.8247 6.99407 17.3071 7.0264C17.1845 7.03698 17.0647 7.06882 16.9533 7.12044C15.1483 7.78396 13.5231 8.85068 12.2048 10.2372C9.93259 12.5345 7.91889 15.087 5.4834 17.25C4.29204 18.2755 3.55862 19.7239 3.44249 21.2803C3.45831 22.2025 3.11774 23.096 2.49006 23.7791C1.31957 25.2819 0.598462 27.0782 0.408328 28.9647C-0.279538 32.5405 -0.0835063 36.2273 0.979784 39.7122C1.19835 40.7479 1.72163 41.6968 2.48406 42.44C3.24648 43.1833 4.21412 43.6878 5.2657 43.8903C5.39245 43.9205 5.51131 43.9768 5.61448 44.0555C5.71765 44.1343 5.80281 44.2336 5.86437 44.3471C6.77045 45.6632 8.01659 46.7159 9.47358 47.3963C10.9306 48.0766 12.5453 48.3597 14.1505 48.2162C14.2973 48.1883 14.4487 48.1943 14.5927 48.234C14.7367 48.2736 14.8694 48.3457 14.9804 48.4446C16.2018 49.5081 17.7739 50.0956 19.4024 50.097C19.8242 50.097 20.0011 50.1911 20.0419 50.6344C20.2422 52.4085 21.1176 54.0412 22.491 55.2021C25.318 57.5737 28.8787 58.9241 32.5867 59.0309C35.4724 59.1093 38.3475 58.6536 41.0633 57.6874C41.4715 57.5665 41.7028 57.5665 41.9613 57.9561C42.6508 58.9467 43.6494 59.6874 44.805 60.0653C46.5624 60.6393 48.447 60.7184 50.2474 60.2937C50.5059 60.2937 50.7917 60.0519 51.0502 60.2937C51.9576 61.1091 52.6212 62.1546 52.9687 63.3164C53.4585 65.2644 53.6762 67.2527 54.1796 69.1873C54.5694 70.8502 55.3037 72.4153 56.3364 73.7841C57.3691 75.1529 58.6778 76.2957 60.1799 77.1404C60.8886 77.5479 61.6748 77.8068 62.4893 77.9012C63.3039 77.9955 64.1294 77.9233 64.9144 77.6888C65.6994 77.4544 66.4272 77.0629 67.0522 76.5386C67.6773 76.0144 68.1863 75.3686 68.5476 74.6416C69.2359 73.0056 69.3083 71.1804 68.7517 69.4963C68.1053 66.7686 67.7001 63.9907 67.5408 61.1938C67.5408 60.8176 67.6496 60.7505 67.9626 60.7236C68.8185 60.641 69.6654 60.4836 70.4933 60.2534C74.1429 59.413 77.3784 57.3355 79.6366 54.3826C80.3875 53.4706 80.9385 52.4146 81.2547 51.2815C81.5709 50.1484 81.6454 48.9628 81.4734 47.7997C81.4734 47.4504 81.6367 47.3564 81.8544 47.2086C83.3805 46.1564 84.5275 44.6516 85.1293 42.9125C85.7311 41.1733 85.7564 39.2901 85.2015 37.5359C85.011 36.891 84.8341 36.3402 85.3239 35.7491C85.4801 35.4473 85.577 35.1192 85.6097 34.7818ZM53.0639 53.9661C52.6768 54.6078 52.15 55.1564 51.5217 55.5723C50.8934 55.9882 50.1793 56.261 49.4311 56.3709C48.9814 56.4552 48.5271 56.5135 48.0705 56.5455C47.3539 56.5932 46.6361 56.4735 45.9751 56.1962C45.7791 56.1325 45.6016 56.0228 45.4577 55.8766C45.3139 55.7304 45.2081 55.552 45.1493 55.3566C45.0904 55.1613 45.0804 54.9548 45.1199 54.7547C45.1595 54.5547 45.2475 54.3671 45.3764 54.2079C45.8281 53.5261 46.4918 53.0075 47.2677 52.7302C48.7749 52.0392 50.4533 51.7965 52.0979 52.0316C52.3241 52.034 52.5452 52.0984 52.7367 52.2174C52.9282 52.3364 53.0826 52.5055 53.1826 52.7059C53.2827 52.9063 53.3246 53.1301 53.3036 53.3526C53.2826 53.575 53.1997 53.7874 53.0639 53.9661ZM62.0439 73.5669C60.2565 72.5104 58.9395 70.8261 58.3567 68.8514C57.7852 66.9572 57.6083 64.9689 57.1457 63.0478C56.7967 61.1706 55.8869 59.4395 54.5333 58.077C54.1719 57.7534 53.8683 57.3719 53.6353 56.9485C53.3632 56.3977 53.4585 56.129 54.0435 55.9141C54.8115 55.6321 55.6566 55.6321 56.4246 55.9141C58.4111 56.5898 60.3596 57.3702 62.2616 58.2517C62.5024 58.3547 62.7119 58.5179 62.8694 58.7252C63.0268 58.9325 63.1269 59.1768 63.1596 59.4339C63.5678 61.8252 63.6766 64.2434 63.9624 66.6482C64.1256 67.9916 64.5202 69.335 64.8059 70.5979C64.9121 70.9791 64.9715 71.3715 64.9828 71.7667C65.0236 73.634 63.595 74.5073 62.0439 73.5669ZM74.6023 53.778C72.2781 55.7042 69.3504 56.7769 66.3162 56.8142C63.2374 56.8891 60.218 55.9693 57.7172 54.1945C57.1388 53.816 56.6474 53.3216 56.2749 52.7436C56.0135 52.3992 55.896 51.9688 55.9466 51.5413C55.9972 51.1138 56.2122 50.7218 56.5471 50.4463C57.4088 49.6373 58.4537 49.0432 59.5948 48.7133C62.9072 47.6131 66.352 46.9491 69.8402 46.7384C71.7244 46.51 73.6298 46.51 75.5139 46.7384C75.802 46.7764 76.0796 46.8702 76.3307 47.0145C76.5819 47.1588 76.8017 47.3507 76.9775 47.5792C77.1533 47.8077 77.2815 48.0683 77.3549 48.3459C77.4283 48.6235 77.4454 48.9127 77.4052 49.1969C77.2681 50.1056 76.9497 50.9784 76.4686 51.7647C75.9875 52.5511 75.3532 53.2354 74.6023 53.778ZM81.6503 33.4921C81.6503 34.2982 81.0924 34.6878 80.2897 34.5534C79.4311 34.3739 78.5958 34.099 77.7998 33.7339C77.3916 33.5727 76.9698 33.3981 76.548 33.2772C76.4006 33.2165 76.2414 33.1885 76.0819 33.1954C75.9223 33.2022 75.7662 33.2436 75.6246 33.3167C75.4831 33.3898 75.3596 33.4928 75.2629 33.6183C75.1661 33.7438 75.0986 33.8888 75.0649 34.0429C74.9153 34.7684 75.2962 35.2252 76.1126 35.3864C77.106 35.5222 78.0681 35.8267 78.9563 36.2865C81.351 37.5627 81.9224 39.2958 81.1605 41.8214C80.9165 42.5259 80.4797 43.1498 79.8985 43.6241C79.3173 44.0984 78.6144 44.4044 77.8678 44.5083C76.323 44.8098 74.7441 44.9047 73.1737 44.7904C71.479 44.6897 69.7797 44.6897 68.085 44.7904C63.4074 45.1859 58.8187 46.2869 54.4789 48.055C50.3971 49.7209 46.4241 51.5882 42.2334 53.1063C39.6376 54.1831 36.8791 54.8277 34.0698 55.014C31.214 55.1538 28.3861 54.4017 25.9878 52.8645C25.3075 52.4307 24.7651 51.816 24.4231 51.0912C24.1483 50.4906 24.0498 49.8259 24.1388 49.1727C24.2278 48.5196 24.5007 47.9042 24.9265 47.3967C26.2996 45.6519 28.1506 44.3324 30.2601 43.5948C32.4754 42.7858 34.7496 42.1436 37.0631 41.6737C38.7164 41.2385 40.3428 40.7092 41.9341 40.0884C43.1587 39.6316 44.4104 39.2689 45.6214 38.745C46.533 38.3688 47.4038 37.8717 48.3426 37.5493C48.6555 37.4418 48.6147 37.2 48.6419 36.9582C48.6691 36.7164 48.5331 36.5283 48.8188 36.5283C49.1045 36.5283 49.363 36.3805 49.4719 36.6626C49.5807 36.9448 49.6488 36.891 49.8256 36.797C52.1363 35.7146 54.169 34.1301 55.7715 32.1621C56.1407 31.6939 56.3925 31.1461 56.5062 30.5634C56.545 30.3015 56.4846 30.0346 56.3365 29.814C56.1883 29.5934 55.9629 29.4345 55.7035 29.3678C55.4666 29.2911 55.2092 29.3052 54.9823 29.4072C54.7555 29.5093 54.5758 29.6918 54.4789 29.9186C53.9715 31.0476 53.1507 32.0118 52.1115 32.6995C50.5987 33.8357 48.9816 34.8297 47.2813 35.6685C46.7643 35.9237 46.7099 35.7357 46.6962 35.2923C46.6379 34.2216 46.8076 33.1508 47.1943 32.1488C47.581 31.1469 48.1761 30.2361 48.9412 29.4752C49.0431 29.3782 49.1246 29.2623 49.1811 29.1342C49.2376 29.0061 49.2679 28.8682 49.2705 28.7285C49.273 28.5888 49.2476 28.4499 49.1958 28.3199C49.144 28.1898 49.0667 28.0712 48.9685 27.9706C48.8702 27.87 48.7528 27.7896 48.623 27.7338C48.4933 27.678 48.3537 27.648 48.2122 27.6455C48.0706 27.643 47.93 27.6681 47.7983 27.7193C47.6666 27.7704 47.5464 27.8467 47.4446 27.9437L47.2133 28.1318C46.5897 28.7566 46.0543 29.4616 45.6214 30.2276C45.254 30.8993 44.9547 30.8993 44.2608 30.4828C42.5464 29.4349 42.5192 27.7959 42.6824 26.1435C42.7777 25.2837 42.2879 24.7195 41.4851 24.8001C41.2772 24.7979 41.0748 24.866 40.9114 24.9931C40.7481 25.1202 40.6337 25.2986 40.5871 25.4987C40.2875 26.5638 40.2795 27.6884 40.564 28.7575C40.8484 29.8267 41.4151 30.8022 42.2062 31.5844C42.7628 32.0966 43.4415 32.4617 44.1791 32.6458C44.5193 32.7398 44.6281 32.8741 44.5737 33.2369C44.329 34.3207 44.329 35.4445 44.5737 36.5283C44.6417 36.7835 44.4784 36.9179 44.2744 36.9851L40.9817 38.221C40.1517 38.53 39.3081 38.8121 38.4646 39.0808C37.104 39.4973 35.7433 39.7525 34.4644 40.0481C34.1514 40.0481 34.0562 39.8869 33.9746 39.6988C33.4365 38.7672 33.2199 37.6881 33.3573 36.6242C33.4948 35.5604 33.9788 34.5695 34.7365 33.8011C35.063 33.4384 35.4168 33.1025 35.7706 32.7667C35.8985 32.6772 36.0056 32.5619 36.0848 32.4283C36.164 32.2947 36.2135 32.146 36.2298 31.992C36.2462 31.8381 36.2291 31.6825 36.1796 31.5356C36.1302 31.3887 36.0497 31.2539 35.9433 31.1402C35.8369 31.0265 35.7072 30.9365 35.5628 30.8762C35.4184 30.816 35.2626 30.7868 35.1059 30.7907C34.9492 30.7946 34.7951 30.8315 34.654 30.8988C34.5129 30.9662 34.3879 31.0626 34.2875 31.1814C32.5861 32.5013 31.485 34.4341 31.2261 36.5552C31.1755 37.121 31.2076 37.6911 31.3214 38.2479C31.3894 38.5972 31.3214 38.6375 30.9812 38.5569C30.2329 38.3508 29.4586 38.2513 28.6818 38.2613C28.5294 38.2504 28.3764 38.2697 28.2318 38.3182C28.0872 38.3666 27.9538 38.4432 27.8397 38.5434C27.7255 38.6436 27.6329 38.7654 27.5672 38.9015C27.5015 39.0377 27.4641 39.1854 27.4572 39.3361C27.4342 39.501 27.4467 39.6688 27.4939 39.8286C27.541 39.9883 27.6219 40.1365 27.731 40.2633C27.8402 40.3901 27.9753 40.4928 28.1274 40.5645C28.2795 40.6362 28.4452 40.6754 28.6138 40.6795C29.0154 40.7125 29.4151 40.7663 29.8111 40.8407C29.9471 40.8407 30.1376 40.7332 30.1512 40.9616C30.1648 41.19 30.0016 41.1766 29.8655 41.2169C28.8024 41.6878 27.798 42.2783 26.8722 42.9768C26.1919 43.447 25.5116 43.9575 24.8177 44.4008C23.4338 45.301 21.8527 45.8629 20.2052 46.0398C17.484 46.3085 16.5452 44.4949 16.5996 42.4125C16.6808 41.1445 17.0088 39.9039 17.5656 38.7584C17.7757 38.3879 17.9445 37.996 18.069 37.5896C18.2051 36.8373 18.6405 36.7701 19.2936 36.8642C20.3065 37.0215 21.343 36.9339 22.3141 36.6089C23.2864 36.3074 24.1259 35.6883 24.6946 34.8533C25.2633 34.0183 25.5274 33.0172 25.4435 32.0143C25.3621 30.704 25.0102 29.4239 24.4095 28.2527C24.3544 28.1119 24.271 27.9837 24.1642 27.8756C24.0574 27.7676 23.9296 27.6822 23.7884 27.6244C23.6472 27.5666 23.4955 27.5377 23.3427 27.5395C23.1899 27.5413 23.039 27.5737 22.8992 27.6347C22.7575 27.7048 22.6327 27.8042 22.5335 27.9262C22.4342 28.0483 22.3628 28.19 22.324 28.3417C22.2853 28.4935 22.2802 28.6517 22.309 28.8056C22.3378 28.9594 22.3999 29.1054 22.491 29.2334C22.8858 30.0106 23.1523 30.8451 23.2802 31.7053C23.3621 32.0434 23.3683 32.3951 23.2986 32.7358C23.2288 33.0765 23.0846 33.3981 22.8761 33.6781C22.6675 33.9582 22.3997 34.19 22.0911 34.3574C21.7826 34.5248 21.4408 34.6238 21.0896 34.6475C20.7879 34.6949 20.4834 34.7218 20.178 34.7281C19.7717 34.7329 19.3659 34.6969 18.967 34.6206C18.4364 34.4863 18.6405 33.9489 18.5044 33.613C18.2139 32.9305 17.7513 32.3326 17.1607 31.8764C16.5701 31.4202 15.871 31.1209 15.1301 31.0068C14.0575 30.7519 12.9501 30.6702 11.8511 30.7649C11.0619 30.7649 10.5993 31.262 10.6129 31.9069C10.6265 32.5517 11.1707 32.9279 11.9735 32.9144C12.9758 32.8401 13.9835 32.9355 14.9532 33.1966C16.3138 33.6265 16.8989 34.54 16.3138 35.8834C15.7017 37.3788 15.3742 38.9728 15.3478 40.5855C15.3295 41.0668 15.2841 41.5467 15.2118 42.0229C15.1957 42.145 15.173 42.2661 15.1437 42.3857C14.7355 43.9709 13.9056 44.4814 12.3001 44.0515C11.3976 43.8062 10.5703 43.3448 9.89177 42.7081C9.56218 42.4933 9.328 42.1624 9.23699 41.7829C9.14597 41.4035 9.20497 41.0041 9.40195 40.6661C9.59244 40.1556 9.81014 39.6585 9.98701 39.1346C10.0957 38.9145 10.1183 38.6626 10.0505 38.4271C9.98273 38.1916 9.8293 37.989 9.61965 37.8583C9.37417 37.7101 9.08325 37.653 8.79902 37.6973C8.5148 37.7416 8.25584 37.8844 8.06856 38.1001C7.75562 38.4763 7.51071 38.8927 7.22498 39.2958C7.0561 39.5718 6.79654 39.7823 6.48955 39.8923C6.18256 40.0023 5.84667 40.0051 5.53782 39.9003C5.45892 39.8808 5.38686 39.8405 5.32935 39.7837C5.27184 39.7269 5.23103 39.6558 5.21128 39.5779C3.95135 35.8242 3.83779 31.7875 4.88473 27.9706C4.97495 27.6395 5.10275 27.3195 5.2657 27.0168C5.35837 26.7052 5.53406 26.4239 5.77441 26.2023C6.01476 25.9807 6.31096 25.8268 6.63209 25.7568C6.95321 25.6868 7.28748 25.7032 7.6 25.8043C7.91251 25.9054 8.1918 26.0875 8.40871 26.3316C9.09867 26.8949 9.7156 27.5402 10.2455 28.2527C10.3259 28.3888 10.436 28.5055 10.5677 28.5944C10.6995 28.6833 10.8497 28.742 11.0073 28.7665C11.1649 28.7909 11.3261 28.7804 11.4791 28.7357C11.6321 28.691 11.7731 28.6132 11.8919 28.508C12.0039 28.4049 12.0933 28.2801 12.1544 28.1414C12.2155 28.0028 12.2471 27.8531 12.2471 27.7019C12.2471 27.5507 12.2155 27.4011 12.1544 27.2624C12.0933 27.1237 12.0039 26.9989 11.8919 26.8958C11.3539 26.3486 10.7562 25.8619 10.1095 25.4449C9.40255 25.0018 8.76147 24.4637 8.20462 23.8462C7.75377 23.3791 7.50228 22.7585 7.50228 22.1132C7.50228 21.4679 7.75377 20.8473 8.20462 20.3802C8.39957 20.103 8.62803 19.8504 8.88492 19.6278C10.7932 17.9545 12.5504 16.1205 14.1369 14.1466C14.9826 13.1893 15.9632 12.3568 17.0486 11.6747C17.3767 11.4701 17.7175 11.2861 18.069 11.1239C18.3548 11.003 18.6949 10.8283 18.9942 11.1239C19.2936 11.4194 19.1167 11.7419 18.9942 12.0374C18.3454 13.7193 17.3333 15.2413 16.0281 16.4976C14.9712 17.5055 14.0806 18.6705 13.3885 19.9503C13.0568 20.5782 12.8985 21.2813 12.9295 21.9888C12.9606 22.6964 13.1799 23.3834 13.5654 23.9806C13.7423 24.2761 13.9736 24.5851 14.3546 24.5717C14.7355 24.5583 14.9532 24.2358 15.1165 23.9268C15.4576 23.2387 15.6521 22.4889 15.688 21.7236C15.688 21.2937 15.688 20.8638 15.7832 20.4473C15.8814 19.7705 16.2372 19.1561 16.7782 18.7292C17.3192 18.3024 18.0047 18.0953 18.6949 18.1501C19.0149 18.1512 19.3263 18.2517 19.5852 18.4373C19.8441 18.623 20.0372 18.8844 20.1372 19.1845C20.4653 20.0984 20.6667 21.0519 20.7358 22.0192C20.7918 22.4732 20.8828 22.9223 21.0079 23.3626C21.0438 23.5435 21.121 23.714 21.2338 23.8609C21.3466 24.0079 21.4919 24.1274 21.6587 24.2104C21.8254 24.2933 22.0092 24.3375 22.1959 24.3396C22.3826 24.3417 22.5673 24.3016 22.7359 24.2224C23.2257 24.0612 23.321 23.6447 23.3074 23.2014C23.2226 22.1459 22.9118 21.1202 22.3958 20.1921C21.9514 19.2402 21.3489 18.3684 20.6134 17.6127C20.3136 17.2933 20.1131 16.8955 20.0359 16.4667C19.9587 16.038 20.008 15.5963 20.178 15.1945C20.3957 14.5765 20.5862 13.9585 20.8175 13.3674C21.212 12.3195 21.4842 11.2582 21.7835 10.1835C21.9198 9.65189 22.1769 9.1579 22.5352 8.73894C22.8935 8.31997 23.3437 7.98702 23.8516 7.76529C27.0666 6.26595 30.5096 5.29919 34.0426 4.90376C34.4916 4.90376 35.0086 4.80972 35.2535 5.26649C35.4984 5.72326 35.0902 6.09942 34.8045 6.42185C33.7075 7.5928 32.4531 8.60984 31.0765 9.44458C29.8529 10.2178 28.7171 11.1186 27.6885 12.1315C27.2192 12.5855 26.8649 13.1424 26.6545 13.757C26.5691 13.963 26.5481 14.1895 26.5941 14.4074C26.6402 14.6252 26.7512 14.8245 26.913 14.9795C27.0728 15.1243 27.2756 15.2143 27.4913 15.2361C27.7071 15.2579 27.9242 15.2103 28.1103 15.1005C29.2807 14.5605 30.3413 13.8138 31.2397 12.8972C33.2387 11.1106 35.0611 9.14033 36.6822 7.01296C38.655 4.32609 41.3763 3.80214 44.4648 4.32609C45.4581 4.4873 45.7302 5.18589 45.0907 5.93821C43.2468 8.30375 41.0056 10.3395 38.4646 11.9568C37.612 12.4599 36.9106 13.1781 36.4323 14.0375C35.9541 14.897 35.7163 15.8667 35.7433 16.8469C35.7433 17.3306 35.6481 17.3977 35.1719 17.25C34.4108 16.9451 33.5873 16.8226 32.769 16.8927C31.9507 16.9627 31.1608 17.2233 30.4642 17.653C29.8012 18.1005 29.2356 18.6746 28.801 19.3414C28.3663 20.0083 28.0713 20.7543 27.9334 21.5355C27.8974 21.669 27.8899 21.8085 27.9115 21.945C27.9331 22.0815 27.9832 22.212 28.0588 22.3283C28.1343 22.4446 28.2336 22.5441 28.3502 22.6204C28.4668 22.6967 28.5983 22.7481 28.7362 22.7715C29.0063 22.831 29.2891 22.7881 29.5286 22.6512C29.7681 22.5143 29.9466 22.2935 30.0288 22.0326C30.1921 21.6161 30.3145 21.1862 30.505 20.7832C30.7348 20.1814 31.1757 19.681 31.7474 19.3729C32.3191 19.0647 32.9839 18.9693 33.6208 19.1039C35.5665 19.3457 35.9066 19.7219 35.9338 21.6296C35.9544 22.4189 35.8156 23.2044 35.5256 23.9403C35.449 24.0767 35.4029 24.2277 35.3906 24.3833C35.3782 24.5388 35.3999 24.6951 35.4541 24.8416C35.5083 24.9881 35.5938 25.1214 35.7047 25.2325C35.8156 25.3435 35.9495 25.4297 36.0971 25.4852C36.2425 25.549 36.4001 25.5813 36.5592 25.58C36.7184 25.5787 36.8754 25.5437 37.0197 25.4776C37.164 25.4114 37.2923 25.3155 37.3961 25.1964C37.4998 25.0772 37.5765 24.9375 37.621 24.7866C38.1647 23.3179 38.3193 21.7364 38.07 20.1921C37.8587 18.8584 37.8312 17.5027 37.9883 16.1618C37.9819 16.0634 37.9819 15.9646 37.9883 15.8662C38.3285 14.6706 38.4918 14.6034 39.6075 15.087C40.7625 15.6812 42.0402 16.0059 43.3422 16.0361C44.6442 16.0664 45.9359 15.8015 47.118 15.2617C47.3613 15.1565 47.5899 15.0211 47.7983 14.8586C47.9189 14.7835 48.0231 14.6855 48.105 14.5702C48.1868 14.455 48.2446 14.3248 48.275 14.1873C48.3054 14.0497 48.3078 13.9076 48.282 13.7692C48.2562 13.6307 48.2028 13.4987 48.1249 13.3809C48.0549 13.2552 47.9583 13.1459 47.8415 13.0606C47.7248 12.9752 47.5907 12.9158 47.4485 12.8865C47.3063 12.8571 47.1594 12.8585 47.0178 12.8905C46.8762 12.9225 46.7433 12.9844 46.6282 13.0719C45.4916 13.7802 44.1297 14.0482 42.8049 13.8242C42.1562 13.7422 41.5235 13.5656 40.9273 13.3002C42.1834 12.5826 43.2728 11.6123 44.1247 10.4522C45.2829 9.22037 46.1967 7.78492 46.8187 6.22033C46.9264 5.93609 47.068 5.6655 47.2405 5.41427C47.4369 5.05657 47.713 4.74758 48.0479 4.51062C48.3829 4.27365 48.768 4.11489 49.1742 4.04633C49.5804 3.97776 49.997 4.00117 50.3927 4.11479C50.7884 4.22842 51.1528 4.42929 51.4584 4.70225C51.7424 4.87036 51.9494 5.14072 52.0357 5.45643C52.122 5.77214 52.0808 6.10859 51.921 6.39498C51.3631 7.73842 51.7849 8.46387 53.2816 8.69226C54.9588 8.85357 56.6487 8.55611 58.1662 7.83246C58.9559 7.45968 59.8012 7.21473 60.6697 7.107C61.0181 7.07323 61.369 7.07323 61.7174 7.107C61.9319 7.12514 62.1405 7.18606 62.3305 7.28608C62.5205 7.3861 62.688 7.52315 62.8228 7.68892C62.9577 7.8547 63.057 8.04576 63.1149 8.25055C63.1728 8.45533 63.188 8.66958 63.1596 8.88034C63.1614 9.5745 62.9212 10.2481 62.4793 10.788C61.9895 11.3657 61.4861 11.9165 60.9826 12.4673C60.7428 12.7145 60.5411 12.9951 60.384 13.3002C60.304 13.4309 60.2524 13.5766 60.2324 13.7281C60.2125 13.8795 60.2247 14.0334 60.2682 14.1799C60.3117 14.3264 60.3856 14.4624 60.4851 14.5793C60.5847 14.6961 60.7078 14.7913 60.8466 14.8586C60.9812 14.9182 61.1265 14.9505 61.274 14.9536C61.4214 14.9567 61.568 14.9305 61.705 14.8766C61.8421 14.8228 61.9668 14.7423 62.0717 14.64C62.1767 14.5376 62.2597 14.4156 62.316 14.281C62.7342 13.3437 63.235 12.4446 63.8127 11.5941C64.0397 11.2808 64.2898 10.9844 64.561 10.7074C64.9991 10.1929 65.6166 9.85916 66.2916 9.77211C66.9667 9.68506 67.6503 9.85102 68.2075 10.2372C68.6378 10.4698 69.0435 10.7443 69.4184 11.0567C71.1464 12.5345 73.024 13.8242 74.7792 15.2617C75.359 15.7107 75.86 16.2508 76.2623 16.8604C76.7309 17.5213 76.9483 18.3243 76.8762 19.1279C76.804 19.9316 76.4468 20.6843 75.8677 21.2534C74.7246 22.3459 73.6777 23.5324 72.7383 24.8001C72.406 25.2639 72.2255 25.8172 72.2213 26.3853C72.2182 26.6394 72.2881 26.8891 72.423 27.1055C72.5579 27.3219 72.7521 27.4961 72.9832 27.6079C73.473 27.8497 73.8404 27.5004 74.1533 27.1914C75.0377 26.3182 75.6364 25.2165 76.4392 24.2761C76.7896 23.8069 77.2119 23.3945 77.6909 23.0536C77.9899 22.8114 78.3723 22.693 78.7579 22.723C79.1434 22.7531 79.5022 22.9293 79.759 23.2148C80.6933 24.1595 81.2698 25.3929 81.3918 26.7078C81.6518 28.9595 81.7382 31.2275 81.6503 33.4921Z" fill="#EE4423"/>
<path d="M60.4386 41.9962C60.0984 42.0902 59.7855 42.2246 59.4589 42.3455C57.8717 42.9591 56.1433 43.1265 54.4655 42.8291C53.1891 42.6375 52.0024 42.0656 51.064 41.1901C51.8123 40.7871 52.5198 40.4243 53.2137 40.0348C53.3755 39.9727 53.5208 39.8752 53.6386 39.7495C53.7565 39.6238 53.8438 39.4733 53.894 39.3093C53.9579 39.1059 53.9583 38.8882 53.8952 38.6845C53.8322 38.4809 53.7085 38.3007 53.5403 38.1674C53.3434 38.0234 53.1049 37.9457 52.86 37.9457C52.615 37.9457 52.3765 38.0234 52.1797 38.1674C51.1592 38.7047 50.1388 39.2421 49.1319 39.7929C47.9365 40.3556 46.6993 40.8271 45.4311 41.2035C41.7731 42.4452 38.0539 43.5034 34.2877 44.3741C32.4047 44.7837 30.6353 45.5953 29.1037 46.7519C28.5097 47.1983 28.0242 47.7701 27.6828 48.4256C27.3415 49.0811 27.1529 49.8037 27.1309 50.5404C27.1309 51.3599 27.4574 51.8839 28.1105 51.8839C28.7636 51.8839 29.2398 51.5346 29.3078 50.6748C29.3159 50.1301 29.4915 49.6006 29.8113 49.1567C31.0013 47.8706 32.5647 46.9791 34.2877 46.6042C34.0428 47.249 33.8251 47.7461 33.6618 48.2566C33.3331 49.0848 33.3342 50.0052 33.6648 50.8327C33.9955 51.6602 34.6313 52.3333 35.4442 52.7168C35.57 52.796 35.7104 52.8497 35.8573 52.875C36.0042 52.9003 36.1548 52.8966 36.3003 52.8642C36.4457 52.8317 36.5833 52.7711 36.7049 52.6858C36.8265 52.6006 36.9298 52.4924 37.0089 52.3675C37.0855 52.2367 37.1336 52.0916 37.1503 51.9414C37.167 51.7912 37.1518 51.6393 37.1057 51.4952C37.0596 51.3511 36.9837 51.2181 36.8827 51.1046C36.7817 50.9911 36.6578 50.8996 36.5191 50.836C36.3449 50.7726 36.1858 50.6748 36.0514 50.5484C35.9169 50.4221 35.8101 50.2699 35.7375 50.1013C35.6648 49.9327 35.6279 49.7512 35.6289 49.5679C35.63 49.3847 35.669 49.2036 35.7435 49.0358C36.0392 48.0085 36.5387 47.0496 37.213 46.2146C37.317 46.0537 37.4545 45.9166 37.6164 45.8124C37.7783 45.7082 37.9608 45.6392 38.1518 45.61C40.2335 45.1398 42.2336 44.5621 44.329 43.9173C45.7477 43.4748 47.142 42.9591 48.506 42.3723C49.0775 42.1171 49.268 42.547 49.4993 42.7888C49.7306 43.0306 49.3224 43.2053 49.1727 43.3396C48.7965 43.642 48.4419 43.9697 48.1115 44.3203C47.6847 44.76 47.3909 45.3088 47.2635 45.9047C47.1361 46.5006 47.18 47.1198 47.3903 47.6923C47.4255 47.8416 47.4921 47.9819 47.5859 48.1039C47.6798 48.226 47.7987 48.3271 47.9348 48.4007C48.071 48.4743 48.2213 48.5186 48.376 48.5308C48.5307 48.543 48.6863 48.5228 48.8326 48.4715C48.9745 48.4244 49.1048 48.3486 49.2153 48.2489C49.3258 48.1491 49.4139 48.0277 49.4742 47.8924C49.5344 47.7571 49.5653 47.6108 49.5649 47.463C49.5645 47.3152 49.5329 47.1691 49.4721 47.0341C49.3982 46.8019 49.3895 46.5543 49.447 46.3177C49.5045 46.0811 49.6261 45.8644 49.7986 45.6906C50.3117 45.1705 50.9096 44.7391 51.5674 44.4144C51.6568 44.3649 51.7575 44.339 51.8599 44.339C51.9624 44.339 52.0631 44.3649 52.1525 44.4144C53.597 44.9853 55.1475 45.2481 56.7022 45.1856C58.2568 45.1231 59.7806 44.7367 61.1733 44.0516C61.4273 43.9443 61.6313 43.7466 61.7447 43.4978C61.8581 43.2489 61.8727 42.9671 61.7856 42.7082C61.7007 42.4386 61.5119 42.2128 61.2599 42.0796C61.0078 41.9464 60.7128 41.9164 60.4386 41.9962Z" fill="#EE4423"/>
<path d="M72.6971 18.2707C72.6472 18.0093 72.4986 17.7765 72.2813 17.6193C72.064 17.4621 71.7943 17.3924 71.5269 17.4243C69.5825 17.3961 67.6752 17.9512 66.0572 19.0162C64.4392 20.0813 63.1867 21.6061 62.4653 23.3892C62.1251 24.2355 62.1115 24.249 61.5673 23.5907C60.9059 22.7541 60.1479 21.9967 59.3087 21.3337C58.9549 21.0785 58.6284 20.7292 58.1657 20.7829C57.9672 20.764 57.7676 20.8062 57.5943 20.9038C57.4306 20.9986 57.2949 21.1341 57.2006 21.2967C57.1063 21.4593 57.0566 21.6434 57.0566 21.8308C57.0566 22.0182 57.1063 22.2023 57.2006 22.3649C57.2949 22.5275 57.4306 22.6629 57.5943 22.7578C58.675 23.5571 59.6368 24.5023 60.4516 25.5655C61.3938 26.6659 61.9981 28.0091 62.1934 29.4371C62.3886 30.8651 62.1667 32.3185 61.5537 33.6262C60.8063 35.1345 59.7927 36.4993 58.5603 37.6565C58.4383 37.7505 58.338 37.8691 58.266 38.0044C58.1941 38.1398 58.1522 38.2887 58.1432 38.4413C58.1342 38.5938 58.1583 38.7465 58.2138 38.8892C58.2693 39.0319 58.3549 39.1612 58.4651 39.2686C58.5606 39.3887 58.6824 39.4858 58.8215 39.5526C58.9606 39.6194 59.1132 39.6541 59.2678 39.6541C59.4225 39.6541 59.5751 39.6194 59.7142 39.5526C59.8532 39.4858 59.9751 39.3887 60.0706 39.2686C61.3369 38.1028 62.403 36.7416 63.2272 35.2383C63.8803 33.9889 63.8667 33.9755 65.1593 34.5531C66.4519 35.1308 67.6628 36.1115 66.5199 38.1535C66.4769 38.2198 66.4448 38.2924 66.4246 38.3685C66.3681 38.6177 66.4009 38.8785 66.5176 39.1064C66.6342 39.3343 66.8274 39.5151 67.0641 39.6179C67.2762 39.7265 67.5216 39.7537 67.7527 39.6941C67.9839 39.6346 68.1846 39.4925 68.3159 39.2955C68.8244 38.5951 69.1102 37.7611 69.1368 36.8998C69.1635 36.0385 68.9298 35.1888 68.4656 34.4591C67.5504 33.3058 66.264 32.4954 64.8191 32.1618C64.3973 32.0275 64.3021 31.8797 64.3565 31.4364C64.5377 30.2533 64.4209 29.0444 64.0164 27.9166C63.751 27.1548 63.751 26.3273 64.0164 25.5655C64.3751 23.8574 65.3279 22.3271 66.7097 21.2401C68.0915 20.153 69.815 19.5778 71.5814 19.6141C71.7637 19.6138 71.9442 19.5772 72.112 19.5066C72.3448 19.4058 72.5325 19.2248 72.6401 18.9974C72.7478 18.77 72.768 18.5117 72.6971 18.2707Z" fill="#EE4423"/>
</g>
<defs>
<clipPath id="clip0_929_8203">
<rect width="85.8" height="78" fill="white"/>
</clipPath>
</defs>
</svg>
