<svg width="126" height="78" viewBox="0 0 126 78" fill="none" xmlns="http://www.w3.org/2000/svg">
<g clip-path="url(#clip0_929_8174)">
<path d="M125.864 37.4153C125.864 35.2611 125.214 34.1963 122.865 34.0477C116.793 33.7011 110.696 33.4039 104.674 32.463C103.945 32.3614 103.203 32.4206 102.5 32.6363C101.951 32.7021 101.426 32.9019 100.973 33.2178C100.521 33.5337 100.154 33.9559 99.9068 34.4466C99.6592 34.9372 99.5383 35.4811 99.5548 36.0294C99.5713 36.5778 99.7248 37.1135 100.001 37.5887C100.376 38.4553 100.001 38.703 99.4017 39.0001L95.1788 41.0553L94.5291 41.2782C94.5291 41.0554 94.5291 40.8325 94.704 40.5849C94.704 39.8172 96.1283 38.8763 95.1288 38.4553C91.5555 37.0192 94.2792 35.7811 95.1288 34.543C95.8084 33.664 96.534 32.8209 97.3027 32.0173C97.0676 31.6946 96.7651 31.4259 96.4159 31.2293C96.0667 31.0328 95.6788 30.913 95.2787 30.8782C88.4482 29.4657 82.2202 26.0082 77.4374 20.9734C75.9035 19.2215 73.9694 17.858 71.7962 16.9966C69.623 16.1352 67.2736 15.8007 64.9435 16.0211C53.3242 16.5163 49.3261 22.4839 54.3237 32.9334C55.3832 34.8162 55.9702 36.9239 56.0355 39.0786C56.1007 41.2334 55.6422 43.3721 54.6985 45.3144C53.7631 47.1668 53.5894 49.3065 54.214 51.2832C54.8385 53.2599 56.2125 54.9194 58.0469 55.9125C60.152 57.2259 62.5538 57.9996 65.0359 58.1638C67.518 58.3281 70.0023 57.8778 72.2649 56.8534C78.8679 53.8703 86.0236 52.2767 93.2797 52.1734C103.03 51.7314 112.799 51.9713 122.515 52.8915C125.189 53.1392 126.089 52.223 125.989 49.623C125.714 45.5373 125.764 41.4763 125.864 37.4153Z" fill="#EE4423"/>
<path d="M34.4585 60.6417C34.8245 60.8766 35.2388 61.0274 35.6711 61.0831C36.1035 61.1388 36.5429 61.098 36.9573 60.9636C40.9054 60.3941 44.8285 59.7503 48.7765 59.2055C50.8256 58.9084 51.5752 57.8188 50.9255 55.9369C49.4657 51.2157 49.7853 46.1298 51.8251 41.6245C52.1501 40.9146 52.3014 40.1387 52.2666 39.3599C52.2319 38.5811 52.0121 37.8214 51.6252 37.1426C49.0127 32.8469 47.5905 27.944 47.5022 22.9293C47.5022 21.3941 46.8275 20.3045 45.0034 20.2798C43.0181 20.0199 40.9988 20.2577 39.1304 20.9715C37.2619 21.6853 35.604 22.8523 34.3086 24.3655C32.9151 26.1376 31.15 27.589 29.1353 28.6193C27.1206 29.6496 24.9043 30.2343 22.6393 30.3331C16.1674 30.9026 9.6956 31.695 3.22375 32.1655C0.724969 32.3388 -0.0996297 33.3541 -0.0246662 35.6569C0.0502972 37.9598 -0.0246662 40.436 -0.0246662 42.8379C-0.0246662 45.3141 -0.0246662 47.6169 -0.0246662 50.0188C-0.0246662 52.4207 0.724969 53.3369 3.14879 53.5598C8.14635 54.0055 12.944 54.6741 17.8416 55.4169C23.6888 56.2836 29.6609 56.6055 34.4585 60.6417Z" fill="#EE4423"/>
<path d="M9.36996 16.6149C11.344 16.6149 13.343 16.813 15.3171 16.9368C26.4307 17.7741 37.6077 16.7953 48.4009 14.0396C52.9737 12.8263 57.3965 11.192 62.0443 10.3006C72.2902 8.63502 82.6974 8.16133 93.0542 8.88914C102.225 8.88914 110.096 8.88914 118.042 8.88914C121.915 8.88914 121.915 8.76534 121.965 3.41676C121.965 0.519621 120.416 -0.000381284 117.942 -0.000381284C103.999 -0.000381284 90.039 -0.000381284 76.0624 -0.000381284C67.7546 -0.118828 59.4881 1.17946 51.6244 3.83772C41.5506 7.54968 30.7762 9.02062 20.0648 8.14629C15.7918 7.72533 11.4689 7.89867 7.17104 7.82438C5.92164 7.82438 4.67225 7.67581 4.19749 9.35962C2.7232 14.1882 4.39739 16.5406 9.36996 16.6149Z" fill="#EE4423"/>
<path d="M118.242 69.1601C114.694 68.962 111.146 68.5162 107.598 68.1201C90.1062 66.2382 72.7396 64.6286 55.1232 64.0839C49.2787 64.1163 43.4401 64.4552 37.6317 65.0991C27.6366 66.1391 17.6415 67.9715 7.64634 68.3677C4.82272 68.3677 3.8482 69.482 4.19802 72.1315C4.2855 72.8552 4.2855 73.5868 4.19802 74.3105C3.99812 76.4648 4.84771 77.3562 7.09661 77.1581C13.0437 76.5886 19.0408 76.242 24.9879 75.6229C36.2324 74.4343 47.4769 72.7505 58.8464 73.1467C78.162 73.7905 97.3276 75.9201 116.543 77.802C121.766 78.2972 121.541 78.1981 121.841 72.9981C121.916 70.2496 120.866 69.2839 118.242 69.1601Z" fill="#EE4423"/>
<path d="M109.222 14.8325C107.973 14.4858 106.298 12.3563 105.499 14.263C104.092 17.9349 102.915 21.6893 101.976 25.5049L103 26.0249C105.499 22.9296 107.998 19.8839 110.496 16.7392C111.371 15.5011 109.997 15.0306 109.222 14.8325Z" fill="#EE4423"/>
<path d="M116.093 25.6038C115.703 24.0131 114.831 22.5787 113.595 21.4933C113.145 20.9981 112.645 21.4933 112.345 21.9143C110.178 24.2141 108.221 26.7 106.498 29.3428C109.056 29.0202 111.535 28.2488 113.819 27.0647C114.619 26.8666 116.243 26.7676 116.093 25.6038Z" fill="#EE4423"/>
<path d="M94.4792 16.0707C93.7296 16.4421 94.1044 17.1602 94.3293 17.705C95.3038 20.1811 96.3033 22.6573 97.3029 25.1335H98.4273C98.8021 22.4097 99.152 19.6859 99.5018 16.9869C99.5018 16.3926 99.7017 15.4764 99.027 15.3526C97.4726 15.1027 95.8783 15.3545 94.4792 16.0707Z" fill="#EE4423"/>
</g>
<defs>
<clipPath id="clip0_929_8174">
<rect width="125.864" height="78" fill="white"/>
</clipPath>
</defs>
</svg>
