<svg width="74" height="78" viewBox="0 0 74 78" fill="none" xmlns="http://www.w3.org/2000/svg">
<g clip-path="url(#clip0_1297_4572)">
<path d="M14.7938 47.8634C15.4554 46.1531 16.0422 44.5053 16.7288 42.8699C17.2723 41.4771 17.9628 40.1462 18.7886 38.8999C18.9384 38.6877 19.1632 38.5005 18.876 38.2133C17.7978 36.9353 17.1204 35.3677 16.9285 33.7066C16.7787 33.0699 16.6289 32.4582 16.4666 31.809C16.3043 31.1599 15.8923 31.035 15.3056 31.2473C14.6938 31.4709 14.1079 31.7597 13.5578 32.1087C11.91 33.1199 10.3619 34.2809 8.81392 35.4419C8.5448 35.6721 8.20821 35.8088 7.85476 35.8313C7.5013 35.8538 7.1501 35.7609 6.85394 35.5667C6.57347 35.3955 6.35315 35.1413 6.22343 34.8394C6.09371 34.5375 6.06102 34.2027 6.12986 33.8814C6.17631 33.5165 6.36469 33.1845 6.65419 32.9576C8.85781 31.1424 11.3031 29.6424 13.9199 28.5008C14.4153 28.3084 14.9302 28.1702 15.4554 28.0888C16.2688 27.8909 17.1268 28.004 17.8612 28.4058C18.5956 28.8076 19.1534 29.4693 19.4253 30.261C19.8072 31.3018 20.0914 32.3759 20.2742 33.4694C20.4094 34.2058 20.6849 34.9093 21.0857 35.5417C21.2729 35.8164 21.4352 35.8788 21.7224 35.6416C24.2315 33.5723 27.19 32.1187 30.3613 31.3971C30.9356 31.2473 30.8981 30.9102 30.8981 30.4982C30.8981 21.1352 30.8981 11.7764 30.8981 2.42171C30.8981 2.197 30.8981 1.98477 30.8981 1.77254C30.872 1.46891 30.93 1.16395 31.0656 0.891062C31.2013 0.618178 31.4095 0.3879 31.6673 0.225455C31.9252 0.0630099 32.2228 -0.0253358 32.5275 -0.0299037C32.8322 -0.0344717 33.1323 0.0449142 33.3949 0.199557C34.2152 0.584803 35.1103 0.784532 36.0165 0.784532C36.9228 0.784532 37.8179 0.584803 38.6382 0.199557C38.9015 0.0506293 39.2013 -0.0211477 39.5035 -0.00755443C39.8057 0.00603879 40.0979 0.104453 40.3467 0.276418C40.5955 0.448383 40.7909 0.686947 40.9105 0.964792C41.03 1.24264 41.0689 1.54853 41.0226 1.84744C41.0226 6.11697 41.0226 10.3948 41.0226 14.681C41.0226 15.2053 41.1225 15.3801 41.6968 15.48C45.4817 16.0861 49.0487 17.6504 52.0585 20.0241C52.5204 20.4236 52.7326 20.3612 53.0073 19.8743C53.4638 18.8863 53.783 17.8404 53.956 16.7658C54.0809 16.2415 54.1932 15.7296 54.3555 15.2303C54.471 14.7525 54.6853 14.3043 54.9845 13.9143C55.2837 13.5244 55.6613 13.2014 56.0928 12.9662C56.5244 12.731 57.0005 12.5888 57.4904 12.5487C57.9802 12.5086 58.4731 12.5716 58.9372 12.7335C60.1287 13.0507 61.2712 13.5295 62.3328 14.1567C63.9857 15.1116 65.5708 16.1794 67.0767 17.3526C67.2649 17.4747 67.4266 17.6334 67.5521 17.8192C67.6777 18.0051 67.7646 18.2143 67.8077 18.4344C67.8508 18.6545 67.8492 18.8811 67.803 19.1006C67.7567 19.32 67.6669 19.528 67.5386 19.712C67.3986 19.9024 67.2204 20.0615 67.0154 20.179C66.8104 20.2966 66.5832 20.37 66.3482 20.3947C66.1131 20.4194 65.8756 20.3947 65.6506 20.3223C65.4257 20.2499 65.2183 20.1313 65.0418 19.9742C63.7934 19.0379 62.4202 18.0766 61.0844 17.1653C60.3442 16.6183 59.5338 16.1732 58.675 15.842C57.876 15.5549 57.6263 15.6672 57.4266 16.4662C57.2269 17.2652 56.9897 17.777 56.8773 18.5261C56.664 20.1053 55.9812 21.5841 54.9173 22.7706C54.78 22.9204 54.7425 23.0328 54.9173 23.2076C56.8274 25.9291 57.7512 29.1125 58.9746 32.1461C58.9947 32.1944 59.0198 32.2404 59.0495 32.2834C59.2243 32.2834 59.2617 32.1211 59.3367 32.0088C60.2735 30.4988 61.6212 29.287 63.222 28.5153C64.8227 27.7437 66.6102 27.4442 68.3751 27.6519C69.7744 27.735 71.1581 27.9908 72.4948 28.4134C72.7334 28.4446 72.9623 28.5276 73.1654 28.6568C73.3685 28.7859 73.5409 28.9579 73.6704 29.1608C73.7998 29.3637 73.8833 29.5924 73.9149 29.831C73.9465 30.0696 73.9255 30.3122 73.8533 30.5418C73.7811 30.7714 73.6594 30.9824 73.497 31.1599C73.3345 31.3374 73.1351 31.4772 72.9128 31.5695C72.6905 31.6617 72.4507 31.7041 72.2103 31.6937C71.9698 31.6834 71.7346 31.6205 71.521 31.5094C69.7512 30.9107 67.8655 30.7353 66.0156 30.9976C63.4189 31.4844 62.0582 33.2946 61.1468 35.5917C60.997 35.9412 61.2592 36.1285 61.4464 36.3282C63.0013 37.8763 64.9998 38.9017 67.1641 39.262C68.8099 39.5778 70.4819 39.7366 72.1577 39.7364C72.3864 39.7231 72.6151 39.7607 72.8274 39.8465C73.0398 39.9322 73.2305 40.0641 73.3857 40.2325C73.5409 40.4008 73.6569 40.6016 73.7252 40.8202C73.7935 41.0388 73.8124 41.2698 73.7806 41.4966C73.7873 41.6981 73.7536 41.8989 73.6814 42.0871C73.6093 42.2754 73.5002 42.4473 73.3606 42.5927C73.221 42.7381 73.0537 42.8541 72.8685 42.9339C72.6834 43.0137 72.4841 43.0556 72.2826 43.0571C68.6505 43.2654 65.0251 42.5481 61.7461 40.9723C59.3431 39.613 57.489 37.4587 56.5028 34.8801C55.554 32.6829 54.7301 30.4483 53.8437 28.2261C53.4817 27.3647 53.4317 27.3522 52.7576 28.0389C51.5056 29.2876 50.5332 30.7882 49.9047 32.441C49.2763 34.0939 49.0062 35.8614 49.1123 37.6266C49.3551 39.2616 50.0416 40.7988 51.0972 42.0709C51.3219 42.3955 51.684 42.2082 51.9836 42.1957C53.9817 42.0087 55.9971 42.225 57.91 42.832C59.823 43.4389 61.5944 44.4239 63.1193 45.7287C63.4262 45.9673 63.6598 46.2874 63.7934 46.6525C63.9004 46.99 63.895 47.353 63.778 47.6871C63.661 48.0212 63.4387 48.3083 63.1446 48.5053C62.8505 48.7023 62.5004 48.7986 62.1469 48.7797C61.7934 48.7607 61.4556 48.6276 61.1843 48.4003C59.7461 47.1476 58.0367 46.2459 56.1907 45.7661C55.2571 45.5227 54.2967 45.3969 53.3318 45.3916C53.2195 45.7037 53.4317 45.8785 53.5316 46.0907C54.5876 48.2918 54.8223 50.7978 54.1932 53.1567C54.1219 53.52 53.9228 53.8457 53.6319 54.0747C53.341 54.3038 52.9777 54.421 52.6078 54.4051C52.2548 54.4245 51.9061 54.3205 51.6213 54.1109C51.3366 53.9014 51.1337 53.5993 51.0473 53.2565C50.9795 53.003 50.9795 52.7361 51.0473 52.4825C51.7589 49.811 50.7726 47.4889 49.3744 45.3791C48.925 44.68 48.5005 43.9809 48.0137 43.3193C46.8604 41.7126 46.1271 39.8431 45.8807 37.8807C45.6344 35.9184 45.8826 33.9256 46.603 32.0837C47.4386 29.2345 49.1242 26.7083 51.4343 24.843C51.8463 24.5184 51.5966 24.3436 51.4343 24.1189C49.6268 22.0852 47.3206 20.5578 44.7429 19.6871C43.6716 19.3085 42.5796 18.9917 41.4721 18.7383C41.0975 18.6509 40.9852 18.7383 41.0101 19.1003C41.0351 19.4624 41.0101 19.4873 41.0101 19.6871C41.0101 37.8638 41.0101 56.0446 41.0101 74.2297C41.0391 74.6733 40.9491 75.1167 40.7494 75.5139C40.5497 75.9112 40.2475 76.2479 39.8741 76.4893C38.7516 77.4761 37.3008 78.0078 35.8065 77.9801C34.3121 77.9524 32.8821 77.3672 31.797 76.3394C31.4927 76.1006 31.25 75.7924 31.0893 75.4405C30.9285 75.0887 30.8544 74.7034 30.8731 74.317C30.8731 70.3471 30.8731 66.3897 30.8731 62.4198V35.5293C30.8731 34.6429 30.8731 34.6554 30.0117 34.93C27.1434 35.7512 24.5535 37.3396 22.5213 39.5241C22.1718 39.9236 22.1343 40.0984 22.5963 40.4979C24.5211 42.1357 26.0123 44.2229 26.9378 46.5747C27.8633 48.9265 28.1944 51.4703 27.902 53.9806C27.7589 55.0868 27.3937 56.1526 26.8283 57.1141C26.1542 58.3625 25.3427 59.6109 24.5687 60.7469C23.1206 62.9441 22.0719 65.2287 22.8085 67.9627C22.8559 68.1703 22.8609 68.3854 22.8234 68.595C22.7858 68.8046 22.7064 69.0045 22.5899 69.1828C22.4734 69.3611 22.3221 69.514 22.1452 69.6326C21.9683 69.7511 21.7693 69.8328 21.5601 69.8727C21.351 69.9186 21.1349 69.9226 20.9243 69.8846C20.7137 69.8465 20.5127 69.7672 20.3328 69.6512C20.153 69.5351 19.9978 69.3847 19.8764 69.2085C19.7549 69.0322 19.6695 68.8337 19.6251 68.6243C18.9879 66.2668 19.2366 63.7575 20.3242 61.5709C20.6113 60.9716 20.4865 60.8593 19.8623 60.9092C17.3322 61.0546 14.918 62.0185 12.9836 63.6557C12.7112 63.9307 12.3709 64.1288 11.9973 64.23C11.6369 64.2984 11.264 64.2437 10.9384 64.0746C10.6128 63.9055 10.3536 63.6318 10.2023 63.2976C10.0511 62.9634 10.0166 62.588 10.1044 62.2318C10.1922 61.8756 10.3972 61.5593 10.6865 61.3337C12.6887 59.5603 15.1355 58.3649 17.7649 57.8756C19.1925 57.6016 20.6539 57.5511 22.0969 57.7258C22.26 57.7548 22.4282 57.7288 22.575 57.652C22.7219 57.5752 22.8391 57.4519 22.9084 57.3013C23.5995 56.4287 24.1109 55.4278 24.413 54.3565C24.7152 53.2851 24.802 52.1645 24.6686 51.0594C24.3034 48.1085 22.9374 45.3722 20.7986 43.3068C20.3991 42.9198 20.2617 43.0696 20.062 43.494C19.313 45.1794 18.7387 46.9147 18.0646 48.625C17.6572 49.6825 17.1904 50.7162 16.6664 51.721C15.8618 53.2243 14.7447 54.5379 13.3903 55.5736C12.0359 56.6094 10.4755 57.3432 8.81392 57.7258C6.53534 58.2862 4.19403 58.5506 1.84785 58.5123C1.61891 58.5449 1.38562 58.5273 1.16411 58.4609C0.942596 58.3945 0.738133 58.2809 0.564837 58.1277C0.391542 57.9746 0.253544 57.7857 0.160374 57.5741C0.0672038 57.3624 0.021081 57.1331 0.0251908 56.9019C0.0127068 55.8782 0.699327 55.229 1.87282 55.229H2.59689C4.62833 55.2017 6.64412 54.8693 8.57673 54.2428C9.98706 53.7427 11.267 52.9321 12.3219 51.8708C12.4772 51.7419 12.5822 51.5625 12.6187 51.364C12.6552 51.1655 12.6209 50.9605 12.5217 50.7847C12.0082 49.2566 10.9475 47.9724 9.5438 47.1796C8.14014 46.3867 6.49278 46.1412 4.91892 46.4902C4.01418 46.6312 3.11808 46.8229 2.23486 47.0645C2.02341 47.1444 1.7977 47.1795 1.57197 47.1678C1.34624 47.1561 1.12539 47.0977 0.923368 46.9963C0.721345 46.8949 0.542531 46.7527 0.398213 46.5788C0.253896 46.4048 0.147207 46.2028 0.0848819 45.9855C0.0225567 45.7683 0.00594811 45.5404 0.0361044 45.3164C0.0662606 45.0924 0.142527 44.8771 0.26009 44.684C0.377652 44.491 0.533959 44.3244 0.719143 44.1948C0.904328 44.0652 1.11437 43.9753 1.33601 43.931C3.65522 43.1393 6.1351 42.9376 8.55176 43.3442C9.71732 43.5737 10.8259 44.0316 11.8137 44.6915C12.8014 45.3514 13.6488 46.2003 14.3069 47.1893L14.7938 47.8634ZM34.144 38.9249V73.156C34.144 74.1547 34.2938 74.4044 35.2425 74.6167C35.6055 74.7097 35.9847 74.7198 36.3521 74.6463C36.7194 74.5729 37.0656 74.4176 37.3648 74.1922C37.9016 73.8551 37.6395 73.3058 37.6395 72.8564C37.6395 50.2853 37.6395 27.706 37.6395 5.11825C37.627 4.90204 37.627 4.68529 37.6395 4.46908C37.6395 4.08208 37.5271 3.98221 37.1401 4.00718C36.4191 4.10075 35.6889 4.10075 34.9679 4.00718C34.1315 3.8324 34.119 4.19444 34.119 4.83112C34.1439 16.1999 34.1523 27.5645 34.144 38.9249Z" fill="#EE4423"/>
</g>
<defs>
<clipPath id="clip0_1297_4572">
<rect width="73.7929" height="78" fill="white"/>
</clipPath>
</defs>
</svg>
