<svg width="32" height="15" viewBox="0 0 32 15" fill="none" xmlns="http://www.w3.org/2000/svg">
<path d="M1 6.36395C0.447715 6.36395 0 6.81167 0 7.36395C0 7.91624 0.447715 8.36395 1 8.36395V7.36395V6.36395ZM31.7071 8.07106C32.0976 7.68054 32.0976 7.04737 31.7071 6.65685L25.3431 0.292885C24.9526 -0.0976396 24.3195 -0.0976396 23.9289 0.292885C23.5384 0.683409 23.5384 1.31657 23.9289 1.7071L29.5858 7.36395L23.9289 13.0208C23.5384 13.4113 23.5384 14.0445 23.9289 14.435C24.3195 14.8255 24.9526 14.8255 25.3431 14.435L31.7071 8.07106ZM2.5 8.36395C3.05228 8.36395 3.5 7.91624 3.5 7.36395C3.5 6.81167 3.05228 6.36395 2.5 6.36395V7.36395V8.36395ZM5.5 6.36395C4.94772 6.36395 4.5 6.81167 4.5 7.36395C4.5 7.91624 4.94772 8.36395 5.5 8.36395V7.36395V6.36395ZM8.5 8.36395C9.05229 8.36395 9.5 7.91624 9.5 7.36395C9.5 6.81167 9.05229 6.36395 8.5 6.36395V7.36395V8.36395ZM11.5 6.36395C10.9477 6.36395 10.5 6.81167 10.5 7.36395C10.5 7.91624 10.9477 8.36395 11.5 8.36395V7.36395V6.36395ZM14.5 8.36395C15.0523 8.36395 15.5 7.91624 15.5 7.36395C15.5 6.81167 15.0523 6.36395 14.5 6.36395V7.36395V8.36395ZM17.5 6.36395C16.9477 6.36395 16.5 6.81167 16.5 7.36395C16.5 7.91624 16.9477 8.36395 17.5 8.36395V7.36395V6.36395ZM20.5 8.36395C21.0523 8.36395 21.5 7.91624 21.5 7.36395C21.5 6.81167 21.0523 6.36395 20.5 6.36395V7.36395V8.36395ZM23.5 6.36395C22.9477 6.36395 22.5 6.81167 22.5 7.36395C22.5 7.91624 22.9477 8.36395 23.5 8.36395V7.36395V6.36395ZM26.5 8.36395C27.0523 8.36395 27.5 7.91624 27.5 7.36395C27.5 6.81167 27.0523 6.36395 26.5 6.36395V7.36395V8.36395ZM29.5 6.36395C28.9477 6.36395 28.5 6.81167 28.5 7.36395C28.5 7.91624 28.9477 8.36395 29.5 8.36395V7.36395V6.36395ZM1 7.36395V8.36395H2.5V7.36395V6.36395H1V7.36395ZM5.5 7.36395V8.36395H8.5V7.36395V6.36395H5.5V7.36395ZM11.5 7.36395V8.36395H14.5V7.36395V6.36395H11.5V7.36395ZM17.5 7.36395V8.36395H20.5V7.36395V6.36395H17.5V7.36395ZM23.5 7.36395V8.36395H26.5V7.36395V6.36395H23.5V7.36395ZM29.5 7.36395V8.36395H31V7.36395V6.36395H29.5V7.36395Z" fill="#EE4423"/>
</svg>
