<svg width="64" height="64" viewBox="0 0 64 64" fill="none" xmlns="http://www.w3.org/2000/svg">
<g clip-path="url(#clip0_901_1963)">
<path d="M38.8764 45.0417C38.0672 44.2762 36.9957 43.8497 35.8819 43.8497C34.768 43.8497 33.6965 44.2762 32.8873 45.0417C32.1026 45.8161 31.3075 46.5802 30.5434 47.3856C30.5005 47.4461 30.4457 47.4973 30.3825 47.536C30.3192 47.5747 30.2487 47.6001 30.1753 47.6107C30.1019 47.6213 30.0272 47.6169 29.9555 47.5978C29.8839 47.5786 29.8169 47.5451 29.7586 47.4992C24.0969 44.4189 19.4569 39.7537 16.4072 34.0755C16.3688 34.0219 16.3418 33.961 16.3277 33.8966C16.3137 33.8321 16.3129 33.7655 16.3255 33.7007C16.338 33.636 16.3637 33.5745 16.4008 33.52C16.4379 33.4655 16.4858 33.4191 16.5414 33.3837C17.2642 32.6815 17.9871 31.9484 18.6995 31.2256C19.1457 30.8137 19.5017 30.3139 19.7452 29.7577C19.9887 29.2014 20.1144 28.6008 20.1144 27.9936C20.1144 27.3864 19.9887 26.7857 19.7452 26.2295C19.5017 25.6733 19.1457 25.1735 18.6995 24.7616C16.7927 22.8203 14.8652 20.8928 12.917 18.9791C12.5068 18.554 12.0151 18.216 11.4713 17.9851C10.9276 17.7542 10.3429 17.6353 9.75214 17.6353C9.1614 17.6353 8.57671 17.7542 8.03295 17.9851C7.4892 18.216 6.99752 18.554 6.58724 18.9791C5.14162 20.404 3.71664 21.8703 2.26069 23.2953C1.25089 24.2191 0.533075 25.4178 0.195504 26.7441C0.195504 26.8577 0.195504 27.0952 -0.0419922 26.992V31.1223C0.143874 30.9158 0.1542 31.1223 0.174852 31.2153C1.48624 37.4934 4.96607 42.5738 9.00351 47.3753C13.8255 53.2555 19.7993 58.0873 26.5576 61.5734C28.343 62.487 30.2327 63.1805 32.1852 63.6386C32.3401 63.6386 32.5259 63.6386 32.6498 63.7832V63.8348L32.5569 63.9071H36.9248C36.9248 63.9071 36.8009 63.9071 36.8731 63.7832C36.9004 63.7502 36.9361 63.7253 36.9764 63.7109C38.1375 63.4453 39.2067 62.875 40.0742 62.0588C41.7573 60.5409 43.3578 58.961 44.9583 57.3708C45.3811 56.9568 45.7149 56.4609 45.9394 55.9133C46.1638 55.3658 46.274 54.7782 46.2634 54.1866C46.2527 53.595 46.1214 53.0117 45.8775 52.4726C45.6336 51.9335 45.2821 51.4499 44.8447 51.0513L38.8764 45.0417ZM42.1187 54.8616C40.6524 56.3382 39.1655 57.8045 37.7095 59.2811C37.3972 59.5907 37.0263 59.8351 36.6186 60C36.2108 60.1648 35.7744 60.2469 35.3346 60.2414C33.6851 60.2411 32.0512 59.922 30.5227 59.3017C26.5079 57.7144 22.7926 55.4552 19.5359 52.6209C14.5952 48.6056 10.3766 43.7759 7.06224 38.3401C5.60245 36.0586 4.55398 33.5388 3.96446 30.8952C3.8189 30.2867 3.75295 29.6619 3.76827 29.0365C3.71919 28.4574 3.80774 27.8749 4.02667 27.3365C4.2456 26.7982 4.58872 26.3192 5.02803 25.9387C6.4117 24.6686 7.73342 23.2953 9.08611 21.9219C9.67469 21.3334 9.89153 21.3334 10.4801 21.9219L15.9632 27.4257C16.5104 27.9729 16.5104 28.2104 15.9632 28.768C14.6621 30.0381 13.4127 31.3288 12.091 32.5886C11.9433 32.6947 11.8418 32.8533 11.8072 33.0318C11.7726 33.2104 11.8077 33.3954 11.9051 33.5489C15.6022 41.8207 22.22 48.4385 30.4917 52.1356C30.6314 52.2195 30.7978 52.247 30.9571 52.2124C31.1163 52.1779 31.2564 52.0839 31.3488 51.9497C32.6292 50.6486 33.9303 49.3579 35.2313 48.0568C35.7889 47.4992 36.0161 47.4992 36.5737 48.0568C38.4255 49.8948 40.2669 51.7363 42.0981 53.5812C42.635 54.0768 42.635 54.335 42.1187 54.8616Z" fill="#EE4423"/>
<path d="M63.7823 14.415C62.1508 6.7738 57.0085 2.64343 49.77 0.578251C49.0162 0.371733 48.2315 0.247822 47.4673 0.0826072L47.488 0H41.7468C41.7761 0.0224739 41.8007 0.0505537 41.8191 0.0826072C41.8191 0.0826072 41.5093 0.17554 41.3441 0.206518C37.1631 0.756834 33.2706 2.63969 30.2437 5.57599C25.8036 9.94385 24.1927 15.1481 25.9068 21.2301C27.002 24.9017 29.3852 28.0549 32.6187 30.1104C33.0317 30.3892 33.1143 30.5544 32.8046 30.9984C31.6343 32.6237 30.3285 34.147 28.9014 35.5521C28.7465 35.707 28.5193 35.8103 28.4883 36.0891H28.7465C32.1707 35.7742 35.5179 34.8877 38.649 33.4663C39.1519 33.2308 39.7197 33.1726 40.2599 33.3011C43.3645 33.9904 46.5883 33.9338 49.6668 33.1358C56.8949 31.2359 62.0579 27.0849 63.7823 19.423C63.7823 19.3301 63.7823 19.1133 64.0095 19.2475V14.6215C63.772 14.7247 63.8029 14.5182 63.7823 14.415ZM56.4406 25.4121C52.3102 29.2533 47.3951 30.5027 41.9017 29.7799C38.4863 29.3595 35.2986 27.8454 32.8149 25.4637C31.5844 24.3535 30.6065 22.9921 29.9471 21.4717C29.2877 19.9512 28.9622 18.3069 28.9925 16.6499C29.0228 14.9929 29.4083 13.3616 30.123 11.8663C30.8376 10.371 31.8647 9.04639 33.135 7.98193C36.362 5.16669 40.5216 3.65377 44.8033 3.73798C47.0928 3.7118 49.3629 4.16183 51.4693 5.0595C53.5757 5.95718 55.4726 7.28291 57.0395 8.95257C58.1025 10.0614 58.9321 11.3724 59.4789 12.8079C60.0258 14.2433 60.2788 15.774 60.2229 17.309C60.1671 18.8441 59.8035 20.3523 59.1538 21.7443C58.504 23.1362 57.5814 24.3834 56.4406 25.4121Z" fill="#58595B"/>
<path d="M35.8719 14.3737C35.3777 14.3737 34.8946 14.5202 34.4836 14.7948C34.0727 15.0694 33.7524 15.4597 33.5633 15.9163C33.3741 16.3729 33.3246 16.8753 33.4211 17.3601C33.5175 17.8448 33.7555 18.29 34.105 18.6395C34.4544 18.989 34.8997 19.227 35.3844 19.3234C35.8691 19.4198 36.3716 19.3703 36.8282 19.1812C37.2848 18.9921 37.6751 18.6718 37.9497 18.2609C38.2242 17.8499 38.3708 17.3668 38.3708 16.8726C38.3735 16.5436 38.3108 16.2175 38.1862 15.913C38.0616 15.6086 37.8776 15.332 37.645 15.0995C37.4124 14.8669 37.1359 14.6829 36.8314 14.5583C36.527 14.4337 36.2008 14.3709 35.8719 14.3737Z" fill="#58595B"/>
<path d="M44.6489 14.3737C44.1543 14.3676 43.669 14.5084 43.2545 14.7783C42.8399 15.0482 42.5148 15.4351 42.3204 15.8899C42.1259 16.3447 42.0708 16.847 42.162 17.3332C42.2532 17.8194 42.4867 18.2676 42.8328 18.6209C43.179 18.9743 43.6222 19.217 44.1064 19.3183C44.5906 19.4196 45.0939 19.3749 45.5527 19.1898C46.0114 19.0048 46.4049 18.6878 46.6834 18.279C46.9618 17.8701 47.1127 17.3878 47.1168 16.8932C47.1223 16.5652 47.0625 16.2393 46.9411 15.9345C46.8197 15.6297 46.6389 15.3521 46.4093 15.1177C46.1798 14.8834 45.9059 14.6969 45.6037 14.5692C45.3015 14.4414 44.977 14.375 44.6489 14.3737Z" fill="#58595B"/>
<path d="M53.3635 14.3737C52.8693 14.3757 52.3868 14.5243 51.977 14.8006C51.5672 15.0768 51.2485 15.4684 51.0613 15.9258C50.874 16.3832 50.8266 16.8858 50.9251 17.3702C51.0235 17.8545 51.2633 18.2988 51.6142 18.6468C51.9651 18.9948 52.4114 19.231 52.8965 19.3254C53.3816 19.4198 53.8838 19.3682 54.3397 19.1772C54.7955 18.9862 55.1844 18.6643 55.4573 18.2522C55.7302 17.8402 55.8748 17.3565 55.8727 16.8622C55.8727 16.5337 55.8077 16.2084 55.6813 15.9051C55.555 15.6018 55.3698 15.3266 55.1366 15.0952C54.9033 14.8639 54.6265 14.681 54.3222 14.5572C54.0179 14.4333 53.6921 14.371 53.3635 14.3737Z" fill="#58595B"/>
</g>
<defs>
<clipPath id="clip0_901_1963">
<rect width="64" height="64" fill="white"/>
</clipPath>
</defs>
</svg>
