<svg width="46" height="64" viewBox="0 0 46 64" fill="none" xmlns="http://www.w3.org/2000/svg">
<path d="M45.7095 35.3383C45.7095 42.6087 45.7095 49.8744 45.7095 57.14C45.7095 62.1948 44.0491 63.9069 38.919 63.9309C27.863 63.9852 16.8054 63.9852 5.74617 63.9309C2.12714 63.9309 0.0529379 61.9263 0.0433128 58.2814C-0.0144376 42.9349 -0.0144376 27.6027 0.0433128 12.2849C0.0433128 9.07648 2.3052 6.92317 5.49591 6.83684C6.77605 6.80327 8.06581 6.88 9.34594 6.83684C9.86569 6.80807 10.7368 6.64021 10.8282 6.35726C11.5597 4.00252 13.4895 4.64037 15.1595 4.32864C16.3363 4.11272 17.4051 3.50582 18.1914 2.60694C20.7805 -0.750125 25.0974 -0.965934 27.4507 2.54939C28.4565 4.05048 29.5393 4.50128 31.1997 4.40536C32.6867 4.31904 34.2653 4.10803 34.9438 6.12706C35.0882 6.55389 36.301 6.89919 36.9795 6.83684C44.2561 6.199 46.056 8.62088 45.8057 15.9489C45.5843 22.4088 45.7624 28.8975 45.7624 35.3479L45.7095 35.3383ZM29.804 23.1042C29.9388 21.5983 29.8425 20.2507 27.7731 20.5097C25.8048 20.7591 24.9386 19.9917 25.1936 17.9823C25.4487 15.9728 24.0771 16.064 22.7248 16.016C21.281 15.9681 20.3522 16.4141 20.5736 18.0398C20.8527 20.1212 19.8277 20.7447 17.9411 20.5289C16.4204 20.3562 15.9488 21.2003 16.0498 22.5527C16.1461 23.7756 15.8092 25.3678 17.8593 25.152C19.9095 24.9362 20.8238 25.6891 20.5736 27.8185C20.3763 29.4874 21.5842 29.521 22.7825 29.4922C23.9809 29.4634 25.3765 29.6697 25.1888 27.7849C25.0011 25.9002 25.7567 24.9506 27.7683 25.1904C29.3228 25.4014 30.0014 24.658 29.804 23.1042ZM28.2544 45.6445C30.497 45.6445 32.7589 45.8171 34.9679 45.5534C35.7668 45.4575 36.4405 44.3161 37.172 43.635C36.4453 43.05 35.7283 41.9805 34.9871 41.9517C30.5115 41.8031 26.0262 41.8031 21.5505 41.9901C20.7324 42.0237 19.9624 43.1411 19.1731 43.7549C19.9576 44.3832 20.6939 45.4527 21.5409 45.5534C23.7306 45.8363 25.9877 45.6685 28.2303 45.6685L28.2544 45.6445ZM22.8836 8.3619C25.6075 8.3619 28.3362 8.40507 31.0649 8.31874C31.5221 8.31874 31.96 7.70008 32.4028 7.35958C32.0034 6.97112 31.6665 6.4292 31.1852 6.22298C30.6433 6.07075 30.0732 6.04612 29.5201 6.15104C27.8453 6.3045 26.7914 5.84411 25.9444 4.13201C25.5842 3.55864 25.0957 3.07621 24.517 2.72258C23.9384 2.36895 23.2854 2.15373 22.6093 2.09379C21.6035 2.09379 20.203 3.35509 19.7218 4.40057C19.0288 5.78656 18.278 6.35246 16.8342 6.1894C16.121 6.07073 15.3922 6.08211 14.683 6.22298C14.1296 6.37165 13.682 6.90398 13.1863 7.26846C13.7109 7.62335 14.221 8.27079 14.7552 8.28997C17.4069 8.43864 20.1357 8.38588 22.8596 8.38588L22.8836 8.3619ZM28.3603 50.8527C26.0406 50.8527 23.7017 50.6897 21.4062 50.9343C20.5832 51.0254 19.871 52.0996 19.1058 52.7231C19.8228 53.2986 20.5207 54.3393 21.257 54.3681C25.8128 54.5215 30.3735 54.5215 34.939 54.3681C35.685 54.3393 36.3828 53.2842 37.1287 52.7039C36.3683 52.0805 35.685 51.0206 34.8331 50.9247C32.6916 50.6801 30.5163 50.8479 28.3603 50.8527ZM28.3603 33.0363V33.0747C26.0454 33.0747 23.7114 32.9116 21.4206 33.1658C20.6025 33.2521 19.895 34.3504 19.1346 34.9834C19.8758 35.5493 20.5784 36.5804 21.3484 36.6092C25.8193 36.7723 30.2997 36.7866 34.7658 36.6092C35.5743 36.5804 36.8977 35.5733 37.0084 34.8635C37.249 33.3433 35.9304 33.0027 34.6021 33.0171C32.5087 33.0507 30.4297 33.0363 28.3603 33.0363ZM11.9977 34.5758C11.4144 33.9961 10.7816 33.4682 10.1063 32.998C9.89982 32.9211 9.67924 32.8891 9.45932 32.904C9.2394 32.9189 9.02519 32.9803 8.83101 33.0843C8.59038 33.2138 8.34975 33.89 8.46525 34.0434C9.40042 35.3938 10.4676 36.6484 11.6511 37.789C11.7907 37.9137 13.4077 36.6044 14.1537 35.7939C15.1234 34.7413 15.9799 33.5904 16.7091 32.3601C16.9931 31.8805 16.7572 31.1036 16.7621 30.4418C16.1412 30.5857 15.3183 30.5233 14.9429 30.9214C13.8982 32.0878 12.9152 33.3076 11.9977 34.5758ZM12.527 42.7286L8.75401 42.0093C9.23526 43.0979 9.71651 44.1914 10.1978 45.2752C10.2879 45.4068 10.3893 45.5304 10.501 45.6445C11.4635 47.0257 12.426 46.8051 13.3548 45.5965C14.4665 44.1578 15.6215 42.719 16.6129 41.1604C16.9064 40.6808 16.7091 39.9279 16.738 39.2948C16.0739 39.4771 15.2076 39.4531 14.7889 39.8751C13.9694 40.7657 13.2121 41.7111 12.5222 42.7047L12.527 42.7286ZM12.1613 51.7639C11.8292 51.6584 11.68 51.6153 11.5405 51.5625L8.89356 50.6753C9.16306 51.5673 9.37482 52.4737 9.71651 53.3418C9.92047 53.6851 10.1697 53.9997 10.4576 54.2769C11.4201 55.543 12.3826 55.5718 13.3452 54.2769C14.4472 52.8046 15.6022 51.3659 16.5936 49.8216C16.8872 49.3708 16.6899 48.6131 16.7187 47.9944C16.1076 48.1863 15.3327 48.2055 14.9189 48.6035C13.9459 49.6022 13.024 50.649 12.1565 51.74L12.1613 51.7639Z" fill="#EE4423"/>
</svg>
