<svg width="93" height="64" viewBox="0 0 93 64" fill="none" xmlns="http://www.w3.org/2000/svg">
<g clip-path="url(#clip0_901_1989)">
<path d="M0.0128399 40.5837C0.0128399 35.0934 -0.0182471 29.603 0.0128399 24.1189C0.0439269 19.9779 1.21903 18.5229 5.15465 17.5964L47.0786 7.4676C56.4731 5.19187 65.8614 2.84776 75.2684 0.627996C81.865 -0.938894 83.9292 0.298452 85.5022 6.84581C87.9021 16.7943 90.2461 26.7615 92.5341 36.7473C93.6719 41.7216 92.8263 43.0273 88.1819 45.1165C87.3488 45.4895 86.5592 46.8886 86.4908 47.8648C86.2732 51.1664 86.4286 54.4868 86.3726 57.8133C86.3043 61.8362 84.2774 63.9316 80.2112 63.9938C74.2114 64.0808 68.2054 64.0311 62.1807 64.0373H8.44987C7.41778 64.0373 6.37325 64.0808 5.34116 63.9813C1.80968 63.6269 0.118534 61.9108 0.0687943 58.3418C-0.0182494 52.4349 0.0687943 46.5279 0.0687943 40.6335L0.0128399 40.5837ZM29.4709 21.6442V21.694C22.1157 21.694 14.7605 21.7872 7.40535 21.6442C4.55778 21.5883 3.61895 22.5893 3.6749 25.4371C3.82412 35.5846 3.74329 45.7383 3.76816 55.9044C3.76816 59.9025 3.98576 60.1325 7.97734 60.1387C22.1655 60.1387 36.3598 60.1387 50.5479 60.1823C53.4826 60.1823 56.1809 59.3118 59.3767 59.7781C66.0728 60.7667 72.999 60.1947 79.8319 60.2134C81.6661 60.2134 82.7541 59.318 82.7603 57.3656C82.7603 46.4906 82.866 35.6032 82.6919 24.7407C82.6919 23.6464 81.007 21.6318 80.1739 21.6318C72.3897 21.9303 64.4874 20.0649 56.8151 22.7199C56.2229 22.8281 55.6134 22.794 55.0369 22.6204C53.4515 22.322 51.8847 21.7188 50.2992 21.694C43.3482 21.5883 36.4096 21.6442 29.4709 21.6442ZM25.6783 16.5083L25.7964 17.6213H55.1302V13.53L55.8576 13.188C56.3908 13.8155 56.844 14.5069 57.2068 15.2461C57.9902 17.4969 60.4958 18.8089 62.1185 17.3602C65.65 14.2139 70.2447 14.873 74.2487 13.5113C74.4601 13.4429 74.8704 13.8844 75.9088 14.5746L68.081 16.956L68.2427 17.4472H83.7862C83.065 13.8533 82.35 10.4397 81.6909 7.01371C81.1687 4.30896 79.7573 3.45712 77.0154 4.17838C71.227 5.69553 65.3889 7.06966 59.5383 8.36919C56.9332 8.94744 54.8255 10.4335 51.8847 10.819C43.0373 11.9817 34.3951 14.5062 25.6783 16.5083ZM86.7022 41.2988C89.5746 39.8998 89.4813 36.3618 86.7022 31.2694V41.2988Z" fill="#EE4423"/>
<path d="M14.4248 33.6633C15.7367 33.0974 17.0299 32.1213 18.3729 32.0466C21.9847 31.8425 25.6054 31.8529 29.216 32.0777C32.2377 32.2643 34.5381 31.4559 36.5526 29.0869C37.7961 27.6382 39.6613 25.0765 41.5638 26.7677C43.6218 28.5895 41.0353 30.4984 39.7545 31.8663C38.7711 32.8498 38.0528 34.0666 37.6668 35.4029C37.2809 36.7392 37.2398 38.1515 37.5473 39.508C38.2075 43.2742 38.6228 47.0792 38.7908 50.8991C38.853 52.1426 37.995 53.5043 37.5473 54.8101L36.192 54.8722L30.4533 42.6231C28.0471 44.9735 25.2244 46.4657 26.0265 50.2897C26.5177 52.6462 25.4794 54.2256 23.5395 55.0774L15.1336 47.4233C16.0724 46.6958 17.1853 45.1041 18.2423 45.1476C22.2961 45.3403 24.4597 42.934 26.8596 39.5515L14.829 34.9877C14.6922 34.5275 14.5554 34.0985 14.4248 33.6633Z" fill="#58595B"/>
<path d="M74.2548 33.7441C75.2434 36.6416 74.6962 37.9722 71.8051 37.8168C69.5358 37.6924 67.2291 37.9784 64.966 37.7111C64.4533 37.5937 63.975 37.3584 63.5692 37.0238C63.1634 36.6892 62.8412 36.2645 62.6282 35.7836C62.1433 34.1856 63.337 33.7068 64.823 33.7254C67.9379 33.8 71.0342 33.7441 74.2548 33.7441Z" fill="#EE4423"/>
<path d="M74.3104 47.9332C70.9654 47.9332 67.5707 48.0326 64.1885 47.8399C63.5978 47.8399 62.6092 46.5466 62.6465 45.9062C62.6838 45.2657 63.6911 44.0968 64.3501 44.0408C66.8371 43.8232 69.324 44.0719 71.811 43.9351C74.7021 43.7859 75.1808 45.1414 74.3104 47.9332Z" fill="#EE4423"/>
<path d="M78.0591 27.0102H62.8887V26.177H78.0902L78.0591 27.0102Z" fill="#EE4423"/>
<path d="M62.9824 54.5986H78.2586C76.6607 56.2153 65.8984 56.5013 62.9824 54.5986Z" fill="#EE4423"/>
<path d="M74.4539 31.3005H63.2314V30.3305H74.4725L74.4539 31.3005Z" fill="#EE4423"/>
<path d="M62.4785 40.3536H74.7765C72.6502 42.2128 64.922 42.2439 62.4785 40.3536Z" fill="#EE4423"/>
<path d="M63.1816 50.5322H74.373V51.3654H63.1816C63.1879 51.0794 63.1816 50.8058 63.1816 50.5322Z" fill="#EE4423"/>
<path d="M57.5791 54.437C56.9574 55.2454 56.4537 55.8485 55.9688 56.4516C55.6331 55.7241 55.03 54.9904 55.0362 54.2629C55.0424 53.5354 55.7015 52.9199 56.0745 52.2421L57.5791 54.437Z" fill="#EE4423"/>
<path d="M54.4023 27.8496C55.0987 26.9667 55.5774 26.3449 56.0624 25.7293C56.4168 26.3511 57.0634 26.9729 57.0509 27.5947C57.0509 28.347 56.4603 29.087 56.1308 29.8331L54.4023 27.8496Z" fill="#EE4423"/>
<path d="M57.5546 40.9941L55.9069 42.9527C55.5836 42.3309 54.9743 41.6469 55.0178 41.0314C55.0738 40.3163 55.708 39.6511 56.0872 38.9609L57.5546 40.9941Z" fill="#EE4423"/>
<path d="M57.5794 34.4592C56.8768 35.311 56.3856 35.9141 55.8882 36.5111C55.5836 35.9515 54.9929 35.3732 55.0365 34.8447C55.0986 34.0861 55.6209 33.371 55.9504 32.6373L57.5794 34.4592Z" fill="#EE4423"/>
<path d="M54.7314 49.413L55.7946 45.7196C56.2174 46.1611 57.0381 46.6336 56.9821 47.044C56.8092 48.019 56.5234 48.9705 56.1304 49.8793L54.7314 49.413Z" fill="#EE4423"/>
<path d="M77.6303 8.67383C76.8905 10.676 66.5136 13.7476 62.665 13.3186C63.5106 11.59 71.5932 9.04068 77.6303 8.67383Z" fill="#EE4423"/>
</g>
<defs>
<clipPath id="clip0_901_1989">
<rect width="93" height="64" fill="white"/>
</clipPath>
</defs>
</svg>
