<svg width="52" height="64" viewBox="0 0 52 64" fill="none" xmlns="http://www.w3.org/2000/svg">
<g clip-path="url(#clip0_901_1980)">
<path d="M12.1976 7.55369C12.1149 7.2958 12.0566 7.03091 12.0234 6.76241C12.3349 -0.27582 12.7043 -0.525701 19.7877 0.348872C29.204 1.49415 38.6309 2.51449 48.0525 3.6077C50.9186 3.94087 51.7473 5.133 51.3936 8.01701C49.5463 23.0617 47.7094 38.1099 45.8832 53.1616C45.8304 53.5885 45.8251 54.0258 45.7459 54.4527C45.4715 55.9676 45.0545 57.5761 43.1068 57.3991C41.0747 57.2117 41.8189 55.4105 41.8137 54.2757C41.7345 41.0998 41.7345 27.9187 41.6976 14.7429C41.6976 9.22474 40.0771 7.66822 34.4242 7.66302C27.7472 7.66302 21.065 7.66302 14.3669 7.66302C13.7177 7.68905 13.0263 7.60054 12.1976 7.55369Z" fill="#58595B"/>
<path d="M0.00488281 37.133C0.00488281 29.418 0.00488281 21.703 0.00488281 13.988C0.00488281 10.8281 0.532712 10.2398 3.64158 10.2242C14.2719 10.1722 24.904 10.1722 35.5378 10.2242C38.4197 10.2242 39.0848 10.9634 39.0901 13.8683C39.0901 29.3885 39.0901 44.9052 39.0901 60.4184C39.0901 63.2296 38.33 63.9688 35.4375 63.9792C24.8072 64.0105 14.1716 63.9792 3.53601 63.9792C1.06581 63.9792 0.0946079 62.9381 0.115721 60.5174C0.189616 52.7087 0.115721 44.9 0.115721 37.1173L0.00488281 37.133ZM1.66752 37.0809H1.5778C1.5778 44.5356 1.62529 51.9903 1.5514 59.4398C1.525 61.6887 2.39063 62.4851 4.67082 62.4643C14.425 62.3654 24.2002 62.3238 33.928 62.4331C36.5671 62.4643 37.5172 61.5169 37.5066 58.9765C37.4292 44.2441 37.4045 29.5117 37.4327 14.7793C37.4327 12.697 36.6251 11.8641 34.4611 11.8745C24.6225 11.9317 14.7839 11.9369 4.94002 11.8328C2.38008 11.8328 1.5989 12.8427 1.63585 15.2426C1.73086 22.5255 1.66752 29.8032 1.66752 37.0809Z" fill="#EE4423"/>
<path d="M32.8886 31.974C32.8756 33.7347 32.5047 35.475 31.7977 37.0918C31.0908 38.7086 30.0622 40.1692 28.7728 41.387C27.4834 42.6048 25.9594 43.5552 24.291 44.1818C22.6227 44.8085 20.8438 45.0987 19.0597 45.0353C11.7335 44.9103 5.86413 38.7519 6.05942 31.3961C6.09789 29.6587 6.48297 27.9457 7.19266 26.355C7.90234 24.7643 8.92275 23.3271 10.1956 22.1253C11.4685 20.9236 12.9688 19.9809 14.6111 19.3511C16.2534 18.7212 18.0053 18.4166 19.7669 18.4545C21.5286 18.4925 23.2654 18.8722 24.8782 19.5722C26.491 20.2721 27.9482 21.2785 29.1667 22.5339C30.3851 23.7893 31.341 25.2691 31.9796 26.8889C32.6182 28.5086 32.9271 30.2365 32.8886 31.974ZM19.4186 36.4457V36.5342C20.288 36.4639 21.1619 36.4639 22.0313 36.5342C24.1426 36.8986 24.2798 35.5243 24.4487 34.0771C24.6651 32.2603 23.4828 32.151 22.1527 32.1562C20.4056 32.1562 18.6585 32.1562 16.9114 32.1249C15.4071 32.0833 14.3832 32.2759 14.6207 34.2072C14.8318 35.9564 15.2382 37.0496 17.3284 36.5446C18.0209 36.4513 18.7203 36.4182 19.4186 36.4457ZM19.6244 26.8202V26.7578C18.8355 26.8151 18.0434 26.8151 17.2545 26.7578C15.4124 26.4923 14.7632 27.2783 14.6471 29.0379C14.531 30.912 15.7027 30.9536 16.9906 30.9588C18.8327 30.9588 20.6853 30.9588 22.5169 30.9276C23.6992 30.9276 24.681 30.6673 24.4276 29.1837C24.2165 27.9447 24.2693 26.4298 22.2477 26.6641C21.3768 26.7421 20.5006 26.763 19.6244 26.8202ZM10.0867 31.7033C9.2633 32.3123 7.64817 33.2338 7.74846 33.4784C8.52359 35.1749 9.41595 36.8169 10.4192 38.3927C11.5171 37.6743 13.7762 38.2365 13.5228 36.0605C13.2906 34.2801 13.7815 31.6356 10.0867 31.7033ZM25.3935 36.6592C26.1853 37.086 27.3728 38.2834 28.4865 38.2209C31.0306 38.0803 30.8037 35.618 31.1679 33.9001C31.5849 31.9635 29.9275 32.2238 28.7505 32.1926C26.0005 32.1197 25.4516 32.7288 25.3935 36.6592ZM7.6376 30.4695C11.5646 31.4221 12.9158 31.0369 13.3011 28.9598C13.7603 26.3205 13.09 25.222 10.8151 24.8993C9.12079 24.6598 7.91735 26.7057 7.6376 30.4695ZM16.1619 38.2001L15.5127 39.0018L19.3236 43.4735L23.4564 39.0538L22.8705 38.2001H16.1619ZM22.6964 25.1127L23.43 24.3423C22.0577 22.843 20.6889 21.342 19.3236 19.8393L15.5391 24.3162L16.1197 25.1127H22.6964ZM30.9937 31.0265L31.7854 30.0686C30.8723 28.3455 30.107 26.5027 28.9088 25.0034C28.6607 24.6963 26.1219 25.3886 25.7999 26.1174C25.3143 27.2002 25.3777 29.4492 26.085 29.9177C27.3834 30.7766 29.3205 30.7089 30.9937 31.0265ZM16.088 43.5516C14.7896 38.5333 13.9398 38.0127 11.0262 40.2824L16.088 43.5516ZM11.0473 22.9159C14.0137 25.1387 15.1485 24.4204 15.8611 19.8757L11.0473 22.9159ZM28.2438 23.2074L23.3456 20.2505C24.681 24.9461 24.681 24.9461 28.2438 23.2074ZM23.5356 43.0883L27.9798 40.272C24.834 38.0335 24.4487 38.2625 23.5356 43.0883Z" fill="#EE4423"/>
<path d="M31.4798 53.6457H7.65918C9.80741 52.0631 28.9937 52.0162 31.4798 53.6457Z" fill="#EE4423"/>
</g>
<defs>
<clipPath id="clip0_901_1980">
<rect width="51.4943" height="64" fill="white"/>
</clipPath>
</defs>
</svg>
